# Extracted game/assets/models/barrier_roll.obj
v -0.84285 2.60314 0.27855
v -0.84285 2.23521 0.27855
v 0.01863 2.60314 0.29415
v -0.84285 2.60314 0.27855
v 0.01863 2.60314 0.29415
v 0.01588 2.60314 0.44685
v 0.01588 2.60314 0.44685
v 0.01863 2.60314 0.29415
v 0.84673 2.60314 0.30905
v 0.01588 2.60314 0.44685
v 0.84673 2.60314 0.30905
v 0.84398 2.60314 0.46175
v -0.84559 2.60314 0.43125
v 0.01588 2.60314 0.44685
v 0.01588 2.23521 0.44685
v 0.01588 2.23521 0.44685
v 0.01588 2.60314 0.44685
v 0.84398 2.60314 0.46175
v 0.01588 2.23521 0.44685
v 0.84398 2.60314 0.46175
v 0.84398 2.23521 0.46175
v -0.84559 2.23521 0.43125
v -0.84285 2.23521 0.27855
v -0.84559 2.60314 0.43125
v -0.84559 2.60314 0.43125
v -0.84285 2.23521 0.27855
v -0.84285 2.60314 0.27855
v 0.84673 2.23521 0.30905
v 0.84398 2.23521 0.46175
v 0.84673 2.60314 0.30905
v 0.84673 2.60314 0.30905
v 0.84398 2.23521 0.46175
v 0.84398 2.60314 0.46175
v -0.84285 2.23521 0.27855
v -0.84559 2.23521 0.43125
v 0.01588 2.23521 0.44685
v -0.84285 2.23521 0.27855
v 0.01588 2.23521 0.44685
v 0.01863 2.23521 0.29415
v 0.01863 2.23521 0.29415
v 0.01588 2.23521 0.44685
v 0.84398 2.23521 0.46175
v 0.01863 2.23521 0.29415
v 0.84398 2.23521 0.46175
v 0.84673 2.23521 0.30905
v -0.73651 1.27364 0.38155
v -0.73659 2.24280 0.38155
v 0.01844 2.24280 0.39515
v -0.73651 1.27364 0.38155
v 0.01844 2.24280 0.39515
v 0.01825 1.27364 0.39515
v 0.01825 1.27364 0.39515
v 0.01844 2.24280 0.39515
v 0.75990 2.24280 0.40855
v 0.01825 1.27364 0.39515
v 0.75990 2.24280 0.40855
v 0.75944 1.27364 0.40855
v -0.73493 2.24280 0.28915
v -0.73484 1.27364 0.28915
v 0.01979 1.27364 0.30275
v -0.73493 2.24280 0.28915
v 0.01979 1.27364 0.30275
v 0.01993 2.24280 0.30275
v 0.01993 2.24280 0.30275
v 0.01979 1.27364 0.30275
v 0.76111 1.27364 0.31615
v 0.01993 2.24280 0.30275
v 0.76111 1.27364 0.31615
v 0.76157 2.24280 0.31615
v 0.76111 1.27364 0.31615
v 0.75944 1.27364 0.40855
v 0.76157 2.24280 0.31615
v 0.76157 2.24280 0.31615
v 0.75944 1.27364 0.40855
v 0.75990 2.24280 0.40855
v -0.73651 1.27364 0.38155
v -0.73484 1.27364 0.28915
v -0.73659 2.24280 0.38155
v -0.73659 2.24280 0.38155
v -0.73484 1.27364 0.28915
v -0.73493 2.24280 0.28915
v -0.84327 1.28290 0.27855
v -0.84327 0.91498 0.27855
v 0.01893 1.28290 0.29415
v -0.84327 1.28290 0.27855
v 0.01893 1.28290 0.29415
v 0.01619 1.28290 0.44685
v 0.01619 1.28290 0.44685
v 0.01893 1.28290 0.29415
v 0.84567 1.28290 0.30905
v 0.01619 1.28290 0.44685
v 0.84567 1.28290 0.30905
v 0.84292 1.28290 0.46175
v -0.84603 1.28290 0.43125
v 0.01619 1.28290 0.44685
v 0.01619 0.91498 0.44685
v 0.01619 0.91498 0.44685
v 0.01619 1.28290 0.44685
v 0.84292 1.28290 0.46175
v 0.01619 0.91498 0.44685
v 0.84292 1.28290 0.46175
v 0.84292 0.91498 0.46175
v -0.84327 0.91498 0.27855
v -0.84603 0.91498 0.43125
v 0.01619 0.91498 0.44685
v -0.84327 0.91498 0.27855
v 0.01619 0.91498 0.44685
v 0.01893 0.91498 0.29415
v 0.01893 0.91498 0.29415
v 0.01619 0.91498 0.44685
v 0.84292 0.91498 0.46175
v 0.01893 0.91498 0.29415
v 0.84292 0.91498 0.46175
v 0.84567 0.91498 0.30905
v -0.84603 0.91498 0.43125
v -0.84327 0.91498 0.27855
v -0.84603 1.28290 0.43125
v -0.84603 1.28290 0.43125
v -0.84327 0.91498 0.27855
v -0.84327 1.28290 0.27855
v 0.84567 0.91498 0.30905
v 0.84292 0.91498 0.46175
v 0.84567 1.28290 0.30905
v 0.84567 1.28290 0.30905
v 0.84292 0.91498 0.46175
v 0.84292 1.28290 0.46175
v -0.71419 0.14095 0.18865
v -0.51033 0.13709 0.18845
v -0.65329 1.42151 0.18305
v -0.65329 1.42151 0.18305
v -0.51033 0.13709 0.18845
v -0.44964 1.41378 0.18665
v -0.51215 0.13533 0.28585
v -0.71608 0.13533 0.28215
v -0.45144 1.41378 0.28695
v -0.45144 1.41378 0.28695
v -0.71608 0.13533 0.28215
v -0.65508 1.42151 0.28325
v -0.45144 1.41378 0.28695
v -0.65508 1.42151 0.28325
v -0.44964 1.41378 0.18665
v -0.44964 1.41378 0.18665
v -0.65508 1.42151 0.28325
v -0.65329 1.42151 0.18305
v -0.51215 0.13533 0.28585
v -0.45144 1.41378 0.28695
v -0.51033 0.13709 0.18845
v -0.51033 0.13709 0.18845
v -0.45144 1.41378 0.28695
v -0.44964 1.41378 0.18665
v -0.64941 0.90122 0.19315
v -0.50679 0.89847 0.19295
v -0.64248 0.13533 -0.50775
v -0.64248 0.13533 -0.50775
v -0.50679 0.89847 0.19295
v -0.49989 0.13533 -0.50525
v -0.49989 0.13533 -0.50525
v -0.50679 0.89847 0.19295
v -0.49733 0.13533 -0.64695
v -0.49733 0.13533 -0.64695
v -0.50679 0.89847 0.19295
v -0.50684 1.04363 0.19635
v 0.48728 0.13675 0.20615
v 0.69098 0.14165 0.21465
v 0.40789 1.46713 0.20215
v 0.40789 1.46713 0.20215
v 0.69098 0.14165 0.21465
v 0.61144 1.47692 0.20585
v 0.68960 0.13533 0.30745
v 0.48558 0.13533 0.30385
v 0.60963 1.47692 0.30605
v 0.60963 1.47692 0.30605
v 0.48558 0.13533 0.30385
v 0.40609 1.46713 0.30235
v 0.60963 1.47692 0.30605
v 0.40609 1.46713 0.30235
v 0.61144 1.47692 0.20585
v 0.61144 1.47692 0.20585
v 0.40609 1.46713 0.30235
v 0.40789 1.46713 0.20215
v 0.68960 0.13533 0.30745
v 0.60963 1.47692 0.30605
v 0.69098 0.14165 0.21465
v 0.69098 0.14165 0.21465
v 0.60963 1.47692 0.30605
v 0.61144 1.47692 0.20585
v 0.46799 0.94164 0.21335
v 0.61059 0.93889 0.21315
v 0.49293 0.13533 -0.48735
v 0.49293 0.13533 -0.48735
v 0.61059 0.93889 0.21315
v 0.63551 0.13533 -0.48475
v 0.63551 0.13533 -0.48475
v 0.61059 0.93889 0.21315
v 0.63807 0.13533 -0.62645
v 0.63807 0.13533 -0.62645
v 0.61059 0.93889 0.21315
v 0.61055 1.08404 0.21655
v -0.71608 0.13533 0.28215
v -0.71419 0.14095 0.18865
v -0.65508 1.42151 0.28325
v -0.65508 1.42151 0.28325
v -0.71419 0.14095 0.18865
v -0.65329 1.42151 0.18305
v -0.63992 0.13533 -0.64955
v -0.49733 0.13533 -0.64695
v -0.64943 1.04363 0.19385
v -0.64943 1.04363 0.19385
v -0.49733 0.13533 -0.64695
v -0.50684 1.04363 0.19635
v -0.64248 0.13533 -0.50775
v -0.63992 0.13533 -0.64955
v -0.64941 0.90122 0.19315
v -0.64941 0.90122 0.19315
v -0.63992 0.13533 -0.64955
v -0.64943 1.04363 0.19385
v 0.48558 0.13533 0.30385
v 0.48728 0.13675 0.20615
v 0.40609 1.46713 0.30235
v 0.40609 1.46713 0.30235
v 0.48728 0.13675 0.20615
v 0.40789 1.46713 0.20215
v 0.49550 0.13533 -0.62905
v 0.63807 0.13533 -0.62645
v 0.46797 1.08404 0.21395
v 0.46797 1.08404 0.21395
v 0.63807 0.13533 -0.62645
v 0.61055 1.08404 0.21655
v 0.49293 0.13533 -0.48735
v 0.49550 0.13533 -0.62905
v 0.46799 0.94164 0.21335
v 0.46799 0.94164 0.21335
v 0.49550 0.13533 -0.62905
v 0.46797 1.08404 0.21395
v -0.75051 0.14860 -0.71975
v 0.75772 0.14860 -0.69255
v -0.77347 0.14860 0.55335
v -0.77347 0.14860 0.55335
v 0.75772 0.14860 -0.69255
v 0.73475 0.14860 0.58055
v -0.84327 1.28290 0.27855
v 0.01619 1.28290 0.44685
v -0.84603 1.28290 0.43125
v -0.84603 1.28290 0.43125
v 0.01619 0.91498 0.44685
v -0.84603 0.91498 0.43125
v -0.84285 2.60314 0.27855
v 0.01588 2.60314 0.44685
v -0.84559 2.60314 0.43125
v -0.84559 2.60314 0.43125
v 0.01588 2.23521 0.44685
v -0.84559 2.23521 0.43125
v -0.84285 2.23521 0.27855
v 0.01863 2.23521 0.29415
v 0.01863 2.60314 0.29415
v 0.01863 2.60314 0.29415
v 0.01863 2.23521 0.29415
v 0.84673 2.23521 0.30905
v 0.01863 2.60314 0.29415
v 0.84673 2.23521 0.30905
v 0.84673 2.60314 0.30905
v -0.84327 0.91498 0.27855
v 0.01893 0.91498 0.29415
v 0.01893 1.28290 0.29415
v 0.01893 1.28290 0.29415
v 0.01893 0.91498 0.29415
v 0.84567 0.91498 0.30905
v 0.01893 1.28290 0.29415
v 0.84567 0.91498 0.30905
v 0.84567 1.28290 0.30905
v -0.75051 0.14860 -0.71975
v 0.83098 0.00000 -0.69115
v 0.75772 0.14860 -0.69255
v 0.75772 0.14860 -0.69255
v 0.83098 0.00000 -0.69115
v 0.80802 0.00000 0.58185
v 0.75772 0.14860 -0.69255
v 0.80802 0.00000 0.58185
v 0.73475 0.14860 0.58055
v 0.73475 0.14860 0.58055
v 0.80802 0.00000 0.58185
v -0.84673 0.00000 0.55205
v 0.73475 0.14860 0.58055
v -0.84673 0.00000 0.55205
v -0.77347 0.14860 0.55335
v -0.77347 0.14860 0.55335
v -0.84673 0.00000 0.55205
v -0.82375 0.00000 -0.72105
v -0.77347 0.14860 0.55335
v -0.82375 0.00000 -0.72105
v -0.75051 0.14860 -0.71975
v -0.75051 0.14860 -0.71975
v -0.82375 0.00000 -0.72105
v 0.83098 0.00000 -0.69115
v -0.63272 1.27834 0.62835
v -0.64586 1.32131 0.49035
v -0.51495 1.27316 0.63045
v -0.51495 1.27316 0.63045
v -0.64586 1.32131 0.49035
v -0.49312 1.31459 0.49305
v -0.51495 1.27316 0.63045
v -0.49312 1.31459 0.49305
v -0.43533 1.18620 0.63195
v -0.43533 1.18620 0.63195
v -0.49312 1.31459 0.49305
v -0.38988 1.20182 0.49495
v -0.43533 1.18620 0.63195
v -0.38988 1.20182 0.49495
v -0.44050 1.06841 0.63185
v -0.44050 1.06841 0.63185
v -0.38988 1.20182 0.49495
v -0.39661 1.04907 0.49485
v -0.44050 1.06841 0.63185
v -0.39661 1.04907 0.49485
v -0.52744 0.98878 0.63025
v -0.52744 0.98878 0.63025
v -0.39661 1.04907 0.49485
v -0.50935 0.94582 0.49285
v -0.52744 0.98878 0.63025
v -0.50935 0.94582 0.49285
v -0.64523 0.99396 0.62815
v -0.64523 0.99396 0.62815
v -0.50935 0.94582 0.49285
v -0.66207 0.95254 0.49005
v -0.64523 0.99396 0.62815
v -0.66207 0.95254 0.49005
v -0.72484 1.08092 0.62665
v -0.72484 1.08092 0.62665
v -0.66207 0.95254 0.49005
v -0.76534 1.06530 0.48815
v -0.72484 1.08092 0.62665
v -0.76534 1.06530 0.48815
v -0.71966 1.19871 0.62675
v -0.71966 1.19871 0.62675
v -0.76534 1.06530 0.48815
v -0.75860 1.21805 0.48835
v -0.71966 1.19871 0.62675
v -0.75860 1.21805 0.48835
v -0.63272 1.27834 0.62835
v -0.63272 1.27834 0.62835
v -0.75860 1.21805 0.48835
v -0.64586 1.32131 0.49035
v 0.42786 1.19241 0.64925
v 0.39163 1.20788 0.51765
v 0.51247 1.27901 0.65075
v 0.51247 1.27901 0.65075
v 0.39163 1.20788 0.51765
v 0.49847 1.31723 0.51965
v 0.51247 1.27901 0.65075
v 0.49847 1.31723 0.51965
v 0.63350 1.28040 0.65295
v 0.63350 1.28040 0.65295
v 0.49847 1.31723 0.51965
v 0.65134 1.31899 0.52235
v 0.63350 1.28040 0.65295
v 0.65134 1.31899 0.52235
v 0.72011 1.19578 0.65445
v 0.72011 1.19578 0.65445
v 0.65134 1.31899 0.52235
v 0.76069 1.21213 0.52435
v 0.72011 1.19578 0.65445
v 0.76069 1.21213 0.52435
v 0.72149 1.07471 0.65455
v 0.72149 1.07471 0.65455
v 0.76069 1.21213 0.52435
v 0.76243 1.05924 0.52435
v 0.72149 1.07471 0.65455
v 0.76243 1.05924 0.52435
v 0.63687 0.98812 0.65295
v 0.63687 0.98812 0.65295
v 0.76243 1.05924 0.52435
v 0.65559 0.94989 0.52245
v 0.63687 0.98812 0.65295
v 0.65559 0.94989 0.52245
v 0.51582 0.98672 0.65085
v 0.51582 0.98672 0.65085
v 0.65559 0.94989 0.52245
v 0.50273 0.94813 0.51965
v 0.51582 0.98672 0.65085
v 0.50273 0.94813 0.51965
v 0.42924 1.07135 0.64925
v 0.42924 1.07135 0.64925
v 0.50273 0.94813 0.51965
v 0.39339 1.05499 0.51775
v 0.42924 1.07135 0.64925
v 0.39339 1.05499 0.51775
v 0.42786 1.19241 0.64925
v 0.42786 1.19241 0.64925
v 0.39339 1.05499 0.51775
v 0.39163 1.20788 0.51765
v -0.60549 2.58700 0.62885
v -0.61862 2.62996 0.49085
v -0.48770 2.58181 0.63095
v -0.48770 2.58181 0.63095
v -0.61862 2.62996 0.49085
v -0.46589 2.62324 0.49355
v -0.48770 2.58181 0.63095
v -0.46589 2.62324 0.49355
v -0.40809 2.49485 0.63235
v -0.40809 2.49485 0.63235
v -0.46589 2.62324 0.49355
v -0.36266 2.51048 0.49545
v -0.40809 2.49485 0.63235
v -0.36266 2.51048 0.49545
v -0.41328 2.37706 0.63225
v -0.41328 2.37706 0.63225
v -0.36266 2.51048 0.49545
v -0.36937 2.35773 0.49535
v -0.41328 2.37706 0.63225
v -0.36937 2.35773 0.49535
v -0.50022 2.29743 0.63075
v -0.50022 2.29743 0.63075
v -0.36937 2.35773 0.49535
v -0.48212 2.25447 0.49325
v -0.50022 2.29743 0.63075
v -0.48212 2.25447 0.49325
v -0.61800 2.30261 0.62865
v -0.61800 2.30261 0.62865
v -0.48212 2.25447 0.49325
v -0.63484 2.26119 0.49055
v -0.61800 2.30261 0.62865
v -0.63484 2.26119 0.49055
v -0.69760 2.38957 0.62715
v -0.69760 2.38957 0.62715
v -0.63484 2.26119 0.49055
v -0.73809 2.37395 0.48865
v -0.69760 2.38957 0.62715
v -0.73809 2.37395 0.48865
v -0.69243 2.50737 0.62725
v -0.69243 2.50737 0.62725
v -0.73809 2.37395 0.48865
v -0.73137 2.52670 0.48875
v -0.69243 2.50737 0.62725
v -0.73137 2.52670 0.48875
v -0.60549 2.58700 0.62885
v -0.60549 2.58700 0.62885
v -0.73137 2.52670 0.48875
v -0.61862 2.62996 0.49085
v 0.43601 2.50107 0.64935
v 0.39979 2.51653 0.51785
v 0.52061 2.58766 0.65085
v 0.52061 2.58766 0.65085
v 0.39979 2.51653 0.51785
v 0.50663 2.62589 0.51975
v 0.52061 2.58766 0.65085
v 0.50663 2.62589 0.51975
v 0.64167 2.58905 0.65305
v 0.64167 2.58905 0.65305
v 0.50663 2.62589 0.51975
v 0.65950 2.62765 0.52255
v 0.64167 2.58905 0.65305
v 0.65950 2.62765 0.52255
v 0.72826 2.50443 0.65465
v 0.72826 2.50443 0.65465
v 0.65950 2.62765 0.52255
v 0.76882 2.52078 0.52445
v 0.72826 2.50443 0.65465
v 0.76882 2.52078 0.52445
v 0.72964 2.38336 0.65465
v 0.72964 2.38336 0.65465
v 0.76882 2.52078 0.52445
v 0.77059 2.36789 0.52455
v 0.72964 2.38336 0.65465
v 0.77059 2.36789 0.52455
v 0.64503 2.29677 0.65315
v 0.64503 2.29677 0.65315
v 0.77059 2.36789 0.52455
v 0.66376 2.25854 0.52255
v 0.64503 2.29677 0.65315
v 0.66376 2.25854 0.52255
v 0.52398 2.29537 0.65095
v 0.52398 2.29537 0.65095
v 0.66376 2.25854 0.52255
v 0.51086 2.25678 0.51985
v 0.52398 2.29537 0.65095
v 0.51086 2.25678 0.51985
v 0.43740 2.38000 0.64945
v 0.43740 2.38000 0.64945
v 0.51086 2.25678 0.51985
v 0.40155 2.36365 0.51785
v 0.43740 2.38000 0.64945
v 0.40155 2.36365 0.51785
v 0.43601 2.50107 0.64935
v 0.43601 2.50107 0.64935
v 0.40155 2.36365 0.51785
v 0.39979 2.51653 0.51785
v 0.42924 1.07135 0.64925
v 0.42786 1.19241 0.64925
v 0.57342 1.13356 0.72095
v 0.57342 1.13356 0.72095
v 0.42786 1.19241 0.64925
v 0.51247 1.27901 0.65075
v 0.57342 1.13356 0.72095
v 0.51247 1.27901 0.65075
v 0.63350 1.28040 0.65295
v 0.63350 1.28040 0.65295
v 0.72011 1.19578 0.65445
v 0.57342 1.13356 0.72095
v 0.57342 1.13356 0.72095
v 0.72011 1.19578 0.65445
v 0.72149 1.07471 0.65455
v 0.57342 1.13356 0.72095
v 0.72149 1.07471 0.65455
v 0.63687 0.98812 0.65295
v 0.63687 0.98812 0.65295
v 0.51582 0.98672 0.65085
v 0.57342 1.13356 0.72095
v 0.57342 1.13356 0.72095
v 0.51582 0.98672 0.65085
v 0.42924 1.07135 0.64925
v -0.71966 1.19871 0.62675
v -0.63272 1.27834 0.62835
v -0.58122 1.13356 0.69145
v -0.58122 1.13356 0.69145
v -0.63272 1.27834 0.62835
v -0.51495 1.27316 0.63045
v -0.58122 1.13356 0.69145
v -0.51495 1.27316 0.63045
v -0.43533 1.18620 0.63195
v -0.43533 1.18620 0.63195
v -0.44050 1.06841 0.63185
v -0.58122 1.13356 0.69145
v -0.58122 1.13356 0.69145
v -0.44050 1.06841 0.63185
v -0.52744 0.98878 0.63025
v -0.58122 1.13356 0.69145
v -0.52744 0.98878 0.63025
v -0.64523 0.99396 0.62815
v -0.64523 0.99396 0.62815
v -0.72484 1.08092 0.62665
v -0.58122 1.13356 0.69145
v -0.58122 1.13356 0.69145
v -0.72484 1.08092 0.62665
v -0.71966 1.19871 0.62675
v 0.43740 2.38000 0.64945
v 0.43601 2.50107 0.64935
v 0.58159 2.44221 0.72105
v 0.58159 2.44221 0.72105
v 0.43601 2.50107 0.64935
v 0.52061 2.58766 0.65085
v 0.58159 2.44221 0.72105
v 0.52061 2.58766 0.65085
v 0.64167 2.58905 0.65305
v 0.64167 2.58905 0.65305
v 0.72826 2.50443 0.65465
v 0.58159 2.44221 0.72105
v 0.58159 2.44221 0.72105
v 0.72826 2.50443 0.65465
v 0.72964 2.38336 0.65465
v 0.58159 2.44221 0.72105
v 0.72964 2.38336 0.65465
v 0.64503 2.29677 0.65315
v 0.64503 2.29677 0.65315
v 0.52398 2.29537 0.65095
v 0.58159 2.44221 0.72105
v 0.58159 2.44221 0.72105
v 0.52398 2.29537 0.65095
v 0.43740 2.38000 0.64945
v -0.69243 2.50737 0.62725
v -0.60549 2.58700 0.62885
v -0.55396 2.44221 0.69195
v -0.55396 2.44221 0.69195
v -0.60549 2.58700 0.62885
v -0.48770 2.58181 0.63095
v -0.55396 2.44221 0.69195
v -0.48770 2.58181 0.63095
v -0.40809 2.49485 0.63235
v -0.40809 2.49485 0.63235
v -0.41328 2.37706 0.63225
v -0.55396 2.44221 0.69195
v -0.55396 2.44221 0.69195
v -0.41328 2.37706 0.63225
v -0.50022 2.29743 0.63075
v -0.55396 2.44221 0.69195
v -0.50022 2.29743 0.63075
v -0.61800 2.30261 0.62865
v -0.61800 2.30261 0.62865
v -0.69760 2.38957 0.62715
v -0.55396 2.44221 0.69195
v -0.55396 2.44221 0.69195
v -0.69760 2.38957 0.62715
v -0.69243 2.50737 0.62725
vt 0.99966 0.71487
vt 0.99966 0.75186
vt 0.90998 0.71487
vt 0.99966 0.71487
vt 0.90998 0.71487
vt 0.90998 0.68816
vt 0.90998 0.68816
vt 0.90998 0.71487
vt 0.99966 0.71487
vt 0.90998 0.68816
vt 0.99966 0.71487
vt 0.99966 0.68816
vt 0.99966 0.71487
vt 0.90998 0.71487
vt 0.90998 0.75186
vt 0.90998 0.75186
vt 0.90998 0.71487
vt 0.99966 0.71487
vt 0.90998 0.75186
vt 0.99966 0.71487
vt 0.99966 0.75186
vt 0.91371 0.86969
vt 0.91371 0.85317
vt 0.94229 0.86969
vt 0.94229 0.86969
vt 0.91371 0.85317
vt 0.94229 0.85317
vt 0.91376 0.86969
vt 0.91376 0.85310
vt 0.94229 0.86969
vt 0.94229 0.86969
vt 0.91376 0.85310
vt 0.94229 0.85310
vt 0.99966 0.71487
vt 0.99966 0.68816
vt 0.90998 0.68816
vt 0.99966 0.71487
vt 0.90998 0.68816
vt 0.90998 0.71487
vt 0.90998 0.71487
vt 0.90998 0.68816
vt 0.99966 0.68816
vt 0.90998 0.71487
vt 0.99966 0.68816
vt 0.99966 0.71487
vt 0.99941 0.56436
vt 0.99941 0.68554
vt 0.91244 0.68554
vt 0.99941 0.56436
vt 0.91244 0.68554
vt 0.91244 0.56436
vt 0.91244 0.56436
vt 0.91244 0.68554
vt 0.99941 0.68554
vt 0.91244 0.56436
vt 0.99941 0.68554
vt 0.99941 0.56436
vt 0.99941 0.68554
vt 0.99941 0.56500
vt 0.91244 0.56500
vt 0.99941 0.68554
vt 0.91244 0.56500
vt 0.91244 0.68554
vt 0.91244 0.68554
vt 0.91244 0.56500
vt 0.99941 0.56500
vt 0.91244 0.68554
vt 0.99941 0.56500
vt 0.99941 0.68554
vt 0.91471 0.94048
vt 0.92593 0.94048
vt 0.91471 0.87195
vt 0.91471 0.87195
vt 0.92593 0.94048
vt 0.92593 0.87195
vt 0.92634 0.94048
vt 0.91513 0.94048
vt 0.92634 0.87195
vt 0.92634 0.87195
vt 0.91513 0.94048
vt 0.91513 0.87195
vt 0.99966 0.71487
vt 0.99966 0.75186
vt 0.90998 0.71487
vt 0.99966 0.71487
vt 0.90998 0.71487
vt 0.90998 0.68816
vt 0.90998 0.68816
vt 0.90998 0.71487
vt 0.99966 0.71487
vt 0.90998 0.68816
vt 0.99966 0.71487
vt 0.99966 0.68816
vt 0.99966 0.71487
vt 0.90998 0.71487
vt 0.90998 0.75186
vt 0.90998 0.75186
vt 0.90998 0.71487
vt 0.99966 0.71487
vt 0.90998 0.75186
vt 0.99966 0.71487
vt 0.99966 0.75186
vt 0.99966 0.71487
vt 0.99966 0.68816
vt 0.90998 0.68816
vt 0.99966 0.71487
vt 0.90998 0.68816
vt 0.90998 0.71487
vt 0.90998 0.71487
vt 0.90998 0.68816
vt 0.99966 0.68816
vt 0.90998 0.71487
vt 0.99966 0.68816
vt 0.99966 0.71487
vt 0.91371 0.86969
vt 0.91371 0.85317
vt 0.94229 0.86969
vt 0.94229 0.86969
vt 0.91371 0.85317
vt 0.94229 0.85317
vt 0.91376 0.86969
vt 0.91376 0.85310
vt 0.94229 0.86969
vt 0.94229 0.86969
vt 0.91376 0.85310
vt 0.94229 0.85310
vt 0.94581 0.99834
vt 0.96110 0.99833
vt 0.94570 0.87265
vt 0.94570 0.87265
vt 0.96110 0.99833
vt 0.96099 0.87264
vt 0.96203 0.99790
vt 0.94488 0.99858
vt 0.96130 0.87167
vt 0.96130 0.87167
vt 0.94488 0.99858
vt 0.94416 0.87167
vt 0.96130 0.87167
vt 0.94416 0.87167
vt 0.96123 0.86359
vt 0.96123 0.86359
vt 0.94416 0.87167
vt 0.94410 0.86359
vt 0.96203 0.99790
vt 0.96231 0.85021
vt 0.97305 0.99809
vt 0.97305 0.99809
vt 0.96231 0.85021
vt 0.97305 0.85021
vt 0.91536 0.94208
vt 0.92647 0.94229
vt 0.91536 0.99772
vt 0.91536 0.99772
vt 0.92647 0.94229
vt 0.92647 0.99772
vt 0.97305 0.85021
vt 0.97305 0.99809
vt 0.96231 0.85021
vt 0.96231 0.85021
vt 0.97305 0.99809
vt 0.96231 0.99809
vt 0.96110 0.99833
vt 0.94581 0.99834
vt 0.96099 0.87264
vt 0.96099 0.87264
vt 0.94581 0.99834
vt 0.94570 0.87265
vt 0.94488 0.99858
vt 0.96203 0.99790
vt 0.94416 0.87167
vt 0.94416 0.87167
vt 0.96203 0.99790
vt 0.96129 0.87167
vt 0.94416 0.87167
vt 0.96129 0.87167
vt 0.94410 0.86359
vt 0.94410 0.86359
vt 0.96129 0.87167
vt 0.96123 0.86359
vt 0.96231 0.99809
vt 0.96231 0.85021
vt 0.97305 0.99809
vt 0.97305 0.99809
vt 0.96231 0.85021
vt 0.97305 0.85021
vt 0.91542 0.94262
vt 0.92653 0.94284
vt 0.91542 0.99772
vt 0.91542 0.99772
vt 0.92653 0.94284
vt 0.92653 0.99772
vt 0.97305 0.85021
vt 0.97305 0.99809
vt 0.96231 0.85021
vt 0.96231 0.85021
vt 0.97305 0.99809
vt 0.96231 0.99809
vt 0.97305 0.99809
vt 0.96231 0.99809
vt 0.97305 0.85021
vt 0.97305 0.85021
vt 0.96231 0.99809
vt 0.96231 0.85021
vt 0.92841 0.87245
vt 0.94382 0.87245
vt 0.92841 0.92190
vt 0.92841 0.92190
vt 0.94382 0.87245
vt 0.94382 0.92190
vt 0.97305 0.99809
vt 0.96231 0.99809
vt 0.97305 0.85021
vt 0.97305 0.85021
vt 0.96231 0.99809
vt 0.96231 0.85021
vt 0.97305 0.99809
vt 0.96231 0.99809
vt 0.97305 0.85021
vt 0.97305 0.85021
vt 0.96231 0.99809
vt 0.96231 0.85021
vt 0.94382 0.87245
vt 0.92841 0.87245
vt 0.94382 0.92190
vt 0.94382 0.92190
vt 0.92841 0.87245
vt 0.92841 0.92190
vt 0.97305 0.99809
vt 0.96231 0.99809
vt 0.97305 0.85021
vt 0.97305 0.85021
vt 0.96231 0.99809
vt 0.96231 0.85021
vt 0.82886 0.64440
vt 0.82886 0.55623
vt 0.90218 0.64440
vt 0.90218 0.64440
vt 0.82886 0.55623
vt 0.90218 0.55623
vt 0.99966 0.71487
vt 0.90998 0.68816
vt 0.99966 0.68816
vt 0.99966 0.71487
vt 0.90998 0.75186
vt 0.99966 0.75186
vt 0.99966 0.71487
vt 0.90998 0.68816
vt 0.99966 0.68816
vt 0.99966 0.71487
vt 0.90998 0.75186
vt 0.99966 0.75186
vt 0.99966 0.75186
vt 0.90998 0.75186
vt 0.90998 0.71487
vt 0.90998 0.71487
vt 0.90998 0.75186
vt 0.99966 0.75186
vt 0.90998 0.71487
vt 0.99966 0.75186
vt 0.99966 0.71487
vt 0.99966 0.75186
vt 0.90998 0.75186
vt 0.90998 0.71487
vt 0.90998 0.71487
vt 0.90998 0.75186
vt 0.99966 0.75186
vt 0.90998 0.71487
vt 0.99966 0.75186
vt 0.99966 0.71487
vt 0.97626 0.84882
vt 0.99732 0.99811
vt 0.97530 0.99811
vt 0.97530 0.99811
vt 0.99732 0.99811
vt 0.99732 0.84882
vt 0.97530 0.99811
vt 0.99732 0.84882
vt 0.97626 0.84882
vt 0.97626 0.84882
vt 0.99732 0.84882
vt 0.99732 0.99811
vt 0.97626 0.84882
vt 0.99732 0.99811
vt 0.97530 0.99811
vt 0.97530 0.99811
vt 0.99732 0.99811
vt 0.99732 0.84882
vt 0.97530 0.99811
vt 0.99732 0.84882
vt 0.97626 0.84882
vt 0.97626 0.84882
vt 0.99732 0.84882
vt 0.99732 0.99811
vt 0.79266 0.68909
vt 0.79876 0.67373
vt 0.79266 0.68909
vt 0.79266 0.68909
vt 0.79876 0.67373
vt 0.79876 0.67373
vt 0.79266 0.68909
vt 0.79876 0.67373
vt 0.80603 0.69959
vt 0.80603 0.69959
vt 0.79876 0.67373
vt 0.81759 0.69308
vt 0.80603 0.69959
vt 0.81759 0.69308
vt 0.80534 0.71975
vt 0.80534 0.71975
vt 0.81759 0.69308
vt 0.81759 0.72644
vt 0.80534 0.71975
vt 0.81759 0.72644
vt 0.79306 0.73040
vt 0.79306 0.73040
vt 0.81759 0.72644
vt 0.79876 0.74585
vt 0.79306 0.73040
vt 0.79876 0.74585
vt 0.79306 0.73040
vt 0.79306 0.73040
vt 0.79876 0.74585
vt 0.79876 0.74585
vt 0.79306 0.73040
vt 0.79876 0.74585
vt 0.80534 0.71975
vt 0.80534 0.71975
vt 0.79876 0.74585
vt 0.81759 0.72644
vt 0.80534 0.71975
vt 0.81759 0.72644
vt 0.80603 0.69959
vt 0.80603 0.69959
vt 0.81759 0.72644
vt 0.81759 0.69308
vt 0.80603 0.69959
vt 0.81759 0.69308
vt 0.79266 0.68909
vt 0.79266 0.68909
vt 0.81759 0.69308
vt 0.79876 0.67373
vt 0.80603 0.69959
vt 0.81759 0.69308
vt 0.79266 0.68909
vt 0.79266 0.68909
vt 0.81759 0.69308
vt 0.79876 0.67373
vt 0.79266 0.68909
vt 0.79876 0.67373
vt 0.79266 0.68909
vt 0.79266 0.68909
vt 0.79876 0.67373
vt 0.79876 0.67373
vt 0.79266 0.68909
vt 0.79876 0.67373
vt 0.80603 0.69959
vt 0.80603 0.69959
vt 0.79876 0.67373
vt 0.81759 0.69308
vt 0.80603 0.69959
vt 0.81759 0.69308
vt 0.80534 0.71975
vt 0.80534 0.71975
vt 0.81759 0.69308
vt 0.81759 0.72644
vt 0.80534 0.71975
vt 0.81759 0.72644
vt 0.79306 0.73040
vt 0.79306 0.73040
vt 0.81759 0.72644
vt 0.79876 0.74585
vt 0.79306 0.73040
vt 0.79876 0.74585
vt 0.79306 0.73040
vt 0.79306 0.73040
vt 0.79876 0.74585
vt 0.79876 0.74585
vt 0.79306 0.73040
vt 0.79876 0.74585
vt 0.80534 0.71975
vt 0.80534 0.71975
vt 0.79876 0.74585
vt 0.81759 0.72644
vt 0.80534 0.71975
vt 0.81759 0.72644
vt 0.80603 0.69959
vt 0.80603 0.69959
vt 0.81759 0.72644
vt 0.81759 0.69308
vt 0.79266 0.68909
vt 0.79876 0.67373
vt 0.79266 0.68909
vt 0.79266 0.68909
vt 0.79876 0.67373
vt 0.79876 0.67373
vt 0.79266 0.68909
vt 0.79876 0.67373
vt 0.80603 0.69959
vt 0.80603 0.69959
vt 0.79876 0.67373
vt 0.81759 0.69308
vt 0.80603 0.69959
vt 0.81759 0.69308
vt 0.80534 0.71975
vt 0.80534 0.71975
vt 0.81759 0.69308
vt 0.81759 0.72644
vt 0.80534 0.71975
vt 0.81759 0.72644
vt 0.79306 0.73040
vt 0.79306 0.73040
vt 0.81759 0.72644
vt 0.79876 0.74585
vt 0.79306 0.73040
vt 0.79876 0.74585
vt 0.79306 0.73040
vt 0.79306 0.73040
vt 0.79876 0.74585
vt 0.79876 0.74585
vt 0.79306 0.73040
vt 0.79876 0.74585
vt 0.80534 0.71975
vt 0.80534 0.71975
vt 0.79876 0.74585
vt 0.81759 0.72644
vt 0.80534 0.71975
vt 0.81759 0.72644
vt 0.80603 0.69959
vt 0.80603 0.69959
vt 0.81759 0.72644
vt 0.81759 0.69308
vt 0.80603 0.69959
vt 0.81759 0.69308
vt 0.79266 0.68909
vt 0.79266 0.68909
vt 0.81759 0.69308
vt 0.79876 0.67373
vt 0.80603 0.69959
vt 0.81759 0.69308
vt 0.79266 0.68909
vt 0.79266 0.68909
vt 0.81759 0.69308
vt 0.79876 0.67373
vt 0.79266 0.68909
vt 0.79876 0.67373
vt 0.79266 0.68909
vt 0.79266 0.68909
vt 0.79876 0.67373
vt 0.79876 0.67373
vt 0.79266 0.68909
vt 0.79876 0.67373
vt 0.80603 0.69959
vt 0.80603 0.69959
vt 0.79876 0.67373
vt 0.81759 0.69308
vt 0.80603 0.69959
vt 0.81759 0.69308
vt 0.80534 0.71975
vt 0.80534 0.71975
vt 0.81759 0.69308
vt 0.81759 0.72644
vt 0.80534 0.71975
vt 0.81759 0.72644
vt 0.79306 0.73040
vt 0.79306 0.73040
vt 0.81759 0.72644
vt 0.79876 0.74585
vt 0.79306 0.73040
vt 0.79876 0.74585
vt 0.79306 0.73040
vt 0.79306 0.73040
vt 0.79876 0.74585
vt 0.79876 0.74585
vt 0.79306 0.73040
vt 0.79876 0.74585
vt 0.80534 0.71975
vt 0.80534 0.71975
vt 0.79876 0.74585
vt 0.81759 0.72644
vt 0.80534 0.71975
vt 0.81759 0.72644
vt 0.80603 0.69959
vt 0.80603 0.69959
vt 0.81759 0.72644
vt 0.81759 0.69308
vt 0.80534 0.71975
vt 0.80603 0.69959
vt 0.78504 0.70965
vt 0.78504 0.70965
vt 0.80603 0.69959
vt 0.79266 0.68909
vt 0.78504 0.70965
vt 0.79266 0.68909
vt 0.79266 0.68909
vt 0.79266 0.68909
vt 0.80603 0.69959
vt 0.78504 0.70965
vt 0.78504 0.70965
vt 0.80603 0.69959
vt 0.80534 0.71975
vt 0.78504 0.70965
vt 0.80534 0.71975
vt 0.79306 0.73040
vt 0.79306 0.73040
vt 0.79306 0.73040
vt 0.78504 0.70965
vt 0.78504 0.70965
vt 0.79306 0.73040
vt 0.80534 0.71975
vt 0.80603 0.69959
vt 0.79266 0.68909
vt 0.78504 0.70965
vt 0.78504 0.70965
vt 0.79266 0.68909
vt 0.79266 0.68909
vt 0.78504 0.70965
vt 0.79266 0.68909
vt 0.80603 0.69959
vt 0.80603 0.69959
vt 0.80534 0.71975
vt 0.78504 0.70965
vt 0.78504 0.70965
vt 0.80534 0.71975
vt 0.79306 0.73040
vt 0.78504 0.70965
vt 0.79306 0.73040
vt 0.79306 0.73040
vt 0.79306 0.73040
vt 0.80534 0.71975
vt 0.78504 0.70965
vt 0.78504 0.70965
vt 0.80534 0.71975
vt 0.80603 0.69959
vt 0.80534 0.71975
vt 0.80603 0.69959
vt 0.78504 0.70965
vt 0.78504 0.70965
vt 0.80603 0.69959
vt 0.79266 0.68909
vt 0.78504 0.70965
vt 0.79266 0.68909
vt 0.79266 0.68909
vt 0.79266 0.68909
vt 0.80603 0.69959
vt 0.78504 0.70965
vt 0.78504 0.70965
vt 0.80603 0.69959
vt 0.80534 0.71975
vt 0.78504 0.70965
vt 0.80534 0.71975
vt 0.79306 0.73040
vt 0.79306 0.73040
vt 0.79306 0.73040
vt 0.78504 0.70965
vt 0.78504 0.70965
vt 0.79306 0.73040
vt 0.80534 0.71975
vt 0.80603 0.69959
vt 0.79266 0.68909
vt 0.78504 0.70965
vt 0.78504 0.70965
vt 0.79266 0.68909
vt 0.79266 0.68909
vt 0.78504 0.70965
vt 0.79266 0.68909
vt 0.80603 0.69959
vt 0.80603 0.69959
vt 0.80534 0.71975
vt 0.78504 0.70965
vt 0.78504 0.70965
vt 0.80534 0.71975
vt 0.79306 0.73040
vt 0.78504 0.70965
vt 0.79306 0.73040
vt 0.79306 0.73040
vt 0.79306 0.73040
vt 0.80534 0.71975
vt 0.78504 0.70965
vt 0.78504 0.70965
vt 0.80534 0.71975
vt 0.80603 0.69959
vn -0.9998375 -6.031015E-15 -0.01803703
vn -0.9998375 -6.031015E-15 -0.01803703
vn -0.9998375 -3.015507E-15 -0.01803703
vn 0 1 0
vn 0 1 0
vn 0 1 0
vn 0 1 0
vn 0 1 0
vn 0 1 0
vn 0 1 0
vn 0 1 0
vn 0 1 0
vn 0.9998375 0 0.01803703
vn 0.9998375 0 0.01803703
vn 0.9998375 0 0.01803703
vn 0.9998375 0 0.01803703
vn 0.9998375 0 0.01803703
vn 0.9998375 0 0.01803703
vn 0.9998375 0 0.01803703
vn 0.9998375 0 0.01803703
vn 0.9998375 0 0.01803703
vn -0.01803691 0 0.9998375
vn -0.01803691 0 0.9998375
vn -0.01803691 0 0.9998375
vn -0.01803691 0 0.9998375
vn -0.01803691 0 0.9998375
vn -0.01803691 0 0.9998375
vn 0.01803691 0 -0.9998375
vn 0.01803691 0 -0.9998375
vn 0.01803691 0 -0.9998375
vn 0.01803691 0 -0.9998375
vn 0.01803691 0 -0.9998375
vn 0.01803691 0 -0.9998375
vn 0 -1 0
vn 0 -1 0
vn 0 -1 0
vn 0 -1 0
vn 0 -1 0
vn 0 -1 0
vn 0 -1 0
vn 0 -1 0
vn 0 -1 0
vn 0 -1 0
vn 0 -1 0
vn 0 -1 0
vn 0.9998375 2.635416E-12 0.01803691
vn 0.9998375 -5.37633E-12 0.01803691
vn 0.9998375 8.983069E-12 0.01803703
vn 0.9998375 2.635416E-12 0.01803691
vn 0.9998375 8.983069E-12 0.01803703
vn 0.9998375 2.868526E-11 0.01803703
vn 0.9998375 2.868526E-11 0.01803703
vn 0.9998375 8.983069E-12 0.01803703
vn 0.9998375 3.770432E-11 0.01803703
vn 0.9998375 2.868526E-11 0.01803703
vn 0.9998375 3.770432E-11 0.01803703
vn 0.9998375 5.373026E-11 0.01803703
vn -0.9998375 -2.376576E-12 -0.01803703
vn -0.9998375 8.068708E-12 -0.01803703
vn -0.9998375 -5.936059E-12 -0.01803703
vn -0.9998375 -2.376576E-12 -0.01803703
vn -0.9998375 -5.936059E-12 -0.01803703
vn -0.9998375 -2.204942E-11 -0.01803703
vn -0.9998375 -2.204942E-11 -0.01803703
vn -0.9998375 -5.936059E-12 -0.01803703
vn -0.9998375 -2.66632E-11 -0.01803703
vn -0.9998375 -2.204942E-11 -0.01803703
vn -0.9998375 -2.66632E-11 -0.01803703
vn -0.9998375 -4.027139E-11 -0.01803703
vn 0.01803697 -0.0004689878 -0.9998374
vn 0.01803691 -0.0004689878 -0.9998373
vn 0.01803691 -0.0004689878 -0.9998373
vn 0.01803691 -0.0004689878 -0.9998373
vn 0.01803691 -0.0004689878 -0.9998373
vn 0.01803691 -0.0004689878 -0.9998373
vn -0.01803691 -9.560273E-05 0.9998375
vn -0.01803691 -9.560273E-05 0.9998375
vn -0.01803691 -9.560273E-05 0.9998375
vn -0.01803691 -9.560273E-05 0.9998375
vn -0.01803691 -9.560273E-05 0.9998375
vn -0.01803691 -9.560273E-05 0.9998375
vn -0.9998375 0 -0.01803703
vn -0.9998375 0 -0.01803703
vn -0.9998375 0 -0.01803703
vn -1.776333E-08 1 9.846692E-07
vn 3.81255E-10 1 -2.113402E-08
vn 6.429427E-09 1 -3.564018E-07
vn 6.429427E-09 1 -3.564018E-07
vn 3.81255E-10 1 -2.113402E-08
vn 1.852582E-08 1 -1.026937E-06
vn 6.429427E-09 1 -3.564018E-07
vn 1.852582E-08 1 -1.026937E-06
vn 1.852579E-08 1 -1.026937E-06
vn 0.9998375 0 0.01803703
vn 0.9998375 -2.912955E-15 0.01803703
vn 0.9998375 -3.883944E-15 0.01803703
vn 0.9998375 -3.883944E-15 0.01803703
vn 0.9998375 -2.912955E-15 0.01803703
vn 0.9998375 -5.825916E-15 0.01803703
vn 0.9998375 -3.883944E-15 0.01803703
vn 0.9998375 -5.825916E-15 0.01803703
vn 0.9998375 -5.825923E-15 0.01803703
vn 0 -1 0
vn 0 -1 0
vn 0 -1 0
vn 0 -1 0
vn 0 -1 0
vn 0 -1 0
vn 0 -1 0
vn 0 -1 0
vn 0 -1 0
vn 0 -1 0
vn 0 -1 0
vn 0 -1 0
vn -0.01803691 0 0.9998375
vn -0.01803691 0 0.9998375
vn -0.01803691 0 0.9998375
vn -0.01803691 0 0.9998375
vn -0.01803691 0 0.9998375
vn -0.01803691 0 0.9998375
vn 0.01803691 0 -0.9998375
vn 0.01803691 0 -0.9998375
vn 0.01803691 0 -0.9998375
vn 0.01803691 0 -0.9998375
vn 0.01803691 0 -0.9998375
vn 0.01803691 0 -0.9998375
vn -0.9999903 -0.004356376 0.0007286482
vn -0.9999576 -0.003316734 -0.008611377
vn -0.9999576 -0.003316734 -0.008611377
vn -0.9999576 -0.003316734 -0.008611377
vn -0.9999576 -0.003316734 -0.008611377
vn -0.9998364 -0.002276799 -0.01795063
vn 0.9998375 4.943611E-09 0.01803703
vn 0.9998375 4.939736E-09 0.01803703
vn 0.9998375 4.939736E-09 0.01803703
vn 0.9998375 4.939736E-09 0.01803703
vn 0.9998375 4.939736E-09 0.01803703
vn 0.9998375 4.935861E-09 0.01803703
vn 0.0006825773 0.9992809 -0.03791291
vn 0.0006825773 0.9992809 -0.03791291
vn 0.0006825773 0.9992809 -0.03791291
vn 0.0006825773 0.9992809 -0.03791291
vn 0.0006825773 0.9992809 -0.03791291
vn 0.0006825773 0.9992809 -0.03791291
vn 0.01779539 -0.04743949 -0.9987158
vn 0.01779539 -0.04743949 -0.9987158
vn 0.01788801 -0.04744653 -0.9987139
vn 0.01788801 -0.04744653 -0.9987139
vn 0.01798062 -0.04745357 -0.9987118
vn 0.01798062 -0.04745357 -0.9987118
vn 0.7375761 -0.6751556 0.01210454
vn 0.7376238 -0.6750924 0.01270601
vn 0.7376238 -0.6750924 0.01270601
vn 0.7376238 -0.6750924 0.01270601
vn 0.7376238 -0.6750924 0.01270601
vn 0.7376713 -0.675029 0.01330741
vn 0.01803644 -0.007480625 -0.9998095
vn 0.01456556 -0.003659402 -0.9998873
vn 0.01456556 -0.003659402 -0.9998873
vn 0.01456556 -0.003659402 -0.9998873
vn 0.01456556 -0.003659402 -0.9998873
vn 0.01109421 0.0001619182 -0.9999386
vn -0.9991287 -0.0005225462 -0.04173371
vn -0.9995449 -0.003028126 -0.03002049
vn -0.9995449 -0.003028126 -0.03002049
vn -0.9995449 -0.003028126 -0.03002049
vn -0.9995449 -0.003028126 -0.03002049
vn -0.9998173 -0.00553327 -0.01830289
vn 0.9998375 -6.202866E-09 0.01803703
vn 0.9998375 -6.205489E-09 0.01803703
vn 0.9998375 -6.205489E-09 0.01803703
vn 0.9998375 -6.205489E-09 0.01803703
vn 0.9998375 -6.205489E-09 0.01803703
vn 0.9998375 -6.208114E-09 0.01803703
vn -0.000866477 0.9988455 0.04803026
vn -0.000866477 0.9988455 0.04803026
vn -0.000866477 0.9988455 0.04803026
vn -0.000866477 0.9988455 0.04803026
vn -0.000866477 0.9988455 0.04803026
vn -0.000866477 0.9988455 0.04803026
vn 0.0187898 0.05951165 -0.998051
vn 0.0187898 0.05951165 -0.998051
vn 0.01839754 0.05953883 -0.9980566
vn 0.01839754 0.05953883 -0.9980566
vn 0.01800528 0.05956601 -0.9980621
vn 0.01800528 0.05956601 -0.9980621
vn 0.7546062 -0.6560735 0.01171333
vn 0.7546664 -0.6559865 0.01266431
vn 0.7546664 -0.6559865 0.01266431
vn 0.7546664 -0.6559865 0.01266431
vn 0.7546664 -0.6559865 0.01266431
vn 0.7547259 -0.655899 0.01361517
vn 0.01803482 0.01531787 -0.9997202
vn 0.02552909 0.00748462 -0.9996462
vn 0.02552909 0.00748462 -0.9996462
vn 0.02552909 0.00748462 -0.9996462
vn 0.02552909 0.00748462 -0.9996462
vn 0.03302033 -0.0003495136 -0.9994547
vn -0.01737523 0.04738228 0.9987259
vn -0.01767793 0.04740435 0.9987195
vn -0.01767793 0.04740435 0.9987195
vn -0.01767793 0.04740435 0.9987195
vn -0.01767793 0.04740435 0.9987195
vn -0.01798064 0.04742641 0.9987131
vn -0.7326908 0.6804335 -0.01321771
vn -0.7326907 0.6804335 -0.01321783
vn -0.7326907 0.6804335 -0.01321783
vn -0.7326907 0.6804335 -0.01321783
vn -0.7326907 0.6804335 -0.01321783
vn -0.7326907 0.6804335 -0.01321789
vn -0.01803644 0.00745381 0.9998097
vn -0.01463634 0.003711797 0.9998862
vn -0.01463634 0.003711797 0.9998862
vn -0.01463634 0.003711797 0.9998862
vn -0.01463634 0.003711797 0.9998862
vn -0.01123589 -3.031104E-05 0.9999371
vn -0.01818743 -0.05959421 0.9980572
vn -0.01809633 -0.05960089 0.9980584
vn -0.01809633 -0.05960089 0.9980584
vn -0.01809633 -0.05960089 0.9980584
vn -0.01809633 -0.05960089 0.9980584
vn -0.01800524 -0.05960755 0.9980597
vn -0.7472574 0.6643982 -0.01348043
vn -0.7472574 0.6643982 -0.01348049
vn -0.7472574 0.6643982 -0.01348049
vn -0.7472574 0.6643982 -0.01348049
vn -0.7472574 0.6643982 -0.01348049
vn -0.7472574 0.6643982 -0.01348049
vn -0.01803477 -0.01526573 0.9997209
vn -0.02536936 -0.007600607 0.9996494
vn -0.02536936 -0.007600607 0.9996494
vn -0.02536936 -0.007600607 0.9996494
vn -0.02536936 -0.007600607 0.9996494
vn -0.03270101 6.537178E-05 0.9994652
vn 0 1 0
vn 0 1 0
vn 0 1 0
vn 0 1 0
vn 0 1 0
vn 0 1 0
vn -1.776333E-08 1 9.846692E-07
vn -1.77633E-08 1 9.846692E-07
vn -1.77633E-08 1 9.846692E-07
vn 0.9998375 0 0.01803703
vn 0.9998375 0 0.01803703
vn 0.9998375 0 0.01803703
vn 0 1 0
vn 0 1 0
vn 0 1 0
vn 0.9998375 0 0.01803703
vn 0.9998375 0 0.01803703
vn 0.9998375 0 0.01803703
vn -0.9998375 -6.031015E-15 -0.01803703
vn -0.9998375 -6.031015E-15 -0.01803703
vn -0.9998375 -3.015507E-15 -0.01803703
vn -0.9998375 -3.015507E-15 -0.01803703
vn -0.9998375 0 -0.01803703
vn -0.9998375 0 -0.01803703
vn -0.9998375 -3.015507E-15 -0.01803703
vn -0.9998375 0 -0.01803703
vn -0.9998375 0 -0.01803703
vn -0.9998375 0 -0.01803703
vn -0.9998375 0 -0.01803703
vn -0.9998375 0 -0.01803703
vn -0.9998375 0 -0.01803703
vn -0.9998375 0 -0.01803703
vn -0.9998375 0 -0.01803703
vn -0.9998375 0 -0.01803703
vn -0.9998375 0 -0.01803703
vn -0.9998375 0 -0.01803703
vn -0.9998375 5.552159E-08 -0.01803703
vn -0.9998375 2.459341E-09 -0.01803703
vn -0.9998375 5.552159E-08 -0.01803703
vn 0.01617736 0.4422441 -0.8967489
vn 0.01617736 0.4422441 -0.8967489
vn 0.01617736 0.4422441 -0.8967489
vn 0.01617736 0.4422441 -0.8967489
vn 0.01617736 0.4422441 -0.8967489
vn 0.01617736 0.4422441 -0.8967489
vn 0.9998375 2.456758E-09 0.01803703
vn 0.9998375 -5.060538E-08 0.01803703
vn 0.9998375 2.456758E-09 0.01803703
vn 0.9998375 2.456758E-09 0.01803703
vn 0.9998375 2.456758E-09 0.01803703
vn 0.9998375 5.551889E-08 0.01803703
vn -0.01617746 0.4422268 0.8967575
vn -0.01617746 0.4422269 0.8967575
vn -0.01617746 0.4422268 0.8967575
vn -0.01617746 0.4422268 0.8967575
vn -0.01617746 0.4422268 0.8967575
vn -0.01617746 0.4422268 0.8967575
vn -0.9998375 -5.060291E-08 -0.01803703
vn -0.9998375 -5.060291E-08 -0.01803703
vn -0.9998375 2.459341E-09 -0.01803703
vn 0.2938626 0.9551424 -0.03671436
vn 0.2938557 0.9551442 -0.03672236
vn 0.2938557 0.9551442 -0.03672236
vn 0.2938557 0.9551442 -0.03672236
vn 0.2938557 0.9551442 -0.03672236
vn 0.2938489 0.955146 -0.03673039
vn 0.3058111 0.6456555 -0.6997206
vn 0.305822 0.6456623 -0.6997095
vn 0.305822 0.6456623 -0.6997095
vn 0.305822 0.6456623 -0.6997095
vn 0.305822 0.6456623 -0.6997095
vn 0.305833 0.6456692 -0.6996984
vn 0.3103486 -0.04201279 -0.9496942
vn 0.3103413 -0.04202111 -0.9496962
vn 0.3103413 -0.04202111 -0.9496962
vn 0.3103413 -0.04202111 -0.9496962
vn 0.3103413 -0.04202111 -0.9496962
vn 0.3103339 -0.04202943 -0.9496983
vn 0.3047657 -0.7050495 -0.6403305
vn 0.3047279 -0.7050864 -0.6403081
vn 0.3047279 -0.7050864 -0.6403081
vn 0.3047279 -0.7050864 -0.6403081
vn 0.3047279 -0.7050864 -0.6403081
vn 0.3046898 -0.7051231 -0.6402857
vn 0.292332 -0.9551461 0.0473068
vn 0.2923345 -0.9551455 0.04730404
vn 0.2923345 -0.9551455 0.04730404
vn 0.2923345 -0.9551455 0.04730404
vn 0.2923345 -0.9551455 0.04730404
vn 0.292337 -0.9551448 0.04730132
vn 0.2803656 -0.6456642 0.7102909
vn 0.2803959 -0.6456825 0.7102623
vn 0.2803959 -0.6456825 0.7102623
vn 0.2803959 -0.6456825 0.7102623
vn 0.2803959 -0.6456825 0.7102623
vn 0.2804262 -0.6457007 0.7102337
vn 0.2759455 0.04201046 0.9602548
vn 0.2759142 0.04204563 0.9602624
vn 0.2759142 0.04204563 0.9602624
vn 0.2759142 0.04204563 0.9602624
vn 0.2759142 0.04204563 0.9602624
vn 0.2758828 0.04208079 0.9602697
vn 0.2814534 0.7051162 0.650842
vn 0.2814645 0.7051051 0.650849
vn 0.2814645 0.7051051 0.650849
vn 0.2814645 0.7051051 0.650849
vn 0.2814645 0.7051051 0.650849
vn 0.2814757 0.7050941 0.6508562
vn 0.2692288 0.6706188 0.6912211
vn 0.2692198 0.6706274 0.6912162
vn 0.2692198 0.6706274 0.6912162
vn 0.2692198 0.6706274 0.6912162
vn 0.2692198 0.6706274 0.6912162
vn 0.2692108 0.670636 0.6912113
vn 0.2813737 0.959463 0.01611594
vn 0.2813758 0.9594623 0.01611828
vn 0.2813758 0.9594623 0.01611828
vn 0.2813758 0.9594623 0.01611828
vn 0.2813758 0.9594623 0.01611828
vn 0.281378 0.9594616 0.01612065
vn 0.2936967 0.6862738 -0.6654102
vn 0.2936861 0.6862682 -0.6654205
vn 0.2936861 0.6862682 -0.6654205
vn 0.2936861 0.6862682 -0.6654205
vn 0.2936861 0.6862682 -0.6654205
vn 0.2936757 0.6862627 -0.6654308
vn 0.2988846 0.0109975 -0.954226
vn 0.2988778 0.01099044 -0.9542283
vn 0.2988778 0.01099044 -0.9542283
vn 0.2988778 0.01099044 -0.9542283
vn 0.2988778 0.01099044 -0.9542283
vn 0.298871 0.01098337 -0.9542304
vn 0.2939433 -0.6706482 -0.6810496
vn 0.2939484 -0.6706433 -0.6810521
vn 0.2939484 -0.6706433 -0.6810521
vn 0.2939484 -0.6706433 -0.6810521
vn 0.2939484 -0.6706433 -0.6810521
vn 0.2939536 -0.6706386 -0.6810547
vn 0.2817787 -0.9594609 -0.005963566
vn 0.2817751 -0.959462 -0.005959911
vn 0.2817751 -0.959462 -0.005959911
vn 0.2817751 -0.959462 -0.005959911
vn 0.2817751 -0.959462 -0.005959911
vn 0.2817714 -0.9594631 -0.005956283
vn 0.2694802 -0.6862631 0.6755913
vn 0.2694808 -0.6862634 0.6755907
vn 0.2694808 -0.6862634 0.6755907
vn 0.2694808 -0.6862634 0.6755907
vn 0.2694808 -0.6862634 0.6755907
vn 0.2694815 -0.6862638 0.6755901
vn 0.2642762 -0.01100187 0.9643845
vn 0.2642915 -0.01101762 0.9643801
vn 0.2642915 -0.01101762 0.9643801
vn 0.2642915 -0.01101762 0.9643801
vn 0.2642915 -0.01101762 0.9643801
vn 0.2643069 -0.01103336 0.9643758
vn 0.293857 0.9551439 -0.03671765
vn 0.2938519 0.9551453 -0.03672377
vn 0.2938519 0.9551453 -0.03672377
vn 0.2938519 0.9551453 -0.03672377
vn 0.2938519 0.9551453 -0.03672377
vn 0.2938466 0.9551467 -0.03672986
vn 0.3057838 0.6456655 -0.6997232
vn 0.3057939 0.6456718 -0.6997131
vn 0.3057939 0.6456718 -0.6997131
vn 0.3057939 0.6456718 -0.6997131
vn 0.3057939 0.6456718 -0.6997131
vn 0.3058039 0.6456781 -0.6997028
vn 0.3103033 -0.04206673 -0.9497065
vn 0.3103205 -0.04204733 -0.9497018
vn 0.3103205 -0.04204733 -0.9497018
vn 0.3103205 -0.04204733 -0.9497018
vn 0.3103205 -0.04204733 -0.9497018
vn 0.3103376 -0.04202792 -0.949697
vn 0.3047639 -0.7050757 -0.6403025
vn 0.3047518 -0.7050874 -0.6402954
vn 0.3047518 -0.7050874 -0.6402954
vn 0.3047518 -0.7050874 -0.6402954
vn 0.3047518 -0.7050874 -0.6402954
vn 0.3047397 -0.7050992 -0.6402884
vn 0.2923355 -0.9551453 0.04730171
vn 0.2923343 -0.9551456 0.04730302
vn 0.2923343 -0.9551456 0.04730302
vn 0.2923343 -0.9551456 0.04730302
vn 0.2923343 -0.9551456 0.04730302
vn 0.2923331 -0.9551459 0.04730431
vn 0.2803718 -0.6456625 0.71029
vn 0.2803808 -0.6456679 0.7102816
vn 0.2803808 -0.6456679 0.7102816
vn 0.2803808 -0.6456679 0.7102816
vn 0.2803808 -0.6456679 0.7102816
vn 0.2803898 -0.6456733 0.710273
vn 0.2759005 0.04196091 0.9602699
vn 0.2758594 0.04200698 0.9602797
vn 0.2758594 0.04200698 0.9602797
vn 0.2758594 0.04200698 0.9602797
vn 0.2758594 0.04200698 0.9602797
vn 0.2758183 0.04205304 0.9602896
vn 0.281411 0.7051334 0.6508415
vn 0.2814348 0.7051099 0.6508568
vn 0.2814348 0.7051099 0.6508568
vn 0.2814348 0.7051099 0.6508568
vn 0.2814348 0.7051099 0.6508568
vn 0.2814586 0.7050864 0.6508719
vn 0.2691734 0.6706533 0.6912091
vn 0.2691835 0.6706436 0.6912147
vn 0.2691835 0.6706436 0.6912147
vn 0.2691835 0.6706436 0.6912147
vn 0.2691835 0.6706436 0.6912147
vn 0.2691937 0.6706338 0.6912202
vn 0.281374 0.9594629 0.0161158
vn 0.2813764 0.9594622 0.01611841
vn 0.2813764 0.9594622 0.01611841
vn 0.2813764 0.9594622 0.01611841
vn 0.2813764 0.9594622 0.01611841
vn 0.2813788 0.9594614 0.01612102
vn 0.2936766 0.6862488 -0.6654448
vn 0.2936771 0.686249 -0.6654443
vn 0.2936771 0.686249 -0.6654443
vn 0.2936771 0.686249 -0.6654443
vn 0.2936771 0.686249 -0.6654443
vn 0.2936775 0.6862493 -0.665444
vn 0.2988873 0.01102173 -0.9542248
vn 0.2988954 0.01103021 -0.9542223
vn 0.2988954 0.01103021 -0.9542223
vn 0.2988954 0.01103021 -0.9542223
vn 0.2988954 0.01103021 -0.9542223
vn 0.2989036 0.01103869 -0.9542196
vn 0.2939728 -0.6706321 -0.6810527
vn 0.2939751 -0.6706299 -0.6810539
vn 0.2939751 -0.6706299 -0.6810539
vn 0.2939751 -0.6706299 -0.6810539
vn 0.2939751 -0.6706299 -0.6810539
vn 0.2939774 -0.6706278 -0.681055
vn 0.2817726 -0.9594628 -0.005956976
vn 0.2817748 -0.9594621 -0.005959112
vn 0.2817748 -0.9594621 -0.005959112
vn 0.2817748 -0.9594621 -0.005959112
vn 0.2817748 -0.9594621 -0.005959112
vn 0.2817768 -0.9594615 -0.005961249
vn 0.2695099 -0.6862664 0.675576
vn 0.2694936 -0.6862581 0.6755911
vn 0.2694936 -0.6862581 0.6755911
vn 0.2694936 -0.6862581 0.6755911
vn 0.2694936 -0.6862581 0.6755911
vn 0.2694772 -0.6862499 0.6756059
vn 0.264256 -0.01101112 0.9643898
vn 0.2642471 -0.01100195 0.9643924
vn 0.2642471 -0.01100195 0.9643924
vn 0.2642471 -0.01100195 0.9643924
vn 0.2642471 -0.01100195 0.9643924
vn 0.2642382 -0.01099278 0.964395
vn 0.9096584 -0.1573761 0.3843887
vn 0.8962514 -0.004899523 0.4435198
vn 0.9998374 -4.161617E-07 0.0180406
vn 0.9998374 -4.161617E-07 0.0180406
vn 0.8984446 0.2986545 0.3218744
vn 0.8984446 0.2986545 0.3218744
vn 0.9998374 -4.161617E-07 0.0180406
vn 0.9038704 0.42728 0.02122213
vn 0.9038704 0.42728 0.02122213
vn 0.9093468 0.305621 -0.2822844
vn 0.9093468 0.305621 -0.2822844
vn 0.9998374 -4.161617E-07 0.0180406
vn 0.9998374 -4.161617E-07 0.0180406
vn 0.9116693 0.00489747 -0.410896
vn 0.9116693 0.00489747 -0.410896
vn 0.9998374 -4.161617E-07 0.0180406
vn 0.9094705 -0.2986619 -0.2892484
vn 0.9094705 -0.2986619 -0.2892484
vn 0.9040481 -0.4272791 0.01138938
vn 0.9040481 -0.4272791 0.01138938
vn 0.9998374 -4.161617E-07 0.0180406
vn 0.9998374 -4.161617E-07 0.0180406
vn 0.8985725 -0.3056153 0.3149079
vn 0.9096584 -0.1573761 0.3843887
vn 0.9211268 0.1582125 0.3556604
vn 0.9114311 0.2951101 0.286712
vn 0.9998375 4.713486E-06 0.0180356
vn 0.9998375 4.713486E-06 0.0180356
vn 0.9166263 0.3997444 -0.0010393
vn 0.9166263 0.3997444 -0.0010393
vn 0.9998375 4.713486E-06 0.0180356
vn 0.9216316 0.2702113 -0.2785342
vn 0.9216316 0.2702113 -0.2785342
vn 0.9235166 -0.01758348 -0.3831556
vn 0.9235166 -0.01758348 -0.3831556
vn 0.9998375 4.713486E-06 0.0180356
vn 0.9998375 4.713486E-06 0.0180356
vn 0.9211856 -0.2950737 -0.2536708
vn 0.9211856 -0.2950737 -0.2536708
vn 0.9998375 4.713486E-06 0.0180356
vn 0.9159932 -0.3997419 0.03410668
vn 0.9159932 -0.3997419 0.03410668
vn 0.9109854 -0.270215 0.3115926
vn 0.9109854 -0.270215 0.3115926
vn 0.9998375 4.713486E-06 0.0180356
vn 0.9998375 4.713486E-06 0.0180356
vn 0.9090945 0.01758294 0.4162191
vn 0.9211268 0.1582125 0.3556604
vn 0.9096616 -0.1573791 0.38438
vn 0.8962567 -0.004903477 0.443509
vn 0.9998375 3.91439E-07 0.01803268
vn 0.9998375 3.91439E-07 0.01803268
vn 0.8984466 0.2986621 0.3218616
vn 0.8984466 0.2986621 0.3218616
vn 0.9998375 3.91439E-07 0.01803268
vn 0.9038703 0.42728 0.02122207
vn 0.9038703 0.42728 0.02122207
vn 0.9093458 0.3056099 -0.2822997
vn 0.9093458 0.3056099 -0.2822997
vn 0.9998375 3.91439E-07 0.01803268
vn 0.9998375 3.91439E-07 0.01803268
vn 0.9116651 0.004908365 -0.410905
vn 0.9116651 0.004908365 -0.410905
vn 0.9998375 3.91439E-07 0.01803268
vn 0.9094698 -0.2986587 -0.2892541
vn 0.9094698 -0.2986587 -0.2892541
vn 0.9040487 -0.427278 0.01139237
vn 0.9040487 -0.427278 0.01139237
vn 0.9998375 3.91439E-07 0.01803268
vn 0.9998375 3.91439E-07 0.01803268
vn 0.8985741 -0.3056173 0.3149015
vn 0.9096616 -0.1573791 0.38438
vn 0.9211339 0.1581988 0.3556482
vn 0.9114368 0.2951041 0.2867001
vn 0.9998375 -4.166494E-06 0.01803417
vn 0.9998375 -4.166494E-06 0.01803417
vn 0.9166268 0.3997432 -0.0010406
vn 0.9166268 0.3997432 -0.0010406
vn 0.9998375 -4.166494E-06 0.01803417
vn 0.9216354 0.270207 -0.2785257
vn 0.9216354 0.270207 -0.2785257
vn 0.923519 -0.01760556 -0.3831487
vn 0.923519 -0.01760556 -0.3831487
vn 0.9998375 -4.166494E-06 0.01803417
vn 0.9998375 -4.166494E-06 0.01803417
vn 0.9211824 -0.2950897 -0.2536637
vn 0.9211824 -0.2950897 -0.2536637
vn 0.9998375 -4.166494E-06 0.01803417
vn 0.9159939 -0.3997404 0.03410449
vn 0.9159939 -0.3997404 0.03410449
vn 0.9109882 -0.2702106 0.3115882
vn 0.9109882 -0.2702106 0.3115882
vn 0.9998375 -4.166494E-06 0.01803417
vn 0.9998375 -4.166494E-06 0.01803417
vn 0.9091007 0.01756138 0.4162065
vn 0.9211339 0.1581988 0.3556482
s 1
f 3/3/3 2/2/2 1/1/1
f 6/6/6 5/5/5 4/4/4
f 9/9/9 8/8/8 7/7/7
f 12/12/12 11/11/11 10/10/10
f 15/15/15 14/14/14 13/13/13
f 18/18/18 17/17/17 16/16/16
f 21/21/21 20/20/20 19/19/19
f 24/24/24 23/23/23 22/22/22
f 27/27/27 26/26/26 25/25/25
f 30/30/30 29/29/29 28/28/28
f 33/33/33 32/32/32 31/31/31
f 36/36/36 35/35/35 34/34/34
f 39/39/39 38/38/38 37/37/37
f 42/42/42 41/41/41 40/40/40
f 45/45/45 44/44/44 43/43/43
f 48/48/48 47/47/47 46/46/46
f 51/51/51 50/50/50 49/49/49
f 54/54/54 53/53/53 52/52/52
f 57/57/57 56/56/56 55/55/55
f 60/60/60 59/59/59 58/58/58
f 63/63/63 62/62/62 61/61/61
f 66/66/66 65/65/65 64/64/64
f 69/69/69 68/68/68 67/67/67
f 72/72/72 71/71/71 70/70/70
f 75/75/75 74/74/74 73/73/73
f 78/78/78 77/77/77 76/76/76
f 81/81/81 80/80/80 79/79/79
f 84/84/84 83/83/83 82/82/82
f 87/87/87 86/86/86 85/85/85
f 90/90/90 89/89/89 88/88/88
f 93/93/93 92/92/92 91/91/91
f 96/96/96 95/95/95 94/94/94
f 99/99/99 98/98/98 97/97/97
f 102/102/102 101/101/101 100/100/100
f 105/105/105 104/104/104 103/103/103
f 108/108/108 107/107/107 106/106/106
f 111/111/111 110/110/110 109/109/109
f 114/114/114 113/113/113 112/112/112
f 117/117/117 116/116/116 115/115/115
f 120/120/120 119/119/119 118/118/118
f 123/123/123 122/122/122 121/121/121
f 126/126/126 125/125/125 124/124/124
f 129/129/129 128/128/128 127/127/127
f 132/132/132 131/131/131 130/130/130
f 135/135/135 134/134/134 133/133/133
f 138/138/138 137/137/137 136/136/136
f 141/141/141 140/140/140 139/139/139
f 144/144/144 143/143/143 142/142/142
f 147/147/147 146/146/146 145/145/145
f 150/150/150 149/149/149 148/148/148
f 153/153/153 152/152/152 151/151/151
f 156/156/156 155/155/155 154/154/154
f 159/159/159 158/158/158 157/157/157
f 162/162/162 161/161/161 160/160/160
f 165/165/165 164/164/164 163/163/163
f 168/168/168 167/167/167 166/166/166
f 171/171/171 170/170/170 169/169/169
f 174/174/174 173/173/173 172/172/172
f 177/177/177 176/176/176 175/175/175
f 180/180/180 179/179/179 178/178/178
f 183/183/183 182/182/182 181/181/181
f 186/186/186 185/185/185 184/184/184
f 189/189/189 188/188/188 187/187/187
f 192/192/192 191/191/191 190/190/190
f 195/195/195 194/194/194 193/193/193
f 198/198/198 197/197/197 196/196/196
f 201/201/201 200/200/200 199/199/199
f 204/204/204 203/203/203 202/202/202
f 207/207/207 206/206/206 205/205/205
f 210/210/210 209/209/209 208/208/208
f 213/213/213 212/212/212 211/211/211
f 216/216/216 215/215/215 214/214/214
f 219/219/219 218/218/218 217/217/217
f 222/222/222 221/221/221 220/220/220
f 225/225/225 224/224/224 223/223/223
f 228/228/228 227/227/227 226/226/226
f 231/231/231 230/230/230 229/229/229
f 234/234/234 233/233/233 232/232/232
f 237/237/237 236/236/236 235/235/235
f 240/240/240 239/239/239 238/238/238
f 243/243/243 242/242/242 241/241/241
f 246/246/246 245/245/245 244/244/244
f 249/249/249 248/248/248 247/247/247
f 252/252/252 251/251/251 250/250/250
f 255/255/255 254/254/254 253/253/253
f 258/258/258 257/257/257 256/256/256
f 261/261/261 260/260/260 259/259/259
f 264/264/264 263/263/263 262/262/262
f 267/267/267 266/266/266 265/265/265
f 270/270/270 269/269/269 268/268/268
f 273/273/273 272/272/272 271/271/271
f 276/276/276 275/275/275 274/274/274
f 279/279/279 278/278/278 277/277/277
f 282/282/282 281/281/281 280/280/280
f 285/285/285 284/284/284 283/283/283
f 288/288/288 287/287/287 286/286/286
f 291/291/291 290/290/290 289/289/289
f 294/294/294 293/293/293 292/292/292
f 297/297/297 296/296/296 295/295/295
f 300/300/300 299/299/299 298/298/298
f 303/303/303 302/302/302 301/301/301
f 306/306/306 305/305/305 304/304/304
f 309/309/309 308/308/308 307/307/307
f 312/312/312 311/311/311 310/310/310
f 315/315/315 314/314/314 313/313/313
f 318/318/318 317/317/317 316/316/316
f 321/321/321 320/320/320 319/319/319
f 324/324/324 323/323/323 322/322/322
f 327/327/327 326/326/326 325/325/325
f 330/330/330 329/329/329 328/328/328
f 333/333/333 332/332/332 331/331/331
f 336/336/336 335/335/335 334/334/334
f 339/339/339 338/338/338 337/337/337
f 342/342/342 341/341/341 340/340/340
f 345/345/345 344/344/344 343/343/343
f 348/348/348 347/347/347 346/346/346
f 351/351/351 350/350/350 349/349/349
f 354/354/354 353/353/353 352/352/352
f 357/357/357 356/356/356 355/355/355
f 360/360/360 359/359/359 358/358/358
f 363/363/363 362/362/362 361/361/361
f 366/366/366 365/365/365 364/364/364
f 369/369/369 368/368/368 367/367/367
f 372/372/372 371/371/371 370/370/370
f 375/375/375 374/374/374 373/373/373
f 378/378/378 377/377/377 376/376/376
f 381/381/381 380/380/380 379/379/379
f 384/384/384 383/383/383 382/382/382
f 387/387/387 386/386/386 385/385/385
f 390/390/390 389/389/389 388/388/388
f 393/393/393 392/392/392 391/391/391
f 396/396/396 395/395/395 394/394/394
f 399/399/399 398/398/398 397/397/397
f 402/402/402 401/401/401 400/400/400
f 405/405/405 404/404/404 403/403/403
f 408/408/408 407/407/407 406/406/406
f 411/411/411 410/410/410 409/409/409
f 414/414/414 413/413/413 412/412/412
f 417/417/417 416/416/416 415/415/415
f 420/420/420 419/419/419 418/418/418
f 423/423/423 422/422/422 421/421/421
f 426/426/426 425/425/425 424/424/424
f 429/429/429 428/428/428 427/427/427
f 432/432/432 431/431/431 430/430/430
f 435/435/435 434/434/434 433/433/433
f 438/438/438 437/437/437 436/436/436
f 441/441/441 440/440/440 439/439/439
f 444/444/444 443/443/443 442/442/442
f 447/447/447 446/446/446 445/445/445
f 450/450/450 449/449/449 448/448/448
f 453/453/453 452/452/452 451/451/451
f 456/456/456 455/455/455 454/454/454
f 459/459/459 458/458/458 457/457/457
f 462/462/462 461/461/461 460/460/460
f 465/465/465 464/464/464 463/463/463
f 468/468/468 467/467/467 466/466/466
f 471/471/471 470/470/470 469/469/469
f 474/474/474 473/473/473 472/472/472
f 477/477/477 476/476/476 475/475/475
f 480/480/480 479/479/479 478/478/478
f 483/483/483 482/482/482 481/481/481
f 486/486/486 485/485/485 484/484/484
f 489/489/489 488/488/488 487/487/487
f 492/492/492 491/491/491 490/490/490
f 495/495/495 494/494/494 493/493/493
f 498/498/498 497/497/497 496/496/496
f 501/501/501 500/500/500 499/499/499
f 504/504/504 503/503/503 502/502/502
f 507/507/507 506/506/506 505/505/505
f 510/510/510 509/509/509 508/508/508
f 513/513/513 512/512/512 511/511/511
f 516/516/516 515/515/515 514/514/514
f 519/519/519 518/518/518 517/517/517
f 522/522/522 521/521/521 520/520/520
f 525/525/525 524/524/524 523/523/523
f 528/528/528 527/527/527 526/526/526
f 531/531/531 530/530/530 529/529/529
f 534/534/534 533/533/533 532/532/532
f 537/537/537 536/536/536 535/535/535
f 540/540/540 539/539/539 538/538/538
f 543/543/543 542/542/542 541/541/541
f 546/546/546 545/545/545 544/544/544
f 549/549/549 548/548/548 547/547/547
f 552/552/552 551/551/551 550/550/550
f 555/555/555 554/554/554 553/553/553
f 558/558/558 557/557/557 556/556/556
f 561/561/561 560/560/560 559/559/559
f 564/564/564 563/563/563 562/562/562
f 567/567/567 566/566/566 565/565/565
f 570/570/570 569/569/569 568/568/568
f 573/573/573 572/572/572 571/571/571
f 576/576/576 575/575/575 574/574/574
f 579/579/579 578/578/578 577/577/577
f 582/582/582 581/581/581 580/580/580
