# Part game/assets/models/jake_leg_r.obj
v -0.06394 -0.06478 0.13303
v -0.11308 -0.06313 0.16554
v -0.14536 -0.07243 0.11088
v -0.06394 -0.06478 0.13303
v -0.02429 -0.05087 0.11740
v -0.11308 -0.06313 0.16554
v -0.05194 -0.05596 0.02772
v -0.09935 -0.05869 0.03446
v -0.10938 -0.01785 0.01315
v -0.08039 -0.33815 0.02368
v -0.09935 -0.05869 0.03446
v -0.05194 -0.05596 0.02772
v -0.05194 -0.05596 0.02772
v -0.05521 -0.01472 0.02496
v -0.01225 -0.06067 0.06673
v -0.01225 -0.06067 0.06673
v -0.02429 -0.05087 0.11740
v -0.01516 -0.35088 0.04298
v -0.01225 -0.06067 0.06673
v -0.01051 -0.01407 0.06997
v -0.01901 -0.01776 0.12039
v -0.04471 -0.33794 0.01389
v -0.08039 -0.33815 0.02368
v -0.05194 -0.05596 0.02772
v -0.04471 -0.33794 0.01389
v -0.05194 -0.05596 0.02772
v -0.01225 -0.06067 0.06673
v -0.08039 -0.33815 0.02368
v -0.06398 -0.36810 0.00456
v -0.09924 -0.35260 0.06406
v -0.02701 -0.36981 0.01165
v -0.06398 -0.36810 0.00456
v -0.04471 -0.33794 0.01389
v -0.06524 -0.39655 0.01884
v -0.06398 -0.36810 0.00456
v -0.02701 -0.36981 0.01165
v -0.10688 -0.38063 0.04648
v -0.06524 -0.39655 0.01884
v -0.07050 -0.63176 0.02887
v -0.07050 -0.63176 0.02887
v -0.06524 -0.39655 0.01884
v -0.02884 -0.39379 0.02609
v -0.02884 -0.39379 0.02609
v -0.06524 -0.39655 0.01884
v -0.02701 -0.36981 0.01165
v -0.02349 -0.62401 0.03327
v -0.07050 -0.63176 0.02887
v -0.02884 -0.39379 0.02609
v -0.00946 -0.38592 0.06172
v -0.02884 -0.39379 0.02609
v -0.01516 -0.35088 0.04298
v -0.02349 -0.62401 0.03327
v -0.02884 -0.39379 0.02609
v -0.00946 -0.38592 0.06172
v -0.10688 -0.38063 0.04648
v -0.07692 -0.37961 0.09295
v -0.06038 -0.35067 0.10033
v 0.08750 -0.82124 -0.06913
v -0.01131 -0.82292 -0.09387
v -0.00533 -0.82057 -0.21381
v -0.00533 -0.82057 -0.21381
v -0.01131 -0.82292 -0.09387
v -0.08160 -0.82249 -0.19934
v -0.01131 -0.82292 -0.09387
v -0.12002 -0.82477 -0.12111
v -0.08160 -0.82249 -0.19934
v 0.08750 -0.82124 -0.06913
v 0.07631 -0.82293 0.00921
v -0.01131 -0.82292 -0.09387
v -0.01131 -0.82292 -0.09387
v -0.02333 -0.82465 -0.01464
v -0.12002 -0.82477 -0.12111
v 0.07631 -0.82293 0.00921
v -0.02333 -0.82465 -0.01464
v -0.01131 -0.82292 -0.09387
v -0.02333 -0.82465 -0.01464
v -0.11422 -0.82660 -0.01565
v -0.12002 -0.82477 -0.12111
v -0.03757 -0.82893 0.19973
v -0.02333 -0.82465 -0.01464
v 0.07631 -0.82293 0.00921
v 0.00836 -0.82738 0.16995
v -0.03757 -0.82893 0.19973
v 0.07631 -0.82293 0.00921
v -0.02333 -0.82465 -0.01464
v -0.03757 -0.82893 0.19973
v -0.09834 -0.83000 0.18628
v -0.11422 -0.82660 -0.01565
v -0.02333 -0.82465 -0.01464
v -0.09834 -0.83000 0.18628
v -0.13640 -0.82996 0.13958
v -0.11422 -0.82660 -0.01565
v -0.09834 -0.83000 0.18628
v -0.11422 -0.82660 -0.01565
v -0.13640 -0.82996 0.13958
v -0.11823 -0.68117 -0.00042
v -0.13640 -0.82996 0.13958
v -0.14285 -0.75660 0.15127
v -0.11823 -0.68117 -0.00042
v -0.14285 -0.75660 0.15127
v -0.13640 -0.82996 0.13958
v -0.09834 -0.83000 0.18628
v -0.14285 -0.75660 0.15127
v -0.09834 -0.83000 0.18628
v -0.06857 -0.75581 0.20648
v -0.09834 -0.83000 0.18628
v -0.03757 -0.82893 0.19973
v -0.06857 -0.75581 0.20648
v 0.00566 -0.75292 0.18169
v -0.06857 -0.75581 0.20648
v -0.03757 -0.82893 0.19973
v 0.00566 -0.75292 0.18169
v -0.03757 -0.82893 0.19973
v 0.00836 -0.82738 0.16995
v 0.07631 -0.82293 0.00921
v 0.04572 -0.68120 0.02066
v 0.00836 -0.82738 0.16995
v 0.07631 -0.82293 0.00921
v 0.08750 -0.82124 -0.06913
v 0.07236 -0.74928 -0.09141
v -0.00771 -0.77329 -0.21022
v 0.06719 -0.77106 -0.16959
v -0.00533 -0.82057 -0.21381
v -0.00771 -0.77329 -0.21022
v -0.01355 -0.73673 -0.14987
v 0.06719 -0.77106 -0.16959
v -0.00771 -0.77329 -0.21022
v -0.00533 -0.82057 -0.21381
v -0.08160 -0.82249 -0.19934
v 0.03304 -0.67769 0.14806
v 0.04402 -0.65986 0.05073
v -0.04164 -0.67634 0.07341
v -0.06119 -0.70091 0.21168
v 0.03304 -0.67769 0.14806
v -0.04164 -0.67634 0.07341
v -0.14977 -0.70429 0.15393
v -0.06119 -0.70091 0.21168
v -0.04164 -0.67634 0.07341
v -0.07050 -0.63176 0.02887
v -0.03818 -0.64415 -0.00100
v -0.12877 -0.69829 0.05351
v -0.07050 -0.63176 0.02887
v -0.02349 -0.62401 0.03327
v -0.03818 -0.64415 -0.00100
v -0.02349 -0.62401 0.03327
v 0.01327 -0.67006 0.07245
v -0.03818 -0.64415 -0.00100
v -0.02349 -0.62401 0.03327
v -0.01169 -0.62002 0.07762
v 0.01327 -0.67006 0.07245
v -0.04715 -0.69362 0.16070
v -0.08035 -0.65963 0.16982
v -0.12686 -0.69971 0.13095
v 0.03304 -0.67769 0.14806
v -0.06119 -0.70091 0.21168
v 0.02124 -0.77701 0.18089
v -0.06119 -0.70091 0.21168
v -0.06607 -0.78549 0.22215
v 0.02124 -0.77701 0.18089
v -0.14977 -0.70429 0.15393
v -0.06607 -0.78549 0.22215
v -0.06119 -0.70091 0.21168
v -0.16378 -0.76672 0.14256
v -0.06607 -0.78549 0.22215
v -0.14977 -0.70429 0.15393
v -0.16378 -0.76672 0.14256
v -0.15156 -0.70302 0.04910
v -0.12740 -0.74851 0.02727
v -0.05521 -0.01472 0.02496
v -0.05194 -0.05596 0.02772
v -0.10938 -0.01785 0.01315
v -0.05521 -0.01472 0.02496
v -0.01051 -0.01407 0.06997
v -0.01225 -0.06067 0.06673
v -0.02429 -0.05087 0.11740
v -0.01225 -0.06067 0.06673
v -0.01901 -0.01776 0.12039
v -0.01516 -0.35088 0.04298
v -0.04471 -0.33794 0.01389
v -0.01225 -0.06067 0.06673
v -0.06398 -0.36810 0.00456
v -0.08039 -0.33815 0.02368
v -0.04471 -0.33794 0.01389
v -0.01516 -0.35088 0.04298
v -0.02701 -0.36981 0.01165
v -0.04471 -0.33794 0.01389
v -0.09924 -0.35260 0.06406
v -0.06398 -0.36810 0.00456
v -0.06524 -0.39655 0.01884
v -0.09924 -0.35260 0.06406
v -0.06524 -0.39655 0.01884
v -0.10688 -0.38063 0.04648
v -0.01516 -0.35088 0.04298
v -0.02884 -0.39379 0.02609
v -0.02701 -0.36981 0.01165
v 0.04572 -0.68120 0.02066
v 0.00566 -0.75292 0.18169
v 0.00836 -0.82738 0.16995
v 0.04572 -0.68120 0.02066
v 0.07631 -0.82293 0.00921
v 0.07236 -0.74928 -0.09141
v -0.10688 -0.74551 -0.12759
v -0.11393 -0.67312 -0.02237
v -0.11063 -0.71602 -0.13365
v 0.05184 -0.67191 -0.00777
v 0.07236 -0.74928 -0.09141
v 0.07993 -0.72671 -0.09435
v -0.16886 -0.03600 -0.00704
v -0.16738 0.01487 -0.00399
v -0.08079 0.00454 0.00157
v -0.08201 -0.03294 -0.00091
v -0.16886 -0.03600 -0.00704
v -0.08079 0.00454 0.00157
v -0.08201 -0.03294 -0.00091
v -0.08079 0.00454 0.00157
v -0.01178 0.00120 0.04757
v -0.01563 -0.03554 0.04514
v -0.08201 -0.03294 -0.00091
v -0.01178 0.00120 0.04757
v -0.01563 -0.03554 0.04514
v -0.01178 0.00120 0.04757
v 0.00519 -0.00275 0.09831
v 0.00165 -0.03864 0.09649
v -0.01563 -0.03554 0.04514
v 0.00519 -0.00275 0.09831
v 0.00165 -0.03864 0.09649
v 0.00519 -0.00275 0.09831
v -0.02295 -0.00359 0.16256
v -0.02640 -0.03893 0.15910
v 0.00165 -0.03864 0.09649
v -0.02295 -0.00359 0.16256
v -0.02640 -0.03893 0.15910
v -0.02295 -0.00359 0.16256
v -0.07939 -0.00689 0.20965
v -0.08050 -0.04330 0.20723
v -0.02640 -0.03893 0.15910
v -0.07939 -0.00689 0.20965
v -0.08050 -0.04330 0.20723
v -0.07939 -0.00689 0.20965
v -0.14990 -0.00497 0.24575
v -0.07939 -0.00689 0.20965
v -0.06887 0.00078 0.23257
v -0.14028 -0.00137 0.27448
v -0.07939 -0.00689 0.20965
v -0.02295 -0.00359 0.16256
v -0.06887 0.00078 0.23257
v -0.02295 -0.00359 0.16256
v 0.00519 -0.00275 0.09831
v 0.00192 0.00613 0.17650
v -0.11308 -0.06313 0.16554
v -0.16682 -0.05980 0.19648
v -0.14536 -0.07243 0.11088
v -0.11308 -0.06313 0.16554
v -0.09114 -0.02549 0.20122
v -0.16682 -0.05980 0.19648
v -0.09114 -0.02549 0.20122
v -0.15422 -0.02447 0.23329
v -0.16682 -0.05980 0.19648
v -0.16467 -0.01663 0.00935
v -0.10938 -0.01785 0.01315
v -0.15908 -0.05476 0.03986
v -0.10938 -0.01785 0.01315
v -0.09935 -0.05869 0.03446
v -0.15908 -0.05476 0.03986
v -0.14536 -0.07243 0.11088
v -0.15908 -0.05476 0.03986
v -0.10168 -0.08146 0.09997
v -0.09924 -0.35260 0.06406
v -0.10168 -0.08146 0.09997
v -0.08039 -0.33815 0.02368
v -0.10168 -0.08146 0.09997
v -0.09935 -0.05869 0.03446
v -0.08039 -0.33815 0.02368
v -0.15908 -0.05476 0.03986
v -0.09935 -0.05869 0.03446
v -0.10168 -0.08146 0.09997
v -0.11308 -0.06313 0.16554
v -0.02429 -0.05087 0.11740
v -0.03900 -0.02507 0.15950
v -0.11308 -0.06313 0.16554
v -0.03900 -0.02507 0.15950
v -0.09114 -0.02549 0.20122
v -0.02429 -0.05087 0.11740
v -0.01901 -0.01776 0.12039
v -0.03900 -0.02507 0.15950
v -0.10168 -0.08146 0.09997
v -0.06394 -0.06478 0.13303
v -0.14536 -0.07243 0.11088
v -0.09924 -0.35260 0.06406
v -0.10688 -0.38063 0.04648
v -0.06038 -0.35067 0.10033
v -0.10168 -0.08146 0.09997
v -0.09924 -0.35260 0.06406
v -0.06394 -0.06478 0.13303
v -0.09924 -0.35260 0.06406
v -0.06038 -0.35067 0.10033
v -0.06394 -0.06478 0.13303
v -0.06038 -0.35067 0.10033
v -0.02365 -0.35022 0.08763
v -0.06394 -0.06478 0.13303
v -0.02429 -0.05087 0.11740
v -0.02365 -0.35022 0.08763
v -0.01516 -0.35088 0.04298
v -0.02365 -0.35022 0.08763
v -0.02429 -0.05087 0.11740
v -0.06394 -0.06478 0.13303
v -0.07692 -0.37961 0.09295
v -0.03847 -0.37978 0.09706
v -0.06038 -0.35067 0.10033
v -0.03847 -0.37978 0.09706
v -0.02365 -0.35022 0.08763
v -0.06038 -0.35067 0.10033
v -0.03847 -0.37978 0.09706
v -0.00946 -0.38592 0.06172
v -0.01516 -0.35088 0.04298
v -0.02365 -0.35022 0.08763
v -0.03847 -0.37978 0.09706
v -0.01516 -0.35088 0.04298
v -0.09866 -0.63971 0.05444
v -0.10688 -0.38063 0.04648
v -0.07050 -0.63176 0.02887
v -0.01169 -0.62002 0.07762
v -0.02349 -0.62401 0.03327
v -0.00946 -0.38592 0.06172
v -0.01169 -0.62002 0.07762
v -0.00946 -0.38592 0.06172
v -0.03847 -0.37978 0.09706
v -0.04663 -0.63255 0.11148
v -0.03847 -0.37978 0.09706
v -0.07692 -0.37961 0.09295
v -0.04663 -0.63255 0.11148
v -0.01169 -0.62002 0.07762
v -0.03847 -0.37978 0.09706
v -0.09020 -0.63688 0.10491
v -0.04663 -0.63255 0.11148
v -0.07692 -0.37961 0.09295
v -0.09020 -0.63688 0.10491
v -0.07692 -0.37961 0.09295
v -0.10688 -0.38063 0.04648
v -0.09866 -0.63971 0.05444
v -0.09020 -0.63688 0.10491
v -0.10688 -0.38063 0.04648
v 0.06574 -0.56445 0.02554
v 0.06836 -0.57311 -0.01987
v 0.03041 -0.52638 -0.01685
v 0.03041 -0.52638 -0.01685
v 0.06836 -0.57311 -0.01987
v 0.04402 -0.55445 -0.05863
v 0.03041 -0.52638 -0.01685
v 0.04402 -0.55445 -0.05863
v -0.06640 -0.55547 -0.09431
v -0.07034 -0.52635 -0.04883
v 0.03041 -0.52638 -0.01685
v -0.06640 -0.55547 -0.09431
v -0.07034 -0.52635 -0.04883
v -0.06640 -0.55547 -0.09431
v -0.12729 -0.56652 -0.07330
v -0.12185 -0.54682 -0.01341
v -0.07034 -0.52635 -0.04883
v -0.12729 -0.56652 -0.07330
v -0.12729 -0.56652 -0.07330
v -0.11393 -0.67312 -0.02237
v -0.11823 -0.68117 -0.00042
v -0.12185 -0.54682 -0.01341
v -0.12729 -0.56652 -0.07330
v -0.11823 -0.68117 -0.00042
v 0.06574 -0.56445 0.02554
v 0.04572 -0.68120 0.02066
v 0.06836 -0.57311 -0.01987
v 0.04572 -0.68120 0.02066
v 0.05184 -0.67191 -0.00777
v 0.06836 -0.57311 -0.01987
v 0.06836 -0.57311 -0.01987
v 0.05184 -0.67191 -0.00777
v 0.04402 -0.55445 -0.05863
v 0.05184 -0.67191 -0.00777
v 0.02204 -0.65169 -0.03668
v 0.04402 -0.55445 -0.05863
v 0.07321 -0.81968 -0.16992
v 0.08750 -0.82124 -0.06913
v -0.00533 -0.82057 -0.21381
v -0.11823 -0.68117 -0.00042
v -0.10688 -0.74551 -0.12759
v -0.11422 -0.82660 -0.01565
v -0.11393 -0.67312 -0.02237
v -0.10688 -0.74551 -0.12759
v -0.11823 -0.68117 -0.00042
v -0.12002 -0.82477 -0.12111
v -0.10688 -0.74551 -0.12759
v -0.08160 -0.82249 -0.19934
v -0.10688 -0.74551 -0.12759
v -0.12002 -0.82477 -0.12111
v -0.11422 -0.82660 -0.01565
v 0.04572 -0.68120 0.02066
v 0.07236 -0.74928 -0.09141
v 0.05184 -0.67191 -0.00777
v 0.06719 -0.77106 -0.16959
v 0.07321 -0.81968 -0.16992
v -0.00533 -0.82057 -0.21381
v 0.07236 -0.74928 -0.09141
v 0.08750 -0.82124 -0.06913
v 0.07321 -0.81968 -0.16992
v 0.06719 -0.77106 -0.16959
v 0.07236 -0.74928 -0.09141
v 0.07321 -0.81968 -0.16992
v 0.06719 -0.77106 -0.16959
v 0.03270 -0.73770 -0.13524
v 0.07236 -0.74928 -0.09141
v -0.01355 -0.73673 -0.14987
v 0.03270 -0.73770 -0.13524
v 0.06719 -0.77106 -0.16959
v -0.06291 -0.73884 -0.14733
v -0.01355 -0.73673 -0.14987
v -0.00771 -0.77329 -0.21022
v -0.07997 -0.77621 -0.19214
v -0.06291 -0.73884 -0.14733
v -0.00771 -0.77329 -0.21022
v -0.10688 -0.74551 -0.12759
v -0.07997 -0.77621 -0.19214
v -0.08160 -0.82249 -0.19934
v -0.07997 -0.77621 -0.19214
v -0.00771 -0.77329 -0.21022
v -0.08160 -0.82249 -0.19934
v -0.10688 -0.74551 -0.12759
v -0.06291 -0.73884 -0.14733
v -0.07997 -0.77621 -0.19214
v 0.05184 -0.67191 -0.00777
v 0.07993 -0.72671 -0.09435
v 0.02204 -0.65169 -0.03668
v 0.02204 -0.65169 -0.03668
v 0.07993 -0.72671 -0.09435
v 0.02930 -0.70374 -0.13386
v -0.06687 -0.65339 -0.04894
v 0.02204 -0.65169 -0.03668
v 0.02930 -0.70374 -0.13386
v -0.07121 -0.70282 -0.14496
v -0.06687 -0.65339 -0.04894
v 0.02930 -0.70374 -0.13386
v -0.06687 -0.65339 -0.04894
v -0.07121 -0.70282 -0.14496
v -0.11063 -0.71602 -0.13365
v -0.11393 -0.67312 -0.02237
v -0.06687 -0.65339 -0.04894
v -0.11063 -0.71602 -0.13365
v 0.07236 -0.74928 -0.09141
v 0.03270 -0.73770 -0.13524
v 0.07993 -0.72671 -0.09435
v 0.03270 -0.73770 -0.13524
v 0.02930 -0.70374 -0.13386
v 0.07993 -0.72671 -0.09435
v 0.03270 -0.73770 -0.13524
v -0.01355 -0.73673 -0.14987
v 0.02930 -0.70374 -0.13386
v -0.07121 -0.70282 -0.14496
v 0.02930 -0.70374 -0.13386
v -0.01355 -0.73673 -0.14987
v -0.06291 -0.73884 -0.14733
v -0.07121 -0.70282 -0.14496
v -0.01355 -0.73673 -0.14987
v -0.11063 -0.71602 -0.13365
v -0.07121 -0.70282 -0.14496
v -0.06291 -0.73884 -0.14733
v -0.10688 -0.74551 -0.12759
v -0.11063 -0.71602 -0.13365
v -0.06291 -0.73884 -0.14733
v -0.15156 -0.70302 0.04910
v -0.14977 -0.70429 0.15393
v -0.04164 -0.67634 0.07341
v 0.04402 -0.65986 0.05073
v -0.03956 -0.63196 -0.00567
v -0.04164 -0.67634 0.07341
v -0.15156 -0.70302 0.04910
v -0.04164 -0.67634 0.07341
v -0.03956 -0.63196 -0.00567
v -0.15156 -0.70302 0.04910
v -0.03956 -0.63196 -0.00567
v -0.11823 -0.68117 -0.00042
v -0.12686 -0.69971 0.13095
v -0.14182 -0.67799 0.08541
v -0.12877 -0.69829 0.05351
v -0.09866 -0.63971 0.05444
v -0.12877 -0.69829 0.05351
v -0.14182 -0.67799 0.08541
v -0.09866 -0.63971 0.05444
v -0.07050 -0.63176 0.02887
v -0.12877 -0.69829 0.05351
v -0.01169 -0.62002 0.07762
v 0.00848 -0.63406 0.12513
v 0.01327 -0.67006 0.07245
v 0.00848 -0.63406 0.12513
v -0.08035 -0.65963 0.16982
v -0.04715 -0.69362 0.16070
v 0.00445 -0.68033 0.11985
v 0.00848 -0.63406 0.12513
v -0.04715 -0.69362 0.16070
v 0.01327 -0.67006 0.07245
v 0.00848 -0.63406 0.12513
v 0.00445 -0.68033 0.11985
v -0.08035 -0.65963 0.16982
v -0.14182 -0.67799 0.08541
v -0.12686 -0.69971 0.13095
v -0.09020 -0.63688 0.10491
v -0.14182 -0.67799 0.08541
v -0.08035 -0.65963 0.16982
v -0.09020 -0.63688 0.10491
v -0.09866 -0.63971 0.05444
v -0.14182 -0.67799 0.08541
v -0.09020 -0.63688 0.10491
v -0.08035 -0.65963 0.16982
v -0.04663 -0.63255 0.11148
v -0.04663 -0.63255 0.11148
v -0.08035 -0.65963 0.16982
v 0.00848 -0.63406 0.12513
v -0.04663 -0.63255 0.11148
v 0.00848 -0.63406 0.12513
v -0.01169 -0.62002 0.07762
v 0.04572 -0.68120 0.02066
v -0.03956 -0.63196 -0.00567
v 0.04402 -0.65986 0.05073
v 0.06106 -0.73737 0.04834
v 0.04572 -0.68120 0.02066
v 0.04402 -0.65986 0.05073
v 0.06106 -0.73737 0.04834
v 0.04402 -0.65986 0.05073
v 0.03304 -0.67769 0.14806
v 0.06106 -0.73737 0.04834
v 0.03304 -0.67769 0.14806
v 0.02124 -0.77701 0.18089
v -0.12740 -0.74851 0.02727
v -0.15156 -0.70302 0.04910
v -0.11823 -0.68117 -0.00042
v -0.11823 -0.68117 -0.00042
v -0.03956 -0.63196 -0.00567
v -0.12185 -0.54682 -0.01341
v -0.03956 -0.63196 -0.00567
v -0.07034 -0.52635 -0.04883
v -0.12185 -0.54682 -0.01341
v -0.07034 -0.52635 -0.04883
v -0.03956 -0.63196 -0.00567
v 0.03041 -0.52638 -0.01685
v -0.03956 -0.63196 -0.00567
v 0.06574 -0.56445 0.02554
v 0.03041 -0.52638 -0.01685
v -0.03956 -0.63196 -0.00567
v 0.04572 -0.68120 0.02066
v 0.06574 -0.56445 0.02554
v -0.06687 -0.65339 -0.04894
v -0.11393 -0.67312 -0.02237
v -0.06640 -0.55547 -0.09431
v -0.06640 -0.55547 -0.09431
v -0.11393 -0.67312 -0.02237
v -0.12729 -0.56652 -0.07330
v -0.06640 -0.55547 -0.09431
v 0.04402 -0.55445 -0.05863
v 0.02204 -0.65169 -0.03668
v -0.06640 -0.55547 -0.09431
v 0.02204 -0.65169 -0.03668
v -0.06687 -0.65339 -0.04894
v -0.08050 -0.04330 0.20723
v -0.18744 -0.02013 0.13367
v -0.02640 -0.03893 0.15910
v -0.02640 -0.03893 0.15910
v -0.18744 -0.02013 0.13367
v 0.00165 -0.03864 0.09649
v 0.00165 -0.03864 0.09649
v -0.18744 -0.02013 0.13367
v -0.01563 -0.03554 0.04514
v -0.01563 -0.03554 0.04514
v -0.18744 -0.02013 0.13367
v -0.08201 -0.03294 -0.00091
v -0.08201 -0.03294 -0.00091
v -0.18744 -0.02013 0.13367
v -0.16886 -0.03600 -0.00704
v -0.15100 -0.04132 0.24336
v -0.08050 -0.04330 0.20723
v -0.14990 -0.00497 0.24575
v -0.14990 -0.00497 0.24575
v -0.07939 -0.00689 0.20965
v -0.14028 -0.00137 0.27448
v -0.15100 -0.04132 0.24336
v -0.18744 -0.02013 0.13367
v -0.08050 -0.04330 0.20723
vt 0.21472 0.57861
vt 0.23877 0.60840
vt 0.26367 0.59131
vt 0.21472 0.57861
vt 0.18140 0.57861
vt 0.23877 0.60840
vt 0.11456 0.57861
vt 0.08514 0.57861
vt 0.09381 0.60596
vt 0.08472 0.40796
vt 0.08514 0.57861
vt 0.11456 0.57861
vt 0.11456 0.57861
vt 0.11456 0.60596
vt 0.14746 0.57861
vt 0.14746 0.57861
vt 0.18140 0.57861
vt 0.14746 0.38452
vt 0.14746 0.57861
vt 0.14746 0.60596
vt 0.18140 0.60596
vt 0.11456 0.40796
vt 0.08472 0.40796
vt 0.11456 0.57861
vt 0.11456 0.40796
vt 0.11456 0.57861
vt 0.14746 0.57861
vt 0.08472 0.40796
vt 0.08472 0.38452
vt 0.05118 0.38452
vt 0.11456 0.38452
vt 0.08472 0.38452
vt 0.11456 0.40796
vt 0.08472 0.36060
vt 0.08472 0.38452
vt 0.11456 0.38452
vt 0.05118 0.36060
vt 0.08472 0.36060
vt 0.08472 0.21765
vt 0.08472 0.21765
vt 0.08472 0.36060
vt 0.11456 0.36060
vt 0.11456 0.36060
vt 0.08472 0.36060
vt 0.11456 0.38452
vt 0.11456 0.21765
vt 0.08472 0.21765
vt 0.11456 0.36060
vt 0.14746 0.36060
vt 0.11456 0.36060
vt 0.14746 0.38452
vt 0.11456 0.21765
vt 0.11456 0.36060
vt 0.14746 0.36060
vt 0.24866 0.35864
vt 0.21472 0.35864
vt 0.21472 0.38647
vt 0.91943 0.76562
vt 0.99512 0.76855
vt 0.99512 0.84570
vt 0.99512 0.84570
vt 0.99512 0.76855
vt 0.93896 0.82471
vt 0.99512 0.76855
vt 0.91943 0.76562
vt 0.93896 0.82471
vt 0.91943 0.76562
vt 0.91943 0.70068
vt 0.99512 0.76855
vt 0.99512 0.76855
vt 0.99512 0.71289
vt 0.91943 0.76562
vt 0.91943 0.70068
vt 0.99512 0.71289
vt 0.99512 0.76855
vt 0.99512 0.71289
vt 0.91943 0.70068
vt 0.91943 0.76562
vt 0.99512 0.57031
vt 0.99512 0.71289
vt 0.91943 0.70068
vt 0.95215 0.59814
vt 0.99512 0.57031
vt 0.91943 0.70068
vt 0.99512 0.71289
vt 0.99512 0.57031
vt 0.99512 0.57031
vt 0.91943 0.70068
vt 0.99512 0.71289
vt 0.99512 0.57031
vt 0.95215 0.59814
vt 0.91943 0.70068
vt 0.99512 0.57031
vt 0.57227 0.50049
vt 0.57227 0.42798
vt 0.63281 0.49487
vt 0.57227 0.42798
vt 0.60400 0.42358
vt 0.63281 0.49487
vt 0.60400 0.42358
vt 0.57227 0.42798
vt 0.57227 0.41431
vt 0.60400 0.42358
vt 0.57227 0.41431
vt 0.59717 0.40088
vt 0.57227 0.41431
vt 0.57227 0.41431
vt 0.59717 0.40088
vt 0.60400 0.42358
vt 0.59717 0.40088
vt 0.57227 0.41431
vt 0.60400 0.42358
vt 0.57227 0.41431
vt 0.57227 0.42798
vt 0.57227 0.50049
vt 0.63281 0.49487
vt 0.57227 0.42798
vt 0.57227 0.50049
vt 0.57227 0.53418
vt 0.60303 0.53418
vt 0.59424 0.60303
vt 0.59424 0.56982
vt 0.57178 0.60303
vt 0.59424 0.60303
vt 0.61914 0.60303
vt 0.59424 0.56982
vt 0.59424 0.60303
vt 0.57178 0.60303
vt 0.57178 0.56982
vt 0.01886 0.44287
vt 0.02216 0.47144
vt 0.04703 0.47266
vt 0.04703 0.42041
vt 0.01886 0.44287
vt 0.04703 0.47266
vt 0.01886 0.44287
vt 0.04703 0.42041
vt 0.04703 0.47266
vt 0.00608 0.60156
vt 0.00608 0.60156
vt 0.00608 0.56982
vt 0.00608 0.60156
vt 0.02275 0.58643
vt 0.00608 0.60156
vt 0.02275 0.58643
vt 0.00608 0.56982
vt 0.00608 0.60156
vt 0.02275 0.58643
vt 0.03659 0.57324
vt 0.00608 0.56982
vt 0.00608 0.50098
vt 0.02109 0.50586
vt 0.00608 0.54443
vt 0.01886 0.44287
vt 0.04703 0.42041
vt 0.01927 0.41357
vt 0.04703 0.42041
vt 0.04703 0.40186
vt 0.01927 0.41357
vt 0.01886 0.44287
vt 0.04703 0.40186
vt 0.04703 0.42041
vt 0.01927 0.41357
vt 0.04703 0.40186
vt 0.01886 0.44287
vt 0.01927 0.41357
vt 0.02216 0.47144
vt 0.00130 0.45728
vt 0.11456 0.60596
vt 0.11456 0.57861
vt 0.09381 0.60596
vt 0.11456 0.60596
vt 0.14746 0.60596
vt 0.14746 0.57861
vt 0.18140 0.57861
vt 0.14746 0.57861
vt 0.18140 0.60596
vt 0.14746 0.38452
vt 0.11456 0.40796
vt 0.14746 0.57861
vt 0.08472 0.38452
vt 0.08472 0.40796
vt 0.11456 0.40796
vt 0.14746 0.38452
vt 0.11456 0.38452
vt 0.11456 0.40796
vt 0.05118 0.38452
vt 0.08472 0.38452
vt 0.08472 0.36060
vt 0.05118 0.38452
vt 0.08472 0.36060
vt 0.05118 0.36060
vt 0.14746 0.38452
vt 0.11456 0.36060
vt 0.11456 0.38452
vt 0.63281 0.49487
vt 0.60400 0.42358
vt 0.57227 0.42798
vt 0.63281 0.49487
vt 0.57227 0.50049
vt 0.60303 0.53418
vt 0.83545 0.79688
vt 0.85791 0.89404
vt 0.85303 0.81445
vt 0.85791 0.89404
vt 0.83545 0.79688
vt 0.85303 0.81445
vt 0.30811 0.32129
vt 0.30615 0.35522
vt 0.36621 0.34668
vt 0.36621 0.32129
vt 0.30811 0.32129
vt 0.36621 0.34668
vt 0.36621 0.32129
vt 0.36621 0.34668
vt 0.42041 0.34570
vt 0.41699 0.32129
vt 0.36621 0.32129
vt 0.42041 0.34570
vt 0.41699 0.32129
vt 0.42041 0.34570
vt 0.46094 0.34204
vt 0.46240 0.32129
vt 0.41699 0.32129
vt 0.46094 0.34204
vt 0.46240 0.32129
vt 0.46094 0.34204
vt 0.51221 0.33960
vt 0.50879 0.32129
vt 0.46240 0.32129
vt 0.51221 0.33960
vt 0.50879 0.32129
vt 0.51221 0.33960
vt 0.56592 0.33838
vt 0.56641 0.32129
vt 0.50879 0.32129
vt 0.56592 0.33838
vt 0.56641 0.32129
vt 0.56592 0.33838
vt 0.62256 0.34082
vt 0.56592 0.33838
vt 0.56738 0.35278
vt 0.62256 0.35693
vt 0.56592 0.33838
vt 0.51221 0.33960
vt 0.56738 0.35278
vt 0.51221 0.33960
vt 0.46094 0.34204
vt 0.51465 0.35181
vt 0.23877 0.60840
vt 0.26196 0.63574
vt 0.26367 0.59131
vt 0.23877 0.60840
vt 0.21326 0.63135
vt 0.26196 0.63574
vt 0.21326 0.63135
vt 0.23486 0.65918
vt 0.26196 0.63574
vt 0.06793 0.63086
vt 0.09381 0.60596
vt 0.05084 0.61377
vt 0.09381 0.60596
vt 0.08514 0.57861
vt 0.05084 0.61377
vt 0.02951 0.59180
vt 0.05084 0.61377
vt 0.05118 0.57861
vt 0.05118 0.38452
vt 0.05118 0.57861
vt 0.08472 0.40796
vt 0.05118 0.57861
vt 0.08514 0.57861
vt 0.08472 0.40796
vt 0.05084 0.61377
vt 0.08514 0.57861
vt 0.05118 0.57861
vt 0.23877 0.60840
vt 0.18140 0.57861
vt 0.19861 0.60596
vt 0.23877 0.60840
vt 0.19861 0.60596
vt 0.21326 0.63135
vt 0.18140 0.57861
vt 0.18140 0.60596
vt 0.19861 0.60596
vt 0.24866 0.57861
vt 0.21472 0.57861
vt 0.26367 0.59131
vt 0.24866 0.38647
vt 0.24866 0.35864
vt 0.21472 0.38647
vt 0.24866 0.57861
vt 0.24866 0.38647
vt 0.21472 0.57861
vt 0.24866 0.38647
vt 0.21472 0.38647
vt 0.21472 0.57861
vt 0.21472 0.38647
vt 0.18140 0.38647
vt 0.21472 0.57861
vt 0.18140 0.57861
vt 0.18140 0.38647
vt 0.14746 0.38452
vt 0.18140 0.38647
vt 0.18140 0.57861
vt 0.21472 0.57861
vt 0.21472 0.35864
vt 0.18140 0.35864
vt 0.21472 0.38647
vt 0.18140 0.35864
vt 0.18140 0.38647
vt 0.21472 0.38647
vt 0.18140 0.35864
vt 0.14746 0.36060
vt 0.14746 0.38452
vt 0.18140 0.38647
vt 0.18140 0.35864
vt 0.14746 0.38452
vt 0.05118 0.21765
vt 0.05118 0.36060
vt 0.08472 0.21765
vt 0.14746 0.21765
vt 0.11456 0.21765
vt 0.14746 0.36060
vt 0.14746 0.21765
vt 0.14746 0.36060
vt 0.18140 0.35864
vt 0.18140 0.21765
vt 0.18140 0.35864
vt 0.21472 0.35864
vt 0.18140 0.21765
vt 0.14746 0.21765
vt 0.18140 0.35864
vt 0.21472 0.21765
vt 0.18140 0.21765
vt 0.21472 0.35864
vt 0.21472 0.21765
vt 0.21472 0.35864
vt 0.24866 0.35864
vt 0.24866 0.21765
vt 0.21472 0.21765
vt 0.24866 0.35864
vt 0.22180 0.18457
vt 0.22180 0.15784
vt 0.22180 0.21008
vt 0.22180 0.21008
vt 0.22180 0.15784
vt 0.22180 0.13818
vt 0.22180 0.21008
vt 0.22180 0.13818
vt 0.22180 0.13818
vt 0.22180 0.21008
vt 0.22180 0.21008
vt 0.22180 0.13818
vt 0.22180 0.21008
vt 0.22180 0.13818
vt 0.22180 0.15784
vt 0.22180 0.18457
vt 0.22180 0.21008
vt 0.22180 0.15784
vt 0.22180 0.15784
vt 0.14038 0.16992
vt 0.14038 0.18616
vt 0.22180 0.18457
vt 0.22180 0.15784
vt 0.14038 0.18616
vt 0.22180 0.18457
vt 0.14038 0.18616
vt 0.22180 0.15784
vt 0.14038 0.18616
vt 0.14038 0.16992
vt 0.22180 0.15784
vt 0.22180 0.15784
vt 0.14038 0.16992
vt 0.22180 0.13818
vt 0.14038 0.16992
vt 0.14038 0.13196
vt 0.22180 0.13818
vt 0.93896 0.82471
vt 0.91943 0.76562
vt 0.99512 0.84570
vt 0.63281 0.49487
vt 0.60303 0.53418
vt 0.57227 0.50049
vt 0.63672 0.50732
vt 0.60303 0.53418
vt 0.63281 0.49487
vt 0.57227 0.53418
vt 0.60303 0.53418
vt 0.57178 0.56982
vt 0.60303 0.53418
vt 0.57227 0.53418
vt 0.57227 0.50049
vt 0.63281 0.49487
vt 0.60303 0.53418
vt 0.63672 0.50732
vt 0.59424 0.56982
vt 0.57178 0.56982
vt 0.57178 0.60303
vt 0.60303 0.53418
vt 0.57227 0.53418
vt 0.57178 0.56982
vt 0.59424 0.56982
vt 0.60303 0.53418
vt 0.57178 0.56982
vt 0.59424 0.56982
vt 0.61816 0.56982
vt 0.60303 0.53418
vt 0.61914 0.60303
vt 0.61816 0.56982
vt 0.59424 0.56982
vt 0.61816 0.56982
vt 0.61914 0.60303
vt 0.59424 0.60303
vt 0.59424 0.56982
vt 0.61816 0.56982
vt 0.59424 0.60303
vt 0.60303 0.53418
vt 0.59424 0.56982
vt 0.57178 0.56982
vt 0.59424 0.56982
vt 0.59424 0.60303
vt 0.57178 0.56982
vt 0.60303 0.53418
vt 0.61816 0.56982
vt 0.59424 0.56982
vt 0.85791 0.89404
vt 0.85303 0.81445
vt 0.89551 0.89404
vt 0.89551 0.89404
vt 0.85303 0.81445
vt 0.89551 0.81445
vt 0.89551 0.89404
vt 0.89551 0.89404
vt 0.89551 0.81445
vt 0.89551 0.81445
vt 0.89551 0.89404
vt 0.89551 0.81445
vt 0.89551 0.89404
vt 0.89551 0.81445
vt 0.85303 0.81445
vt 0.85791 0.89404
vt 0.89551 0.89404
vt 0.85303 0.81445
vt 0.83545 0.79688
vt 0.89551 0.79688
vt 0.85303 0.81445
vt 0.89551 0.79688
vt 0.89551 0.81445
vt 0.85303 0.81445
vt 0.89551 0.79688
vt 0.89551 0.79688
vt 0.89551 0.81445
vt 0.89551 0.81445
vt 0.89551 0.81445
vt 0.89551 0.79688
vt 0.89551 0.79688
vt 0.89551 0.81445
vt 0.89551 0.79688
vt 0.85303 0.81445
vt 0.89551 0.81445
vt 0.89551 0.79688
vt 0.83545 0.79688
vt 0.85303 0.81445
vt 0.89551 0.79688
vt 0.02216 0.47144
vt 0.01886 0.44287
vt 0.04703 0.47266
vt 0.02216 0.47144
vt 0.04703 0.50537
vt 0.04703 0.47266
vt 0.02216 0.47144
vt 0.04703 0.47266
vt 0.04703 0.50537
vt 0.02216 0.47144
vt 0.04703 0.50537
vt 0.01053 0.48926
vt 0.00608 0.54443
vt 0.02422 0.53955
vt 0.00608 0.56982
vt 0.03659 0.57324
vt 0.00608 0.56982
vt 0.02422 0.53955
vt 0.03659 0.57324
vt 0.00608 0.60156
vt 0.00608 0.56982
vt 0.03659 0.57324
vt 0.02422 0.53955
vt 0.00608 0.56982
vt 0.02422 0.53955
vt 0.02109 0.50586
vt 0.00608 0.50098
vt 0.00608 0.54443
vt 0.02422 0.53955
vt 0.00608 0.50098
vt 0.00608 0.56982
vt 0.02422 0.53955
vt 0.00608 0.54443
vt 0.02109 0.50586
vt 0.02422 0.53955
vt 0.00608 0.54443
vt 0.04242 0.52734
vt 0.02422 0.53955
vt 0.02109 0.50586
vt 0.04242 0.52734
vt 0.03659 0.57324
vt 0.02422 0.53955
vt 0.04242 0.52734
vt 0.02109 0.50586
vt 0.04242 0.52734
vt 0.04242 0.52734
vt 0.02109 0.50586
vt 0.02422 0.53955
vt 0.04242 0.52734
vt 0.02422 0.53955
vt 0.03659 0.57324
vt 0.01053 0.48926
vt 0.04703 0.50537
vt 0.02216 0.47144
vt 0.00130 0.45728
vt 0.01053 0.48926
vt 0.02216 0.47144
vt 0.00130 0.45728
vt 0.02216 0.47144
vt 0.01886 0.44287
vt 0.00130 0.45728
vt 0.01886 0.44287
vt 0.01927 0.41357
vt 0.00130 0.45728
vt 0.02216 0.47144
vt 0.01053 0.48926
vt 0.14038 0.18616
vt 0.14038 0.21008
vt 0.22180 0.18457
vt 0.14038 0.21008
vt 0.22180 0.21008
vt 0.22180 0.18457
vt 0.22180 0.21008
vt 0.14038 0.21008
vt 0.22180 0.21008
vt 0.14038 0.21008
vt 0.22180 0.18457
vt 0.22180 0.21008
vt 0.14038 0.21008
vt 0.14038 0.18616
vt 0.22180 0.18457
vt 0.14038 0.13196
vt 0.14038 0.16992
vt 0.22180 0.13818
vt 0.22180 0.13818
vt 0.14038 0.16992
vt 0.22180 0.15784
vt 0.14539 0.12903
vt 0.26636 0.12903
vt 0.24646 0.01225
vt 0.14539 0.12903
vt 0.24646 0.01225
vt 0.15271 0.01225
vt 0.28198 0.35400
vt 0.28101 0.35571
vt 0.28271 0.35449
vt 0.28271 0.35449
vt 0.28101 0.35571
vt 0.28345 0.35522
vt 0.28345 0.35522
vt 0.28101 0.35571
vt 0.28320 0.35620
vt 0.28320 0.35620
vt 0.28101 0.35571
vt 0.28271 0.35742
vt 0.28271 0.35742
vt 0.28101 0.35571
vt 0.28174 0.35791
vt 0.62256 0.32129
vt 0.56641 0.32129
vt 0.62256 0.34082
vt 0.62256 0.34082
vt 0.56592 0.33838
vt 0.62256 0.35693
vt 0.28101 0.35376
vt 0.28101 0.35571
vt 0.28198 0.35400
vn 0.00124 -1.20943 0.41336
vn 0.26925 -1.15730 0.47091
vn -0.06919 -1.27499 0.05668
vn 0.56242 -0.39114 1.07902
vn 1.08864 -0.37509 0.55476
vn 0.56325 -0.78157 0.83993
vn -0.22189 -0.18066 -1.24568
vn -0.15346 -0.40929 -1.20105
vn 0.01614 -0.53893 -1.15883
vn -0.28645 0.06836 -1.24373
vn -0.15346 -0.40929 -1.20105
vn -0.22189 -0.18066 -1.24568
vn 0.71580 0.00578 -1.05886
vn 0.71837 -0.00768 -1.05710
vn 0.89874 0.04399 -0.90770
vn 1.24200 -0.10857 0.28148
vn 1.08864 -0.37509 0.55476
vn 1.21992 -0.02313 0.32366
vn 1.24200 -0.10857 0.28148
vn 1.25958 -0.06180 0.20793
vn 1.21345 -0.17318 0.36212
vn -0.33224 0.08738 -1.23109
vn -0.28645 0.06836 -1.24373
vn -0.22189 -0.18066 -1.24568
vn 0.89563 0.06842 -0.90926
vn 0.71580 0.00578 -1.05886
vn 0.89874 0.04399 -0.90770
vn -1.19410 0.06331 -0.45133
vn -0.91515 -0.15216 -0.87158
vn -1.12151 -0.07980 -0.55808
vn 0.25774 -0.40217 -1.18551
vn 0.23065 -0.13077 -1.24498
vn -0.33224 0.08738 -1.23109
vn 0.24801 -0.45039 -1.17014
vn 0.23065 -0.13077 -1.24498
vn 0.25774 -0.40217 -1.18551
vn -0.77012 -0.06355 -1.01807
vn -0.71447 -0.02919 -1.05937
vn -0.83578 0.13209 -0.95792
vn 0.18970 -0.04793 -1.26305
vn 0.24801 -0.45039 -1.17014
vn 0.22015 -0.25973 -1.23193
vn 0.22015 -0.25973 -1.23193
vn 0.24801 -0.45039 -1.17014
vn 0.25774 -0.40217 -1.18551
vn 0.12499 -0.03670 -1.27146
vn 0.18970 -0.04793 -1.26305
vn 0.22015 -0.25973 -1.23193
vn 1.16960 -0.01780 -0.51508
vn 1.17101 -0.09320 -0.50363
vn 0.91702 -0.05804 -0.86553
vn 1.12195 0.00707 -0.61218
vn 1.17101 -0.09320 -0.50363
vn 1.16960 -0.01780 -0.51508
vn -1.15611 0.13022 0.52918
vn -1.06256 0.09013 0.69597
vn -0.75814 0.13030 1.01361
vn 0.02770 -1.27760 -0.02368
vn 0.02770 -1.27760 -0.02368
vn 0.02770 -1.27760 -0.02368
vn 0.02770 -1.27760 -0.02368
vn 0.02770 -1.27760 -0.02368
vn 0.02770 -1.27760 -0.02367
vn 0.02770 -1.27760 -0.02368
vn 0.02771 -1.27760 -0.02368
vn 0.02770 -1.27760 -0.02367
vn 0.02770 -1.27760 -0.02368
vn 0.02770 -1.27760 -0.02369
vn 0.02770 -1.27760 -0.02368
vn 0.02770 -1.27760 -0.02368
vn 0.02770 -1.27760 -0.02369
vn 0.02771 -1.27760 -0.02368
vn 0.02770 -1.27760 -0.02369
vn 0.02770 -1.27760 -0.02369
vn 0.02770 -1.27760 -0.02368
vn 0.02770 -1.27760 -0.02369
vn 0.02771 -1.27760 -0.02369
vn 0.02771 -1.27760 -0.02368
vn 0.02770 -1.27760 -0.02369
vn 0.02770 -1.27760 -0.02369
vn 0.02770 -1.27760 -0.02369
vn 0.02771 -1.27760 -0.02368
vn 0.02770 -1.27760 -0.02369
vn 0.02770 -1.27760 -0.02369
vn 0.02770 -1.27760 -0.02369
vn 0.02770 -1.27760 -0.02369
vn 0.02770 -1.27760 -0.02369
vn 0.02771 -1.27760 -0.02369
vn 0.02770 -1.27760 -0.02369
vn 0.02770 -1.27760 -0.02369
vn 0.02771 -1.27760 -0.02369
vn 0.02771 -1.27760 -0.02369
vn 0.02770 -1.27760 -0.02369
vn -1.27013 -0.02015 -0.14126
vn -1.25993 -0.04402 -0.21031
vn -1.26721 -0.05067 -0.15873
vn -1.25993 -0.04402 -0.21031
vn -1.25345 -0.07217 -0.23925
vn -1.26721 -0.05067 -0.15873
vn -0.88024 -0.09418 0.92190
vn -0.97695 -0.21283 0.79615
vn -0.69807 -0.14368 1.06096
vn -0.88024 -0.09418 0.92190
vn -0.69807 -0.14368 1.06096
vn -0.76238 0.02674 1.02550
vn -0.69807 -0.14368 1.06096
vn 0.29306 -0.10993 1.23920
vn 0.07017 -0.08785 1.27316
vn 0.55459 -0.04239 1.15075
vn 0.07017 -0.08785 1.27316
vn 0.29306 -0.10993 1.23920
vn 0.55459 -0.04239 1.15075
vn 0.29306 -0.10993 1.23920
vn 0.69423 -0.14245 1.06365
vn 1.21418 0.23696 0.32125
vn 1.25096 0.01436 0.26169
vn 1.15901 0.21084 0.49582
vn 1.22557 0.31401 0.18159
vn 1.25050 0.26425 0.00394
vn 1.26452 0.11487 0.14626
vn 0.19335 0.10552 -1.25900
vn 0.61297 0.10009 -1.11707
vn 0.19335 0.10552 -1.25900
vn -0.00163 1.07462 -0.69194
vn 0.16068 1.07001 -0.68032
vn 0.30503 1.07448 -0.62132
vn 0.19335 0.10552 -1.25900
vn 0.19335 0.10552 -1.25900
vn -0.27738 0.14245 -1.23950
vn -0.17379 1.25055 0.19876
vn -0.11645 1.19740 0.43030
vn -0.21902 1.21491 0.32941
vn -0.17547 1.25034 0.19862
vn -0.17379 1.25055 0.19876
vn -0.21902 1.21491 0.32941
vn -0.17704 1.25016 0.19837
vn -0.17547 1.25034 0.19862
vn -0.21902 1.21491 0.32941
vn -0.76770 0.31887 -0.97085
vn -0.76610 0.29655 -0.97887
vn -0.87137 0.41798 -0.83615
vn -0.13456 1.13750 -0.56708
vn -0.13456 1.13750 -0.56708
vn -0.12999 1.12263 -0.59608
vn 1.16339 0.29167 -0.44163
vn 1.19848 0.34255 -0.28227
vn 1.06587 0.27967 -0.64715
vn 1.16339 0.29167 -0.44163
vn 1.17792 0.38172 -0.31651
vn 1.19848 0.34255 -0.28227
vn -0.35117 -0.61821 1.06211
vn -0.35073 -0.62243 1.05965
vn -0.35048 -0.62482 1.05826
vn 0.65134 0.27461 1.06486
vn 0.59542 0.19410 1.11417
vn 0.59542 0.19410 1.11417
vn 0.59542 0.19410 1.11417
vn 0.53512 0.11215 1.15527
vn 0.59542 0.19410 1.11417
vn -0.75438 0.08623 1.02813
vn -0.75438 0.08623 1.02813
vn -0.69632 0.17120 1.05803
vn -0.80715 0.00065 0.99101
vn -0.75438 0.08623 1.02813
vn -0.75438 0.08623 1.02813
vn -1.25904 -0.06616 -0.20981
vn -1.20589 -0.10356 -0.41066
vn -1.09053 -0.28903 -0.60055
vn 0.71837 -0.00768 -1.05710
vn 0.71580 0.00578 -1.05886
vn 0.01614 -0.53893 -1.15883
vn 0.71837 -0.00768 -1.05710
vn 0.90624 0.02850 -0.90083
vn 0.89874 0.04399 -0.90770
vn 1.08864 -0.37509 0.55476
vn 1.24200 -0.10857 0.28148
vn 1.21345 -0.17318 0.36212
vn 0.91702 -0.05804 -0.86553
vn 0.89563 0.06842 -0.90926
vn 0.89874 0.04399 -0.90770
vn 0.23065 -0.13077 -1.24498
vn -0.28645 0.06836 -1.24373
vn -0.33224 0.08738 -1.23109
vn 0.91702 -0.05804 -0.86553
vn 1.20520 0.06107 -0.42112
vn 0.88413 0.02938 -0.92252
vn -1.12151 -0.07980 -0.55808
vn -0.91515 -0.15216 -0.87158
vn -0.83172 -0.23740 -0.94100
vn -1.12151 -0.07980 -0.55808
vn -0.83172 -0.23740 -0.94100
vn -0.77012 -0.06355 -1.01807
vn 0.91702 -0.05804 -0.86553
vn 1.17101 -0.09320 -0.50363
vn 1.22166 -0.25819 -0.27289
vn 1.25096 0.01436 0.26169
vn 1.24060 -0.00320 0.30740
vn 1.24060 -0.00320 0.30740
vn 1.25096 0.01436 0.26169
vn 1.21418 0.23696 0.32125
vn 1.26452 0.11487 0.14626
vn -1.25647 0.07811 -0.22086
vn -1.26101 -0.11065 -0.17661
vn -1.26831 -0.15647 0.02209
vn 1.21967 -0.15544 0.34902
vn 1.26452 0.11487 0.14626
vn 1.11308 -0.30208 0.55082
vn -0.01720 0.07968 -1.27552
vn -0.06967 0.07857 -1.27380
vn 0.30492 0.06967 -1.23926
vn 0.52490 0.04201 -1.16460
vn -0.01720 0.07968 -1.27552
vn 0.30492 0.06967 -1.23926
vn 0.52490 0.04201 -1.16460
vn 0.30492 0.06967 -1.23926
vn 0.92462 -0.02047 -0.88218
vn 1.09600 -0.07134 -0.65367
vn 0.52490 0.04201 -1.16460
vn 0.92462 -0.02047 -0.88218
vn 1.09600 -0.07134 -0.65367
vn 0.92462 -0.02047 -0.88218
vn 1.20605 -0.09880 -0.41144
vn 1.20600 -0.09842 -0.41165
vn 1.09600 -0.07134 -0.65367
vn 1.20605 -0.09880 -0.41144
vn 1.16070 -0.15240 0.51298
vn 1.16420 -0.14104 0.50826
vn 1.07008 -0.16344 0.67956
vn 0.96218 -0.14540 0.82865
vn 1.16070 -0.15240 0.51298
vn 1.07008 -0.16344 0.67956
vn 0.96218 -0.14540 0.82865
vn 1.07008 -0.16344 0.67956
vn 0.75465 -0.11957 1.02459
vn 0.67498 -0.09191 1.08145
vn 0.96218 -0.14540 0.82865
vn 0.75465 -0.11957 1.02459
vn 0.67498 -0.09191 1.08145
vn 0.75465 -0.11957 1.02459
vn 0.40290 -0.09197 1.20946
vn 0.25712 -1.21807 0.28946
vn 0.27617 -1.21452 0.28683
vn 0.12955 -1.25089 0.22819
vn 0.25712 -1.21807 0.28946
vn 0.33274 -1.21141 0.23530
vn 0.27617 -1.21452 0.28683
vn 0.33274 -1.21141 0.23530
vn 0.45905 -1.19278 0.01185
vn 0.35086 -1.20958 0.21775
vn 0.26925 -1.15730 0.47091
vn 0.16424 -1.15525 0.52154
vn -0.06919 -1.27499 0.05668
vn 0.26925 -1.15730 0.47091
vn 0.43512 -0.94874 0.73766
vn 0.16424 -1.15525 0.52154
vn 0.43512 -0.94874 0.73766
vn 0.26478 -0.94620 0.81743
vn 0.16424 -1.15525 0.52154
vn -0.11492 -0.77163 -1.01241
vn 0.01614 -0.53893 -1.15883
vn -0.07830 -0.74240 -1.03745
vn 0.01614 -0.53893 -1.15883
vn -0.15346 -0.40929 -1.20105
vn -0.07830 -0.74240 -1.03745
vn -0.06919 -1.27499 0.05668
vn -0.21573 -1.21478 -0.33372
vn -0.21573 -1.21478 -0.33372
vn -1.12151 -0.07980 -0.55808
vn -1.24909 -0.02341 -0.26984
vn -1.19410 0.06331 -0.45133
vn -1.24909 -0.02341 -0.26984
vn -1.27323 -0.08357 -0.07414
vn -1.27323 -0.08357 -0.07414
vn -0.21573 -1.21478 -0.33372
vn -0.11728 -1.20088 -0.42157
vn -0.21573 -1.21478 -0.33372
vn 0.56325 -0.78157 0.83993
vn 1.08864 -0.37509 0.55476
vn 0.53276 -0.92578 0.70191
vn 0.26925 -1.15730 0.47091
vn 0.53276 -0.92578 0.70191
vn 0.43512 -0.94874 0.73766
vn 1.08864 -0.37509 0.55476
vn 1.21345 -0.17318 0.36212
vn 1.13646 -0.22984 0.53778
vn -0.06940 -1.10575 0.63725
vn 0.00124 -1.20943 0.41336
vn -0.06919 -1.27499 0.05668
vn -0.83249 0.38987 0.85724
vn -1.15611 0.13022 0.52918
vn -0.75814 0.13030 1.01361
vn -0.80938 -0.11637 0.98232
vn -0.86897 -0.12667 0.89745
vn -0.79524 -0.12048 0.99331
vn -0.86897 -0.12667 0.89745
vn -0.75814 0.13030 1.01361
vn -0.79524 -0.12048 0.99331
vn 0.41329 0.09243 1.19990
vn 0.43336 0.02291 1.19556
vn 0.43954 -0.12685 1.19344
vn 1.08864 -0.37509 0.55476
vn 1.24664 0.10822 0.22781
vn 1.21992 -0.02313 0.32366
vn 0.43336 0.02291 1.19556
vn 0.50122 -0.11424 1.17018
vn 0.56242 -0.39114 1.07902
vn -0.14913 0.15716 1.25484
vn -0.12974 0.23494 1.24348
vn 0.40513 0.31775 1.16385
vn -0.12974 0.23494 1.24348
vn 0.43336 0.02291 1.19556
vn 0.41329 0.09243 1.19990
vn 0.98039 0.16505 0.79355
vn 0.97137 0.32675 0.76371
vn 1.20065 0.26697 0.28637
vn 1.24664 0.10822 0.22781
vn 0.98039 0.16505 0.79355
vn 1.20065 0.26697 0.28637
vn -0.91909 0.30797 -0.83290
vn -0.77012 -0.06355 -1.01807
vn -0.83578 0.13209 -0.95792
vn 1.17792 0.38172 -0.31651
vn 1.16339 0.29167 -0.44163
vn 1.16960 -0.01780 -0.51508
vn 0.93216 0.05065 0.87281
vn 0.98000 0.04902 0.81902
vn 0.98039 0.16505 0.79355
vn -0.17795 0.09674 1.26160
vn -0.12974 0.23494 1.24348
vn -0.14913 0.15716 1.25484
vn 0.88137 0.04175 0.92449
vn 0.93216 0.05065 0.87281
vn 0.98039 0.16505 0.79355
vn -0.19825 0.09481 1.25871
vn -0.17795 0.09674 1.26160
vn -0.14913 0.15716 1.25484
vn -1.19380 0.03802 0.45471
vn -1.06265 0.08835 0.69606
vn -1.15611 0.13022 0.52918
vn -1.26025 -0.02748 0.21103
vn -1.19380 0.03802 0.45471
vn -1.15611 0.13022 0.52918
vn 0.98419 0.80933 -0.09755
vn 0.97781 0.80715 -0.15984
vn 0.97719 0.80864 -0.15588
vn 0.97719 0.80864 -0.15588
vn 0.97781 0.80715 -0.15984
vn 0.96907 0.80304 -0.22174
vn 0.20596 1.07670 -0.65636
vn 0.20277 1.07646 -0.65780
vn -0.00055 1.07868 -0.68486
vn -0.29115 1.10637 -0.56899
vn 0.20596 1.07670 -0.65636
vn -0.00055 1.07868 -0.68486
vn -0.29115 1.10637 -0.56899
vn -0.00055 1.07868 -0.68486
vn -0.52708 1.05419 -0.49363
vn -0.62331 1.07521 -0.29707
vn -0.29115 1.10637 -0.56899
vn -0.52708 1.05419 -0.49363
vn -1.26032 -0.17593 -0.11924
vn -1.26101 -0.11065 -0.17661
vn -1.26721 -0.05067 -0.15873
vn -1.27200 -0.02258 0.12264
vn -1.26032 -0.17593 -0.11924
vn -1.26721 -0.05067 -0.15873
vn 1.25370 -0.22068 0.11440
vn 1.25096 0.01436 0.26169
vn 1.25175 -0.20346 0.15901
vn 1.25096 0.01436 0.26169
vn 1.21967 -0.15544 0.34902
vn 1.25175 -0.20346 0.15901
vn 0.99822 -0.26318 -0.75323
vn 0.86035 -0.34211 -0.88093
vn 0.86072 -0.33003 -0.88495
vn 0.86035 -0.34211 -0.88093
vn 0.42465 -0.44372 -1.12056
vn 0.86072 -0.33003 -0.88495
vn 0.02770 -1.27760 -0.02368
vn 0.02770 -1.27760 -0.02368
vn 0.02770 -1.27760 -0.02368
vn -1.26721 -0.05067 -0.15873
vn -1.25647 0.07811 -0.22086
vn -1.27013 -0.02015 -0.14126
vn -1.26101 -0.11065 -0.17661
vn -1.25647 0.07811 -0.22086
vn -1.26721 -0.05067 -0.15873
vn -1.23969 0.18520 -0.24990
vn -1.25647 0.07811 -0.22086
vn -1.14683 0.13408 -0.54808
vn -1.25647 0.07811 -0.22086
vn -1.23969 0.18520 -0.24990
vn -1.25786 0.21460 0.07300
vn 1.25096 0.01436 0.26169
vn 1.26452 0.11487 0.14626
vn 1.21967 -0.15544 0.34902
vn 0.61297 0.10009 -1.11707
vn 0.62152 0.08450 -1.11363
vn 0.62152 0.08450 -1.11363
vn 1.26452 0.11487 0.14626
vn 1.25050 0.26425 0.00394
vn 1.25594 0.18309 -0.15058
vn 1.26202 0.15716 -0.12726
vn 1.26452 0.11487 0.14626
vn 1.25594 0.18309 -0.15058
vn 0.47398 1.05339 -0.54707
vn 0.47398 1.05339 -0.54707
vn 0.67038 1.03600 -0.33298
vn 0.16068 1.07001 -0.68032
vn 0.47398 1.05339 -0.54707
vn 0.47398 1.05339 -0.54707
vn -0.25466 1.03917 -0.69918
vn 0.16068 1.07001 -0.68032
vn -0.00163 1.07462 -0.69194
vn -0.34001 1.00683 -0.71013
vn -0.25466 1.03917 -0.69918
vn -0.00163 1.07462 -0.69194
vn -1.25647 0.07811 -0.22086
vn -1.15202 0.12431 -0.53943
vn -1.14683 0.13408 -0.54808
vn -0.31402 0.20125 -1.22249
vn -0.31402 0.20125 -1.22249
vn -0.27738 0.14245 -1.23950
vn -0.44803 0.99772 -0.66138
vn -0.25466 1.03917 -0.69918
vn -0.34001 1.00683 -0.71013
vn 0.86474 0.89948 -0.27659
vn 0.81510 0.91701 -0.35817
vn 0.58860 1.04304 -0.44564
vn 0.58860 1.04304 -0.44564
vn 0.81510 0.91701 -0.35817
vn 0.30963 1.10945 -0.55393
vn -0.26524 1.13332 -0.52737
vn 0.58860 1.04304 -0.44564
vn 0.30963 1.10945 -0.55393
vn -0.21932 1.12867 -0.55821
vn -0.26524 1.13332 -0.52737
vn 0.30963 1.10945 -0.55393
vn -0.26524 1.13332 -0.52737
vn -0.21932 1.12867 -0.55821
vn -0.57617 1.04397 -0.46015
vn -0.64965 1.02573 -0.39873
vn -0.26524 1.13332 -0.52737
vn -0.57617 1.04397 -0.46015
vn 0.84648 -0.39807 -0.87098
vn 0.70989 -0.06536 -1.06084
vn 0.84648 -0.39807 -0.87098
vn 0.70989 -0.06536 -1.06084
vn 0.61282 0.10672 -1.11654
vn 0.81642 0.12132 -0.97587
vn 0.70989 -0.06536 -1.06084
vn 0.15426 0.19104 -1.25431
vn 0.61282 0.10672 -1.11654
vn 0.03448 0.24023 -1.25487
vn 0.13671 0.40666 -1.20396
vn 0.15426 0.19104 -1.25431
vn -0.30274 -0.07766 -1.23932
vn 0.03448 0.24023 -1.25487
vn 0.15426 0.19104 -1.25431
vn -0.35249 -0.00066 -1.22855
vn -0.35249 -0.00066 -1.22855
vn -0.30274 -0.07766 -1.23932
vn -0.47138 -0.29608 -1.15053
vn -0.47138 -0.29608 -1.15053
vn -0.30274 -0.07766 -1.23932
vn -0.46658 1.16678 0.23141
vn -0.30745 1.24043 0.02009
vn -0.21902 1.21491 0.32941
vn -0.11645 1.19740 0.43030
vn -0.38356 1.13577 0.44213
vn -0.21902 1.21491 0.32941
vn -0.46658 1.16678 0.23141
vn -0.21902 1.21491 0.32941
vn -0.38356 1.13577 0.44213
vn -0.46658 1.16678 0.23141
vn -0.38356 1.13577 0.44213
vn -0.65939 1.09394 0.03888
vn -1.06307 -0.70931 0.01414
vn -1.06371 -0.70836 0.01832
vn -1.06136 -0.71188 0.00283
vn -0.91909 0.30797 -0.83290
vn -0.87137 0.41798 -0.83615
vn -0.95164 0.48324 -0.70317
vn -0.91909 0.30797 -0.83290
vn -0.83578 0.13209 -0.95792
vn -0.87137 0.41798 -0.83615
vn 1.17792 0.38172 -0.31651
vn 1.25657 0.22973 -0.04244
vn 1.19848 0.34255 -0.28227
vn 0.68261 0.00634 1.08042
vn 0.52272 0.19804 1.14931
vn 0.68246 0.01301 1.08059
vn 0.81525 -0.18761 0.96612
vn 0.68261 0.00634 1.08042
vn 0.68246 0.01301 1.08059
vn 1.19848 0.34255 -0.28227
vn 1.25657 0.22973 -0.04244
vn 1.25455 -0.13389 0.20433
vn -0.92426 0.71595 0.51630
vn -0.92390 0.71852 0.51353
vn -0.98095 0.56738 0.59090
vn -0.85126 0.91251 0.27507
vn -0.92390 0.71852 0.51353
vn -0.92426 0.71595 0.51630
vn -0.85126 0.91251 0.27507
vn -0.82729 0.97022 0.08568
vn -0.82183 0.97770 0.04780
vn -0.19021 1.16319 0.49341
vn -0.13305 1.17535 0.48388
vn -0.13828 1.15827 0.52148
vn -0.13828 1.15827 0.52148
vn -0.13305 1.17535 0.48388
vn -0.05991 1.19763 0.44178
vn -0.04337 1.21157 0.40356
vn -0.05991 1.19763 0.44178
vn -0.04338 1.21157 0.40359
vn 0.69236 0.89714 -0.59066
vn 0.68912 0.91229 -0.57063
vn 0.68992 0.90854 -0.57558
vn 1.25773 0.17491 0.14521
vn 1.24187 0.27536 -0.12435
vn 1.24749 0.27559 0.03662
vn 1.25773 0.17491 0.14521
vn 1.24749 0.27559 0.03662
vn 1.24193 0.12146 0.27651
vn 1.25773 0.17491 0.14521
vn 1.24193 0.12146 0.27651
vn 1.22561 -0.02609 0.36163
vn -1.09053 -0.28903 -0.60055
vn -1.20589 -0.10356 -0.41066
vn -1.01488 -0.17402 -0.75707
vn 0.02027 0.13234 1.27080
vn -0.18575 0.32606 1.22136
vn 0.02032 0.12391 1.27155
vn -0.18575 0.32606 1.22136
vn 0.50304 0.56115 1.03192
vn 0.50335 0.56594 1.02917
vn -0.37072 0.36222 1.16786
vn -0.18575 0.32606 1.22136
vn -0.37072 0.36221 1.16786
vn -0.18575 0.32606 1.22136
vn -0.63708 0.52373 0.97599
vn -0.63737 0.51836 0.97863
vn -0.18575 0.32606 1.22136
vn -0.37904 0.02525 1.22011
vn -0.37884 0.01395 1.22020
vn -0.40352 -0.51998 -1.09534
vn -0.34241 -0.55190 -1.10056
vn -0.17462 -0.55083 -1.13963
vn -0.17462 -0.55083 -1.13963
vn -0.34241 -0.55190 -1.10056
vn -0.27961 -0.56968 -1.10905
vn 0.38049 -0.35497 -1.16698
vn 0.38049 -0.35497 -1.16698
vn 0.42465 -0.44372 -1.12056
vn -0.17462 -0.55083 -1.13963
vn 0.42465 -0.44372 -1.12056
vn 0.16847 -0.54622 -1.14285
vn -0.12259 -1.25364 -0.21665
vn -0.02591 -1.27706 -0.04502
vn -0.10886 -1.25143 -0.23592
vn -0.13750 -1.26891 -0.06746
vn -0.02591 -1.27706 -0.04502
vn -0.13750 -1.26891 -0.06746
vn -0.13086 -1.27098 -0.03267
vn -0.02591 -1.27706 -0.04502
vn -0.13086 -1.27098 -0.03267
vn -0.08689 -1.27405 0.05320
vn -0.02591 -1.27706 -0.04502
vn -0.08689 -1.27405 0.05320
vn 0.03428 -1.26910 0.14766
vn -0.02591 -1.27706 -0.04502
vn 0.02335 -1.26951 0.14627
vn 0.40292 -0.09163 1.20948
vn 0.67498 -0.09191 1.08145
vn 0.40290 -0.09197 1.20946
vn 0.03806 -1.26913 0.14644
vn 0.04013 -1.26915 0.14575
vn 0.12955 -1.25089 0.22819
vn -0.13628 -1.25542 -0.19731
vn -0.02591 -1.27706 -0.04502
vn -0.12259 -1.25364 -0.21665
s 1
f 1/1/1 2/2/2 3/3/3
f 4/4/4 5/5/5 6/6/6
f 7/7/7 8/8/8 9/9/9
f 10/10/10 11/11/11 12/12/12
f 13/13/13 14/14/14 15/15/15
f 16/16/16 17/17/17 18/18/18
f 19/19/19 20/20/20 21/21/21
f 22/22/22 23/23/23 24/24/24
f 25/25/25 26/26/26 27/27/27
f 28/28/28 29/29/29 30/30/30
f 31/31/31 32/32/32 33/33/33
f 34/34/34 35/35/35 36/36/36
f 37/37/37 38/38/38 39/39/39
f 40/40/40 41/41/41 42/42/42
f 43/43/43 44/44/44 45/45/45
f 46/46/46 47/47/47 48/48/48
f 49/49/49 50/50/50 51/51/51
f 52/52/52 53/53/53 54/54/54
f 55/55/55 56/56/56 57/57/57
f 58/58/58 59/59/59 60/60/60
f 61/61/61 62/62/62 63/63/63
f 64/64/64 65/65/65 66/66/66
f 67/67/67 68/68/68 69/69/69
f 70/70/70 71/71/71 72/72/72
f 73/73/73 74/74/74 75/75/75
f 76/76/76 77/77/77 78/78/78
f 79/79/79 80/80/80 81/81/81
f 82/82/82 83/83/83 84/84/84
f 85/85/85 86/86/86 87/87/87
f 88/88/88 89/89/89 90/90/90
f 91/91/91 92/92/92 93/93/93
f 94/94/94 95/95/95 96/96/96
f 97/97/97 98/98/98 99/99/99
f 100/100/100 101/101/101 102/102/102
f 103/103/103 104/104/104 105/105/105
f 106/106/106 107/107/107 108/108/108
f 109/109/109 110/110/110 111/111/111
f 112/112/112 113/113/113 114/114/114
f 115/115/115 116/116/116 117/117/117
f 118/118/118 119/119/119 120/120/120
f 121/121/121 122/122/122 123/123/123
f 124/124/124 125/125/125 126/126/126
f 127/127/127 128/128/128 129/129/129
f 130/130/130 131/131/131 132/132/132
f 133/133/133 134/134/134 135/135/135
f 136/136/136 137/137/137 138/138/138
f 139/139/139 140/140/140 141/141/141
f 142/142/142 143/143/143 144/144/144
f 145/145/145 146/146/146 147/147/147
f 148/148/148 149/149/149 150/150/150
f 151/151/151 152/152/152 153/153/153
f 154/154/154 155/155/155 156/156/156
f 157/157/157 158/158/158 159/159/159
f 160/160/160 161/161/161 162/162/162
f 163/163/163 164/164/164 165/165/165
f 166/166/166 167/167/167 168/168/168
f 169/169/169 170/170/170 171/171/171
f 172/172/172 173/173/173 174/174/174
f 175/175/175 176/176/176 177/177/177
f 178/178/178 179/179/179 180/180/180
f 181/181/181 182/182/182 183/183/183
f 184/184/184 185/185/185 186/186/186
f 187/187/187 188/188/188 189/189/189
f 190/190/190 191/191/191 192/192/192
f 193/193/193 194/194/194 195/195/195
f 196/196/196 197/197/197 198/198/198
f 199/199/199 200/200/200 201/201/201
f 202/202/202 203/203/203 204/204/204
f 205/205/205 206/206/206 207/207/207
f 208/208/208 209/209/209 210/210/210
f 211/211/211 212/212/212 213/213/213
f 214/214/214 215/215/215 216/216/216
f 217/217/217 218/218/218 219/219/219
f 220/220/220 221/221/221 222/222/222
f 223/223/223 224/224/224 225/225/225
f 226/226/226 227/227/227 228/228/228
f 229/229/229 230/230/230 231/231/231
f 232/232/232 233/233/233 234/234/234
f 235/235/235 236/236/236 237/237/237
f 238/238/238 239/239/239 240/240/240
f 241/241/241 242/242/242 243/243/243
f 244/244/244 245/245/245 246/246/246
f 247/247/247 248/248/248 249/249/249
f 250/250/250 251/251/251 252/252/252
f 253/253/253 254/254/254 255/255/255
f 256/256/256 257/257/257 258/258/258
f 259/259/259 260/260/260 261/261/261
f 262/262/262 263/263/263 264/264/264
f 265/265/265 266/266/266 267/267/267
f 268/268/268 269/269/269 270/270/270
f 271/271/271 272/272/272 273/273/273
f 274/274/274 275/275/275 276/276/276
f 277/277/277 278/278/278 279/279/279
f 280/280/280 281/281/281 282/282/282
f 283/283/283 284/284/284 285/285/285
f 286/286/286 287/287/287 288/288/288
f 289/289/289 290/290/290 291/291/291
f 292/292/292 293/293/293 294/294/294
f 295/295/295 296/296/296 297/297/297
f 298/298/298 299/299/299 300/300/300
f 301/301/301 302/302/302 303/303/303
f 304/304/304 305/305/305 306/306/306
f 307/307/307 308/308/308 309/309/309
f 310/310/310 311/311/311 312/312/312
f 313/313/313 314/314/314 315/315/315
f 316/316/316 317/317/317 318/318/318
f 319/319/319 320/320/320 321/321/321
f 322/322/322 323/323/323 324/324/324
f 325/325/325 326/326/326 327/327/327
f 328/328/328 329/329/329 330/330/330
f 331/331/331 332/332/332 333/333/333
f 334/334/334 335/335/335 336/336/336
f 337/337/337 338/338/338 339/339/339
f 340/340/340 341/341/341 342/342/342
f 343/343/343 344/344/344 345/345/345
f 346/346/346 347/347/347 348/348/348
f 349/349/349 350/350/350 351/351/351
f 352/352/352 353/353/353 354/354/354
f 355/355/355 356/356/356 357/357/357
f 358/358/358 359/359/359 360/360/360
f 361/361/361 362/362/362 363/363/363
f 364/364/364 365/365/365 366/366/366
f 367/367/367 368/368/368 369/369/369
f 370/370/370 371/371/371 372/372/372
f 373/373/373 374/374/374 375/375/375
f 376/376/376 377/377/377 378/378/378
f 379/379/379 380/380/380 381/381/381
f 382/382/382 383/383/383 384/384/384
f 385/385/385 386/386/386 387/387/387
f 388/388/388 389/389/389 390/390/390
f 391/391/391 392/392/392 393/393/393
f 394/394/394 395/395/395 396/396/396
f 397/397/397 398/398/398 399/399/399
f 400/400/400 401/401/401 402/402/402
f 403/403/403 404/404/404 405/405/405
f 406/406/406 407/407/407 408/408/408
f 409/409/409 410/410/410 411/411/411
f 412/412/412 413/413/413 414/414/414
f 415/415/415 416/416/416 417/417/417
f 418/418/418 419/419/419 420/420/420
f 421/421/421 422/422/422 423/423/423
f 424/424/424 425/425/425 426/426/426
f 427/427/427 428/428/428 429/429/429
f 430/430/430 431/431/431 432/432/432
f 433/433/433 434/434/434 435/435/435
f 436/436/436 437/437/437 438/438/438
f 439/439/439 440/440/440 441/441/441
f 442/442/442 443/443/443 444/444/444
f 445/445/445 446/446/446 447/447/447
f 448/448/448 449/449/449 450/450/450
f 451/451/451 452/452/452 453/453/453
f 454/454/454 455/455/455 456/456/456
f 457/457/457 458/458/458 459/459/459
f 460/460/460 461/461/461 462/462/462
f 463/463/463 464/464/464 465/465/465
f 466/466/466 467/467/467 468/468/468
f 469/469/469 470/470/470 471/471/471
f 472/472/472 473/473/473 474/474/474
f 475/475/475 476/476/476 477/477/477
f 478/478/478 479/479/479 480/480/480
f 481/481/481 482/482/482 483/483/483
f 484/484/484 485/485/485 486/486/486
f 487/487/487 488/488/488 489/489/489
f 490/490/490 491/491/491 492/492/492
f 493/493/493 494/494/494 495/495/495
f 496/496/496 497/497/497 498/498/498
f 499/499/499 500/500/500 501/501/501
f 502/502/502 503/503/503 504/504/504
f 505/505/505 506/506/506 507/507/507
f 508/508/508 509/509/509 510/510/510
f 511/511/511 512/512/512 513/513/513
f 514/514/514 515/515/515 516/516/516
f 517/517/517 518/518/518 519/519/519
f 520/520/520 521/521/521 522/522/522
f 523/523/523 524/524/524 525/525/525
f 526/526/526 527/527/527 528/528/528
f 529/529/529 530/530/530 531/531/531
f 532/532/532 533/533/533 534/534/534
f 535/535/535 536/536/536 537/537/537
f 538/538/538 539/539/539 540/540/540
f 541/541/541 542/542/542 543/543/543
f 544/544/544 545/545/545 546/546/546
f 547/547/547 548/548/548 549/549/549
f 550/550/550 551/551/551 552/552/552
f 553/553/553 554/554/554 555/555/555
f 556/556/556 557/557/557 558/558/558
f 559/559/559 560/560/560 561/561/561
f 562/562/562 563/563/563 564/564/564
f 565/565/565 566/566/566 567/567/567
f 568/568/568 569/569/569 570/570/570
f 571/571/571 572/572/572 573/573/573
f 574/574/574 575/575/575 576/576/576
f 577/577/577 578/578/578 579/579/579
f 580/580/580 581/581/581 582/582/582
