# Part game/assets/models/jake_leg_l.obj
v -0.03012 -0.82609 0.31041
v -0.08134 -0.82565 0.28866
v -0.17758 -0.82487 0.13973
v -0.08204 -0.82570 0.09839
v -0.03012 -0.82609 0.31041
v -0.17758 -0.82487 0.13973
v -0.03012 -0.82609 0.31041
v -0.08204 -0.82570 0.09839
v 0.02832 -0.82660 0.28630
v -0.08204 -0.82570 0.09839
v 0.00874 -0.82649 0.08145
v 0.02832 -0.82660 0.28630
v 0.00874 -0.82649 0.08145
v 0.05821 -0.82687 0.23289
v 0.02832 -0.82660 0.28630
v 0.00874 -0.82649 0.08145
v -0.08204 -0.82570 0.09839
v -0.00398 -0.82641 -0.02511
v -0.08204 -0.82570 0.09839
v -0.10798 -0.82550 0.02121
v -0.00398 -0.82641 -0.02511
v -0.08204 -0.82570 0.09839
v -0.17758 -0.82487 0.13973
v -0.10798 -0.82550 0.02121
v -0.17758 -0.82487 0.13973
v -0.20252 -0.82468 0.06330
v -0.10798 -0.82550 0.02121
v -0.10798 -0.82550 0.02121
v -0.20252 -0.82468 0.06330
v -0.13507 -0.82531 -0.09777
v -0.10798 -0.82550 0.02121
v -0.13507 -0.82531 -0.09777
v -0.05620 -0.82598 -0.09665
v -0.20252 -0.82468 0.06330
v -0.20594 -0.82468 -0.04007
v -0.13507 -0.82531 -0.09777
v 0.05821 -0.82687 0.23289
v 0.00874 -0.82649 0.08145
v 0.01281 -0.67827 0.09408
v 0.06562 -0.75187 0.24256
v 0.05821 -0.82687 0.23289
v 0.01281 -0.67827 0.09408
v 0.02832 -0.82660 0.28630
v 0.05821 -0.82687 0.23289
v 0.06562 -0.75187 0.24256
v 0.02832 -0.82660 0.28630
v 0.06562 -0.75187 0.24256
v 0.00088 -0.75130 0.31062
v -0.03012 -0.82609 0.31041
v 0.02832 -0.82660 0.28630
v 0.00088 -0.75130 0.31062
v -0.03012 -0.82609 0.31041
v 0.00088 -0.75130 0.31062
v -0.07776 -0.74979 0.29882
v -0.03012 -0.82609 0.31041
v -0.07776 -0.74979 0.29882
v -0.08134 -0.82565 0.28866
v -0.07776 -0.74979 0.29882
v -0.14702 -0.68016 0.14377
v -0.08134 -0.82565 0.28866
v -0.17758 -0.82487 0.13973
v -0.14702 -0.68016 0.14377
v -0.19246 -0.75179 0.03727
v -0.20252 -0.82468 0.06330
v -0.17758 -0.82487 0.13973
v -0.19246 -0.75179 0.03727
v -0.20252 -0.82468 0.06330
v -0.19246 -0.75179 0.03727
v -0.20594 -0.82468 -0.04007
v -0.13507 -0.82531 -0.09777
v -0.13281 -0.77720 -0.09530
v -0.05620 -0.82598 -0.09665
v -0.13281 -0.77720 -0.09530
v -0.05730 -0.77888 -0.08986
v -0.05620 -0.82598 -0.09665
v 0.07207 -0.69881 0.24301
v 0.05465 -0.69918 0.13794
v -0.05074 -0.67337 0.18104
v -0.11228 -0.67434 0.26885
v -0.00648 -0.69555 0.31629
v -0.05074 -0.67337 0.18104
v -0.00648 -0.69555 0.31629
v 0.07207 -0.69881 0.24301
v -0.05074 -0.67337 0.18104
v 0.05167 -0.67341 0.17546
v 0.04484 -0.69497 0.22385
v 0.03269 -0.69464 0.14625
v -0.03055 -0.62861 0.13223
v 0.00186 -0.63609 0.15229
v 0.03269 -0.69464 0.14625
v -0.07619 -0.62136 0.14469
v -0.03055 -0.62861 0.13223
v -0.06758 -0.64169 0.10756
v -0.20173 0.00546 0.09244
v -0.21216 -0.04411 0.08853
v -0.24863 -0.03734 0.08218
v -0.23663 0.01178 0.08752
v -0.20173 0.00546 0.09244
v -0.24863 -0.03734 0.08218
v -0.23663 0.01178 0.08752
v -0.24863 -0.03734 0.08218
v -0.28648 -0.03318 0.11089
v -0.27457 0.01571 0.11638
v -0.23663 0.01178 0.08752
v -0.28648 -0.03318 0.11089
v -0.27457 0.01571 0.11638
v -0.28648 -0.03318 0.11089
v -0.28189 -0.03764 0.15706
v -0.27316 0.01190 0.16062
v -0.27457 0.01571 0.11638
v -0.28189 -0.03764 0.15706
v -0.27316 0.01190 0.16062
v -0.28189 -0.03764 0.15706
v -0.23574 -0.04767 0.17983
v -0.22638 0.00203 0.18076
v -0.27316 0.01190 0.16062
v -0.23574 -0.04767 0.17983
v -0.22638 0.00203 0.18076
v -0.23574 -0.04767 0.17983
v -0.19484 -0.05272 0.15586
v -0.18557 -0.00295 0.15802
v -0.22638 0.00203 0.18076
v -0.19484 -0.05272 0.15586
v -0.18557 -0.00295 0.15802
v -0.19484 -0.05272 0.15586
v -0.18526 -0.05123 0.11908
v -0.17934 -0.00085 0.12208
v -0.18557 -0.00295 0.15802
v -0.18526 -0.05123 0.11908
v -0.17934 -0.00085 0.12208
v -0.18526 -0.05123 0.11908
v -0.21216 -0.04411 0.08853
v -0.20173 0.00546 0.09244
v -0.17934 -0.00085 0.12208
v -0.21216 -0.04411 0.08853
v -0.24766 -0.10713 0.10393
v -0.28666 -0.18980 0.10350
v -0.29346 -0.14452 0.07410
v -0.23739 -0.24887 0.06272
v -0.27589 -0.24643 0.04300
v -0.25295 -0.23297 0.07602
v -0.24766 -0.10713 0.10393
v -0.25116 -0.02796 0.10239
v -0.18579 -0.09556 0.14820
v -0.31753 -0.07868 0.00576
v -0.31480 -0.08739 0.04492
v -0.31335 -0.11997 0.05393
v -0.32315 -0.11097 0.00783
v -0.31753 -0.07868 0.00576
v -0.31335 -0.11997 0.05393
v -0.33114 -0.08836 -0.01313
v -0.31753 -0.07868 0.00576
v -0.32315 -0.11097 0.00783
v -0.33475 -0.10258 -0.01371
v -0.33114 -0.08836 -0.01313
v -0.32315 -0.11097 0.00783
v -0.30625 -0.24325 0.03209
v -0.31357 -0.25940 0.03741
v -0.32870 -0.23790 0.02698
v -0.31357 -0.25940 0.03741
v -0.33533 -0.25225 0.03277
v -0.32870 -0.23790 0.02698
v -0.33533 -0.25225 0.03277
v -0.34063 -0.23640 0.07258
v -0.33179 -0.21873 0.05259
v -0.32870 -0.23790 0.02698
v -0.33533 -0.25225 0.03277
v -0.33179 -0.21873 0.05259
v -0.31357 -0.25940 0.03741
v -0.30625 -0.24325 0.03209
v -0.29942 -0.22377 0.05682
v -0.30372 -0.23719 0.03743
v -0.30815 -0.24128 0.09734
v -0.29503 -0.22213 0.07919
v -0.30372 -0.23719 0.03743
v -0.31229 -0.25291 0.03946
v -0.30815 -0.24128 0.09734
v -0.28377 -0.26430 0.04552
v -0.30815 -0.24128 0.09734
v -0.31229 -0.25291 0.03946
v -0.28377 -0.26430 0.04552
v -0.31229 -0.25291 0.03946
v -0.27589 -0.24643 0.04300
v -0.31229 -0.25291 0.03946
v -0.30372 -0.23719 0.03743
v -0.27589 -0.24643 0.04300
v -0.28377 -0.26430 0.04552
v -0.27589 -0.24643 0.04300
v -0.23739 -0.24887 0.06272
v -0.24440 -0.26646 0.06572
v -0.28377 -0.26430 0.04552
v -0.23739 -0.24887 0.06272
v -0.24440 -0.26646 0.06572
v -0.23739 -0.24887 0.06272
v -0.21581 -0.24131 0.08097
v -0.24440 -0.26646 0.06572
v -0.22365 -0.25941 0.08197
v -0.21008 -0.24290 0.13207
v -0.28796 -0.10844 0.13957
v -0.30641 -0.18969 0.13378
v -0.20515 -0.15985 0.17703
v -0.22065 -0.03651 0.15241
v -0.26450 -0.02831 0.13531
v -0.20184 -0.09456 0.17968
v -0.34095 -0.07614 0.01823
v -0.33779 -0.08554 0.05293
v -0.31480 -0.08739 0.04492
v -0.31753 -0.07868 0.00576
v -0.34095 -0.07614 0.01823
v -0.31480 -0.08739 0.04492
v -0.31753 -0.07868 0.00576
v -0.33114 -0.08836 -0.01313
v -0.34095 -0.07614 0.01823
v -0.33114 -0.08836 -0.01313
v -0.34312 -0.08655 -0.01306
v -0.34095 -0.07614 0.01823
v -0.34095 -0.07614 0.01823
v -0.34312 -0.08655 -0.01306
v -0.34741 -0.11181 0.01847
v -0.34095 -0.07614 0.01823
v -0.34741 -0.11181 0.01847
v -0.34625 -0.10741 0.05486
v -0.32315 -0.11097 0.00783
v -0.34741 -0.11181 0.01847
v -0.34737 -0.10235 -0.01289
v -0.34312 -0.08655 -0.01306
v -0.34737 -0.10235 -0.01289
v -0.34741 -0.11181 0.01847
v -0.33475 -0.10258 -0.01371
v -0.32315 -0.11097 0.00783
v -0.34737 -0.10235 -0.01289
v -0.34737 -0.10235 -0.01289
v -0.34312 -0.08655 -0.01306
v -0.33114 -0.08836 -0.01313
v -0.33475 -0.10258 -0.01371
v -0.34737 -0.10235 -0.01289
v -0.33114 -0.08836 -0.01313
v 0.05167 -0.67341 0.17546
v 0.00462 -0.65425 0.27035
v 0.04484 -0.69497 0.22385
v 0.05167 -0.67341 0.17546
v 0.00227 -0.63299 0.20362
v 0.00462 -0.65425 0.27035
v -0.11228 -0.67434 0.26885
v -0.15656 -0.73726 0.17534
v -0.09310 -0.77447 0.30111
v -0.00648 -0.69555 0.31629
v -0.11228 -0.67434 0.26885
v -0.09310 -0.77447 0.30111
v 0.00162 -0.78119 0.32719
v -0.00648 -0.69555 0.31629
v -0.09310 -0.77447 0.30111
v 0.00162 -0.78119 0.32719
v 0.07207 -0.69881 0.24301
v -0.00648 -0.69555 0.31629
v 0.00162 -0.78119 0.32719
v 0.08489 -0.76247 0.22979
v 0.07207 -0.69881 0.24301
v 0.07207 -0.69881 0.24301
v 0.08489 -0.76247 0.22979
v 0.05465 -0.69918 0.13794
v 0.00560 -0.37708 0.14352
v -0.00151 -0.35051 0.13797
v -0.01439 -0.34845 0.18608
v 0.01276 -0.06288 0.20755
v 0.02280 -0.07997 0.15855
v 0.06443 -0.07166 0.14098
v -0.08766 -0.38341 0.17534
v -0.08038 -0.61715 0.19019
v -0.05208 -0.37691 0.20514
v -0.08766 -0.38341 0.17534
v -0.05208 -0.37691 0.20514
v -0.08537 -0.34781 0.16514
v -0.07619 -0.62136 0.14469
v -0.08038 -0.61715 0.19019
v -0.08766 -0.38341 0.17534
v -0.07463 -0.39111 0.13690
v -0.07619 -0.62136 0.14469
v -0.08766 -0.38341 0.17534
v -0.07463 -0.39111 0.13690
v -0.08766 -0.38341 0.17534
v -0.08537 -0.34781 0.16514
v -0.03055 -0.62861 0.13223
v -0.07619 -0.62136 0.14469
v -0.07463 -0.39111 0.13690
v 0.01276 -0.06288 0.20755
v 0.07160 -0.06214 0.20403
v -0.02811 -0.04828 0.21880
v -0.04000 -0.39348 0.12346
v -0.03055 -0.62861 0.13223
v -0.07463 -0.39111 0.13690
v -0.04000 -0.39348 0.12346
v 0.00560 -0.37708 0.14352
v -0.03055 -0.62861 0.13223
v 0.00560 -0.37708 0.14352
v 0.00186 -0.63609 0.15229
v -0.03055 -0.62861 0.13223
v -0.04000 -0.39348 0.12346
v -0.00151 -0.35051 0.13797
v 0.00560 -0.37708 0.14352
v -0.04000 -0.39348 0.12346
v -0.07463 -0.39111 0.13690
v -0.07919 -0.36717 0.12301
v -0.07463 -0.39111 0.13690
v -0.08537 -0.34781 0.16514
v -0.07919 -0.36717 0.12301
v -0.07919 -0.36717 0.12301
v -0.08537 -0.34781 0.16514
v -0.07836 -0.33509 0.12525
v -0.04396 -0.33590 0.11166
v -0.04485 -0.36510 0.10910
v -0.07836 -0.33509 0.12525
v -0.07836 -0.33509 0.12525
v -0.08537 -0.34781 0.16514
v -0.06832 -0.05764 0.18557
v -0.05994 -0.05334 0.13053
v -0.07836 -0.33509 0.12525
v -0.06832 -0.05764 0.18557
v -0.04396 -0.33590 0.11166
v -0.07836 -0.33509 0.12525
v -0.05994 -0.05334 0.13053
v -0.05994 -0.05334 0.13053
v -0.05835 -0.01214 0.12614
v -0.02218 -0.01604 0.08418
v -0.06832 -0.05764 0.18557
v -0.02811 -0.04828 0.21880
v -0.03003 -0.01511 0.22420
v 0.13622 -0.76672 0.14256
v 0.15023 -0.70429 0.15393
v 0.14844 -0.70302 0.04910
v -0.00398 -0.82641 -0.02511
v -0.10798 -0.82550 0.02121
v -0.05620 -0.82598 -0.09665
v -0.14702 -0.68016 0.14377
v -0.17758 -0.82487 0.13973
v -0.08134 -0.82565 0.28866
v 0.03269 -0.69464 0.14625
v 0.00186 -0.63609 0.15229
v 0.05167 -0.67341 0.17546
v -0.06758 -0.64169 0.10756
v -0.03055 -0.62861 0.13223
v 0.03269 -0.69464 0.14625
v -0.29346 -0.14452 0.07410
v -0.31335 -0.11997 0.05393
v -0.24766 -0.10713 0.10393
v -0.34063 -0.23640 0.07258
v -0.33533 -0.25225 0.03277
v -0.31357 -0.25940 0.03741
v -0.22365 -0.25941 0.08197
v -0.24440 -0.26646 0.06572
v -0.21581 -0.24131 0.08097
v -0.26450 -0.02831 0.13531
v -0.28796 -0.10844 0.13957
v -0.20184 -0.09456 0.17968
v -0.20184 -0.09456 0.17968
v -0.28796 -0.10844 0.13957
v -0.20515 -0.15985 0.17703
v -0.33779 -0.08554 0.05293
v -0.34095 -0.07614 0.01823
v -0.34625 -0.10741 0.05486
v -0.01439 -0.34845 0.18608
v -0.00151 -0.35051 0.13797
v 0.01276 -0.06288 0.20755
v -0.00151 -0.35051 0.13797
v 0.02280 -0.07997 0.15855
v 0.01276 -0.06288 0.20755
v 0.07160 -0.06214 0.20403
v 0.01276 -0.06288 0.20755
v 0.06443 -0.07166 0.14098
v -0.04485 -0.36510 0.10910
v -0.04000 -0.39348 0.12346
v -0.07919 -0.36717 0.12301
v -0.04485 -0.36510 0.10910
v -0.04396 -0.33590 0.11166
v -0.00151 -0.35051 0.13797
v -0.04485 -0.36510 0.10910
v -0.07919 -0.36717 0.12301
v -0.07836 -0.33509 0.12525
v -0.04485 -0.36510 0.10910
v -0.00151 -0.35051 0.13797
v -0.04000 -0.39348 0.12346
v -0.02811 -0.04828 0.21880
v -0.06832 -0.05764 0.18557
v -0.08537 -0.34781 0.16514
v -0.05835 -0.01214 0.12614
v -0.05994 -0.05334 0.13053
v -0.06832 -0.05764 0.18557
v 0.00462 -0.67055 0.07277
v -0.01956 -0.74620 -0.03047
v -0.01736 -0.71631 -0.03763
v -0.19246 -0.75179 0.03727
v -0.15833 -0.67132 0.11630
v -0.20093 -0.72902 0.03531
v -0.17843 -0.57221 0.10550
v -0.16804 -0.56250 0.15016
v -0.14066 -0.52444 0.10141
v -0.17843 -0.57221 0.10550
v -0.14066 -0.52444 0.10141
v -0.16126 -0.55378 0.06229
v -0.16126 -0.55378 0.06229
v -0.14066 -0.52444 0.10141
v -0.05739 -0.55401 0.00740
v -0.14066 -0.52444 0.10141
v -0.04597 -0.52364 0.05197
v -0.05739 -0.55401 0.00740
v -0.05739 -0.55401 0.00740
v -0.04597 -0.52364 0.05197
v 0.00715 -0.56393 0.01787
v -0.04597 -0.52364 0.05197
v 0.01189 -0.54288 0.07818
v 0.00715 -0.56393 0.01787
v 0.00462 -0.67055 0.07277
v 0.00715 -0.56393 0.01787
v 0.01281 -0.67827 0.09408
v 0.00715 -0.56393 0.01787
v 0.01189 -0.54288 0.07818
v 0.01281 -0.67827 0.09408
v -0.14702 -0.68016 0.14377
v -0.16804 -0.56250 0.15016
v -0.17843 -0.57221 0.10550
v -0.15833 -0.67132 0.11630
v -0.14702 -0.68016 0.14377
v -0.17843 -0.57221 0.10550
v -0.15833 -0.67132 0.11630
v -0.17843 -0.57221 0.10550
v -0.16126 -0.55378 0.06229
v -0.13384 -0.65076 0.08213
v -0.15833 -0.67132 0.11630
v -0.16126 -0.55378 0.06229
v -0.05730 -0.77888 -0.08986
v -0.01956 -0.74620 -0.03047
v -0.05620 -0.82598 -0.09665
v -0.01956 -0.74620 -0.03047
v 0.01281 -0.67827 0.09408
v 0.00874 -0.82649 0.08145
v -0.01956 -0.74620 -0.03047
v 0.00462 -0.67055 0.07277
v 0.01281 -0.67827 0.09408
v -0.00398 -0.82641 -0.02511
v -0.01956 -0.74620 -0.03047
v 0.00874 -0.82649 0.08145
v -0.01956 -0.74620 -0.03047
v -0.00398 -0.82641 -0.02511
v -0.05620 -0.82598 -0.09665
v -0.19246 -0.75179 0.03727
v -0.14702 -0.68016 0.14377
v -0.15833 -0.67132 0.11630
v -0.19246 -0.75179 0.03727
v -0.20065 -0.77522 -0.04153
v -0.20594 -0.82468 -0.04007
v -0.20594 -0.82468 -0.04007
v -0.20065 -0.77522 -0.04153
v -0.13507 -0.82531 -0.09777
v -0.20065 -0.77522 -0.04153
v -0.13281 -0.77720 -0.09530
v -0.13507 -0.82531 -0.09777
v -0.16065 -0.74028 -0.01373
v -0.20065 -0.77522 -0.04153
v -0.19246 -0.75179 0.03727
v -0.11698 -0.73893 -0.03650
v -0.13281 -0.77720 -0.09530
v -0.20065 -0.77522 -0.04153
v -0.16065 -0.74028 -0.01373
v -0.11698 -0.73893 -0.03650
v -0.20065 -0.77522 -0.04153
v -0.06713 -0.74037 -0.04259
v -0.01956 -0.74620 -0.03047
v -0.05730 -0.77888 -0.08986
v -0.06713 -0.74037 -0.04259
v -0.05730 -0.77888 -0.08986
v -0.13281 -0.77720 -0.09530
v -0.11698 -0.73893 -0.03650
v -0.06713 -0.74037 -0.04259
v -0.13281 -0.77720 -0.09530
v -0.20093 -0.72902 0.03531
v -0.15833 -0.67132 0.11630
v -0.13384 -0.65076 0.08213
v -0.20093 -0.72902 0.03531
v -0.13384 -0.65076 0.08213
v -0.15759 -0.70571 -0.01345
v -0.13384 -0.65076 0.08213
v -0.04730 -0.65151 0.05438
v -0.15759 -0.70571 -0.01345
v -0.04730 -0.65151 0.05438
v -0.05898 -0.70363 -0.04223
v -0.15759 -0.70571 -0.01345
v -0.05898 -0.70363 -0.04223
v -0.04730 -0.65151 0.05438
v -0.01736 -0.71631 -0.03763
v -0.04730 -0.65151 0.05438
v 0.00462 -0.67055 0.07277
v -0.01736 -0.71631 -0.03763
v -0.16065 -0.74028 -0.01373
v -0.19246 -0.75179 0.03727
v -0.20093 -0.72902 0.03531
v -0.15759 -0.70571 -0.01345
v -0.16065 -0.74028 -0.01373
v -0.20093 -0.72902 0.03531
v -0.11698 -0.73893 -0.03650
v -0.16065 -0.74028 -0.01373
v -0.15759 -0.70571 -0.01345
v -0.15759 -0.70571 -0.01345
v -0.05898 -0.70363 -0.04223
v -0.11698 -0.73893 -0.03650
v -0.05898 -0.70363 -0.04223
v -0.06713 -0.74037 -0.04259
v -0.11698 -0.73893 -0.03650
v -0.05898 -0.70363 -0.04223
v -0.01736 -0.71631 -0.03763
v -0.06713 -0.74037 -0.04259
v -0.01736 -0.71631 -0.03763
v -0.01956 -0.74620 -0.03047
v -0.06713 -0.74037 -0.04259
v -0.05074 -0.67337 0.18104
v 0.05465 -0.69918 0.13794
v -0.06713 -0.62939 0.10281
v -0.06713 -0.62939 0.10281
v 0.05465 -0.69918 0.13794
v 0.01281 -0.67827 0.09408
v -0.06713 -0.62939 0.10281
v -0.13995 -0.65802 0.17333
v -0.05074 -0.67337 0.18104
v -0.13995 -0.65802 0.17333
v -0.11228 -0.67434 0.26885
v -0.05074 -0.67337 0.18104
v -0.10558 -0.66772 0.18957
v -0.07619 -0.62136 0.14469
v -0.06758 -0.64169 0.10756
v -0.08038 -0.61715 0.19019
v -0.07619 -0.62136 0.14469
v -0.10558 -0.66772 0.18957
v -0.09235 -0.63032 0.24090
v -0.08038 -0.61715 0.19019
v -0.10558 -0.66772 0.18957
v -0.09235 -0.63032 0.24090
v -0.10558 -0.66772 0.18957
v -0.08857 -0.67654 0.23565
v -0.09235 -0.63032 0.24090
v -0.08857 -0.67654 0.23565
v -0.02959 -0.68923 0.26765
v 0.00462 -0.65425 0.27035
v -0.09235 -0.63032 0.24090
v -0.02959 -0.68923 0.26765
v 0.00462 -0.65425 0.27035
v -0.02959 -0.68923 0.26765
v 0.04484 -0.69497 0.22385
v -0.29942 -0.22377 0.05682
v -0.30625 -0.24325 0.03209
v -0.32870 -0.23790 0.02698
v -0.33179 -0.21873 0.05259
v -0.29942 -0.22377 0.05682
v -0.32870 -0.23790 0.02698
v -0.29342 -0.20346 0.08139
v -0.29942 -0.22377 0.05682
v -0.33179 -0.21873 0.05259
v -0.32691 -0.20087 0.07722
v -0.29342 -0.20346 0.08139
v -0.33179 -0.21873 0.05259
v -0.31995 -0.18739 0.08968
v -0.29346 -0.14452 0.07410
v -0.28666 -0.18980 0.10350
v -0.31995 -0.18739 0.08968
v -0.28666 -0.18980 0.10350
v -0.29342 -0.20346 0.08139
v -0.32691 -0.20087 0.07722
v -0.31995 -0.18739 0.08968
v -0.29342 -0.20346 0.08139
v -0.28666 -0.18980 0.10350
v -0.24766 -0.10713 0.10393
v -0.24397 -0.19150 0.12102
v -0.28666 -0.18980 0.10350
v -0.24397 -0.19150 0.12102
v -0.24592 -0.21404 0.10687
v -0.28979 -0.19961 0.10005
v -0.28666 -0.18980 0.10350
v -0.24592 -0.21404 0.10687
v -0.28979 -0.19961 0.10005
v -0.24592 -0.21404 0.10687
v -0.25295 -0.23297 0.07602
v -0.29503 -0.22213 0.07919
v -0.28979 -0.19961 0.10005
v -0.25295 -0.23297 0.07602
v -0.25295 -0.23297 0.07602
v -0.27589 -0.24643 0.04300
v -0.29503 -0.22213 0.07919
v -0.29503 -0.22213 0.07919
v -0.27589 -0.24643 0.04300
v -0.30372 -0.23719 0.03743
v -0.21581 -0.24131 0.08097
v -0.23739 -0.24887 0.06272
v -0.25295 -0.23297 0.07602
v -0.21581 -0.24131 0.08097
v -0.25295 -0.23297 0.07602
v -0.20028 -0.22742 0.11372
v -0.25295 -0.23297 0.07602
v -0.24592 -0.21404 0.10687
v -0.20028 -0.22742 0.11372
v -0.24592 -0.21404 0.10687
v -0.24397 -0.19150 0.12102
v -0.19249 -0.19556 0.13178
v -0.20028 -0.22742 0.11372
v -0.24592 -0.21404 0.10687
v -0.19249 -0.19556 0.13178
v -0.19249 -0.19556 0.13178
v -0.24397 -0.19150 0.12102
v -0.18893 -0.15978 0.14377
v -0.24397 -0.19150 0.12102
v -0.24766 -0.10713 0.10393
v -0.18893 -0.15978 0.14377
v -0.18893 -0.15978 0.14377
v -0.24766 -0.10713 0.10393
v -0.18579 -0.09556 0.14820
v -0.31335 -0.11997 0.05393
v -0.27854 -0.09268 0.07049
v -0.24766 -0.10713 0.10393
v -0.27854 -0.09268 0.07049
v -0.25116 -0.02796 0.10239
v -0.24766 -0.10713 0.10393
v -0.27854 -0.09268 0.07049
v -0.28436 -0.05140 0.07639
v -0.25116 -0.02796 0.10239
v -0.30768 -0.07935 0.06673
v -0.31335 -0.11997 0.05393
v -0.31480 -0.08739 0.04492
v -0.27854 -0.09268 0.07049
v -0.30768 -0.07935 0.06673
v -0.28436 -0.05140 0.07639
v -0.30768 -0.07935 0.06673
v -0.27854 -0.09268 0.07049
v -0.31335 -0.11997 0.05393
v -0.34063 -0.23640 0.07258
v -0.33967 -0.21506 0.09879
v -0.33179 -0.21873 0.05259
v -0.33967 -0.21506 0.09879
v -0.32691 -0.20087 0.07722
v -0.33179 -0.21873 0.05259
v -0.33967 -0.21506 0.09879
v -0.33685 -0.18830 0.11025
v -0.32691 -0.20087 0.07722
v -0.33685 -0.18830 0.11025
v -0.31995 -0.18739 0.08968
v -0.32691 -0.20087 0.07722
v -0.33685 -0.18830 0.11025
v -0.30641 -0.18969 0.13378
v -0.33047 -0.13316 0.10676
v -0.30641 -0.18969 0.13378
v -0.28796 -0.10844 0.13957
v -0.33047 -0.13316 0.10676
v -0.33685 -0.18830 0.11025
v -0.33047 -0.13316 0.10676
v -0.31995 -0.18739 0.08968
v -0.30945 -0.22537 0.11197
v -0.30641 -0.18969 0.13378
v -0.33685 -0.18830 0.11025
v -0.33967 -0.21506 0.09879
v -0.30945 -0.22537 0.11197
v -0.33685 -0.18830 0.11025
v -0.33967 -0.21506 0.09879
v -0.34063 -0.23640 0.07258
v -0.30945 -0.22537 0.11197
v -0.31256 -0.24651 0.08130
v -0.31357 -0.25940 0.03741
v -0.29942 -0.22377 0.05682
v -0.31256 -0.24651 0.08130
v -0.34063 -0.23640 0.07258
v -0.31357 -0.25940 0.03741
v -0.34063 -0.23640 0.07258
v -0.31256 -0.24651 0.08130
v -0.30945 -0.22537 0.11197
v -0.31256 -0.24651 0.08130
v -0.29942 -0.22377 0.05682
v -0.29342 -0.20346 0.08139
v -0.30945 -0.22537 0.11197
v -0.31256 -0.24651 0.08130
v -0.29342 -0.20346 0.08139
v -0.30945 -0.22537 0.11197
v -0.29342 -0.20346 0.08139
v -0.28666 -0.18980 0.10350
v -0.30641 -0.18969 0.13378
v -0.30945 -0.22537 0.11197
v -0.28666 -0.18980 0.10350
v -0.33047 -0.13316 0.10676
v -0.31536 -0.13549 0.08286
v -0.31995 -0.18739 0.08968
v -0.31536 -0.13549 0.08286
v -0.29346 -0.14452 0.07410
v -0.31995 -0.18739 0.08968
v -0.31335 -0.11997 0.05393
v -0.31536 -0.13549 0.08286
v -0.33047 -0.13316 0.10676
v -0.31335 -0.11997 0.05393
v -0.29346 -0.14452 0.07410
v -0.31536 -0.13549 0.08286
v -0.31335 -0.11997 0.05393
v -0.34625 -0.10741 0.05486
v -0.34741 -0.11181 0.01847
v -0.31335 -0.11997 0.05393
v -0.34741 -0.11181 0.01847
v -0.32315 -0.11097 0.00783
v -0.30768 -0.20979 0.12779
v -0.30641 -0.18969 0.13378
v -0.28666 -0.18980 0.10350
v -0.30815 -0.24128 0.09734
v -0.30768 -0.20979 0.12779
v -0.28979 -0.19961 0.10005
v -0.29503 -0.22213 0.07919
v -0.30815 -0.24128 0.09734
v -0.28979 -0.19961 0.10005
v -0.28979 -0.19961 0.10005
v -0.30768 -0.20979 0.12779
v -0.28666 -0.18980 0.10350
v -0.30641 -0.18969 0.13378
v -0.25770 -0.20988 0.14719
v -0.20515 -0.15985 0.17703
v -0.30768 -0.20979 0.12779
v -0.30815 -0.24128 0.09734
v -0.25770 -0.20988 0.14719
v -0.30641 -0.18969 0.13378
v -0.30768 -0.20979 0.12779
v -0.25770 -0.20988 0.14719
v -0.25373 -0.24358 0.11694
v -0.28377 -0.26430 0.04552
v -0.24440 -0.26646 0.06572
v -0.25373 -0.24358 0.11694
v -0.24440 -0.26646 0.06572
v -0.21008 -0.24290 0.13207
v -0.25373 -0.24358 0.11694
v -0.30815 -0.24128 0.09734
v -0.28377 -0.26430 0.04552
v -0.30815 -0.24128 0.09734
v -0.25373 -0.24358 0.11694
v -0.25770 -0.20988 0.14719
v -0.25373 -0.24358 0.11694
v -0.21008 -0.24290 0.13207
v -0.20648 -0.20555 0.16373
v -0.25770 -0.20988 0.14719
v -0.25373 -0.24358 0.11694
v -0.20648 -0.20555 0.16373
v -0.25770 -0.20988 0.14719
v -0.20648 -0.20555 0.16373
v -0.20515 -0.15985 0.17703
v -0.21008 -0.24290 0.13207
v -0.22365 -0.25941 0.08197
v -0.20028 -0.22742 0.11372
v -0.22365 -0.25941 0.08197
v -0.21581 -0.24131 0.08097
v -0.20028 -0.22742 0.11372
v -0.21008 -0.24290 0.13207
v -0.20028 -0.22742 0.11372
v -0.19249 -0.19556 0.13178
v -0.20648 -0.20555 0.16373
v -0.21008 -0.24290 0.13207
v -0.19249 -0.19556 0.13178
v -0.20515 -0.15985 0.17703
v -0.20648 -0.20555 0.16373
v -0.18893 -0.15978 0.14377
v -0.20515 -0.15985 0.17703
v -0.18893 -0.15978 0.14377
v -0.20184 -0.09456 0.17968
v -0.20648 -0.20555 0.16373
v -0.19249 -0.19556 0.13178
v -0.18893 -0.15978 0.14377
v -0.18893 -0.15978 0.14377
v -0.18579 -0.09556 0.14820
v -0.20184 -0.09456 0.17968
v -0.20184 -0.09456 0.17968
v -0.18579 -0.09556 0.14820
v -0.22065 -0.03651 0.15241
v -0.26450 -0.02831 0.13531
v -0.31816 -0.06148 0.10294
v -0.28796 -0.10844 0.13957
v -0.31816 -0.06148 0.10294
v -0.33047 -0.13316 0.10676
v -0.28796 -0.10844 0.13957
v -0.31816 -0.06148 0.10294
v -0.26450 -0.02831 0.13531
v -0.28436 -0.05140 0.07639
v -0.26450 -0.02831 0.13531
v -0.25116 -0.02796 0.10239
v -0.28436 -0.05140 0.07639
v -0.34625 -0.10741 0.05486
v -0.32901 -0.08093 0.08488
v -0.33779 -0.08554 0.05293
v -0.31816 -0.06148 0.10294
v -0.32901 -0.08093 0.08488
v -0.33047 -0.13316 0.10676
v -0.32901 -0.08093 0.08488
v -0.31816 -0.06148 0.10294
v -0.28436 -0.05140 0.07639
v -0.32901 -0.08093 0.08488
v -0.28436 -0.05140 0.07639
v -0.30768 -0.07935 0.06673
v -0.33779 -0.08554 0.05293
v -0.32901 -0.08093 0.08488
v -0.30768 -0.07935 0.06673
v -0.33779 -0.08554 0.05293
v -0.30768 -0.07935 0.06673
v -0.31480 -0.08739 0.04492
v -0.32901 -0.08093 0.08488
v -0.33597 -0.11941 0.08359
v -0.33047 -0.13316 0.10676
v -0.33597 -0.11941 0.08359
v -0.31335 -0.11997 0.05393
v -0.33047 -0.13316 0.10676
v -0.34625 -0.10741 0.05486
v -0.33597 -0.11941 0.08359
v -0.32901 -0.08093 0.08488
v -0.33597 -0.11941 0.08359
v -0.34625 -0.10741 0.05486
v -0.31335 -0.11997 0.05393
v 0.00186 -0.63609 0.15229
v 0.00227 -0.63299 0.20362
v 0.05167 -0.67341 0.17546
v 0.00462 -0.65425 0.27035
v 0.00227 -0.63299 0.20362
v -0.03979 -0.62912 0.21767
v 0.00462 -0.65425 0.27035
v -0.03979 -0.62912 0.21767
v -0.09235 -0.63032 0.24090
v -0.09235 -0.63032 0.24090
v -0.03979 -0.62912 0.21767
v -0.08038 -0.61715 0.19019
v -0.06713 -0.62939 0.10281
v -0.14702 -0.68016 0.14377
v -0.13995 -0.65802 0.17333
v -0.14702 -0.68016 0.14377
v -0.15656 -0.73726 0.17534
v -0.13995 -0.65802 0.17333
v -0.13995 -0.65802 0.17333
v -0.15656 -0.73726 0.17534
v -0.11228 -0.67434 0.26885
v 0.05465 -0.69918 0.13794
v 0.08489 -0.76247 0.22979
v 0.02817 -0.74630 0.12138
v 0.05465 -0.69918 0.13794
v 0.02817 -0.74630 0.12138
v 0.01281 -0.67827 0.09408
v 0.07072 0.01612 0.00742
v 0.06924 -0.03531 0.00429
v 0.01438 0.01588 0.03548
v 0.13114 -0.03600 -0.00704
v 0.06924 -0.03531 0.00429
v 0.13262 0.01487 -0.00399
v 0.01438 0.01588 0.03548
v 0.01294 -0.03499 0.03241
v -0.05166 0.00685 0.09198
v 0.01294 -0.03499 0.03241
v -0.05276 -0.03063 0.08947
v -0.05166 0.00685 0.09198
v -0.05166 0.00685 0.09198
v -0.05276 -0.03063 0.08947
v -0.07924 0.00433 0.17022
v -0.05276 -0.03063 0.08947
v -0.07819 -0.03245 0.16615
v -0.07924 0.00433 0.17022
v -0.07924 0.00433 0.17022
v -0.07819 -0.03245 0.16615
v -0.06241 0.00039 0.22101
v -0.07819 -0.03245 0.16615
v -0.06122 -0.03555 0.21760
v -0.06241 0.00039 0.22101
v -0.06241 0.00039 0.22101
v -0.06122 -0.03555 0.21760
v -0.00132 -0.00122 0.25547
v -0.06122 -0.03555 0.21760
v -0.00118 -0.03659 0.25081
v -0.00132 -0.00122 0.25547
v -0.00132 -0.00122 0.25547
v -0.00118 -0.03659 0.25081
v 0.07202 -0.00562 0.25924
v -0.00118 -0.03659 0.25081
v 0.07088 -0.04203 0.25683
v 0.07202 -0.00562 0.25924
v 0.07202 -0.00562 0.25924
v 0.07088 -0.04203 0.25683
v 0.15010 -0.00497 0.24575
v 0.07088 -0.04203 0.25683
v 0.14900 -0.04132 0.24336
v 0.15010 -0.00497 0.24575
v -0.00132 -0.00122 0.25547
v 0.07202 -0.00562 0.25924
v 0.07750 0.00209 0.28385
v 0.07750 0.00209 0.28385
v 0.07202 -0.00562 0.25924
v 0.15972 -0.00137 0.27448
v 0.07202 -0.00562 0.25924
v 0.15010 -0.00497 0.24575
v 0.15972 -0.00137 0.27448
v -0.06713 -0.62939 0.10281
v 0.01281 -0.67827 0.09408
v 0.01189 -0.54288 0.07818
v -0.04597 -0.52364 0.05197
v -0.06713 -0.62939 0.10281
v 0.01189 -0.54288 0.07818
v -0.06713 -0.62939 0.10281
v -0.04597 -0.52364 0.05197
v -0.14066 -0.52444 0.10141
v -0.16804 -0.56250 0.15016
v -0.06713 -0.62939 0.10281
v -0.14066 -0.52444 0.10141
v -0.14702 -0.68016 0.14377
v -0.06713 -0.62939 0.10281
v -0.16804 -0.56250 0.15016
v 0.00462 -0.67055 0.07277
v -0.04730 -0.65151 0.05438
v -0.05739 -0.55401 0.00740
v 0.00462 -0.67055 0.07277
v -0.05739 -0.55401 0.00740
v 0.00715 -0.56393 0.01787
v -0.13384 -0.65076 0.08213
v -0.16126 -0.55378 0.06229
v -0.05739 -0.55401 0.00740
v -0.13384 -0.65076 0.08213
v -0.05739 -0.55401 0.00740
v -0.04730 -0.65151 0.05438
v 0.00227 -0.63299 0.20362
v 0.00186 -0.63609 0.15229
v 0.00560 -0.37708 0.14352
v -0.01517 -0.37637 0.19382
v 0.00227 -0.63299 0.20362
v 0.00560 -0.37708 0.14352
v -0.05208 -0.37691 0.20514
v -0.01517 -0.37637 0.19382
v -0.01439 -0.34845 0.18608
v -0.01517 -0.37637 0.19382
v 0.00560 -0.37708 0.14352
v -0.01439 -0.34845 0.18608
v -0.08038 -0.61715 0.19019
v -0.03979 -0.62912 0.21767
v -0.05208 -0.37691 0.20514
v -0.05208 -0.37691 0.20514
v -0.03979 -0.62912 0.21767
v -0.01517 -0.37637 0.19382
v -0.03979 -0.62912 0.21767
v 0.00227 -0.63299 0.20362
v -0.01517 -0.37637 0.19382
v -0.05186 -0.34741 0.19736
v -0.01439 -0.34845 0.18608
v 0.01276 -0.06288 0.20755
v -0.05208 -0.37691 0.20514
v -0.05186 -0.34741 0.19736
v -0.08537 -0.34781 0.16514
v -0.02811 -0.04828 0.21880
v -0.05186 -0.34741 0.19736
v 0.01276 -0.06288 0.20755
v -0.05186 -0.34741 0.19736
v -0.02811 -0.04828 0.21880
v -0.08537 -0.34781 0.16514
v -0.05186 -0.34741 0.19736
v -0.05208 -0.37691 0.20514
v -0.01439 -0.34845 0.18608
v 0.02280 -0.07997 0.15855
v -0.00151 -0.35051 0.13797
v -0.04396 -0.33590 0.11166
v -0.01804 -0.05683 0.10745
v 0.02280 -0.07997 0.15855
v -0.04396 -0.33590 0.11166
v -0.01804 -0.05683 0.10745
v -0.05994 -0.05334 0.13053
v -0.02218 -0.01604 0.08418
v -0.01804 -0.05683 0.10745
v -0.04396 -0.33590 0.11166
v -0.05994 -0.05334 0.13053
v -0.01804 -0.05683 0.10745
v -0.02218 -0.01604 0.08418
v 0.03302 -0.05384 0.07588
v -0.01804 -0.05683 0.10745
v 0.03302 -0.05384 0.07588
v 0.02280 -0.07997 0.15855
v 0.03302 -0.05384 0.07588
v 0.06443 -0.07166 0.14098
v 0.02280 -0.07997 0.15855
v 0.03302 -0.05384 0.07588
v 0.08279 -0.05096 0.04526
v 0.06443 -0.07166 0.14098
v 0.03302 -0.05384 0.07588
v 0.01973 -0.01565 0.04794
v 0.08279 -0.05096 0.04526
v -0.02218 -0.01604 0.08418
v 0.01973 -0.01565 0.04794
v 0.03302 -0.05384 0.07588
v -0.06704 -0.01103 0.18897
v -0.05835 -0.01214 0.12614
v -0.06832 -0.05764 0.18557
v -0.06704 -0.01103 0.18897
v -0.06832 -0.05764 0.18557
v -0.03003 -0.01511 0.22420
v -0.03003 -0.01511 0.22420
v -0.02811 -0.04828 0.21880
v 0.00932 -0.02292 0.24350
v -0.02811 -0.04828 0.21880
v 0.07160 -0.06214 0.20403
v 0.00932 -0.02292 0.24350
v 0.00932 -0.02292 0.24350
v 0.07160 -0.06214 0.20403
v 0.07607 -0.02436 0.24555
v 0.07607 -0.02436 0.24555
v 0.07160 -0.06214 0.20403
v 0.13318 -0.05980 0.19648
v 0.01973 -0.01565 0.04794
v 0.07607 -0.01751 0.02425
v 0.08279 -0.05096 0.04526
v 0.07607 -0.01751 0.02425
v 0.13533 -0.01663 0.00935
v 0.08279 -0.05096 0.04526
v 0.13533 -0.01663 0.00935
v 0.14092 -0.05476 0.03986
v 0.08279 -0.05096 0.04526
v -0.28189 -0.03764 0.15706
v -0.28648 -0.03318 0.11089
v -0.23267 -0.02916 0.12886
v -0.28189 -0.03764 0.15706
v -0.23267 -0.02916 0.12886
v -0.23574 -0.04767 0.17983
v -0.23267 -0.02916 0.12886
v -0.28648 -0.03318 0.11089
v -0.24863 -0.03734 0.08218
v -0.23267 -0.02916 0.12886
v -0.19484 -0.05272 0.15586
v -0.23574 -0.04767 0.17983
v -0.23267 -0.02916 0.12886
v -0.24863 -0.03734 0.08218
v -0.21216 -0.04411 0.08853
v -0.19484 -0.05272 0.15586
v -0.23267 -0.02916 0.12886
v -0.18526 -0.05123 0.11908
v -0.18526 -0.05123 0.11908
v -0.23267 -0.02916 0.12886
v -0.21216 -0.04411 0.08853
v -0.06122 -0.03555 0.21760
v 0.11256 -0.02013 0.13367
v -0.00118 -0.03659 0.25081
v -0.00118 -0.03659 0.25081
v 0.11256 -0.02013 0.13367
v 0.07088 -0.04203 0.25683
v -0.07819 -0.03245 0.16615
v 0.11256 -0.02013 0.13367
v -0.06122 -0.03555 0.21760
v 0.07088 -0.04203 0.25683
v 0.11256 -0.02013 0.13367
v 0.14900 -0.04132 0.24336
v -0.05276 -0.03063 0.08947
v 0.11256 -0.02013 0.13367
v -0.07819 -0.03245 0.16615
v 0.01294 -0.03499 0.03241
v 0.11256 -0.02013 0.13367
v -0.05276 -0.03063 0.08947
v 0.13114 -0.03600 -0.00704
v 0.11256 -0.02013 0.13367
v 0.06924 -0.03531 0.00429
v 0.06924 -0.03531 0.00429
v 0.07072 0.01612 0.00742
v 0.13262 0.01487 -0.00399
v 0.06924 -0.03531 0.00429
v 0.01294 -0.03499 0.03241
v 0.01438 0.01588 0.03548
v 0.13318 -0.05980 0.19648
v 0.07160 -0.06214 0.20403
v 0.06443 -0.07166 0.14098
v 0.14578 -0.02447 0.23329
v 0.07607 -0.02436 0.24555
v 0.13318 -0.05980 0.19648
v 0.08279 -0.05096 0.04526
v 0.14092 -0.05476 0.03986
v 0.15464 -0.07243 0.11088
v 0.06924 -0.03531 0.00429
v 0.11256 -0.02013 0.13367
v 0.01294 -0.03499 0.03241
v -0.25116 -0.02796 0.10239
v -0.20509 -0.03820 0.12713
v -0.18579 -0.09556 0.14820
v -0.18579 -0.09556 0.14820
v -0.20509 -0.03820 0.12713
v -0.22065 -0.03651 0.15241
v 0.13318 -0.05980 0.19648
v 0.10889 -0.07139 0.12397
v 0.15464 -0.07243 0.11088
v 0.10889 -0.07139 0.12397
v 0.13318 -0.05980 0.19648
v 0.06443 -0.07166 0.14098
v 0.10889 -0.07139 0.12397
v 0.08279 -0.05096 0.04526
v 0.15464 -0.07243 0.11088
v 0.08279 -0.05096 0.04526
v 0.10889 -0.07139 0.12397
v 0.06443 -0.07166 0.14098
vt 0.99512 0.57031
vt 0.95215 0.59814
vt 0.91943 0.70703
vt 0.99512 0.71924
vt 0.99512 0.57031
vt 0.91943 0.70703
vt 0.99512 0.57031
vt 0.99512 0.71924
vt 0.99512 0.57031
vt 0.99512 0.71924
vt 0.91943 0.70703
vt 0.99512 0.57031
vt 0.91943 0.70703
vt 0.95215 0.59814
vt 0.99512 0.57031
vt 0.91943 0.70703
vt 0.99512 0.71924
vt 0.91943 0.75977
vt 0.99512 0.71924
vt 0.99512 0.76318
vt 0.91943 0.75977
vt 0.99512 0.71924
vt 0.91943 0.70703
vt 0.99512 0.76318
vt 0.91943 0.70703
vt 0.91943 0.75977
vt 0.99512 0.76318
vt 0.99512 0.76318
vt 0.91943 0.75977
vt 0.99512 0.84570
vt 0.99512 0.76318
vt 0.99512 0.84570
vt 0.93896 0.82471
vt 0.91943 0.75977
vt 0.93896 0.82471
vt 0.99512 0.84570
vt 0.57227 0.42798
vt 0.57227 0.50049
vt 0.63281 0.49487
vt 0.60400 0.42358
vt 0.57227 0.42798
vt 0.63281 0.49487
vt 0.57227 0.41431
vt 0.57227 0.42798
vt 0.60400 0.42358
vt 0.57227 0.41431
vt 0.60400 0.42358
vt 0.59717 0.40088
vt 0.57227 0.41431
vt 0.57227 0.41431
vt 0.59717 0.40088
vt 0.57227 0.41431
vt 0.59717 0.40088
vt 0.60400 0.42358
vt 0.57227 0.41431
vt 0.60400 0.42358
vt 0.57227 0.42798
vt 0.60400 0.42358
vt 0.63281 0.49487
vt 0.57227 0.42798
vt 0.57227 0.50049
vt 0.63281 0.49487
vt 0.60303 0.53418
vt 0.57227 0.53418
vt 0.57227 0.50049
vt 0.60303 0.53418
vt 0.57227 0.53418
vt 0.60303 0.53418
vt 0.57178 0.56982
vt 0.57178 0.60303
vt 0.59424 0.60303
vt 0.57178 0.56982
vt 0.59424 0.60303
vt 0.59424 0.56982
vt 0.57178 0.56982
vt 0.01886 0.44287
vt 0.02216 0.47144
vt 0.04703 0.47266
vt 0.01886 0.44287
vt 0.04703 0.42041
vt 0.04703 0.47266
vt 0.04703 0.42041
vt 0.01886 0.44287
vt 0.04703 0.47266
vt 0.02422 0.53955
vt 0.00608 0.54443
vt 0.00608 0.56982
vt 0.00608 0.60156
vt 0.03659 0.57324
vt 0.00608 0.56982
vt 0.02275 0.58643
vt 0.00608 0.60156
vt 0.00608 0.60156
vt 0.00570 0.71338
vt 0.00570 0.66455
vt 0.05539 0.66455
vt 0.05539 0.71338
vt 0.00570 0.71338
vt 0.05539 0.66455
vt 0.05539 0.71338
vt 0.05539 0.66455
vt 0.10260 0.66455
vt 0.10260 0.71338
vt 0.05539 0.71338
vt 0.10260 0.66455
vt 0.10260 0.71338
vt 0.10260 0.66455
vt 0.14807 0.66455
vt 0.14807 0.71338
vt 0.10260 0.71338
vt 0.14807 0.66455
vt 0.14807 0.71338
vt 0.14807 0.66455
vt 0.19531 0.66455
vt 0.19531 0.71338
vt 0.14807 0.71338
vt 0.19531 0.66455
vt 0.19531 0.71338
vt 0.19531 0.66455
vt 0.24060 0.66455
vt 0.24060 0.71338
vt 0.19531 0.71338
vt 0.24060 0.66455
vt 0.24060 0.71338
vt 0.24060 0.66455
vt 0.29395 0.66406
vt 0.29150 0.71387
vt 0.24060 0.71338
vt 0.29395 0.66406
vt 0.29150 0.71387
vt 0.29395 0.66406
vt 0.33643 0.66406
vt 0.33887 0.71338
vt 0.29150 0.71387
vt 0.33643 0.66406
vt 0.95215 0.95264
vt 0.94434 0.89697
vt 0.91895 0.92188
vt 0.97900 0.85205
vt 0.95947 0.84131
vt 0.96924 0.85596
vt 0.95215 0.95264
vt 0.94727 0.99463
vt 0.99365 0.95752
vt 0.88672 0.93359
vt 0.89355 0.94238
vt 0.91602 0.92188
vt 0.90674 0.91602
vt 0.88672 0.93359
vt 0.91602 0.92188
vt 0.87354 0.91553
vt 0.88672 0.93359
vt 0.90674 0.91602
vt 0.88232 0.90527
vt 0.87354 0.91553
vt 0.90674 0.91602
vt 0.83154 0.84277
vt 0.82031 0.84668
vt 0.82715 0.82861
vt 0.82031 0.84668
vt 0.81445 0.83643
vt 0.82715 0.82861
vt 0.81445 0.83643
vt 0.78613 0.85059
vt 0.78320 0.83545
vt 0.81689 0.82568
vt 0.81445 0.83643
vt 0.78320 0.83545
vt 0.82031 0.84668
vt 0.82861 0.85254
vt 0.79639 0.87939
vt 0.82568 0.89014
vt 0.79590 0.89746
vt 0.79834 0.88721
vt 0.82568 0.89014
vt 0.83252 0.89648
vt 0.79590 0.89746
vt 0.83154 0.92285
vt 0.79590 0.89746
vt 0.83252 0.89648
vt 0.83154 0.92285
vt 0.83252 0.89648
vt 0.84717 0.92188
vt 0.83252 0.89648
vt 0.84619 0.89697
vt 0.84717 0.92188
vt 0.83154 0.92285
vt 0.84717 0.92188
vt 0.84668 0.95361
vt 0.82910 0.95508
vt 0.83154 0.92285
vt 0.84668 0.95361
vt 0.82910 0.95508
vt 0.84668 0.95361
vt 0.84668 0.96680
vt 0.82910 0.95508
vt 0.82812 0.96875
vt 0.79492 0.97412
vt 0.70557 0.91309
vt 0.74951 0.88721
vt 0.73975 0.97461
vt 0.66650 0.96875
vt 0.65771 0.93750
vt 0.70654 0.97168
vt 0.67578 0.83301
vt 0.68652 0.85010
vt 0.67041 0.84766
vt 0.66943 0.83545
vt 0.67578 0.83301
vt 0.67041 0.84766
vt 0.66943 0.83545
vt 0.67578 0.81348
vt 0.67578 0.83301
vt 0.67578 0.81348
vt 0.68652 0.81396
vt 0.67578 0.83301
vt 0.67578 0.83301
vt 0.68652 0.81396
vt 0.71045 0.83301
vt 0.67578 0.83301
vt 0.71045 0.83301
vt 0.70752 0.84570
vt 0.72168 0.82910
vt 0.71045 0.83301
vt 0.70264 0.81445
vt 0.68652 0.81396
vt 0.70264 0.81445
vt 0.71045 0.83301
vt 0.71191 0.81006
vt 0.72168 0.82910
vt 0.70264 0.81445
vt 0.70264 0.81445
vt 0.68652 0.81396
vt 0.68555 0.80371
vt 0.70312 0.80225
vt 0.70264 0.81445
vt 0.68555 0.80371
vt 0.02422 0.53955
vt 0.02109 0.50586
vt 0.00608 0.54443
vt 0.02422 0.53955
vt 0.04242 0.52734
vt 0.02109 0.50586
vt 0.01886 0.44287
vt 0.00130 0.45728
vt 0.01927 0.41357
vt 0.04703 0.42041
vt 0.01886 0.44287
vt 0.01927 0.41357
vt 0.04703 0.40186
vt 0.04703 0.42041
vt 0.01927 0.41357
vt 0.04703 0.40186
vt 0.01886 0.44287
vt 0.04703 0.42041
vt 0.04703 0.40186
vt 0.01927 0.41357
vt 0.01886 0.44287
vt 0.01886 0.44287
vt 0.01927 0.41357
vt 0.02216 0.47144
vt 0.24866 0.35864
vt 0.24866 0.38647
vt 0.21472 0.38647
vt 0.21472 0.57861
vt 0.24866 0.57861
vt 0.26367 0.59131
vt 0.14746 0.36060
vt 0.14746 0.21765
vt 0.18140 0.35864
vt 0.14746 0.36060
vt 0.18140 0.35864
vt 0.14746 0.38452
vt 0.11456 0.21765
vt 0.14746 0.21765
vt 0.14746 0.36060
vt 0.11456 0.36060
vt 0.11456 0.21765
vt 0.14746 0.36060
vt 0.11456 0.36060
vt 0.14746 0.36060
vt 0.14746 0.38452
vt 0.08472 0.21765
vt 0.11456 0.21765
vt 0.11456 0.36060
vt 0.21472 0.57861
vt 0.23877 0.60840
vt 0.18140 0.57861
vt 0.08472 0.36060
vt 0.08472 0.21765
vt 0.11456 0.36060
vt 0.08472 0.36060
vt 0.05118 0.36060
vt 0.08472 0.21765
vt 0.05118 0.36060
vt 0.05118 0.21765
vt 0.08472 0.21765
vt 0.08472 0.36060
vt 0.05118 0.38452
vt 0.05118 0.36060
vt 0.08472 0.36060
vt 0.11456 0.36060
vt 0.11456 0.38452
vt 0.11456 0.36060
vt 0.14746 0.38452
vt 0.11456 0.38452
vt 0.11456 0.38452
vt 0.14746 0.38452
vt 0.11456 0.40796
vt 0.08472 0.40796
vt 0.08472 0.38452
vt 0.11456 0.40796
vt 0.11456 0.40796
vt 0.14746 0.38452
vt 0.14746 0.57861
vt 0.11456 0.57861
vt 0.11456 0.40796
vt 0.14746 0.57861
vt 0.08472 0.40796
vt 0.11456 0.40796
vt 0.11456 0.57861
vt 0.11456 0.57861
vt 0.11456 0.60596
vt 0.09381 0.60596
vt 0.14746 0.57861
vt 0.18140 0.57861
vt 0.18140 0.60596
vt 0.01927 0.41357
vt 0.01886 0.44287
vt 0.02216 0.47144
vt 0.91943 0.75977
vt 0.99512 0.76318
vt 0.93896 0.82471
vt 0.63281 0.49487
vt 0.57227 0.50049
vt 0.57227 0.42798
vt 0.00608 0.56982
vt 0.03659 0.57324
vt 0.02422 0.53955
vt 0.00608 0.60156
vt 0.00608 0.60156
vt 0.00608 0.56982
vt 0.91895 0.92188
vt 0.91602 0.92188
vt 0.95215 0.95264
vt 0.78613 0.85059
vt 0.81445 0.83643
vt 0.82031 0.84668
vt 0.82812 0.96875
vt 0.82910 0.95508
vt 0.84668 0.96680
vt 0.65771 0.93750
vt 0.70557 0.91309
vt 0.70654 0.97168
vt 0.70654 0.97168
vt 0.70557 0.91309
vt 0.73975 0.97461
vt 0.68652 0.85010
vt 0.67578 0.83301
vt 0.70752 0.84570
vt 0.21472 0.38647
vt 0.24866 0.38647
vt 0.21472 0.57861
vt 0.24866 0.38647
vt 0.24866 0.57861
vt 0.21472 0.57861
vt 0.23877 0.60840
vt 0.21472 0.57861
vt 0.26367 0.59131
vt 0.08472 0.38452
vt 0.08472 0.36060
vt 0.11456 0.38452
vt 0.08472 0.38452
vt 0.08472 0.40796
vt 0.05118 0.38452
vt 0.08472 0.38452
vt 0.11456 0.38452
vt 0.11456 0.40796
vt 0.08472 0.38452
vt 0.05118 0.38452
vt 0.08472 0.36060
vt 0.18140 0.57861
vt 0.14746 0.57861
vt 0.14746 0.38452
vt 0.11456 0.60596
vt 0.11456 0.57861
vt 0.14746 0.57861
vt 0.85791 0.89404
vt 0.83545 0.79688
vt 0.85303 0.81445
vt 0.83545 0.79688
vt 0.85791 0.89404
vt 0.85303 0.81445
vt 0.22180 0.15784
vt 0.22180 0.18457
vt 0.22180 0.21008
vt 0.22180 0.15784
vt 0.22180 0.21008
vt 0.22180 0.13818
vt 0.22180 0.13818
vt 0.22180 0.21008
vt 0.22180 0.13818
vt 0.22180 0.21008
vt 0.22180 0.21008
vt 0.22180 0.13818
vt 0.22180 0.13818
vt 0.22180 0.21008
vt 0.22180 0.15784
vt 0.22180 0.21008
vt 0.22180 0.18457
vt 0.22180 0.15784
vt 0.14038 0.16992
vt 0.22180 0.15784
vt 0.14038 0.18616
vt 0.22180 0.15784
vt 0.22180 0.18457
vt 0.14038 0.18616
vt 0.14038 0.18616
vt 0.22180 0.18457
vt 0.22180 0.15784
vt 0.14038 0.16992
vt 0.14038 0.18616
vt 0.22180 0.15784
vt 0.14038 0.16992
vt 0.22180 0.15784
vt 0.22180 0.13818
vt 0.14038 0.13196
vt 0.14038 0.16992
vt 0.22180 0.13818
vt 0.59424 0.56982
vt 0.60303 0.53418
vt 0.57178 0.56982
vt 0.60303 0.53418
vt 0.63281 0.49487
vt 0.57227 0.50049
vt 0.60303 0.53418
vt 0.63672 0.50732
vt 0.63281 0.49487
vt 0.57227 0.53418
vt 0.60303 0.53418
vt 0.57227 0.50049
vt 0.60303 0.53418
vt 0.57227 0.53418
vt 0.57178 0.56982
vt 0.60303 0.53418
vt 0.63281 0.49487
vt 0.63672 0.50732
vt 0.60303 0.53418
vt 0.59424 0.56982
vt 0.57178 0.56982
vt 0.57178 0.56982
vt 0.59424 0.56982
vt 0.57178 0.60303
vt 0.59424 0.56982
vt 0.59424 0.60303
vt 0.57178 0.60303
vt 0.61816 0.56982
vt 0.59424 0.56982
vt 0.60303 0.53418
vt 0.61914 0.60303
vt 0.59424 0.60303
vt 0.59424 0.56982
vt 0.61816 0.56982
vt 0.61914 0.60303
vt 0.59424 0.56982
vt 0.61816 0.56982
vt 0.60303 0.53418
vt 0.59424 0.56982
vt 0.61816 0.56982
vt 0.59424 0.56982
vt 0.59424 0.60303
vt 0.61914 0.60303
vt 0.61816 0.56982
vt 0.59424 0.60303
vt 0.85303 0.81445
vt 0.85791 0.89404
vt 0.89551 0.89404
vt 0.85303 0.81445
vt 0.89551 0.89404
vt 0.89551 0.81445
vt 0.89551 0.89404
vt 0.89551 0.89404
vt 0.89551 0.81445
vt 0.89551 0.89404
vt 0.89551 0.81445
vt 0.89551 0.81445
vt 0.89551 0.81445
vt 0.89551 0.89404
vt 0.85303 0.81445
vt 0.89551 0.89404
vt 0.85791 0.89404
vt 0.85303 0.81445
vt 0.89551 0.79688
vt 0.83545 0.79688
vt 0.85303 0.81445
vt 0.89551 0.81445
vt 0.89551 0.79688
vt 0.85303 0.81445
vt 0.89551 0.79688
vt 0.89551 0.79688
vt 0.89551 0.81445
vt 0.89551 0.81445
vt 0.89551 0.81445
vt 0.89551 0.79688
vt 0.89551 0.81445
vt 0.89551 0.79688
vt 0.89551 0.79688
vt 0.89551 0.81445
vt 0.85303 0.81445
vt 0.89551 0.79688
vt 0.85303 0.81445
vt 0.83545 0.79688
vt 0.89551 0.79688
vt 0.04703 0.47266
vt 0.02216 0.47144
vt 0.04703 0.50537
vt 0.04703 0.50537
vt 0.02216 0.47144
vt 0.01053 0.48926
vt 0.04703 0.50537
vt 0.02216 0.47144
vt 0.04703 0.47266
vt 0.02216 0.47144
vt 0.01886 0.44287
vt 0.04703 0.47266
vt 0.00608 0.56982
vt 0.02275 0.58643
vt 0.00608 0.60156
vt 0.03659 0.57324
vt 0.02275 0.58643
vt 0.00608 0.56982
vt 0.02422 0.53955
vt 0.03659 0.57324
vt 0.00608 0.56982
vt 0.02422 0.53955
vt 0.00608 0.56982
vt 0.00608 0.54443
vt 0.02422 0.53955
vt 0.00608 0.54443
vt 0.00608 0.50098
vt 0.02109 0.50586
vt 0.02422 0.53955
vt 0.00608 0.50098
vt 0.02109 0.50586
vt 0.00608 0.50098
vt 0.00608 0.54443
vt 0.93945 0.85352
vt 0.93506 0.82520
vt 0.91943 0.82471
vt 0.91748 0.85547
vt 0.93945 0.85352
vt 0.91943 0.82471
vt 0.93945 0.87939
vt 0.93945 0.85352
vt 0.91748 0.85547
vt 0.91797 0.87695
vt 0.93945 0.87939
vt 0.91748 0.85547
vt 0.91748 0.89404
vt 0.91895 0.92188
vt 0.94434 0.89697
vt 0.91748 0.89404
vt 0.94434 0.89697
vt 0.93945 0.87939
vt 0.91797 0.87695
vt 0.91748 0.89404
vt 0.93945 0.87939
vt 0.94434 0.89697
vt 0.95215 0.95264
vt 0.96729 0.89697
vt 0.94434 0.89697
vt 0.96729 0.89697
vt 0.96924 0.87793
vt 0.94434 0.87891
vt 0.94434 0.89697
vt 0.96924 0.87793
vt 0.94434 0.87891
vt 0.96924 0.87793
vt 0.96924 0.85596
vt 0.94434 0.85449
vt 0.94434 0.87891
vt 0.96924 0.85596
vt 0.96924 0.85596
vt 0.95947 0.84131
vt 0.94434 0.85449
vt 0.94434 0.85449
vt 0.95947 0.84131
vt 0.94434 0.84033
vt 0.98828 0.85693
vt 0.97900 0.85205
vt 0.96924 0.85596
vt 0.98828 0.85693
vt 0.96924 0.85596
vt 0.99414 0.87646
vt 0.96924 0.85596
vt 0.96924 0.87793
vt 0.99414 0.87646
vt 0.96924 0.87793
vt 0.96729 0.89697
vt 0.99463 0.89697
vt 0.99414 0.87646
vt 0.96924 0.87793
vt 0.99463 0.89697
vt 0.99463 0.89697
vt 0.96729 0.89697
vt 0.99707 0.92334
vt 0.96729 0.89697
vt 0.95215 0.95264
vt 0.99707 0.92334
vt 0.99707 0.92334
vt 0.95215 0.95264
vt 0.99365 0.95752
vt 0.91602 0.92188
vt 0.92432 0.96045
vt 0.95215 0.95264
vt 0.92432 0.96045
vt 0.94727 0.99463
vt 0.95215 0.95264
vt 0.92432 0.96045
vt 0.91846 0.97852
vt 0.94727 0.99463
vt 0.90820 0.96484
vt 0.91602 0.92188
vt 0.89355 0.94238
vt 0.92432 0.96045
vt 0.90820 0.96484
vt 0.91846 0.97852
vt 0.90820 0.96484
vt 0.92432 0.96045
vt 0.91602 0.92188
vt 0.78613 0.85059
vt 0.76807 0.85889
vt 0.78320 0.83545
vt 0.76807 0.85889
vt 0.76953 0.83789
vt 0.78320 0.83545
vt 0.76807 0.85889
vt 0.74951 0.86523
vt 0.76953 0.83789
vt 0.74951 0.86523
vt 0.75195 0.84229
vt 0.76953 0.83789
vt 0.74951 0.86523
vt 0.74951 0.88721
vt 0.72021 0.87842
vt 0.74951 0.88721
vt 0.70557 0.91309
vt 0.72021 0.87842
vt 0.74951 0.86523
vt 0.72021 0.87842
vt 0.75195 0.84229
vt 0.77588 0.87402
vt 0.74951 0.88721
vt 0.74951 0.86523
vt 0.76807 0.85889
vt 0.77588 0.87402
vt 0.74951 0.86523
vt 0.76807 0.85889
vt 0.78613 0.85059
vt 0.77588 0.87402
vt 0.79395 0.86426
vt 0.82031 0.84668
vt 0.79639 0.87939
vt 0.79395 0.86426
vt 0.78613 0.85059
vt 0.82031 0.84668
vt 0.78613 0.85059
vt 0.79395 0.86426
vt 0.77588 0.87402
vt 0.79395 0.86426
vt 0.79639 0.87939
vt 0.78564 0.88232
vt 0.77588 0.87402
vt 0.79395 0.86426
vt 0.78564 0.88232
vt 0.77588 0.87402
vt 0.78564 0.88232
vt 0.77588 0.88477
vt 0.74951 0.88721
vt 0.77588 0.87402
vt 0.77588 0.88477
vt 0.72021 0.87842
vt 0.72559 0.85645
vt 0.75195 0.84229
vt 0.72559 0.85645
vt 0.73193 0.84326
vt 0.75195 0.84229
vt 0.71875 0.84131
vt 0.72559 0.85645
vt 0.72021 0.87842
vt 0.71875 0.84131
vt 0.73193 0.84326
vt 0.72559 0.85645
vt 0.71875 0.84131
vt 0.70752 0.84570
vt 0.71045 0.83301
vt 0.71875 0.84131
vt 0.71045 0.83301
vt 0.72168 0.82910
vt 0.76758 0.89648
vt 0.74951 0.88721
vt 0.77588 0.88477
vt 0.79590 0.89746
vt 0.76758 0.89648
vt 0.78369 0.88672
vt 0.79834 0.88721
vt 0.79590 0.89746
vt 0.78369 0.88672
vt 0.78369 0.88672
vt 0.76758 0.89648
vt 0.77588 0.88477
vt 0.74951 0.88721
vt 0.76562 0.93604
vt 0.73975 0.97461
vt 0.76758 0.89648
vt 0.79590 0.89746
vt 0.76562 0.93604
vt 0.74951 0.88721
vt 0.76758 0.89648
vt 0.76562 0.93604
vt 0.79541 0.93994
vt 0.83154 0.92285
vt 0.82910 0.95508
vt 0.79541 0.93994
vt 0.82910 0.95508
vt 0.79492 0.97412
vt 0.79541 0.93994
vt 0.79590 0.89746
vt 0.83154 0.92285
vt 0.79590 0.89746
vt 0.79541 0.93994
vt 0.76562 0.93604
vt 0.79541 0.93994
vt 0.79492 0.97412
vt 0.76367 0.97559
vt 0.76562 0.93604
vt 0.79541 0.93994
vt 0.76367 0.97559
vt 0.76562 0.93604
vt 0.76367 0.97559
vt 0.73975 0.97461
vt 0.79492 0.97412
vt 0.82812 0.96875
vt 0.79150 0.98926
vt 0.82812 0.96875
vt 0.82764 0.98877
vt 0.79150 0.98926
vt 0.79492 0.97412
vt 0.79150 0.98926
vt 0.76855 0.99121
vt 0.76367 0.97559
vt 0.79492 0.97412
vt 0.76855 0.99121
vt 0.73975 0.97461
vt 0.76367 0.97559
vt 0.74658 0.99219
vt 0.73975 0.97461
vt 0.74658 0.99219
vt 0.70654 0.97168
vt 0.76367 0.97559
vt 0.76855 0.99121
vt 0.74658 0.99219
vt 0.74658 0.99219
vt 0.70508 0.99121
vt 0.70654 0.97168
vt 0.70654 0.97168
vt 0.70508 0.99121
vt 0.66650 0.96875
vt 0.65771 0.93750
vt 0.67529 0.89551
vt 0.70557 0.91309
vt 0.67529 0.89551
vt 0.72021 0.87842
vt 0.70557 0.91309
vt 0.67529 0.89551
vt 0.65771 0.93750
vt 0.64990 0.88916
vt 0.65771 0.93750
vt 0.63916 0.92627
vt 0.64990 0.88916
vt 0.70752 0.84570
vt 0.68018 0.87500
vt 0.68652 0.85010
vt 0.67529 0.89551
vt 0.68018 0.87500
vt 0.72021 0.87842
vt 0.68018 0.87500
vt 0.67529 0.89551
vt 0.64990 0.88916
vt 0.68018 0.87500
vt 0.64990 0.88916
vt 0.66260 0.86621
vt 0.68652 0.85010
vt 0.68018 0.87500
vt 0.66260 0.86621
vt 0.68652 0.85010
vt 0.66260 0.86621
vt 0.67041 0.84766
vt 0.68018 0.87500
vt 0.71338 0.86523
vt 0.72021 0.87842
vt 0.71338 0.86523
vt 0.71875 0.84131
vt 0.72021 0.87842
vt 0.70752 0.84570
vt 0.71338 0.86523
vt 0.68018 0.87500
vt 0.71338 0.86523
vt 0.70752 0.84570
vt 0.71875 0.84131
vt 0.03659 0.57324
vt 0.04242 0.52734
vt 0.02422 0.53955
vt 0.02109 0.50586
vt 0.04242 0.52734
vt 0.04242 0.52734
vt 0.02109 0.50586
vt 0.04242 0.52734
vt 0.02422 0.53955
vt 0.02422 0.53955
vt 0.04242 0.52734
vt 0.03659 0.57324
vt 0.04703 0.50537
vt 0.01053 0.48926
vt 0.02216 0.47144
vt 0.01053 0.48926
vt 0.00130 0.45728
vt 0.02216 0.47144
vt 0.02216 0.47144
vt 0.00130 0.45728
vt 0.01886 0.44287
vt 0.02216 0.47144
vt 0.01927 0.41357
vt 0.00130 0.45728
vt 0.02216 0.47144
vt 0.00130 0.45728
vt 0.01053 0.48926
vt 0.26416 0.35938
vt 0.26416 0.32129
vt 0.30615 0.35522
vt 0.30811 0.32129
vt 0.26416 0.32129
vt 0.30615 0.35522
vt 0.30615 0.35522
vt 0.30811 0.32129
vt 0.36621 0.34668
vt 0.30811 0.32129
vt 0.36621 0.32129
vt 0.36621 0.34668
vt 0.36621 0.34668
vt 0.36621 0.32129
vt 0.42041 0.34570
vt 0.36621 0.32129
vt 0.41699 0.32129
vt 0.42041 0.34570
vt 0.42041 0.34570
vt 0.41699 0.32129
vt 0.46094 0.34204
vt 0.41699 0.32129
vt 0.46240 0.32129
vt 0.46094 0.34204
vt 0.46094 0.34204
vt 0.46240 0.32129
vt 0.51221 0.33960
vt 0.46240 0.32129
vt 0.50879 0.32129
vt 0.51221 0.33960
vt 0.51221 0.33960
vt 0.50879 0.32129
vt 0.56592 0.33838
vt 0.50879 0.32129
vt 0.56641 0.32129
vt 0.56592 0.33838
vt 0.56592 0.33838
vt 0.56641 0.32129
vt 0.62256 0.34082
vt 0.56641 0.32129
vt 0.62256 0.32129
vt 0.62256 0.34082
vt 0.51221 0.33960
vt 0.56592 0.33838
vt 0.56738 0.35278
vt 0.56738 0.35278
vt 0.56592 0.33838
vt 0.62256 0.35693
vt 0.56592 0.33838
vt 0.62256 0.34082
vt 0.62256 0.35693
vt 0.14038 0.21008
vt 0.14038 0.18616
vt 0.22180 0.18457
vt 0.22180 0.21008
vt 0.14038 0.21008
vt 0.22180 0.18457
vt 0.14038 0.21008
vt 0.22180 0.21008
vt 0.22180 0.21008
vt 0.22180 0.18457
vt 0.14038 0.21008
vt 0.22180 0.21008
vt 0.14038 0.18616
vt 0.14038 0.21008
vt 0.22180 0.18457
vt 0.14038 0.16992
vt 0.14038 0.13196
vt 0.22180 0.13818
vt 0.14038 0.16992
vt 0.22180 0.13818
vt 0.22180 0.15784
vt 0.24646 0.01225
vt 0.26636 0.12903
vt 0.14539 0.12903
vt 0.24646 0.01225
vt 0.14539 0.12903
vt 0.15271 0.01225
vt 0.21472 0.21765
vt 0.24866 0.21765
vt 0.24866 0.35864
vt 0.21472 0.35864
vt 0.21472 0.21765
vt 0.24866 0.35864
vt 0.18140 0.35864
vt 0.21472 0.35864
vt 0.21472 0.38647
vt 0.21472 0.35864
vt 0.24866 0.35864
vt 0.21472 0.38647
vt 0.14746 0.21765
vt 0.18140 0.21765
vt 0.18140 0.35864
vt 0.18140 0.35864
vt 0.18140 0.21765
vt 0.21472 0.35864
vt 0.18140 0.21765
vt 0.21472 0.21765
vt 0.21472 0.35864
vt 0.18140 0.38647
vt 0.21472 0.38647
vt 0.21472 0.57861
vt 0.18140 0.35864
vt 0.18140 0.38647
vt 0.14746 0.38452
vt 0.18140 0.57861
vt 0.18140 0.38647
vt 0.21472 0.57861
vt 0.18140 0.38647
vt 0.18140 0.57861
vt 0.14746 0.38452
vt 0.18140 0.38647
vt 0.18140 0.35864
vt 0.21472 0.38647
vt 0.05118 0.57861
vt 0.05118 0.38452
vt 0.08472 0.40796
vt 0.08514 0.57861
vt 0.05118 0.57861
vt 0.08472 0.40796
vt 0.08514 0.57861
vt 0.11456 0.57861
vt 0.09381 0.60596
vt 0.08514 0.57861
vt 0.08472 0.40796
vt 0.11456 0.57861
vt 0.08514 0.57861
vt 0.09381 0.60596
vt 0.05084 0.61377
vt 0.08514 0.57861
vt 0.05084 0.61377
vt 0.05118 0.57861
vt 0.05084 0.61377
vt 0.02951 0.59180
vt 0.05118 0.57861
vt 0.05084 0.61377
vt 0.03241 0.64014
vt 0.02951 0.59180
vt 0.05084 0.61377
vt 0.06793 0.63086
vt 0.03241 0.64014
vt 0.09381 0.60596
vt 0.06793 0.63086
vt 0.05084 0.61377
vt 0.14746 0.60596
vt 0.11456 0.60596
vt 0.14746 0.57861
vt 0.14746 0.60596
vt 0.14746 0.57861
vt 0.18140 0.60596
vt 0.18140 0.60596
vt 0.18140 0.57861
vt 0.19861 0.60596
vt 0.18140 0.57861
vt 0.23877 0.60840
vt 0.19861 0.60596
vt 0.19861 0.60596
vt 0.23877 0.60840
vt 0.21326 0.63135
vt 0.21326 0.63135
vt 0.23877 0.60840
vt 0.26196 0.63574
vt 0.06793 0.63086
vt 0.04440 0.65430
vt 0.03241 0.64014
vt 0.04440 0.65430
vt 0.06793 0.63086
vt 0.03241 0.64014
vt 0.06793 0.63086
vt 0.05084 0.61377
vt 0.03241 0.64014
vt 0.29395 0.66406
vt 0.33643 0.66406
vt 0.31079 0.60205
vt 0.29395 0.66406
vt 0.31079 0.60205
vt 0.33643 0.66406
vt 0.31079 0.60205
vt 0.33643 0.66406
vt 0.29395 0.66406
vt 0.31079 0.60205
vt 0.29395 0.66406
vt 0.33643 0.66406
vt 0.31079 0.60205
vt 0.29395 0.66406
vt 0.33643 0.66406
vt 0.29395 0.66406
vt 0.31079 0.60205
vt 0.29395 0.66406
vt 0.29395 0.66406
vt 0.31079 0.60205
vt 0.33643 0.66406
vt 0.28320 0.35522
vt 0.28101 0.35571
vt 0.28271 0.35449
vt 0.28271 0.35449
vt 0.28101 0.35571
vt 0.28198 0.35400
vt 0.28320 0.35620
vt 0.28101 0.35571
vt 0.28320 0.35522
vt 0.28198 0.35400
vt 0.28101 0.35571
vt 0.28101 0.35376
vt 0.28271 0.35742
vt 0.28101 0.35571
vt 0.28320 0.35620
vt 0.28174 0.35791
vt 0.28101 0.35571
vt 0.28271 0.35742
vt 0.28174 0.35791
vt 0.28101 0.35571
vt 0.28101 0.35815
vt 0.26416 0.32129
vt 0.26416 0.35938
vt 0.30615 0.35522
vt 0.26416 0.32129
vt 0.30811 0.32129
vt 0.30615 0.35522
vt 0.26196 0.63574
vt 0.23877 0.60840
vt 0.26367 0.59131
vt 0.23486 0.65918
vt 0.21326 0.63135
vt 0.26196 0.63574
vt 0.03241 0.64014
vt 0.05084 0.61377
vt 0.02951 0.59180
vt 0.28101 0.35815
vt 0.28101 0.35571
vt 0.28174 0.35791
vt 0.94727 0.99463
vt 0.97705 0.99023
vt 0.99365 0.95752
vt 0.70508 0.99121
vt 0.66504 0.98926
vt 0.66650 0.96875
vt 0.26196 0.63574
vt 0.28540 0.61426
vt 0.26367 0.59131
vt 0.28540 0.61426
vt 0.26196 0.63574
vt 0.26367 0.59131
vt 0.00626 0.61426
vt 0.03241 0.64014
vt 0.02951 0.59180
vt 0.03241 0.64014
vt 0.00626 0.61426
vt 0.02951 0.59180
vn -0.01115 -1.29830 0.00038
vn -0.01115 -1.29830 0.00039
vn -0.01114 -1.29830 0.00038
vn -0.01114 -1.29830 0.00038
vn -0.01115 -1.29830 0.00038
vn -0.01114 -1.29830 0.00038
vn -0.01115 -1.29830 0.00038
vn -0.01114 -1.29830 0.00038
vn -0.01115 -1.29830 0.00038
vn -0.01114 -1.29830 0.00038
vn -0.01115 -1.29830 0.00038
vn -0.01115 -1.29830 0.00038
vn -0.01115 -1.29830 0.00038
vn -0.01115 -1.29830 0.00038
vn -0.01115 -1.29830 0.00038
vn -0.01115 -1.29830 0.00038
vn -0.01114 -1.29830 0.00038
vn -0.01115 -1.29830 0.00039
vn -0.01114 -1.29830 0.00038
vn -0.01114 -1.29830 0.00039
vn -0.01115 -1.29830 0.00039
vn -0.01114 -1.29830 0.00038
vn -0.01114 -1.29830 0.00038
vn -0.01114 -1.29830 0.00039
vn -0.01114 -1.29830 0.00038
vn -0.01114 -1.29830 0.00039
vn -0.01114 -1.29830 0.00039
vn -0.01114 -1.29830 0.00039
vn -0.01114 -1.29830 0.00039
vn -0.01114 -1.29830 0.00039
vn -0.01114 -1.29830 0.00039
vn -0.01114 -1.29830 0.00039
vn -0.01114 -1.29830 0.00039
vn -0.01114 -1.29830 0.00039
vn -0.01114 -1.29830 0.00039
vn -0.01114 -1.29830 0.00039
vn 1.22429 -0.03155 -0.43106
vn 1.26211 0.07526 -0.29516
vn 1.23653 -0.03726 -0.37945
vn 1.21319 -0.06073 -0.45845
vn 1.22429 -0.03155 -0.43106
vn 1.23653 -0.03726 -0.37945
vn 1.04286 -0.06967 0.77026
vn 1.12016 -0.19161 0.62789
vn 1.04286 -0.06967 0.77026
vn 1.04286 -0.06967 0.77026
vn 1.04286 -0.06967 0.77026
vn 0.73339 -0.07778 1.06855
vn 0.15457 -0.06772 1.28733
vn 0.48723 -0.20534 1.18581
vn 0.73339 -0.07778 1.06855
vn 0.15457 -0.06772 1.28733
vn -0.19093 0.07552 1.28201
vn -0.35228 -0.03019 1.24928
vn -0.50563 -0.13522 1.18818
vn -0.35228 -0.03019 1.24928
vn -0.50563 -0.13522 1.18818
vn -1.18716 -0.01444 0.52551
vn -1.20259 0.00223 0.48000
vn -1.18716 -0.01444 0.52551
vn -1.17672 0.25590 0.48533
vn -1.20259 0.00223 0.48000
vn -1.24127 0.10231 0.36672
vn -1.19933 0.30571 0.39223
vn -1.17672 0.25590 0.48533
vn -1.24127 0.10231 0.36672
vn -1.28332 0.19238 0.04239
vn -1.24127 0.10231 0.36672
vn -1.28587 0.16649 0.06723
vn -0.41601 0.08236 -1.22713
vn -0.24292 0.12091 -1.26968
vn 0.05775 0.12652 -1.29088
vn -0.24292 0.12091 -1.26968
vn 0.09646 0.18704 -1.28118
vn 0.05775 0.12652 -1.29088
vn 0.24222 1.27464 0.04818
vn 0.48771 1.18534 0.13858
vn 0.25820 1.23013 0.27978
vn 0.18844 1.27587 0.14951
vn 0.19011 1.27567 0.14908
vn 0.25820 1.23013 0.27978
vn 0.19011 1.27567 0.14908
vn 0.24222 1.27464 0.04818
vn 0.25820 1.23013 0.27978
vn 1.07886 -0.70487 -0.15790
vn 1.07514 -0.70489 -0.16286
vn 1.06506 -0.70495 -0.17633
vn 0.65635 0.14011 -1.08773
vn 0.76077 0.31516 -0.98399
vn 0.71444 0.42340 -0.98616
vn 0.02232 1.13831 -0.58082
vn 0.02232 1.13831 -0.58082
vn 0.01006 1.12700 -0.62243
vn 0.21123 0.07044 -1.25857
vn 0.22841 0.05112 -1.25650
vn 0.21123 0.07044 -1.25857
vn 0.19397 0.08973 -1.26012
vn 0.21123 0.07044 -1.25857
vn 0.21123 0.07044 -1.25857
vn -0.73295 0.29004 -1.00611
vn -0.73198 0.28835 -1.00730
vn -0.73295 0.29004 -1.00611
vn -0.73391 0.29173 -1.00492
vn -0.73295 0.29004 -1.00611
vn -0.73295 0.29004 -1.00611
vn -1.27473 0.05467 0.07518
vn -1.23695 0.28445 0.15045
vn -1.24876 0.25135 0.10492
vn -1.27603 -0.06389 0.03553
vn -1.27473 0.05467 0.07518
vn -1.24876 0.25135 0.10492
vn -0.52760 0.04373 1.16332
vn -0.56237 0.01683 1.14763
vn -0.52760 0.04373 1.16332
vn -0.49213 0.07056 1.17746
vn -0.52760 0.04373 1.16332
vn -0.52760 0.04373 1.16332
vn 0.61605 -0.15000 1.10976
vn 0.62953 -0.13942 1.10356
vn 0.61605 -0.15000 1.10976
vn 0.60245 -0.16055 1.11573
vn 0.61605 -0.15000 1.10976
vn 0.61605 -0.15000 1.10976
vn 1.23577 -0.19974 0.25799
vn 1.21719 -0.23978 0.30748
vn 1.23577 -0.19974 0.25799
vn 1.25103 -0.15916 0.20782
vn 1.23577 -0.19974 0.25799
vn 1.23577 -0.19974 0.25799
vn 0.97547 -0.10450 -0.81922
vn 0.95106 -0.06081 -0.85169
vn 0.97547 -0.10450 -0.81922
vn 0.99776 -0.14796 -0.78496
vn 0.97547 -0.10450 -0.81922
vn 0.97547 -0.10450 -0.81922
vn 0.74565 -0.17056 -1.02396
vn 0.48870 0.03278 -1.12748
vn 0.71492 -0.30614 -1.00504
vn 0.43501 0.95366 -0.73135
vn 0.44640 0.94921 -0.73028
vn 0.39743 0.92740 -0.77582
vn 0.74565 -0.17056 -1.02396
vn 0.75213 0.01787 -1.03323
vn 0.68347 -0.05633 -1.07855
vn 1.21463 -0.19897 -0.34449
vn 1.21793 -0.09422 -0.34910
vn 1.22586 -0.00625 -0.26689
vn 1.14204 -0.23681 -0.52273
vn 1.21463 -0.19897 -0.34449
vn 1.22586 -0.00625 -0.26689
vn 1.06808 -0.23526 -0.66139
vn 1.21463 -0.19897 -0.34449
vn 1.14204 -0.23681 -0.52273
vn 1.06312 -0.24212 -0.66689
vn 1.06808 -0.23526 -0.66139
vn 1.14204 -0.23681 -0.52273
vn 0.15895 -0.46147 -1.18126
vn 0.12084 -0.48575 -1.17603
vn 0.12084 -0.48575 -1.17603
vn 0.12084 -0.48575 -1.17603
vn 0.08259 -0.50940 -1.16931
vn 0.12084 -0.48575 -1.17603
vn -1.18216 0.31155 -0.37286
vn -1.20037 0.29299 -0.29494
vn -1.18656 0.31287 -0.34108
vn -1.14536 0.34793 -0.44798
vn -1.18216 0.31155 -0.37286
vn -1.18656 0.31287 -0.34108
vn 1.17314 -0.49108 0.12717
vn 1.17313 -0.49110 0.12721
vn 1.16168 -0.47970 0.16666
vn -1.06384 0.62361 -0.33608
vn -1.06783 0.44069 -0.45268
vn -1.04911 0.52345 -0.42076
vn -1.06384 0.62361 -0.33608
vn -1.10154 0.55663 -0.33221
vn -1.06783 0.44069 -0.45268
vn -0.47009 -1.05167 0.55371
vn -0.38278 -0.92215 0.74278
vn -0.52659 -1.04737 0.50922
vn 0.41758 -0.34984 -1.15621
vn 0.16545 -0.24903 -1.24266
vn 0.29225 -0.29953 -1.20766
vn 0.16545 -0.24903 -1.24266
vn 0.16567 -0.25041 -1.24235
vn 0.29225 -0.29953 -1.20766
vn 0.41758 -0.34984 -1.15621
vn 0.29225 -0.29953 -1.20766
vn 0.64516 -0.42684 -1.01743
vn 0.73809 -0.43741 -0.94735
vn 0.41758 -0.34984 -1.15621
vn 0.64516 -0.42684 -1.01743
vn 0.73809 -0.43741 -0.94735
vn 0.64516 -0.42684 -1.01743
vn 0.96867 -0.46883 -0.68120
vn 0.24937 -1.22500 0.26602
vn 0.25968 -1.20920 0.28844
vn -0.08377 -0.93930 0.79465
vn -0.67725 0.14548 1.07413
vn -0.61612 -0.07974 1.08174
vn -0.45901 -0.16423 1.17083
vn -0.36955 0.42027 1.14908
vn -0.57397 0.31115 1.09878
vn -0.49497 0.20688 1.16008
vn 0.12173 1.26193 -0.16220
vn 0.05859 1.20634 -0.16152
vn 0.12385 1.21815 0.02945
vn 0.03825 1.26409 -0.18491
vn 0.12173 1.26193 -0.16220
vn 0.12385 1.21815 0.02945
vn 0.03825 1.26409 -0.18491
vn 0.01965 1.19292 -0.45842
vn 0.12173 1.26193 -0.16220
vn 0.01965 1.19292 -0.45842
vn 0.17821 1.19722 -0.41048
vn 0.12173 1.26193 -0.16220
vn -1.25742 0.22739 -0.02795
vn -1.24579 0.28036 0.05476
vn -1.25072 0.26283 0.01420
vn -1.25742 0.22739 -0.02795
vn -1.25072 0.26283 0.01420
vn -1.19072 0.33993 0.26145
vn -0.05841 -1.23919 -0.30755
vn -0.11939 -1.21830 -0.36752
vn -0.08507 -1.20960 -0.40400
vn -1.24579 0.28036 0.05476
vn -1.23026 0.33221 0.09839
vn -1.25072 0.26283 0.01420
vn -0.05062 -1.19898 -0.43985
vn -0.05841 -1.23919 -0.30755
vn -0.08507 -1.20960 -0.40400
vn -0.00874 -0.01128 -1.27804
vn -0.00874 -0.01128 -1.27804
vn -0.04499 0.03077 -1.27696
vn -0.08116 0.07277 -1.27346
vn -0.08116 0.07277 -1.27346
vn -0.04499 0.03077 -1.27696
vn 0.95915 0.85352 0.19298
vn 0.79141 0.95199 0.38569
vn 1.07418 0.59730 0.41050
vn 0.95915 0.85352 0.19298
vn 0.69714 1.05097 0.24056
vn 0.79141 0.95199 0.38569
vn -1.19593 0.11160 0.49296
vn -1.23425 0.16280 0.36196
vn -1.16228 -0.03653 0.57747
vn -0.40338 0.20877 1.21631
vn -0.46927 0.28893 1.17559
vn -0.40338 0.20877 1.21631
vn -0.33452 0.12708 1.24806
vn -0.40338 0.20877 1.21631
vn -0.40338 0.20877 1.21631
vn 0.93367 0.11577 0.89474
vn 0.93367 0.11577 0.89474
vn 0.87945 0.20182 0.93357
vn 0.93367 0.11577 0.89474
vn 0.98053 0.02509 0.84895
vn 0.93367 0.11577 0.89474
vn 1.24836 0.29683 -0.19797
vn 1.22285 -0.05393 -0.42988
vn 1.21550 -0.05300 -0.42842
vn 1.18294 0.37925 0.30066
vn 1.23754 0.03524 0.31756
vn 1.21505 0.11487 0.37954
vn 0.22876 -1.21137 0.33742
vn 0.42128 -1.10992 0.47348
vn 0.10119 -1.26514 0.15093
vn -0.83149 0.17927 0.95398
vn -0.77168 0.04545 1.02520
vn -0.81409 0.15666 0.97278
vn -0.83149 0.17927 0.95398
vn -0.81409 0.15666 0.97278
vn -0.85008 0.28107 0.91211
vn -1.24604 0.17837 -0.22172
vn -1.22528 0.36782 -0.11024
vn -1.24071 -0.03096 -0.30541
vn -1.21162 -0.02169 -0.40631
vn -1.24604 0.17837 -0.22172
vn -1.24071 -0.03096 -0.30541
vn -1.21162 -0.02169 -0.40631
vn -1.24071 -0.03096 -0.30541
vn -1.25865 -0.04393 -0.21785
vn -0.40440 -0.05127 -1.21137
vn -0.34224 -0.03936 -1.23082
vn -0.42673 -0.26336 -1.17564
vn 0.07410 -0.64229 1.10252
vn 0.05173 -0.98193 0.81653
vn 0.19246 -0.38794 1.20252
vn -0.44144 -0.45424 -1.11013
vn -0.40440 -0.05127 -1.21137
vn -0.42673 -0.26336 -1.17564
vn 0.61584 -0.16064 -1.10839
vn 0.58341 -0.05624 -1.13581
vn 0.65635 0.14011 -1.08773
vn 0.58341 -0.05624 -1.13581
vn 0.76077 0.31516 -0.98399
vn 0.65635 0.14011 -1.08773
vn 0.61584 -0.16064 -1.10839
vn 0.67392 -0.12852 -1.07838
vn 0.58341 -0.05624 -1.13581
vn -0.44144 -0.45424 -1.11013
vn -0.42673 -0.26336 -1.17564
vn -0.45420 -0.40614 -1.12354
vn -1.24757 -0.27164 -0.05807
vn -1.25865 -0.04393 -0.21785
vn -1.26608 -0.11303 -0.13367
vn -1.26608 -0.11303 -0.13367
vn -1.25865 -0.04393 -0.21785
vn -1.26097 0.07381 -0.19521
vn -0.46710 0.08530 -1.18665
vn -0.46370 -0.13455 -1.18341
vn -0.46710 0.08530 -1.18665
vn -1.26097 0.07381 -0.19521
vn -1.25865 -0.04393 -0.21785
vn -1.26294 0.06244 -0.18619
vn -1.26301 0.05746 -0.18733
vn -1.26097 0.07381 -0.19521
vn -1.26294 0.06244 -0.18619
vn -0.46710 0.08530 -1.18665
vn -0.46710 0.08530 -1.18665
vn -0.54209 0.04656 -1.15653
vn -0.80532 -0.34212 -0.93166
vn -1.20928 0.00877 -0.41370
vn -0.71716 -0.53267 -0.91408
vn -0.79513 -0.11453 0.99410
vn -0.77158 -0.11075 1.01291
vn -0.75521 -0.15639 1.01921
vn -1.25904 -0.06616 -0.20981
vn -1.24784 0.27540 0.02536
vn -1.20589 -0.10356 -0.41066
vn -0.01115 -1.29830 0.00039
vn -0.01114 -1.29830 0.00039
vn -0.01114 -1.29830 0.00039
vn -1.20259 0.00223 0.48000
vn -1.17672 0.25590 0.48533
vn -1.07595 0.20735 0.69645
vn 0.71444 0.42340 -0.98616
vn 0.76077 0.31516 -0.98399
vn 0.82089 0.49114 -0.87786
vn 0.58616 0.29875 -1.10713
vn 0.58509 0.32614 -1.08853
vn 0.71444 0.42340 -0.98616
vn 0.71492 -0.30614 -1.00504
vn 0.84430 -0.00768 -0.94851
vn 0.74565 -0.17056 -1.02396
vn -0.49088 -1.05830 0.47316
vn -0.45836 -1.10770 0.44327
vn -0.46865 -1.10700 0.43416
vn 0.82122 -0.42829 -0.87760
vn 0.73809 -0.43741 -0.94735
vn 0.96867 -0.46883 -0.68120
vn -0.57397 0.31115 1.09878
vn -0.67725 0.14548 1.07413
vn -0.49497 0.20688 1.16008
vn -0.49497 0.20688 1.16008
vn -0.67725 0.14548 1.07413
vn -0.45901 -0.16423 1.17083
vn -1.14223 0.46852 0.28480
vn -1.13536 0.54946 0.20647
vn -1.19072 0.33993 0.26145
vn 1.21505 0.11487 0.37954
vn 1.23754 0.03524 0.31756
vn 1.23045 -0.13776 0.31718
vn 1.23754 0.03524 0.31756
vn 1.23521 -0.13381 0.29988
vn 1.23045 -0.13776 0.31718
vn 0.02701 -1.26396 0.18776
vn 0.22876 -1.21137 0.33742
vn 0.10119 -1.26514 0.15093
vn -0.46370 -0.13455 -1.18341
vn -0.44144 -0.45424 -1.11013
vn -0.45420 -0.40614 -1.12354
vn 0.69019 0.07314 -1.07325
vn 0.78952 -0.00276 -1.00511
vn 0.67392 -0.12852 -1.07838
vn -0.46370 -0.13455 -1.18341
vn -0.45420 -0.40614 -1.12354
vn -0.48319 0.09521 -1.17943
vn 0.76130 -0.35729 -0.96247
vn 0.67392 -0.12852 -1.07838
vn 0.61584 -0.16064 -1.10839
vn -0.77158 -0.11075 1.01291
vn -0.79513 -0.11453 0.99410
vn -0.84915 -0.00880 0.95522
vn -1.20928 0.00877 -0.41370
vn -1.26301 0.05746 -0.18733
vn -1.26294 0.06244 -0.18619
vn 1.22911 -0.09836 -0.39572
vn 1.21700 0.09224 -0.44284
vn 1.27528 -0.14154 -0.19834
vn -1.24127 0.10231 0.36672
vn -1.15451 -0.16804 0.56442
vn -1.01203 -0.31198 0.75111
vn -1.01637 0.80008 -0.00211
vn -1.01189 0.80344 0.06106
vn -1.01316 0.80089 0.00289
vn -1.01637 0.80008 -0.00211
vn -1.01316 0.80089 0.00289
vn -1.01841 0.79479 -0.06527
vn -0.33538 1.07322 -0.63883
vn -0.33726 1.07283 -0.63424
vn -0.13747 1.07770 -0.70145
vn -0.33726 1.07283 -0.63424
vn 0.17230 1.11111 -0.63469
vn -0.13747 1.07770 -0.70145
vn -0.13747 1.07770 -0.70145
vn 0.17230 1.11111 -0.63469
vn 0.42125 1.06397 -0.60262
vn 0.17230 1.11111 -0.63469
vn 0.55117 1.09050 -0.42394
vn 0.42125 1.06397 -0.60262
vn 1.22911 -0.09836 -0.39572
vn 1.23850 -0.16312 -0.33650
vn 1.23653 -0.03726 -0.37945
vn 1.23850 -0.16312 -0.33650
vn 1.28981 -0.00295 -0.10013
vn 1.23653 -0.03726 -0.37945
vn -1.20259 0.00223 0.48000
vn -1.22601 -0.23818 0.33741
vn -1.21656 -0.21985 0.38122
vn -1.15451 -0.16804 0.56442
vn -1.20259 0.00223 0.48000
vn -1.21656 -0.21985 0.38122
vn -1.00809 -0.37199 -0.72426
vn -1.12227 -0.29507 -0.57136
vn -0.88152 -0.37979 -0.86677
vn -0.72961 -0.41110 -0.98599
vn -1.00809 -0.37199 -0.72426
vn -0.88152 -0.37979 -0.86677
vn 1.05588 0.13216 -0.74389
vn 1.21700 0.09224 -0.44284
vn 1.05588 0.13216 -0.74389
vn 1.21700 0.09224 -0.44284
vn 1.23653 -0.03726 -0.37945
vn 1.26211 0.07526 -0.29516
vn 1.21700 0.09224 -0.44284
vn 1.22911 -0.09836 -0.39572
vn 1.23653 -0.03726 -0.37945
vn 1.19339 0.20027 -0.47056
vn 1.21700 0.09224 -0.44284
vn 1.26211 0.07526 -0.29516
vn 1.21700 0.09224 -0.44284
vn 1.19339 0.20027 -0.47056
vn 1.04201 0.15154 -0.75958
vn -1.24127 0.10231 0.36672
vn -1.20259 0.00223 0.48000
vn -1.15451 -0.16804 0.56442
vn -1.24127 0.10231 0.36672
vn -1.28744 0.14048 0.09202
vn -1.28587 0.16649 0.06723
vn -0.81850 0.05789 -1.00619
vn -0.81081 0.07376 -1.01136
vn -0.81850 0.05789 -1.00619
vn -0.81081 0.07376 -1.01136
vn -0.24292 0.12091 -1.26968
vn -0.41601 0.08236 -1.22713
vn -0.58724 1.05384 -0.47988
vn -0.74588 1.03732 -0.23093
vn -0.74588 1.03732 -0.23093
vn -0.29745 1.07257 -0.66845
vn -0.43158 1.07621 -0.58413
vn -0.41545 1.04745 -0.64495
vn -0.58724 1.05384 -0.47988
vn -0.29745 1.07257 -0.66845
vn -0.41545 1.04745 -0.64495
vn 0.11527 1.04646 -0.75983
vn 0.31603 1.00760 -0.75536
vn 0.19927 1.01455 -0.78529
vn 0.11527 1.04646 -0.75983
vn 0.19927 1.01455 -0.78529
vn 0.01354 1.05618 -0.75498
vn -0.29745 1.07257 -0.66845
vn 0.11527 1.04646 -0.75983
vn 0.01354 1.05618 -0.75498
vn -0.89316 0.91409 -0.22893
vn -0.92607 0.89612 -0.13655
vn -0.68061 1.04180 -0.35363
vn -0.89316 0.91409 -0.22893
vn -0.68061 1.04180 -0.35363
vn -0.42494 1.11284 -0.51645
vn -0.68061 1.04180 -0.35363
vn 0.15518 1.14292 -0.58548
vn -0.42494 1.11284 -0.51645
vn 0.15518 1.14292 -0.58548
vn 0.10319 1.13936 -0.61393
vn -0.42494 1.11284 -0.51645
vn 0.10319 1.13936 -0.61393
vn 0.15518 1.14292 -0.58548
vn 0.47877 1.05984 -0.57725
vn 0.15518 1.14292 -0.58548
vn 0.56275 1.04139 -0.52446
vn 0.47877 1.05984 -0.57725
vn -1.01365 -0.17165 -0.79294
vn -0.99318 -0.43094 -0.71664
vn -1.01365 -0.17165 -0.79294
vn -0.67180 0.18924 -1.09480
vn -1.01365 -0.17165 -0.79294
vn -1.01365 -0.17165 -0.79294
vn -0.48386 0.22934 -1.18279
vn -0.60094 0.06292 -1.14918
vn -0.67180 0.18924 -1.09480
vn -0.67180 0.18924 -1.09480
vn -0.12736 0.14314 -1.28413
vn -0.48386 0.22934 -1.18279
vn -0.12736 0.14314 -1.28413
vn -0.00951 0.01499 -1.29823
vn -0.15603 0.04736 -1.28807
vn -0.12736 0.14314 -1.28413
vn 0.20758 -0.16750 -1.27065
vn -0.00951 0.01499 -1.29823
vn 0.20758 -0.16750 -1.27065
vn 0.27458 -0.31464 -1.22935
vn 0.27458 -0.31464 -1.22935
vn 0.25820 1.23013 0.27978
vn 0.48771 1.18534 0.13858
vn 0.44214 1.15041 0.36507
vn 0.44214 1.15041 0.36507
vn 0.48771 1.18534 0.13858
vn 0.64773 1.11616 -0.08948
vn 0.44214 1.15041 0.36507
vn 0.17419 1.21195 0.39805
vn 0.25820 1.23013 0.27978
vn 0.17419 1.21195 0.39805
vn 0.18844 1.27587 0.14951
vn 0.25820 1.23013 0.27978
vn -1.17868 0.46549 -0.23896
vn -1.16226 0.28823 -0.44683
vn -1.17445 0.26267 -0.45867
vn -1.22528 0.36782 -0.11024
vn -1.24604 0.17837 -0.22172
vn -1.17868 0.46549 -0.23896
vn -1.26554 0.21575 0.17490
vn -1.22528 0.36782 -0.11024
vn -1.17868 0.46549 -0.23896
vn -1.26554 0.21575 0.17490
vn -1.20988 -0.14847 0.42170
vn -1.21641 -0.14891 0.42882
vn -0.49250 0.01429 1.19812
vn -0.64215 -0.17327 1.11504
vn -0.49340 0.02312 1.20072
vn -0.32411 0.21288 1.23735
vn -0.49250 0.01429 1.19812
vn -0.49340 0.02312 1.20072
vn 0.54600 -0.60932 1.00592
vn 0.54769 -0.60443 1.01015
vn 0.54504 -0.61208 1.00353
vn 0.28703 0.86012 -0.86925
vn 0.39886 0.80206 -0.91170
vn 0.29934 0.89627 -0.86063
vn 0.20277 0.93688 -0.82407
vn 0.28703 0.86012 -0.86925
vn 0.29934 0.89627 -0.86063
vn 0.23228 0.81677 -0.90855
vn 0.28703 0.86012 -0.86925
vn 0.20277 0.93688 -0.82407
vn 0.22074 0.79026 -0.92525
vn 0.23228 0.81677 -0.90855
vn 0.20277 0.93688 -0.82407
vn 0.46984 -0.04980 -1.13885
vn 0.71492 -0.30614 -1.00504
vn 0.48870 0.03278 -1.12748
vn 0.46984 -0.04980 -1.13885
vn 0.48870 0.03278 -1.12748
vn 0.23228 0.81677 -0.90855
vn 0.22074 0.79026 -0.92525
vn 0.46984 -0.04980 -1.13885
vn 0.23228 0.81677 -0.90855
vn 0.48870 0.03278 -1.12748
vn 0.74565 -0.17056 -1.02396
vn 0.42985 0.25651 -1.15302
vn 0.48870 0.03278 -1.12748
vn 0.42985 0.25651 -1.15302
vn 0.40562 0.63306 -1.00108
vn 0.39544 0.64260 -0.99836
vn 0.48870 0.03278 -1.12748
vn 0.40562 0.63306 -1.00108
vn 0.39544 0.64260 -0.99836
vn 0.40562 0.63306 -1.00108
vn 0.39743 0.92740 -0.77582
vn 0.39249 0.79954 -0.87977
vn 0.39544 0.64260 -0.99836
vn 0.39743 0.92740 -0.77582
vn 0.39743 0.92740 -0.77582
vn 0.44640 0.94921 -0.73028
vn 0.39249 0.79954 -0.87977
vn 0.39249 0.79954 -0.87977
vn 0.44640 0.94921 -0.73028
vn 0.45964 0.94724 -0.72460
vn 0.27733 0.97080 -0.75982
vn 0.28147 0.90066 -0.86208
vn 0.39743 0.92740 -0.77582
vn 0.27733 0.97080 -0.75982
vn 0.39743 0.92740 -0.77582
vn 0.31612 0.75348 -0.93885
vn 0.39743 0.92740 -0.77582
vn 0.40562 0.63306 -1.00108
vn 0.31612 0.75348 -0.93885
vn 0.40562 0.63306 -1.00108
vn 0.42985 0.25651 -1.15302
vn 0.32107 0.45877 -1.11950
vn 0.31612 0.75348 -0.93885
vn 0.40562 0.63306 -1.00108
vn 0.32107 0.45877 -1.11950
vn 0.32107 0.45877 -1.11950
vn 0.42985 0.25651 -1.15302
vn 0.55222 0.10993 -1.13805
vn 0.42985 0.25651 -1.15302
vn 0.74565 -0.17056 -1.02396
vn 0.55222 0.10993 -1.13805
vn 0.55222 0.10993 -1.13805
vn 0.74565 -0.17056 -1.02396
vn 0.68347 -0.05633 -1.07855
vn 0.84430 -0.00768 -0.94851
vn 0.68863 0.08036 -1.05634
vn 0.74565 -0.17056 -1.02396
vn 0.68863 0.08036 -1.05634
vn 0.75213 0.01787 -1.03323
vn 0.74565 -0.17056 -1.02396
vn 0.68863 0.08036 -1.05634
vn 0.53743 0.26465 -1.11820
vn 0.75213 0.01787 -1.03323
vn 1.12356 -0.01010 -0.59788
vn 0.84430 -0.00768 -0.94851
vn 1.21793 -0.09422 -0.34910
vn 0.68863 0.08036 -1.05634
vn 0.39610 0.25546 -1.14268
vn 0.53743 0.26465 -1.11820
vn 0.39610 0.25546 -1.14268
vn 0.68863 0.08036 -1.05634
vn 0.84430 -0.00768 -0.94851
vn -1.20037 0.29299 -0.29494
vn -1.12473 0.37689 -0.39485
vn -1.18656 0.31287 -0.34108
vn -1.12473 0.37689 -0.39485
vn -1.12207 0.45492 -0.34711
vn -1.12633 0.53496 -0.24654
vn -1.12473 0.37689 -0.39485
vn -0.99470 0.19868 -0.74248
vn -1.12207 0.45492 -0.34711
vn -0.99470 0.19868 -0.74248
vn -0.97290 0.19905 -0.77312
vn -1.11397 0.43468 -0.39675
vn -0.77178 -0.01618 0.96566
vn -0.61612 -0.07974 1.08174
vn -1.02613 0.14998 0.74688
vn -0.61612 -0.07974 1.08174
vn -0.67725 0.14548 1.07413
vn -1.02613 0.14998 0.74688
vn -0.99470 0.19868 -0.74248
vn -0.90740 0.21211 -0.83053
vn -0.97290 0.19905 -0.77312
vn -0.61676 -0.59968 0.86778
vn -0.61612 -0.07974 1.08174
vn -0.77178 -0.01618 0.96566
vn -0.63709 -0.57691 0.87047
vn -0.61676 -0.59968 0.86778
vn -0.77178 -0.01618 0.96566
vn -0.63709 -0.57691 0.87047
vn -0.54873 -0.85904 0.73688
vn -0.61676 -0.59968 0.86778
vn 1.15284 -0.47039 0.19826
vn 1.17314 -0.49108 0.12717
vn 1.16168 -0.47970 0.16666
vn -0.51797 -0.96027 0.60782
vn -0.49088 -1.05830 0.47316
vn -0.46865 -1.10700 0.43416
vn -0.54873 -0.85904 0.73688
vn -0.51797 -0.96027 0.60782
vn -0.61676 -0.59968 0.86778
vn 1.15284 -0.47039 0.19826
vn 1.16168 -0.47970 0.16666
vn 1.15384 -0.47167 0.20084
vn 1.12813 -0.43846 0.30072
vn 1.14980 -0.47203 0.21115
vn 1.15384 -0.47167 0.20084
vn 1.12813 -0.43846 0.30072
vn 1.15384 -0.47167 0.20084
vn 1.04062 -0.31999 0.62801
vn 1.03003 -0.30438 0.66597
vn 1.12844 -0.42976 0.31364
vn 1.04062 -0.31999 0.62801
vn -0.90740 0.21211 -0.83053
vn -0.59976 0.34094 -0.97589
vn -0.97290 0.19905 -0.77312
vn -0.59976 0.34094 -0.97589
vn -0.37274 0.25813 -1.12215
vn -0.50514 0.17957 -1.11960
vn -0.77359 -0.49281 -0.72800
vn -0.65451 -0.85658 -0.51616
vn -0.70091 -0.92855 -0.44953
vn -0.77359 -0.49281 -0.72800
vn -0.61681 -0.90915 -0.49638
vn -0.62698 -0.87424 -0.52041
vn -0.06940 -1.14833 0.21560
vn -0.30550 -1.07707 0.47008
vn -0.21954 -1.25352 0.11868
vn -0.06940 -1.14833 0.21560
vn -0.21954 -1.25352 0.11868
vn -0.05841 -1.23919 -0.30755
vn -1.02384 0.40118 -0.56401
vn -1.06426 0.10073 -0.68192
vn -1.08577 0.14365 -0.62915
vn -1.06783 0.44069 -0.45268
vn -1.02384 0.40118 -0.56401
vn -1.03434 0.51544 -0.45235
vn -1.04690 0.55401 -0.38706
vn -1.06783 0.44069 -0.45268
vn -1.03434 0.51544 -0.45235
vn -1.01511 0.50561 -0.50032
vn -1.02384 0.40118 -0.56401
vn -1.08577 0.14365 -0.62915
vn -0.61612 -0.07974 1.08174
vn -0.38657 -0.56793 1.04643
vn -0.45901 -0.16423 1.17083
vn -0.40802 -0.73594 0.92205
vn -0.38773 -0.80789 0.86737
vn -0.38657 -0.56793 1.04643
vn -0.61612 -0.07974 1.08174
vn -0.46827 -0.42492 1.08335
vn -0.38657 -0.56793 1.04643
vn -0.31116 -0.84949 0.85160
vn -0.35962 -1.07736 0.58615
vn -0.38368 -1.07532 0.57451
vn -0.31116 -0.84949 0.85160
vn -0.38368 -1.07532 0.57451
vn -0.08377 -0.93930 0.79465
vn -0.31116 -0.84949 0.85160
vn -0.38278 -0.92215 0.74278
vn -0.47009 -1.05167 0.55371
vn -0.38773 -0.80789 0.86737
vn -0.31116 -0.84949 0.85160
vn -0.38657 -0.56793 1.04643
vn -0.31116 -0.84949 0.85160
vn -0.08377 -0.93930 0.79465
vn -0.32407 -0.62507 1.03504
vn -0.38657 -0.56793 1.04643
vn -0.31116 -0.84949 0.85160
vn -0.32407 -0.62507 1.03504
vn -0.38657 -0.56793 1.04643
vn -0.32407 -0.62507 1.03504
vn -0.45901 -0.16423 1.17083
vn 1.14503 -0.45840 0.19934
vn 1.11628 -0.58724 -0.18712
vn 1.16795 -0.45921 0.03445
vn 1.11628 -0.58724 -0.18712
vn 0.96867 -0.46883 -0.68120
vn 1.16795 -0.45921 0.03445
vn 1.14503 -0.45840 0.19934
vn 1.16795 -0.45921 0.03445
vn 1.15812 -0.34424 0.32523
vn 1.15642 -0.32550 0.35168
vn 1.13854 -0.40788 0.30226
vn 1.15812 -0.34424 0.32523
vn 1.13462 -0.17324 0.52648
vn 1.13933 -0.30380 0.41450
vn 1.14155 -0.20530 0.49881
vn 1.13355 -0.18146 0.52596
vn 1.14155 -0.20530 0.49881
vn 1.13745 -0.12424 0.56952
vn 1.13933 -0.30380 0.41450
vn 1.15812 -0.34424 0.32523
vn 1.14155 -0.20530 0.49881
vn 1.14155 -0.20530 0.49881
vn 1.08979 0.34025 0.57461
vn 1.13745 -0.12424 0.56952
vn 1.02656 0.56961 0.50527
vn 1.08979 0.34025 0.57461
vn 1.01344 0.55924 0.54202
vn -0.57397 0.31115 1.09878
vn -0.94154 0.23162 0.83243
vn -0.67725 0.14548 1.07413
vn -0.94154 0.23162 0.83243
vn -1.02613 0.14998 0.74688
vn -0.67725 0.14548 1.07413
vn -0.48832 1.14379 -0.15719
vn -0.53538 1.14149 -0.20963
vn -0.58500 1.04975 -0.35578
vn -0.53538 1.14149 -0.20963
vn -0.54110 1.13929 -0.20690
vn -0.58500 1.04975 -0.35578
vn -1.19072 0.33993 0.26145
vn -1.18490 0.28139 0.33820
vn -1.14223 0.46852 0.28480
vn -0.94154 0.23162 0.83243
vn -1.18153 0.22453 0.39971
vn -1.02613 0.14998 0.74688
vn -0.47800 1.01545 -0.37427
vn -0.66681 0.95418 -0.46190
vn -0.58500 1.04975 -0.35578
vn -0.47800 1.01545 -0.37427
vn -0.58500 1.04975 -0.35578
vn -0.44683 0.95438 -0.54569
vn -0.16406 1.20721 -0.08802
vn -0.47800 1.01545 -0.37427
vn -0.44683 0.95438 -0.54569
vn 0.05859 1.20634 -0.16152
vn -0.44683 0.95438 -0.54569
vn 0.01262 1.18188 -0.31879
vn -1.18153 0.22453 0.39971
vn -1.19618 0.23070 0.32894
vn -1.02613 0.14998 0.74688
vn -0.83067 -0.51526 -0.64122
vn -0.77359 -0.49281 -0.72800
vn -0.70091 -0.92855 -0.44953
vn -1.19072 0.33993 0.26145
vn -1.19618 0.23070 0.32894
vn -1.18153 0.22453 0.39971
vn -0.15278 -1.15690 -0.02962
vn -0.37552 -1.09736 -0.34499
vn -0.06940 -1.14833 0.21560
vn 0.82109 0.98382 -0.06203
vn 0.69714 1.05097 0.24056
vn 0.95915 0.85352 0.19298
vn 0.79141 0.95199 0.38569
vn 0.69714 1.05097 0.24056
vn 0.17476 1.18758 0.45456
vn 0.15163 1.19510 0.47957
vn 0.17476 1.18758 0.45456
vn 0.15292 1.19194 0.48350
vn 0.08366 1.24582 0.34467
vn 0.17476 1.18758 0.45456
vn 0.09779 1.21994 0.38686
vn -0.79388 0.90509 -0.45068
vn -0.80787 0.89084 -0.47909
vn -0.79735 0.90156 -0.45771
vn -1.26504 0.26094 0.09005
vn -1.23425 0.16280 0.36196
vn -1.25674 0.26640 0.09500
vn -1.19611 0.25546 0.40442
vn -1.23425 0.16280 0.36196
vn -1.19593 0.11160 0.49296
vn 1.21550 -0.05300 -0.42842
vn 1.22285 -0.05393 -0.42988
vn 0.98926 -0.29172 -0.78516
vn 0.87881 -0.16489 -0.92944
vn 0.98926 -0.29172 -0.78516
vn 0.88220 -0.17382 -0.93036
vn -0.40127 -0.19419 -1.19786
vn -0.40312 0.08486 -1.20991
vn -0.56917 -0.04680 -1.14344
vn -0.01720 0.07968 -1.27552
vn -0.40312 0.08486 -1.20991
vn -0.06967 0.07857 -1.27380
vn -0.70814 0.08400 -1.06069
vn -0.75110 0.08593 -1.03056
vn -0.98698 0.08068 -0.80806
vn -0.75110 0.08593 -1.03056
vn -1.11842 0.05603 -0.61610
vn -0.98698 0.08068 -0.80806
vn -0.98698 0.08068 -0.80806
vn -1.11842 0.05603 -0.61610
vn -1.26930 -0.00177 -0.14990
vn -1.11842 0.05603 -0.61610
vn -1.26983 -0.05117 0.13598
vn -1.26930 -0.00177 -0.14990
vn -1.26930 -0.00177 -0.14990
vn -1.26983 -0.05117 0.13598
vn -1.21274 -0.07817 0.39589
vn -1.26983 -0.05117 0.13598
vn -1.21283 -0.07779 0.39569
vn -1.21274 -0.07817 0.39589
vn -0.62757 -0.12577 1.10631
vn -0.62211 -0.13720 1.10804
vn -0.44979 -0.15048 1.18686
vn -0.62211 -0.13720 1.10804
vn -0.27371 -0.13487 1.24116
vn -0.44979 -0.15048 1.18686
vn -0.44979 -0.15048 1.18686
vn -0.27371 -0.13487 1.24116
vn 0.01026 -0.11322 1.27305
vn -0.27371 -0.13487 1.24116
vn 0.10852 -0.08709 1.27052
vn 0.01026 -0.11322 1.27305
vn 0.01026 -0.11322 1.27305
vn 0.10852 -0.08709 1.27052
vn 0.40290 -0.09197 1.20946
vn 0.10852 -0.08709 1.27052
vn 0.40292 -0.09163 1.20948
vn 0.40290 -0.09197 1.20946
vn -0.14325 -1.20735 0.39416
vn -0.02167 -1.23929 0.31188
vn -0.09687 -1.20673 0.40989
vn -0.00752 -1.21915 0.38367
vn -0.02167 -1.23929 0.31188
vn 0.01431 -1.24992 0.26664
vn -0.02167 -1.23929 0.31188
vn 0.03806 -1.26913 0.14644
vn 0.01431 -1.24992 0.26664
vn -0.06531 0.35101 1.23486
vn 0.19992 0.15168 1.26890
vn -0.06838 0.38305 1.23334
vn -0.32985 0.57919 1.10596
vn -0.06531 0.35101 1.23486
vn -0.06838 0.38305 1.23334
vn 0.68830 0.45190 0.98705
vn 0.56684 0.39248 1.09162
vn 0.68870 0.47620 0.98285
vn 0.71521 0.31030 1.03182
vn 0.68830 0.45190 0.98705
vn 0.68870 0.47620 0.98285
vn 0.59121 0.04861 1.15050
vn 0.58711 0.01060 1.14339
vn 0.71521 0.31030 1.03182
vn 0.21942 -0.54055 -1.15576
vn -0.07222 -0.56843 -1.15966
vn 0.15677 -0.56603 -1.15222
vn 0.09535 -0.59993 -1.14326
vn 0.15677 -0.56603 -1.15222
vn 0.09453 -0.59482 -1.14446
vn -0.72961 -0.41110 -0.98599
vn -0.88152 -0.37979 -0.86677
vn -0.47125 -0.48185 -1.10368
vn -0.35944 -0.57171 -1.10334
vn -0.47125 -0.48185 -1.10368
vn -0.07222 -0.56843 -1.15966
vn 1.25996 0.05497 0.24253
vn 1.28315 -0.01198 -0.00985
vn 1.23421 0.06190 0.32630
vn 1.17813 0.10060 0.48526
vn 1.25996 0.05497 0.24253
vn 1.23421 0.06190 0.32630
vn 0.36734 0.20133 1.20752
vn 0.36734 0.20133 1.20752
vn 0.36198 0.31403 1.18488
vn 1.17813 0.10060 0.48526
vn 1.23421 0.06190 0.32630
vn 1.21505 0.11487 0.37954
vn -0.77168 0.04545 1.02520
vn -0.71236 0.03742 1.06755
vn -0.81409 0.15666 0.97278
vn 0.36734 0.20133 1.20752
vn 0.39370 0.10702 1.21698
vn 0.36734 0.20133 1.20752
vn 0.39370 0.10702 1.21698
vn 0.41337 0.10557 1.21080
vn 0.41195 0.07758 1.20742
vn 0.34759 0.02396 1.22971
vn 0.36347 -0.12620 1.21883
vn 0.33204 -0.11941 1.22845
vn -0.81409 0.15666 0.97278
vn -0.88222 0.12507 0.91631
vn -0.85008 0.28107 0.91211
vn 0.19246 -0.38794 1.20252
vn 0.34759 0.02396 1.22971
vn 0.33204 -0.11941 1.22845
vn -0.88222 0.12507 0.91631
vn -0.77158 -0.11075 1.01291
vn -0.84915 -0.00880 0.95522
vn 0.34759 0.02396 1.22971
vn 0.36533 0.30968 1.18500
vn 0.36198 0.31403 1.18488
vn 0.83610 -0.04120 -0.96583
vn 0.67842 0.02140 -1.08299
vn 0.78952 -0.00276 -1.00511
vn 0.97202 -0.10273 -0.82354
vn 0.83610 -0.04120 -0.96583
vn 0.78952 -0.00276 -1.00511
vn -0.60495 -0.40544 -1.05035
vn -0.80532 -0.34212 -0.93166
vn -0.71716 -0.53267 -0.91408
vn -0.60495 -0.40544 -1.05035
vn -0.61363 0.04011 -1.12047
vn -0.54209 0.04656 -1.15653
vn -0.60495 -0.40544 -1.05035
vn -0.71716 -0.53267 -0.91408
vn -0.56436 -0.61084 -0.97055
vn -0.17786 -1.20036 -0.40137
vn -0.28287 -1.10873 -0.56946
vn -0.17786 -1.20036 -0.40137
vn -0.28287 -1.10873 -0.56946
vn -0.01035 -1.23399 -0.33280
vn 0.08517 -1.21896 -0.37478
vn -0.28287 -1.10873 -0.56946
vn -0.23230 -1.06409 -0.66883
vn -0.01035 -1.23399 -0.33280
vn -0.28287 -1.10873 -0.56946
vn -0.52801 -0.76811 -0.87453
vn -0.23230 -1.06409 -0.66883
vn -0.71716 -0.53267 -0.91408
vn -0.52801 -0.76811 -0.87453
vn -0.28287 -1.10873 -0.56946
vn -1.26506 0.04703 -0.17610
vn -1.20928 0.00877 -0.41370
vn -1.26294 0.06244 -0.18619
vn -0.88298 -0.04352 0.92306
vn -0.88298 -0.04352 0.92306
vn -0.75521 -0.15639 1.01921
vn -0.75521 -0.15639 1.01921
vn -0.77158 -0.11075 1.01291
vn -0.58902 -0.21512 1.11372
vn 0.00963 -0.89904 0.90842
vn 0.05173 -0.98193 0.81653
vn -0.01852 -0.92108 0.88592
vn -0.01852 -0.92108 0.88592
vn 0.05173 -0.98193 0.81653
vn 0.08065 -0.94572 0.85597
vn 0.08065 -0.94572 0.85597
vn 0.05173 -0.98193 0.81653
vn 0.16424 -1.15525 0.52154
vn -0.52801 -0.76811 -0.87453
vn -0.34322 -0.70356 -1.01034
vn -0.23230 -1.06409 -0.66883
vn -0.34322 -0.70356 -1.01034
vn -0.11492 -0.77163 -1.01241
vn -0.23230 -1.06409 -0.66883
vn -0.11492 -0.77163 -1.01241
vn -0.07830 -0.74240 -1.03745
vn -0.23230 -1.06409 -0.66883
vn 0.13972 -1.26316 -0.13595
vn 0.08218 -1.27488 0.03890
vn -0.24357 -1.25237 -0.07636
vn -0.04453 -1.19978 -0.43832
vn -0.24357 -1.25237 -0.07636
vn -0.04453 -1.19978 -0.43832
vn -0.24357 -1.25237 -0.07636
vn 0.08218 -1.27488 0.03890
vn -0.12859 -1.24437 0.26192
vn -0.24357 -1.25237 -0.07636
vn -0.39546 -1.13463 -0.43568
vn -0.39546 -1.13463 -0.43568
vn -0.24357 -1.25237 -0.07636
vn -0.12859 -1.24437 0.26192
vn -0.39348 -1.19180 0.24160
vn -0.56552 -1.12981 -0.19313
vn -0.24357 -1.25237 -0.07636
vn -0.56552 -1.12981 -0.19313
vn -0.50456 -1.16139 0.17376
vn -0.24357 -1.25237 -0.07636
vn -0.39348 -1.19180 0.24160
vn 0.05773 -1.27170 -0.11413
vn -0.02591 -1.27706 -0.04502
vn 0.04995 -1.27051 -0.13003
vn -0.07387 -1.25173 -0.24761
vn -0.02591 -1.27706 -0.04502
vn -0.07387 -1.25173 -0.24761
vn 0.07374 -1.27498 -0.05071
vn -0.02591 -1.27706 -0.04502
vn 0.05773 -1.27170 -0.11413
vn -0.02880 -1.25634 -0.23318
vn -0.02591 -1.27706 -0.04502
vn -0.02880 -1.25634 -0.23318
vn 0.06196 -1.27463 0.07114
vn -0.02591 -1.27706 -0.04502
vn 0.07374 -1.27498 -0.05071
vn 0.04972 -1.26973 0.13747
vn -0.02591 -1.27706 -0.04502
vn 0.06196 -1.27463 0.07114
vn 0.02335 -1.26951 0.14627
vn -0.02591 -1.27706 -0.04502
vn 0.01241 -1.26982 0.14486
vn -0.40312 0.08486 -1.20991
vn -0.40127 -0.19419 -1.19786
vn -0.23247 -0.04967 -1.25582
vn -0.40312 0.08486 -1.20991
vn -0.75110 0.08593 -1.03056
vn -0.70814 0.08400 -1.06069
vn 0.16424 -1.15525 0.52154
vn 0.05173 -0.98193 0.81653
vn 0.10119 -1.26514 0.15093
vn 0.26478 -0.94620 0.81743
vn 0.08065 -0.94572 0.85597
vn 0.16424 -1.15525 0.52154
vn -0.23230 -1.06409 -0.66883
vn -0.10774 -1.24060 -0.28790
vn -0.06919 -1.27499 0.05668
vn 0.05762 -1.27021 0.12977
vn -0.02591 -1.27706 -0.04502
vn 0.04972 -1.26973 0.13747
vn 0.75213 0.01787 -1.03323
vn 0.55543 -0.22766 -1.12839
vn 0.68347 -0.05633 -1.07855
vn 1.08979 0.34025 0.57461
vn 0.99929 0.54831 0.57823
vn 1.01344 0.55924 0.54202
vn 0.16424 -1.15525 0.52154
vn -0.02823 -1.27675 -0.05198
vn -0.06919 -1.27499 0.05668
vn -0.02823 -1.27675 -0.05198
vn 0.16424 -1.15525 0.52154
vn 0.10119 -1.26514 0.15093
vn -0.02823 -1.27675 -0.05198
vn -0.23230 -1.06409 -0.66883
vn -0.06919 -1.27499 0.05668
vn -0.23230 -1.06409 -0.66883
vn -0.02823 -1.27675 -0.05198
vn 0.10119 -1.26514 0.15093
s 1
f 1/1/1 2/2/2 3/3/3
f 4/4/4 5/5/5 6/6/6
f 7/7/7 8/8/8 9/9/9
f 10/10/10 11/11/11 12/12/12
f 13/13/13 14/14/14 15/15/15
f 16/16/16 17/17/17 18/18/18
f 19/19/19 20/20/20 21/21/21
f 22/22/22 23/23/23 24/24/24
f 25/25/25 26/26/26 27/27/27
f 28/28/28 29/29/29 30/30/30
f 31/31/31 32/32/32 33/33/33
f 34/34/34 35/35/35 36/36/36
f 37/37/37 38/38/38 39/39/39
f 40/40/40 41/41/41 42/42/42
f 43/43/43 44/44/44 45/45/45
f 46/46/46 47/47/47 48/48/48
f 49/49/49 50/50/50 51/51/51
f 52/52/52 53/53/53 54/54/54
f 55/55/55 56/56/56 57/57/57
f 58/58/58 59/59/59 60/60/60
f 61/61/61 62/62/62 63/63/63
f 64/64/64 65/65/65 66/66/66
f 67/67/67 68/68/68 69/69/69
f 70/70/70 71/71/71 72/72/72
f 73/73/73 74/74/74 75/75/75
f 76/76/76 77/77/77 78/78/78
f 79/79/79 80/80/80 81/81/81
f 82/82/82 83/83/83 84/84/84
f 85/85/85 86/86/86 87/87/87
f 88/88/88 89/89/89 90/90/90
f 91/91/91 92/92/92 93/93/93
f 94/94/94 95/95/95 96/96/96
f 97/97/97 98/98/98 99/99/99
f 100/100/100 101/101/101 102/102/102
f 103/103/103 104/104/104 105/105/105
f 106/106/106 107/107/107 108/108/108
f 109/109/109 110/110/110 111/111/111
f 112/112/112 113/113/113 114/114/114
f 115/115/115 116/116/116 117/117/117
f 118/118/118 119/119/119 120/120/120
f 121/121/121 122/122/122 123/123/123
f 124/124/124 125/125/125 126/126/126
f 127/127/127 128/128/128 129/129/129
f 130/130/130 131/131/131 132/132/132
f 133/133/133 134/134/134 135/135/135
f 136/136/136 137/137/137 138/138/138
f 139/139/139 140/140/140 141/141/141
f 142/142/142 143/143/143 144/144/144
f 145/145/145 146/146/146 147/147/147
f 148/148/148 149/149/149 150/150/150
f 151/151/151 152/152/152 153/153/153
f 154/154/154 155/155/155 156/156/156
f 157/157/157 158/158/158 159/159/159
f 160/160/160 161/161/161 162/162/162
f 163/163/163 164/164/164 165/165/165
f 166/166/166 167/167/167 168/168/168
f 169/169/169 170/170/170 171/171/171
f 172/172/172 173/173/173 174/174/174
f 175/175/175 176/176/176 177/177/177
f 178/178/178 179/179/179 180/180/180
f 181/181/181 182/182/182 183/183/183
f 184/184/184 185/185/185 186/186/186
f 187/187/187 188/188/188 189/189/189
f 190/190/190 191/191/191 192/192/192
f 193/193/193 194/194/194 195/195/195
f 196/196/196 197/197/197 198/198/198
f 199/199/199 200/200/200 201/201/201
f 202/202/202 203/203/203 204/204/204
f 205/205/205 206/206/206 207/207/207
f 208/208/208 209/209/209 210/210/210
f 211/211/211 212/212/212 213/213/213
f 214/214/214 215/215/215 216/216/216
f 217/217/217 218/218/218 219/219/219
f 220/220/220 221/221/221 222/222/222
f 223/223/223 224/224/224 225/225/225
f 226/226/226 227/227/227 228/228/228
f 229/229/229 230/230/230 231/231/231
f 232/232/232 233/233/233 234/234/234
f 235/235/235 236/236/236 237/237/237
f 238/238/238 239/239/239 240/240/240
f 241/241/241 242/242/242 243/243/243
f 244/244/244 245/245/245 246/246/246
f 247/247/247 248/248/248 249/249/249
f 250/250/250 251/251/251 252/252/252
f 253/253/253 254/254/254 255/255/255
f 256/256/256 257/257/257 258/258/258
f 259/259/259 260/260/260 261/261/261
f 262/262/262 263/263/263 264/264/264
f 265/265/265 266/266/266 267/267/267
f 268/268/268 269/269/269 270/270/270
f 271/271/271 272/272/272 273/273/273
f 274/274/274 275/275/275 276/276/276
f 277/277/277 278/278/278 279/279/279
f 280/280/280 281/281/281 282/282/282
f 283/283/283 284/284/284 285/285/285
f 286/286/286 287/287/287 288/288/288
f 289/289/289 290/290/290 291/291/291
f 292/292/292 293/293/293 294/294/294
f 295/295/295 296/296/296 297/297/297
f 298/298/298 299/299/299 300/300/300
f 301/301/301 302/302/302 303/303/303
f 304/304/304 305/305/305 306/306/306
f 307/307/307 308/308/308 309/309/309
f 310/310/310 311/311/311 312/312/312
f 313/313/313 314/314/314 315/315/315
f 316/316/316 317/317/317 318/318/318
f 319/319/319 320/320/320 321/321/321
f 322/322/322 323/323/323 324/324/324
f 325/325/325 326/326/326 327/327/327
f 328/328/328 329/329/329 330/330/330
f 331/331/331 332/332/332 333/333/333
f 334/334/334 335/335/335 336/336/336
f 337/337/337 338/338/338 339/339/339
f 340/340/340 341/341/341 342/342/342
f 343/343/343 344/344/344 345/345/345
f 346/346/346 347/347/347 348/348/348
f 349/349/349 350/350/350 351/351/351
f 352/352/352 353/353/353 354/354/354
f 355/355/355 356/356/356 357/357/357
f 358/358/358 359/359/359 360/360/360
f 361/361/361 362/362/362 363/363/363
f 364/364/364 365/365/365 366/366/366
f 367/367/367 368/368/368 369/369/369
f 370/370/370 371/371/371 372/372/372
f 373/373/373 374/374/374 375/375/375
f 376/376/376 377/377/377 378/378/378
f 379/379/379 380/380/380 381/381/381
f 382/382/382 383/383/383 384/384/384
f 385/385/385 386/386/386 387/387/387
f 388/388/388 389/389/389 390/390/390
f 391/391/391 392/392/392 393/393/393
f 394/394/394 395/395/395 396/396/396
f 397/397/397 398/398/398 399/399/399
f 400/400/400 401/401/401 402/402/402
f 403/403/403 404/404/404 405/405/405
f 406/406/406 407/407/407 408/408/408
f 409/409/409 410/410/410 411/411/411
f 412/412/412 413/413/413 414/414/414
f 415/415/415 416/416/416 417/417/417
f 418/418/418 419/419/419 420/420/420
f 421/421/421 422/422/422 423/423/423
f 424/424/424 425/425/425 426/426/426
f 427/427/427 428/428/428 429/429/429
f 430/430/430 431/431/431 432/432/432
f 433/433/433 434/434/434 435/435/435
f 436/436/436 437/437/437 438/438/438
f 439/439/439 440/440/440 441/441/441
f 442/442/442 443/443/443 444/444/444
f 445/445/445 446/446/446 447/447/447
f 448/448/448 449/449/449 450/450/450
f 451/451/451 452/452/452 453/453/453
f 454/454/454 455/455/455 456/456/456
f 457/457/457 458/458/458 459/459/459
f 460/460/460 461/461/461 462/462/462
f 463/463/463 464/464/464 465/465/465
f 466/466/466 467/467/467 468/468/468
f 469/469/469 470/470/470 471/471/471
f 472/472/472 473/473/473 474/474/474
f 475/475/475 476/476/476 477/477/477
f 478/478/478 479/479/479 480/480/480
f 481/481/481 482/482/482 483/483/483
f 484/484/484 485/485/485 486/486/486
f 487/487/487 488/488/488 489/489/489
f 490/490/490 491/491/491 492/492/492
f 493/493/493 494/494/494 495/495/495
f 496/496/496 497/497/497 498/498/498
f 499/499/499 500/500/500 501/501/501
f 502/502/502 503/503/503 504/504/504
f 505/505/505 506/506/506 507/507/507
f 508/508/508 509/509/509 510/510/510
f 511/511/511 512/512/512 513/513/513
f 514/514/514 515/515/515 516/516/516
f 517/517/517 518/518/518 519/519/519
f 520/520/520 521/521/521 522/522/522
f 523/523/523 524/524/524 525/525/525
f 526/526/526 527/527/527 528/528/528
f 529/529/529 530/530/530 531/531/531
f 532/532/532 533/533/533 534/534/534
f 535/535/535 536/536/536 537/537/537
f 538/538/538 539/539/539 540/540/540
f 541/541/541 542/542/542 543/543/543
f 544/544/544 545/545/545 546/546/546
f 547/547/547 548/548/548 549/549/549
f 550/550/550 551/551/551 552/552/552
f 553/553/553 554/554/554 555/555/555
f 556/556/556 557/557/557 558/558/558
f 559/559/559 560/560/560 561/561/561
f 562/562/562 563/563/563 564/564/564
f 565/565/565 566/566/566 567/567/567
f 568/568/568 569/569/569 570/570/570
f 571/571/571 572/572/572 573/573/573
f 574/574/574 575/575/575 576/576/576
f 577/577/577 578/578/578 579/579/579
f 580/580/580 581/581/581 582/582/582
f 583/583/583 584/584/584 585/585/585
f 586/586/586 587/587/587 588/588/588
f 589/589/589 590/590/590 591/591/591
f 592/592/592 593/593/593 594/594/594
f 595/595/595 596/596/596 597/597/597
f 598/598/598 599/599/599 600/600/600
f 601/601/601 602/602/602 603/603/603
f 604/604/604 605/605/605 606/606/606
f 607/607/607 608/608/608 609/609/609
f 610/610/610 611/611/611 612/612/612
f 613/613/613 614/614/614 615/615/615
f 616/616/616 617/617/617 618/618/618
f 619/619/619 620/620/620 621/621/621
f 622/622/622 623/623/623 624/624/624
f 625/625/625 626/626/626 627/627/627
f 628/628/628 629/629/629 630/630/630
f 631/631/631 632/632/632 633/633/633
f 634/634/634 635/635/635 636/636/636
f 637/637/637 638/638/638 639/639/639
f 640/640/640 641/641/641 642/642/642
f 643/643/643 644/644/644 645/645/645
f 646/646/646 647/647/647 648/648/648
f 649/649/649 650/650/650 651/651/651
f 652/652/652 653/653/653 654/654/654
f 655/655/655 656/656/656 657/657/657
f 658/658/658 659/659/659 660/660/660
f 661/661/661 662/662/662 663/663/663
f 664/664/664 665/665/665 666/666/666
f 667/667/667 668/668/668 669/669/669
f 670/670/670 671/671/671 672/672/672
f 673/673/673 674/674/674 675/675/675
f 676/676/676 677/677/677 678/678/678
f 679/679/679 680/680/680 681/681/681
f 682/682/682 683/683/683 684/684/684
f 685/685/685 686/686/686 687/687/687
f 688/688/688 689/689/689 690/690/690
f 691/691/691 692/692/692 693/693/693
f 694/694/694 695/695/695 696/696/696
f 697/697/697 698/698/698 699/699/699
f 700/700/700 701/701/701 702/702/702
f 703/703/703 704/704/704 705/705/705
f 706/706/706 707/707/707 708/708/708
f 709/709/709 710/710/710 711/711/711
f 712/712/712 713/713/713 714/714/714
f 715/715/715 716/716/716 717/717/717
f 718/718/718 719/719/719 720/720/720
f 721/721/721 722/722/722 723/723/723
f 724/724/724 725/725/725 726/726/726
f 727/727/727 728/728/728 729/729/729
f 730/730/730 731/731/731 732/732/732
f 733/733/733 734/734/734 735/735/735
f 736/736/736 737/737/737 738/738/738
f 739/739/739 740/740/740 741/741/741
f 742/742/742 743/743/743 744/744/744
f 745/745/745 746/746/746 747/747/747
f 748/748/748 749/749/749 750/750/750
f 751/751/751 752/752/752 753/753/753
f 754/754/754 755/755/755 756/756/756
f 757/757/757 758/758/758 759/759/759
f 760/760/760 761/761/761 762/762/762
f 763/763/763 764/764/764 765/765/765
f 766/766/766 767/767/767 768/768/768
f 769/769/769 770/770/770 771/771/771
f 772/772/772 773/773/773 774/774/774
f 775/775/775 776/776/776 777/777/777
f 778/778/778 779/779/779 780/780/780
f 781/781/781 782/782/782 783/783/783
f 784/784/784 785/785/785 786/786/786
f 787/787/787 788/788/788 789/789/789
f 790/790/790 791/791/791 792/792/792
f 793/793/793 794/794/794 795/795/795
f 796/796/796 797/797/797 798/798/798
f 799/799/799 800/800/800 801/801/801
f 802/802/802 803/803/803 804/804/804
f 805/805/805 806/806/806 807/807/807
f 808/808/808 809/809/809 810/810/810
f 811/811/811 812/812/812 813/813/813
f 814/814/814 815/815/815 816/816/816
f 817/817/817 818/818/818 819/819/819
f 820/820/820 821/821/821 822/822/822
f 823/823/823 824/824/824 825/825/825
f 826/826/826 827/827/827 828/828/828
f 829/829/829 830/830/830 831/831/831
f 832/832/832 833/833/833 834/834/834
f 835/835/835 836/836/836 837/837/837
f 838/838/838 839/839/839 840/840/840
f 841/841/841 842/842/842 843/843/843
f 844/844/844 845/845/845 846/846/846
f 847/847/847 848/848/848 849/849/849
f 850/850/850 851/851/851 852/852/852
f 853/853/853 854/854/854 855/855/855
f 856/856/856 857/857/857 858/858/858
f 859/859/859 860/860/860 861/861/861
f 862/862/862 863/863/863 864/864/864
f 865/865/865 866/866/866 867/867/867
f 868/868/868 869/869/869 870/870/870
f 871/871/871 872/872/872 873/873/873
f 874/874/874 875/875/875 876/876/876
f 877/877/877 878/878/878 879/879/879
f 880/880/880 881/881/881 882/882/882
f 883/883/883 884/884/884 885/885/885
f 886/886/886 887/887/887 888/888/888
f 889/889/889 890/890/890 891/891/891
f 892/892/892 893/893/893 894/894/894
f 895/895/895 896/896/896 897/897/897
f 898/898/898 899/899/899 900/900/900
f 901/901/901 902/902/902 903/903/903
f 904/904/904 905/905/905 906/906/906
f 907/907/907 908/908/908 909/909/909
f 910/910/910 911/911/911 912/912/912
f 913/913/913 914/914/914 915/915/915
f 916/916/916 917/917/917 918/918/918
f 919/919/919 920/920/920 921/921/921
f 922/922/922 923/923/923 924/924/924
f 925/925/925 926/926/926 927/927/927
f 928/928/928 929/929/929 930/930/930
f 931/931/931 932/932/932 933/933/933
f 934/934/934 935/935/935 936/936/936
f 937/937/937 938/938/938 939/939/939
f 940/940/940 941/941/941 942/942/942
f 943/943/943 944/944/944 945/945/945
f 946/946/946 947/947/947 948/948/948
f 949/949/949 950/950/950 951/951/951
f 952/952/952 953/953/953 954/954/954
f 955/955/955 956/956/956 957/957/957
f 958/958/958 959/959/959 960/960/960
f 961/961/961 962/962/962 963/963/963
f 964/964/964 965/965/965 966/966/966
f 967/967/967 968/968/968 969/969/969
f 970/970/970 971/971/971 972/972/972
f 973/973/973 974/974/974 975/975/975
f 976/976/976 977/977/977 978/978/978
f 979/979/979 980/980/980 981/981/981
f 982/982/982 983/983/983 984/984/984
f 985/985/985 986/986/986 987/987/987
f 988/988/988 989/989/989 990/990/990
f 991/991/991 992/992/992 993/993/993
f 994/994/994 995/995/995 996/996/996
f 997/997/997 998/998/998 999/999/999
f 1000/1000/1000 1001/1001/1001 1002/1002/1002
f 1003/1003/1003 1004/1004/1004 1005/1005/1005
f 1006/1006/1006 1007/1007/1007 1008/1008/1008
f 1009/1009/1009 1010/1010/1010 1011/1011/1011
f 1012/1012/1012 1013/1013/1013 1014/1014/1014
f 1015/1015/1015 1016/1016/1016 1017/1017/1017
f 1018/1018/1018 1019/1019/1019 1020/1020/1020
f 1021/1021/1021 1022/1022/1022 1023/1023/1023
f 1024/1024/1024 1025/1025/1025 1026/1026/1026
f 1027/1027/1027 1028/1028/1028 1029/1029/1029
f 1030/1030/1030 1031/1031/1031 1032/1032/1032
f 1033/1033/1033 1034/1034/1034 1035/1035/1035
f 1036/1036/1036 1037/1037/1037 1038/1038/1038
f 1039/1039/1039 1040/1040/1040 1041/1041/1041
f 1042/1042/1042 1043/1043/1043 1044/1044/1044
f 1045/1045/1045 1046/1046/1046 1047/1047/1047
f 1048/1048/1048 1049/1049/1049 1050/1050/1050
f 1051/1051/1051 1052/1052/1052 1053/1053/1053
f 1054/1054/1054 1055/1055/1055 1056/1056/1056
f 1057/1057/1057 1058/1058/1058 1059/1059/1059
f 1060/1060/1060 1061/1061/1061 1062/1062/1062
f 1063/1063/1063 1064/1064/1064 1065/1065/1065
f 1066/1066/1066 1067/1067/1067 1068/1068/1068
f 1069/1069/1069 1070/1070/1070 1071/1071/1071
f 1072/1072/1072 1073/1073/1073 1074/1074/1074
f 1075/1075/1075 1076/1076/1076 1077/1077/1077
f 1078/1078/1078 1079/1079/1079 1080/1080/1080
f 1081/1081/1081 1082/1082/1082 1083/1083/1083
f 1084/1084/1084 1085/1085/1085 1086/1086/1086
