# Subway Surfers 3D Horseshoe Magnet with Texture Atlas
mtllib magnet.mtl

v 0.237906 -0.082534 -0.111111
v 0.237906 -0.082534 0.111111
v 0.242567 -0.035211 0.111111
v 0.242567 -0.035211 -0.111111
v -0.455858 -0.125887 -0.111111
v -0.455858 -0.125887 0.111111
v -0.464789 -0.035211 0.111111
v -0.464789 -0.035211 -0.111111
v 0.237906 -0.082534 -0.111111
v 0.242567 -0.035211 -0.111111
v 0.464789 -0.035211 -0.111111
v 0.455858 -0.125887 -0.111111
v -0.237906 -0.082534 0.111111
v -0.242567 -0.035211 0.111111
v -0.464789 -0.035211 0.111111
v -0.455858 -0.125887 0.111111
v 0.242567 -0.035211 0.111111
v 0.237906 -0.082534 0.111111
v 0.455858 -0.125887 0.111111
v 0.464789 -0.035211 0.111111
v 0.224102 -0.128037 0.111111
v 0.429409 -0.213078 0.111111
v 0.201687 -0.169974 0.111111
v 0.386458 -0.293434 0.111111
v 0.171520 -0.206732 0.111111
v 0.328655 -0.363867 0.111111
v 0.134763 -0.236898 0.111111
v 0.258223 -0.421669 0.111111
v 0.092826 -0.259314 0.111111
v 0.177867 -0.464620 0.111111
v 0.047322 -0.273117 0.111111
v 0.090676 -0.491069 0.111111
v 0.000000 -0.277778 0.111111
v 0.000000 -0.500000 0.111111
v -0.047322 -0.273117 0.111111
v -0.090676 -0.491069 0.111111
v -0.092826 -0.259314 0.111111
v -0.177867 -0.464620 0.111111
v -0.134763 -0.236898 0.111111
v -0.258223 -0.421669 0.111111
v -0.171520 -0.206732 0.111111
v -0.328655 -0.363867 0.111111
v -0.201687 -0.169974 0.111111
v -0.386458 -0.293434 0.111111
v -0.224102 -0.128037 0.111111
v -0.429409 -0.213078 0.111111
v -0.242567 -0.035211 -0.111111
v -0.237906 -0.082534 -0.111111
v -0.455858 -0.125887 -0.111111
v -0.464789 -0.035211 -0.111111
v -0.224102 -0.128037 -0.111111
v -0.429409 -0.213078 -0.111111
v -0.201687 -0.169974 -0.111111
v -0.386458 -0.293434 -0.111111
v -0.171520 -0.206732 -0.111111
v -0.328655 -0.363867 -0.111111
v -0.134763 -0.236898 -0.111111
v -0.258223 -0.421669 -0.111111
v -0.092826 -0.259314 -0.111111
v -0.177867 -0.464620 -0.111111
v -0.047322 -0.273117 -0.111111
v -0.090676 -0.491069 -0.111111
v 0.000000 -0.277778 -0.111111
v 0.000000 -0.500000 -0.111111
v 0.047322 -0.273117 -0.111111
v 0.090676 -0.491069 -0.111111
v 0.092826 -0.259314 -0.111111
v 0.177867 -0.464620 -0.111111
v 0.134763 -0.236898 -0.111111
v 0.258223 -0.421669 -0.111111
v 0.171520 -0.206732 -0.111111
v 0.328655 -0.363867 -0.111111
v 0.201687 -0.169974 -0.111111
v 0.386458 -0.293434 -0.111111
v 0.224102 -0.128037 -0.111111
v 0.429409 -0.213078 -0.111111
v 0.464789 -0.035211 -0.111111
v 0.464789 -0.035211 0.111111
v 0.455858 -0.125887 0.111111
v 0.455858 -0.125887 -0.111111
v 0.429409 -0.213078 0.111111
v 0.429409 -0.213078 -0.111111
v 0.386458 -0.293434 0.111111
v 0.386458 -0.293434 -0.111111
v 0.328655 -0.363867 0.111111
v 0.328655 -0.363867 -0.111111
v 0.328655 -0.363867 -0.111111
v 0.328655 -0.363867 0.111111
v 0.258223 -0.421669 0.111111
v 0.258223 -0.421669 -0.111111
v 0.177867 -0.464620 0.111111
v 0.177867 -0.464620 -0.111111
v 0.090676 -0.491069 0.111111
v 0.090676 -0.491069 -0.111111
v 0.000000 -0.500000 0.111111
v 0.000000 -0.500000 -0.111111
v -0.090676 -0.491069 0.111111
v -0.090676 -0.491069 -0.111111
v -0.177867 -0.464620 0.111111
v -0.177867 -0.464620 -0.111111
v -0.258223 -0.421669 0.111111
v -0.258223 -0.421669 -0.111111
v -0.328655 -0.363867 0.111111
v -0.328655 -0.363867 -0.111111
v -0.328655 -0.363867 -0.111111
v -0.328655 -0.363867 0.111111
v -0.386458 -0.293434 0.111111
v -0.386458 -0.293434 -0.111111
v -0.429409 -0.213078 0.111111
v -0.429409 -0.213078 -0.111111
v -0.242567 -0.035211 -0.111111
v -0.242567 -0.035211 0.111111
v -0.237906 -0.082534 0.111111
v -0.237906 -0.082534 -0.111111
v -0.224102 -0.128037 0.111111
v -0.224102 -0.128037 -0.111111
v -0.201687 -0.169974 0.111111
v -0.201687 -0.169974 -0.111111
v -0.171520 -0.206732 0.111111
v -0.171520 -0.206732 -0.111111
v -0.171520 -0.206732 -0.111111
v -0.171520 -0.206732 0.111111
v -0.134763 -0.236898 0.111111
v -0.134763 -0.236898 -0.111111
v -0.092826 -0.259314 0.111111
v -0.092826 -0.259314 -0.111111
v -0.047322 -0.273117 0.111111
v -0.047322 -0.273117 -0.111111
v 0.000000 -0.277778 0.111111
v 0.000000 -0.277778 -0.111111
v 0.047322 -0.273117 0.111111
v 0.047322 -0.273117 -0.111111
v 0.092826 -0.259314 0.111111
v 0.092826 -0.259314 -0.111111
v 0.134763 -0.236898 0.111111
v 0.134763 -0.236898 -0.111111
v 0.171520 -0.206732 0.111111
v 0.171520 -0.206732 -0.111111
v 0.171520 -0.206732 -0.111111
v 0.171520 -0.206732 0.111111
v 0.201687 -0.169974 0.111111
v 0.201687 -0.169974 -0.111111
v 0.224102 -0.128037 0.111111
v 0.224102 -0.128037 -0.111111
v -0.242567 0.143192 0.111111
v -0.464789 0.143193 0.111111
v -0.242567 0.321596 0.111111
v -0.464789 0.321596 0.111111
v -0.464789 0.143193 0.111111
v -0.464789 0.143193 -0.111111
v -0.464789 0.321596 0.111111
v -0.464789 0.321596 -0.111111
v -0.242567 0.143192 -0.111111
v -0.242567 0.143192 0.111111
v -0.242567 0.321596 -0.111111
v -0.242567 0.321596 0.111111
v -0.464789 0.143193 -0.111111
v -0.242567 0.143192 -0.111111
v -0.464789 0.321596 -0.111111
v -0.242567 0.321596 -0.111111
v 0.242567 0.143192 0.111111
v 0.242567 0.143193 -0.111111
v 0.242567 0.321596 0.111111
v 0.242566 0.321596 -0.111111
v 0.464789 0.143192 0.111111
v 0.242567 0.143192 0.111111
v 0.464789 0.321596 0.111111
v 0.242567 0.321596 0.111111
v 0.242567 0.143193 -0.111111
v 0.464789 0.143193 -0.111111
v 0.242566 0.321596 -0.111111
v 0.464789 0.321596 -0.111111
v 0.464789 0.143193 -0.111111
v 0.464789 0.143192 0.111111
v 0.464789 0.321596 -0.111111
v 0.464789 0.321596 0.111111
v 0.464789 0.321596 0.111111
v 0.464789 0.321596 -0.111111
v 0.464789 0.500000 -0.111111
v 0.464789 0.500000 0.111111
v -0.242567 0.321596 -0.111111
v -0.464789 0.321596 -0.111111
v -0.464789 0.500000 -0.111111
v -0.242566 0.500000 -0.111111
v -0.464789 0.500000 -0.111111
v -0.464789 0.500000 0.111111
v -0.242566 0.500000 0.111111
v -0.242566 0.500000 -0.111111
v 0.242566 0.500000 -0.111111
v 0.242566 0.500000 0.111111
v 0.464789 0.500000 0.111111
v 0.464789 0.500000 -0.111111
v 0.464789 0.321596 -0.111111
v 0.242566 0.321596 -0.111111
v 0.242566 0.500000 -0.111111
v 0.464789 0.500000 -0.111111
v -0.242567 0.321596 0.111111
v -0.242567 0.321596 -0.111111
v -0.242566 0.500000 -0.111111
v -0.242566 0.500000 0.111111
v -0.464789 0.321596 -0.111111
v -0.464789 0.321596 0.111111
v -0.464789 0.500000 0.111111
v -0.464789 0.500000 -0.111111
v 0.242567 0.321596 0.111111
v 0.464789 0.321596 0.111111
v 0.464789 0.500000 0.111111
v 0.242566 0.500000 0.111111
v 0.242566 0.321596 -0.111111
v 0.242567 0.321596 0.111111
v 0.242566 0.500000 0.111111
v 0.242566 0.500000 -0.111111
v -0.464789 0.321596 0.111111
v -0.242567 0.321596 0.111111
v -0.242566 0.500000 0.111111
v -0.464789 0.500000 0.111111
vn -0.980785 0.195090 0.000000
vn -0.980785 0.195090 0.000000
vn -0.998795 0.049068 0.000000
vn -0.998795 0.049068 0.000000
vn -0.980785 -0.195090 0.000000
vn -0.980785 -0.195090 0.000000
vn -0.998795 -0.049068 0.000000
vn -0.998795 -0.049068 0.000000
vn 0.000000 0.000000 -1.000000
vn 0.000000 0.000000 -1.000000
vn 0.000000 0.000000 -1.000000
vn 0.000000 0.000000 -1.000000
vn 0.000000 0.000000 1.000000
vn 0.000000 0.000000 1.000000
vn 0.000000 0.000000 1.000000
vn 0.000000 0.000000 1.000000
vn 0.000000 0.000000 1.000000
vn 0.000000 0.000000 1.000000
vn 0.000000 0.000000 1.000000
vn 0.000000 0.000000 1.000000
vn 0.000000 0.000000 1.000000
vn 0.000000 0.000000 1.000000
vn 0.000000 0.000000 1.000000
vn 0.000000 0.000000 1.000000
vn 0.000000 0.000000 1.000000
vn 0.000000 0.000000 1.000000
vn 0.000000 0.000000 1.000000
vn 0.000000 0.000000 1.000000
vn 0.000000 0.000000 1.000000
vn 0.000000 0.000000 1.000000
vn 0.000000 0.000000 1.000000
vn 0.000000 0.000000 1.000000
vn 0.000000 0.000000 1.000000
vn 0.000000 0.000000 1.000000
vn 0.000000 0.000000 1.000000
vn 0.000000 0.000000 1.000000
vn 0.000000 0.000000 1.000000
vn 0.000000 0.000000 1.000000
vn 0.000000 0.000000 1.000000
vn 0.000000 0.000000 1.000000
vn 0.000000 0.000000 1.000000
vn 0.000000 0.000000 1.000000
vn 0.000000 0.000000 1.000000
vn 0.000000 0.000000 1.000000
vn 0.000000 0.000000 1.000000
vn 0.000000 0.000000 1.000000
vn 0.000000 0.000000 -1.000000
vn 0.000000 0.000000 -1.000000
vn 0.000000 0.000000 -1.000000
vn 0.000000 0.000000 -1.000000
vn 0.000000 0.000000 -1.000000
vn 0.000000 0.000000 -1.000000
vn 0.000000 0.000000 -1.000000
vn 0.000000 0.000000 -1.000000
vn 0.000000 0.000000 -1.000000
vn 0.000000 0.000000 -1.000000
vn 0.000000 0.000000 -1.000000
vn 0.000000 0.000000 -1.000000
vn 0.000000 0.000000 -1.000000
vn 0.000000 0.000000 -1.000000
vn 0.000000 0.000000 -1.000000
vn 0.000000 0.000000 -1.000000
vn 0.000000 0.000000 -1.000000
vn 0.000000 0.000000 -1.000000
vn 0.000000 0.000000 -1.000000
vn 0.000000 0.000000 -1.000000
vn 0.000000 0.000000 -1.000000
vn 0.000000 0.000000 -1.000000
vn 0.000000 0.000000 -1.000000
vn 0.000000 0.000000 -1.000000
vn 0.000000 0.000000 -1.000000
vn 0.000000 0.000000 -1.000000
vn 0.000000 0.000000 -1.000000
vn 0.000000 0.000000 -1.000000
vn 0.000000 0.000000 -1.000000
vn 0.000000 0.000000 -1.000000
vn 0.998795 -0.049068 0.000000
vn 0.998795 -0.049068 0.000000
vn 0.980785 -0.195090 0.000000
vn 0.980785 -0.195090 0.000000
vn 0.923880 -0.382683 0.000000
vn 0.923880 -0.382683 0.000000
vn 0.831470 -0.555570 0.000000
vn 0.831470 -0.555570 0.000000
vn 0.707107 -0.707107 0.000000
vn 0.707107 -0.707107 0.000000
vn 0.707107 -0.707107 0.000000
vn 0.707107 -0.707107 0.000000
vn 0.555570 -0.831470 0.000000
vn 0.555570 -0.831470 0.000000
vn 0.382683 -0.923880 0.000000
vn 0.382683 -0.923880 0.000000
vn 0.195090 -0.980785 0.000000
vn 0.195090 -0.980785 0.000000
vn 0.000000 -1.000000 0.000000
vn 0.000000 -1.000000 0.000000
vn -0.195090 -0.980785 0.000000
vn -0.195090 -0.980785 0.000000
vn -0.382683 -0.923880 0.000000
vn -0.382683 -0.923880 0.000000
vn -0.555570 -0.831470 0.000000
vn -0.555570 -0.831470 0.000000
vn -0.707107 -0.707107 0.000000
vn -0.707107 -0.707107 0.000000
vn -0.707107 -0.707107 0.000000
vn -0.707107 -0.707107 0.000000
vn -0.831470 -0.555570 0.000000
vn -0.831470 -0.555570 0.000000
vn -0.923880 -0.382683 0.000000
vn -0.923880 -0.382683 0.000000
vn 0.998795 0.049068 0.000000
vn 0.998795 0.049068 0.000000
vn 0.980785 0.195090 0.000000
vn 0.980785 0.195090 0.000000
vn 0.923880 0.382683 0.000000
vn 0.923880 0.382683 0.000000
vn 0.831469 0.555570 0.000000
vn 0.831469 0.555570 0.000000
vn 0.707107 0.707107 0.000000
vn 0.707107 0.707107 0.000000
vn 0.707107 0.707107 0.000000
vn 0.707107 0.707107 0.000000
vn 0.555570 0.831469 0.000000
vn 0.555570 0.831469 0.000000
vn 0.382683 0.923880 0.000000
vn 0.382683 0.923880 0.000000
vn 0.195090 0.980785 0.000000
vn 0.195090 0.980785 0.000000
vn 0.000000 1.000000 0.000000
vn 0.000000 1.000000 0.000000
vn -0.195090 0.980785 0.000000
vn -0.195090 0.980785 0.000000
vn -0.382683 0.923880 0.000000
vn -0.382683 0.923880 0.000000
vn -0.555570 0.831469 0.000000
vn -0.555570 0.831469 0.000000
vn -0.707107 0.707107 0.000000
vn -0.707107 0.707107 0.000000
vn -0.707107 0.707107 0.000000
vn -0.707107 0.707107 0.000000
vn -0.831469 0.555570 0.000000
vn -0.831469 0.555570 0.000000
vn -0.923880 0.382683 0.000000
vn -0.923880 0.382683 0.000000
vn 0.000000 0.000000 1.000000
vn 0.000000 0.000000 1.000000
vn 0.000000 0.000000 1.000000
vn 0.000000 0.000000 1.000000
vn -1.000000 0.000000 0.000000
vn -1.000000 0.000000 0.000000
vn -1.000000 0.000000 0.000000
vn -1.000000 0.000000 0.000000
vn 1.000000 -0.000000 0.000000
vn 1.000000 -0.000000 0.000000
vn 1.000000 -0.000000 0.000000
vn 1.000000 -0.000000 0.000000
vn 0.000000 0.000000 -1.000000
vn 0.000000 0.000000 -1.000000
vn 0.000000 0.000000 -1.000000
vn 0.000000 0.000000 -1.000000
vn -1.000000 -0.000000 0.000000
vn -1.000000 -0.000000 0.000000
vn -1.000000 -0.000000 0.000000
vn -1.000000 -0.000000 0.000000
vn 0.000000 0.000000 1.000000
vn 0.000000 0.000000 1.000000
vn 0.000000 0.000000 1.000000
vn 0.000000 0.000000 1.000000
vn 0.000000 0.000000 -1.000000
vn 0.000000 0.000000 -1.000000
vn 0.000000 0.000000 -1.000000
vn 0.000000 0.000000 -1.000000
vn 1.000000 0.000000 0.000000
vn 1.000000 0.000000 0.000000
vn 1.000000 0.000000 0.000000
vn 1.000000 0.000000 0.000000
vn 1.000000 0.000000 0.000000
vn 1.000000 0.000000 0.000000
vn 1.000000 0.000000 0.000000
vn 1.000000 0.000000 0.000000
vn 0.000000 0.000000 -1.000000
vn 0.000000 0.000000 -1.000000
vn 0.000000 0.000000 -1.000000
vn 0.000000 0.000000 -1.000000
vn 0.000000 1.000000 0.000000
vn 0.000000 1.000000 0.000000
vn 0.000000 1.000000 0.000000
vn 0.000000 1.000000 0.000000
vn 0.000000 1.000000 0.000000
vn 0.000000 1.000000 0.000000
vn 0.000000 1.000000 0.000000
vn 0.000000 1.000000 0.000000
vn 0.000000 0.000000 -1.000000
vn 0.000000 0.000000 -1.000000
vn 0.000000 0.000000 -1.000000
vn 0.000000 0.000000 -1.000000
vn 1.000000 -0.000000 0.000000
vn 1.000000 -0.000000 0.000000
vn 1.000000 -0.000000 0.000000
vn 1.000000 -0.000000 0.000000
vn -1.000000 0.000000 0.000000
vn -1.000000 0.000000 0.000000
vn -1.000000 0.000000 0.000000
vn -1.000000 0.000000 0.000000
vn 0.000000 0.000000 1.000000
vn 0.000000 0.000000 1.000000
vn 0.000000 0.000000 1.000000
vn 0.000000 0.000000 1.000000
vn -1.000000 0.000000 0.000000
vn -1.000000 0.000000 0.000000
vn -1.000000 0.000000 0.000000
vn -1.000000 0.000000 0.000000
vn 0.000000 0.000000 1.000000
vn 0.000000 0.000000 1.000000
vn 0.000000 0.000000 1.000000
vn 0.000000 0.000000 1.000000
vt 0.193434 0.849059
vt 0.145623 0.849059
vt 0.145623 0.823670
vt 0.193434 0.823670
vt 0.145623 0.872319
vt 0.097811 0.872319
vt 0.097811 0.823670
vt 0.145623 0.823670
vt 0.298814 0.223979
vt 0.297811 0.249368
vt 0.250000 0.249368
vt 0.251921 0.200719
vt 0.098814 0.223979
vt 0.097811 0.249368
vt 0.050000 0.249368
vt 0.051921 0.200719
vt 0.202189 0.249368
vt 0.201186 0.223979
vt 0.248079 0.200719
vt 0.250000 0.249368
vt 0.198216 0.199565
vt 0.242388 0.153939
vt 0.193393 0.177065
vt 0.233147 0.110827
vt 0.186903 0.157344
vt 0.220711 0.073038
vt 0.178994 0.141159
vt 0.205557 0.042026
vt 0.169972 0.129133
vt 0.188268 0.018982
vt 0.160181 0.121727
vt 0.169509 0.004792
vt 0.150000 0.119226
vt 0.150000 0.000000
vt 0.139819 0.121727
vt 0.130491 0.004792
vt 0.130028 0.129133
vt 0.111732 0.018982
vt 0.121006 0.141159
vt 0.094443 0.042026
vt 0.113097 0.157344
vt 0.079289 0.073038
vt 0.106607 0.177065
vt 0.066853 0.110827
vt 0.101784 0.199565
vt 0.057612 0.153939
vt 0.402189 0.249368
vt 0.401186 0.223979
vt 0.448079 0.200719
vt 0.450000 0.249368
vt 0.398216 0.199565
vt 0.442388 0.153939
vt 0.393393 0.177065
vt 0.433147 0.110827
vt 0.386903 0.157344
vt 0.420711 0.073038
vt 0.378994 0.141159
vt 0.405557 0.042026
vt 0.369972 0.129133
vt 0.388268 0.018982
vt 0.360181 0.121727
vt 0.369509 0.004792
vt 0.350000 0.119226
vt 0.350000 0.000000
vt 0.339819 0.121727
vt 0.330491 0.004792
vt 0.330028 0.129133
vt 0.311732 0.018982
vt 0.321006 0.141159
vt 0.294443 0.042026
vt 0.313097 0.157344
vt 0.279289 0.073038
vt 0.306607 0.177065
vt 0.266853 0.110827
vt 0.301784 0.199565
vt 0.257612 0.153939
vt 0.050000 0.823670
vt 0.097811 0.823670
vt 0.097811 0.872319
vt 0.050000 0.872319
vt 0.097811 0.919099
vt 0.050000 0.919099
vt 0.097811 0.962212
vt 0.050000 0.962212
vt 0.097811 1.000000
vt 0.050000 1.000000
vt 0.289057 0.887481
vt 0.241246 0.887481
vt 0.241246 0.852914
vt 0.289057 0.852914
vt 0.241246 0.812268
vt 0.289057 0.812268
vt 0.241246 0.767104
vt 0.289057 0.767104
vt 0.241246 0.719159
vt 0.289057 0.719159
vt 0.241246 0.670274
vt 0.289057 0.670274
vt 0.241246 0.622329
vt 0.289057 0.622329
vt 0.241246 0.577165
vt 0.289057 0.577165
vt 0.241246 0.536519
vt 0.289057 0.536519
vt 0.145623 1.000000
vt 0.097811 1.000000
vt 0.097811 0.962212
vt 0.145623 0.962212
vt 0.097811 0.919099
vt 0.145623 0.919099
vt 0.241246 0.628543
vt 0.193434 0.628543
vt 0.193434 0.603154
vt 0.241246 0.603154
vt 0.193434 0.578740
vt 0.241246 0.578740
vt 0.193434 0.556240
vt 0.241246 0.556240
vt 0.193434 0.536519
vt 0.241246 0.536519
vt 0.336869 0.720567
vt 0.289057 0.720567
vt 0.289057 0.700846
vt 0.336869 0.700846
vt 0.289057 0.678346
vt 0.336869 0.678346
vt 0.289057 0.653932
vt 0.336869 0.653932
vt 0.289057 0.628543
vt 0.336869 0.628543
vt 0.289057 0.603154
vt 0.336869 0.603154
vt 0.289057 0.578740
vt 0.336869 0.578740
vt 0.289057 0.556240
vt 0.336869 0.556240
vt 0.289057 0.536519
vt 0.336869 0.536519
vt 0.193434 0.915694
vt 0.145623 0.915694
vt 0.145623 0.895973
vt 0.193434 0.895973
vt 0.145623 0.873473
vt 0.193434 0.873473
vt 0.097811 0.345085
vt 0.050000 0.345085
vt 0.097811 0.440802
vt 0.050000 0.440802
vt 0.097811 0.727953
vt 0.145623 0.727953
vt 0.097811 0.632236
vt 0.145623 0.632236
vt 0.241246 0.724260
vt 0.193434 0.724260
vt 0.241246 0.819977
vt 0.193434 0.819977
vt 0.450000 0.345085
vt 0.402189 0.345085
vt 0.450000 0.440802
vt 0.402189 0.440802
vt 0.145623 0.727953
vt 0.193434 0.727953
vt 0.145623 0.632236
vt 0.193434 0.632236
vt 0.250000 0.345085
vt 0.202189 0.345085
vt 0.250000 0.440802
vt 0.202189 0.440802
vt 0.297811 0.345085
vt 0.250000 0.345085
vt 0.297811 0.440802
vt 0.250000 0.440802
vt 0.050000 0.727953
vt 0.097811 0.727953
vt 0.050000 0.632236
vt 0.097811 0.632236
vt 0.597811 0.632236
vt 0.550000 0.632236
vt 0.550000 0.536519
vt 0.597811 0.536519
vt 0.902189 0.440802
vt 0.950000 0.440802
vt 0.950000 0.536519
vt 0.902189 0.536519
vt 0.836869 0.655746
vt 0.836869 0.536519
vt 0.884680 0.536519
vt 0.884680 0.655746
vt 0.836869 0.774972
vt 0.836869 0.655746
vt 0.884680 0.655746
vt 0.884680 0.774972
vt 0.750000 0.440802
vt 0.797811 0.440802
vt 0.797811 0.536519
vt 0.750000 0.536519
vt 0.693434 0.819977
vt 0.741246 0.819977
vt 0.741246 0.915694
vt 0.693434 0.915694
vt 0.645623 0.632236
vt 0.597811 0.632236
vt 0.597811 0.536519
vt 0.645623 0.536519
vt 0.702189 0.440802
vt 0.750000 0.440802
vt 0.750000 0.536519
vt 0.702189 0.536519
vt 0.693434 0.632236
vt 0.645623 0.632236
vt 0.645623 0.536519
vt 0.693434 0.536519
vt 0.550000 0.440802
vt 0.597811 0.440802
vt 0.597811 0.536519
vt 0.550000 0.536519

usemtl Magnet_Red
g Magnet_Red
f 1/1/1 2/2/2 3/3/3
f 1/1/1 3/3/3 4/4/4
f 144/144/144 2/2/2 1/1/1
f 144/144/144 143/143/143 2/2/2
f 142/142/142 143/143/143 144/144/144
f 142/142/142 141/141/141 143/143/143
f 139/139/139 141/141/141 142/142/142
f 139/139/139 140/140/140 141/141/141
f 4/4/4 3/3/3 161/161/161
f 4/4/4 161/161/161 162/162/162
f 162/162/162 161/161/161 163/163/163
f 162/162/162 163/163/163 164/164/164
f 5/5/5 6/6/6 7/7/7
f 5/5/5 7/7/7 8/8/8
f 110/110/110 6/6/6 5/5/5
f 110/110/110 109/109/109 6/6/6
f 108/108/108 109/109/109 110/110/110
f 108/108/108 107/107/107 109/109/109
f 105/105/105 107/107/107 108/108/108
f 105/105/105 106/106/106 107/107/107
f 8/8/8 7/7/7 149/149/149
f 8/8/8 149/149/149 150/150/150
f 150/150/150 149/149/149 151/151/151
f 150/150/150 151/151/151 152/152/152
f 9/9/9 10/10/10 11/11/11
f 9/9/9 11/11/11 12/12/12
f 75/75/75 9/9/9 12/12/12
f 11/11/11 10/10/10 169/169/169
f 11/11/11 169/169/169 170/170/170
f 170/170/170 169/169/169 171/171/171
f 170/170/170 171/171/171 172/172/172
f 75/75/75 12/12/12 76/76/76
f 73/73/73 75/75/75 76/76/76
f 73/73/73 76/76/76 74/74/74
f 71/71/71 73/73/73 74/74/74
f 71/71/71 74/74/74 72/72/72
f 69/69/69 71/71/71 72/72/72
f 69/69/69 72/72/72 70/70/70
f 67/67/67 69/69/69 70/70/70
f 67/67/67 70/70/70 68/68/68
f 65/65/65 67/67/67 68/68/68
f 65/65/65 68/68/68 66/66/66
f 63/63/63 65/65/65 66/66/66
f 63/63/63 66/66/66 64/64/64
f 61/61/61 63/63/63 64/64/64
f 61/61/61 64/64/64 62/62/62
f 59/59/59 61/61/61 62/62/62
f 59/59/59 62/62/62 60/60/60
f 57/57/57 59/59/59 60/60/60
f 57/57/57 60/60/60 58/58/58
f 55/55/55 57/57/57 58/58/58
f 55/55/55 58/58/58 56/56/56
f 53/53/53 55/55/55 56/56/56
f 53/53/53 56/56/56 54/54/54
f 51/51/51 53/53/53 54/54/54
f 51/51/51 54/54/54 52/52/52
f 48/48/48 51/51/51 52/52/52
f 48/48/48 52/52/52 49/49/49
f 47/47/47 48/48/48 49/49/49
f 47/47/47 49/49/49 50/50/50
f 47/47/47 50/50/50 157/157/157
f 47/47/47 157/157/157 158/158/158
f 158/158/158 157/157/157 159/159/159
f 158/158/158 159/159/159 160/160/160
f 13/13/13 14/14/14 15/15/15
f 13/13/13 15/15/15 16/16/16
f 45/45/45 13/13/13 16/16/16
f 15/15/15 14/14/14 145/145/145
f 15/15/15 145/145/145 146/146/146
f 146/146/146 145/145/145 147/147/147
f 146/146/146 147/147/147 148/148/148
f 45/45/45 16/16/16 46/46/46
f 43/43/43 45/45/45 46/46/46
f 43/43/43 46/46/46 44/44/44
f 41/41/41 43/43/43 44/44/44
f 41/41/41 44/44/44 42/42/42
f 39/39/39 41/41/41 42/42/42
f 39/39/39 42/42/42 40/40/40
f 37/37/37 39/39/39 40/40/40
f 37/37/37 40/40/40 38/38/38
f 35/35/35 37/37/37 38/38/38
f 35/35/35 38/38/38 36/36/36
f 33/33/33 35/35/35 36/36/36
f 33/33/33 36/36/36 34/34/34
f 31/31/31 33/33/33 34/34/34
f 31/31/31 34/34/34 32/32/32
f 29/29/29 31/31/31 32/32/32
f 29/29/29 32/32/32 30/30/30
f 27/27/27 29/29/29 30/30/30
f 27/27/27 30/30/30 28/28/28
f 25/25/25 27/27/27 28/28/28
f 25/25/25 28/28/28 26/26/26
f 23/23/23 25/25/25 26/26/26
f 23/23/23 26/26/26 24/24/24
f 21/21/21 23/23/23 24/24/24
f 21/21/21 24/24/24 22/22/22
f 18/18/18 21/21/21 22/22/22
f 18/18/18 22/22/22 19/19/19
f 17/17/17 18/18/18 19/19/19
f 17/17/17 19/19/19 20/20/20
f 17/17/17 20/20/20 165/165/165
f 17/17/17 165/165/165 166/166/166
f 166/166/166 165/165/165 167/167/167
f 166/166/166 167/167/167 168/168/168
f 77/77/77 78/78/78 79/79/79
f 77/77/77 79/79/79 80/80/80
f 78/78/78 77/77/77 173/173/173
f 78/78/78 173/173/173 174/174/174
f 174/174/174 173/173/173 175/175/175
f 174/174/174 175/175/175 176/176/176
f 80/80/80 79/79/79 81/81/81
f 80/80/80 81/81/81 82/82/82
f 82/82/82 81/81/81 83/83/83
f 82/82/82 83/83/83 84/84/84
f 84/84/84 83/83/83 85/85/85
f 84/84/84 85/85/85 86/86/86
f 87/87/87 88/88/88 89/89/89
f 87/87/87 89/89/89 90/90/90
f 90/90/90 89/89/89 91/91/91
f 90/90/90 91/91/91 92/92/92
f 92/92/92 91/91/91 93/93/93
f 92/92/92 93/93/93 94/94/94
f 94/94/94 93/93/93 95/95/95
f 94/94/94 95/95/95 96/96/96
f 96/96/96 95/95/95 97/97/97
f 96/96/96 97/97/97 98/98/98
f 98/98/98 97/97/97 99/99/99
f 98/98/98 99/99/99 100/100/100
f 100/100/100 99/99/99 101/101/101
f 100/100/100 101/101/101 102/102/102
f 102/102/102 101/101/101 103/103/103
f 102/102/102 103/103/103 104/104/104
f 111/111/111 112/112/112 113/113/113
f 111/111/111 113/113/113 114/114/114
f 112/112/112 111/111/111 153/153/153
f 112/112/112 153/153/153 154/154/154
f 154/154/154 153/153/153 155/155/155
f 154/154/154 155/155/155 156/156/156
f 114/114/114 113/113/113 115/115/115
f 114/114/114 115/115/115 116/116/116
f 116/116/116 115/115/115 117/117/117
f 116/116/116 117/117/117 118/118/118
f 118/118/118 117/117/117 119/119/119
f 118/118/118 119/119/119 120/120/120
f 121/121/121 122/122/122 123/123/123
f 121/121/121 123/123/123 124/124/124
f 124/124/124 123/123/123 125/125/125
f 124/124/124 125/125/125 126/126/126
f 126/126/126 125/125/125 127/127/127
f 126/126/126 127/127/127 128/128/128
f 128/128/128 127/127/127 129/129/129
f 128/128/128 129/129/129 130/130/130
f 130/130/130 129/129/129 131/131/131
f 130/130/130 131/131/131 132/132/132
f 132/132/132 131/131/131 133/133/133
f 132/132/132 133/133/133 134/134/134
f 134/134/134 133/133/133 135/135/135
f 134/134/134 135/135/135 136/136/136
f 136/136/136 135/135/135 137/137/137
f 136/136/136 137/137/137 138/138/138

usemtl Magnet_Silver
g Magnet_Silver
f 177/177/177 178/178/178 179/179/179
f 177/177/177 179/179/179 180/180/180
f 181/181/181 182/182/182 183/183/183
f 181/181/181 183/183/183 184/184/184
f 185/185/185 186/186/186 187/187/187
f 185/185/185 187/187/187 188/188/188
f 189/189/189 190/190/190 191/191/191
f 189/189/189 191/191/191 192/192/192
f 193/193/193 194/194/194 195/195/195
f 193/193/193 195/195/195 196/196/196
f 197/197/197 198/198/198 199/199/199
f 197/197/197 199/199/199 200/200/200
f 201/201/201 202/202/202 203/203/203
f 201/201/201 203/203/203 204/204/204
f 205/205/205 206/206/206 207/207/207
f 205/205/205 207/207/207 208/208/208
f 209/209/209 210/210/210 211/211/211
f 209/209/209 211/211/211 212/212/212
f 213/213/213 214/214/214 215/215/215
f 213/213/213 215/215/215 216/216/216
