# Clean 3D 2X Multiplier Star with Valid Normals and UVs
mtllib multiplier.mtl
usemtl common_props_tex
v -1.332491 0.514069 0.779123
v -2.754843 0.588461 0.708429
v -0.999642 0.776901 0.708429
v -1.062627 0.655338 0.779123
v -0.814804 0.709471 0.779123
v -0.129653 2.750082 0.708436
v -0.369121 0.711093 0.779123
v -0.011823 0.540710 0.779123
v 0.129654 2.750082 0.708436
v 0.999642 0.776901 0.708429
v 0.146532 0.227444 0.779123
v 0.448199 -0.033725 0.779123
v 0.099644 -0.176789 0.779115
v 0.341693 -0.121828 0.779123
v 0.772837 -0.027618 0.779123
v 1.112642 -0.025755 0.779123
v 2.754843 0.588461 0.708429
v 0.978735 -0.124360 0.779123
v 0.858042 -0.112181 0.779123
v 0.943253 -0.453891 0.779115
v 1.441414 -0.037844 0.779123
v 1.496195 -0.108276 0.779123
v 2.850488 0.387904 0.708429
v 1.468249 -0.701604 0.708429
v 1.240553 -0.774078 0.779115
v 2.060211 -2.776192 0.708429
v 1.526825 -1.327820 0.779115
v 1.414219 -1.429993 0.779115
v 1.906996 -2.900687 0.708429
v 1.123144 -1.427094 0.779115
v 0.738315 -1.424286 0.779115
v 0.000004 -1.870694 0.708436
v 0.847864 -1.360872 0.779115
v 1.007494 -1.367186 0.779115
v 0.902652 -1.057922 0.779115
v 0.353851 -1.397037 0.779115
v 0.051011 -1.534394 0.779115
v 0.143558 -1.333437 0.779115
v 0.302112 -1.316007 0.779115
v 0.152845 -0.954562 0.779115
v 0.591228 -0.706573 0.779115
v 0.088210 -0.782317 0.779115
v -0.071428 -0.504180 0.779115
v -0.417457 -0.782317 0.779115
v 0.099644 -0.176789 0.779115
v 0.051011 -1.534394 0.779115
v -1.906996 -2.900687 0.708429
v -1.213109 -1.534394 0.779115
v -1.325681 -1.329987 0.779115
v -2.060210 -2.776192 0.708429
v -1.468247 -0.701604 0.708429
v -1.366799 -1.094362 0.779115
v -1.335803 -0.858731 0.779115
v -1.289999 0.041930 0.779123
v -2.850493 0.387904 0.708429
v -2.754843 0.588461 0.708429
v -1.142595 -0.080136 0.779123
v -0.856364 0.036285 0.779123
v -0.665978 -0.189333 0.779115
v -0.702591 0.023589 0.779123
v -0.631366 -0.055240 0.779123
v -1.062627 0.655338 0.779123
v -1.289999 0.041930 0.779123
v -1.332491 0.514069 0.779123
v -0.856364 0.036285 0.779123
v -1.142595 -0.080136 0.779123
v -0.814804 0.709471 0.779123
v -0.702591 0.023589 0.779123
v -0.369121 0.711093 0.779123
v -0.011823 0.540710 0.779123
v 0.146532 0.227444 0.779123
v -0.631366 -0.055240 0.779123
v 0.099644 -0.176789 0.779115
v -0.665978 -0.189333 0.779115
v -0.071428 -0.504180 0.779115
v -1.335803 -0.858731 0.779115
v -0.417457 -0.782317 0.779115
v -1.366799 -1.094362 0.779115
v -1.325681 -1.329987 0.779115
v 0.152845 -0.954562 0.779115
v 0.088210 -0.782317 0.779115
v 0.143558 -1.333437 0.779115
v -1.213109 -1.534394 0.779115
v 0.051011 -1.534394 0.779115
v 0.847864 -1.360872 0.779115
v 0.738315 -1.424286 0.779115
v 0.353851 -1.397037 0.779115
v 0.302112 -1.316007 0.779115
v 0.902652 -1.057922 0.779115
v 0.591228 -0.706573 0.779115
v 0.943253 -0.453891 0.779115
v 0.858042 -0.112181 0.779123
v 0.341693 -0.121828 0.779123
v 0.772837 -0.027618 0.779123
v 0.448199 -0.033725 0.779123
v 1.240553 -0.774078 0.779115
v 1.496195 -0.108276 0.779123
v 0.978735 -0.124360 0.779123
v 1.441414 -0.037844 0.779123
v 1.112642 -0.025755 0.779123
v 1.526825 -1.327820 0.779115
v 1.007494 -1.367186 0.779115
v 1.123144 -1.427094 0.779115
v 1.414219 -1.429993 0.779115
v -0.421294 3.371342 -0.708602
v -1.420967 1.332458 0.708436
v -1.420967 1.332458 -0.708429
v -0.421294 3.371342 0.708602
v 0.000004 3.617738 0.707988
v 0.000004 3.617738 -0.707987
v 0.421294 3.371342 -0.708602
v 0.421294 3.371342 0.708602
v 1.420968 1.332458 0.708436
v 1.420968 1.332458 -0.708436
v -2.708754 -3.101499 0.708429
v -2.126397 -0.914002 -0.708429
v -2.126397 -0.914002 0.708429
v -2.708754 -3.101499 -0.708429
v -2.518403 -3.509583 0.708429
v -2.561199 -3.474364 -0.716606
v -2.081097 -3.617738 0.708429
v -2.081097 -3.617738 -0.708429
v 0.000004 -2.616822 0.708436
v 0.000004 -2.616822 -0.708436
v 2.081098 -3.617738 -0.708436
v 2.081098 -3.617738 0.708429
v 2.561199 -3.474364 -0.716606
v 2.518404 -3.509583 0.708429
v 2.708756 -3.101499 -0.708429
v 2.708756 -3.101499 0.708429
v 2.126399 -0.914002 -0.708429
v 2.126399 -0.914002 0.708429
v -3.525494 0.303893 -0.708429
v -2.126397 -0.914002 0.708429
v -2.126397 -0.914002 -0.708429
v -3.525494 0.303893 0.708429
v -3.583712 0.792661 -0.708429
v -3.583712 0.792661 0.708429
v -3.244225 1.098696 -0.708429
v -3.244225 1.098696 0.708429
v -1.420967 1.332458 -0.708429
v -1.420967 1.332458 0.708436
v 3.525495 0.303893 -0.708436
v 2.126399 -0.914002 -0.708429
v 2.126399 -0.914002 0.708429
v 3.525495 0.303893 0.708429
v 3.583712 0.792661 -0.708436
v 3.583712 0.792661 0.708429
v 3.244226 1.098696 -0.708436
v 3.244226 1.098696 0.708429
v 1.420968 1.332458 -0.708436
v 1.420968 1.332458 0.708436
v 1.332492 0.514069 -0.779123
v 2.754843 0.588461 -0.708436
v 0.999642 0.776901 -0.708429
v 1.062628 0.655338 -0.779123
v 0.814804 0.709471 -0.779123
v 0.129654 2.750082 -0.708436
v 0.369121 0.711093 -0.779123
v 0.011824 0.540710 -0.779123
v -0.129653 2.750082 -0.708436
v -0.999642 0.776901 -0.708429
v -0.146531 0.227444 -0.779123
v -0.448198 -0.033725 -0.779123
v -0.099643 -0.176789 -0.779123
v -0.341692 -0.121828 -0.779123
v -0.772836 -0.027618 -0.779123
v -1.112640 -0.025755 -0.779123
v -2.754843 0.588461 -0.708429
v -0.978734 -0.124360 -0.779123
v -0.858041 -0.112181 -0.779123
v -0.943252 -0.453891 -0.779123
v -1.441412 -0.037844 -0.779123
v -1.496193 -0.108276 -0.779123
v -2.850493 0.387904 -0.708429
v -1.468247 -0.701604 -0.708429
v -1.240552 -0.774078 -0.779123
v -2.060210 -2.776192 -0.708429
v -1.526825 -1.327820 -0.779116
v -1.414218 -1.429993 -0.779116
v -1.906996 -2.900687 -0.708429
v -1.123143 -1.427094 -0.779116
v -0.738314 -1.424286 -0.779123
v 0.000004 -1.870694 -0.708436
v -0.847863 -1.360872 -0.779116
v -1.007494 -1.367186 -0.779116
v -0.902651 -1.057922 -0.779123
v -0.353850 -1.397037 -0.779123
v -0.051010 -1.534394 -0.779123
v -0.143557 -1.333437 -0.779123
v -0.302112 -1.316007 -0.779123
v -0.152845 -0.954562 -0.779123
v -0.591227 -0.706573 -0.779123
v -0.088210 -0.782317 -0.779123
v 0.071429 -0.504180 -0.779123
v 0.417458 -0.782317 -0.779123
v -0.099643 -0.176789 -0.779123
v -0.051010 -1.534394 -0.779123
v 1.906996 -2.900687 -0.708429
v 1.213110 -1.534394 -0.779123
v 1.325682 -1.329987 -0.779123
v 2.060211 -2.776192 -0.708429
v 1.468249 -0.701604 -0.708429
v 1.366801 -1.094362 -0.779123
v 1.335805 -0.858731 -0.779123
v 1.289999 0.041930 -0.779123
v 2.850488 0.387904 -0.708436
v 2.754843 0.588461 -0.708436
v 1.142596 -0.080136 -0.779123
v 0.856365 0.036285 -0.779123
v 0.665979 -0.189333 -0.779123
v 0.702585 0.023589 -0.779123
v 0.631367 -0.055240 -0.779123
v 1.062628 0.655338 -0.779123
v 1.289999 0.041930 -0.779123
v 1.332492 0.514069 -0.779123
v 0.856365 0.036285 -0.779123
v 1.142596 -0.080136 -0.779123
v 0.814804 0.709471 -0.779123
v 0.702585 0.023589 -0.779123
v 0.369121 0.711093 -0.779123
v 0.011824 0.540710 -0.779123
v -0.146531 0.227444 -0.779123
v 0.631367 -0.055240 -0.779123
v -0.099643 -0.176789 -0.779123
v 0.665979 -0.189333 -0.779123
v 0.071429 -0.504180 -0.779123
v 1.335805 -0.858731 -0.779123
v 0.417458 -0.782317 -0.779123
v 1.366801 -1.094362 -0.779123
v 1.325682 -1.329987 -0.779123
v -0.152845 -0.954562 -0.779123
v -0.088210 -0.782317 -0.779123
v -0.143557 -1.333437 -0.779123
v 1.213110 -1.534394 -0.779123
v -0.051010 -1.534394 -0.779123
v -0.847863 -1.360872 -0.779116
v -0.738314 -1.424286 -0.779123
v -0.353850 -1.397037 -0.779123
v -0.302112 -1.316007 -0.779123
v -0.902651 -1.057922 -0.779123
v -0.591227 -0.706573 -0.779123
v -0.943252 -0.453891 -0.779123
v -0.858041 -0.112181 -0.779123
v -0.341692 -0.121828 -0.779123
v -0.772836 -0.027618 -0.779123
v -0.448198 -0.033725 -0.779123
v -1.240552 -0.774078 -0.779123
v -1.496193 -0.108276 -0.779123
v -0.978734 -0.124360 -0.779123
v -1.441412 -0.037844 -0.779123
v -1.112640 -0.025755 -0.779123
v -1.526825 -1.327820 -0.779116
v -1.007494 -1.367186 -0.779116
v -1.123143 -1.427094 -0.779116
v -1.414218 -1.429993 -0.779116
v -2.060210 -2.776192 0.708429
v -2.708754 -3.101499 0.708429
v -2.126397 -0.914002 0.708429
v -2.518403 -3.509583 0.708429
v -1.468247 -0.701604 0.708429
v -1.906996 -2.900687 0.708429
v -3.525494 0.303893 0.708429
v -2.081097 -3.617738 0.708429
v -2.850493 0.387904 0.708429
v -3.583712 0.792661 0.708429
v 0.000004 -1.870694 0.708436
v 0.000004 -2.616822 0.708436
v 2.081098 -3.617738 0.708429
v 1.906996 -2.900687 0.708429
v 2.518404 -3.509583 0.708429
v -2.754843 0.588461 0.708429
v -3.244225 1.098696 0.708429
v -1.420967 1.332458 0.708436
v -0.999642 0.776901 0.708429
v -0.421294 3.371342 0.708602
v -0.129653 2.750082 0.708436
v 0.000004 3.617738 0.707988
v 0.129654 2.750082 0.708436
v 0.421294 3.371342 0.708602
v 0.999642 0.776901 0.708429
v 1.420968 1.332458 0.708436
v 2.060211 -2.776192 0.708429
v 2.708756 -3.101499 0.708429
v 2.126399 -0.914002 0.708429
v 1.468249 -0.701604 0.708429
v 3.525495 0.303893 0.708429
v 2.850488 0.387904 0.708429
v 3.583712 0.792661 0.708429
v 2.754843 0.588461 0.708429
v 3.244226 1.098696 0.708429
v 2.060211 -2.776192 -0.708429
v 2.708756 -3.101499 -0.708429
v 2.126399 -0.914002 -0.708429
v 2.518404 -3.509583 -0.708429
v 1.468249 -0.701604 -0.708429
v 1.906996 -2.900687 -0.708429
v 3.525495 0.303893 -0.708436
v 2.081098 -3.617738 -0.708436
v 2.850488 0.387904 -0.708436
v 3.583712 0.792661 -0.708436
v 0.000004 -1.870694 -0.708436
v 0.000004 -2.616822 -0.708436
v -2.081097 -3.617738 -0.708429
v -1.906996 -2.900687 -0.708429
v -2.518403 -3.509583 -0.708429
v 2.754843 0.588461 -0.708436
v 3.244226 1.098696 -0.708436
v 1.420968 1.332458 -0.708436
v 0.999642 0.776901 -0.708429
v 0.421294 3.371342 -0.708602
v 0.129654 2.750082 -0.708436
v 0.000004 3.617738 -0.707987
v -0.129653 2.750082 -0.708436
v -0.421294 3.371342 -0.708602
v -0.999642 0.776901 -0.708429
v -1.420967 1.332458 -0.708429
v -2.060210 -2.776192 -0.708429
v -2.708754 -3.101499 -0.708429
v -2.126397 -0.914002 -0.708429
v -1.468247 -0.701604 -0.708429
v -3.525494 0.303893 -0.708429
v -2.850493 0.387904 -0.708429
v -3.583712 0.792661 -0.708429
v -2.754843 0.588461 -0.708429
v -3.244225 1.098696 -0.708429
vn -0.114068 0.237321 0.964711
vn -0.031894 0.297073 0.954322
vn -0.198503 0.404405 0.892779
vn -0.215922 0.572044 0.791292
vn -0.148277 0.247383 0.957505
vn -0.074414 0.059669 0.995441
vn 0.007760 0.033735 0.999401
vn 0.035320 0.031057 0.998893
vn 0.031625 0.029939 0.999051
vn 0.030089 0.063191 0.997548
vn 0.036602 0.028767 0.998916
vn 0.011431 0.035725 0.999296
vn -0.000027 0.000016 1.000000
vn -0.000032 0.000013 1.000000
vn -0.000535 0.043958 0.999033
vn 0.003231 0.070299 0.997521
vn 0.024267 0.061288 0.997825
vn -0.000001 -0.000007 1.000000
vn -0.000001 -0.000011 1.000000
vn -0.000002 -0.000021 1.000000
vn 0.021541 0.067417 0.997492
vn 0.129004 -0.049908 0.990387
vn 0.070571 -0.050682 0.996218
vn 0.235634 -0.057687 0.970128
vn 0.687668 0.083005 0.721265
vn 0.303301 0.076582 0.949812
vn 0.928064 0.333705 0.165339
vn 0.021113 -0.040818 0.998944
vn -0.003785 -0.054342 0.998515
vn -0.000208 -0.024074 0.999710
vn -0.013835 -0.068017 0.997588
vn 0.041200 -0.166745 0.985139
vn 0.000000 0.000000 1.000000
vn 0.000000 0.000000 1.000000
vn 0.000000 0.000000 1.000000
vn 0.022478 -0.090342 0.995657
vn 0.050049 -0.110347 0.992632
vn 0.000000 0.000000 1.000000
vn 0.000000 0.000000 1.000000
vn 0.000000 0.000000 1.000000
vn -0.000005 -0.000004 1.000000
vn 0.000000 0.000000 1.000000
vn 0.000000 0.000000 1.000000
vn 0.000000 0.000000 1.000000
vn -0.000012 -0.000011 1.000000
vn 0.060161 -0.137366 0.988692
vn 0.010752 -0.084120 0.996398
vn -0.024408 -0.039285 0.998930
vn -0.330084 -0.043572 0.942945
vn -0.121769 0.013338 0.992469
vn -0.438020 -0.020787 0.898725
vn -0.703532 -0.054191 0.708595
vn -0.177939 0.015964 0.983912
vn -0.142183 -0.015499 0.989719
vn -0.052486 -0.020225 0.998417
vn -0.048422 0.023094 0.998560
vn -0.000001 -0.000009 1.000000
vn 0.000006 -0.000020 1.000000
vn -0.000010 -0.000031 1.000000
vn -0.000024 -0.000038 1.000000
vn -0.000046 -0.000041 1.000000
vn 0.000000 0.000000 1.000000
vn 0.000000 0.000000 1.000000
vn 0.000000 0.000000 1.000000
vn 0.000000 0.000000 1.000000
vn 0.000000 0.000000 1.000000
vn 0.000000 0.000000 1.000000
vn 0.000000 0.000000 1.000000
vn 0.000000 0.000000 1.000000
vn 0.000000 0.000000 1.000000
vn 0.000002 -0.000006 1.000000
vn 0.000003 -0.000024 1.000000
vn 0.000003 -0.000024 1.000000
vn 0.000000 -0.000018 1.000000
vn 0.000000 0.000000 1.000000
vn 0.000000 0.000000 1.000000
vn 0.000000 0.000000 1.000000
vn 0.000000 0.000000 1.000000
vn 0.000000 0.000000 1.000000
vn 0.000000 0.000000 1.000000
vn 0.000000 0.000000 1.000000
vn 0.000000 0.000000 1.000000
vn 0.000000 0.000000 1.000000
vn 0.000000 0.000000 1.000000
vn 0.000000 0.000000 1.000000
vn 0.000000 0.000000 1.000000
vn 0.000000 0.000000 1.000000
vn 0.000000 0.000000 1.000000
vn 0.000000 0.000000 1.000000
vn 0.000003 -0.000007 1.000000
vn 0.000001 -0.000009 1.000000
vn 0.000004 -0.000010 1.000000
vn 0.000000 -0.000004 1.000000
vn 0.000000 0.000000 1.000000
vn 0.000000 0.000000 1.000000
vn -0.000003 -0.000003 1.000000
vn -0.000002 -0.000010 1.000000
vn 0.000000 -0.000007 1.000000
vn 0.000000 0.000000 1.000000
vn 0.000000 0.000000 1.000000
vn 0.000000 0.000000 1.000000
vn 0.000000 0.000000 1.000000
vn 0.000000 0.000000 1.000000
vn 0.000000 0.000000 1.000000
vn -0.732557 0.680706 0.000000
vn -0.897882 0.440236 0.000000
vn -0.897882 0.440236 0.000000
vn -0.732557 0.680706 0.000000
vn 0.000004 1.000000 0.000000
vn 0.000004 1.000000 0.000000
vn 0.732559 0.680703 0.000000
vn 0.732559 0.680703 0.000000
vn 0.897882 0.440235 0.000000
vn 0.897882 0.440235 0.000000
vn -0.999478 0.032318 0.000000
vn -0.966342 0.257260 0.000000
vn -0.966342 0.257260 0.000000
vn -0.982318 -0.187103 0.006595
vn -0.762459 -0.647036 0.000747
vn -0.535295 -0.844665 0.000748
vn -0.032762 -0.999446 -0.005926
vn 0.205856 -0.978582 0.000000
vn -0.000001 -1.000000 0.000000
vn -0.000001 -1.000000 0.000000
vn -0.205857 -0.978582 0.000000
vn 0.032762 -0.999446 -0.005926
vn 0.535295 -0.844665 0.000748
vn 0.762458 -0.647037 0.000747
vn 0.982318 -0.187103 0.006595
vn 0.999478 0.032318 0.000000
vn 0.966342 0.257260 0.000000
vn 0.966342 0.257260 0.000000
vn -0.817144 -0.576433 0.000000
vn -0.656574 -0.754261 0.000000
vn -0.656574 -0.754261 0.000000
vn -0.936345 -0.351080 0.000000
vn -0.982312 0.187251 0.000000
vn -0.862676 0.505757 0.000000
vn -0.509343 0.860563 0.000000
vn -0.320934 0.947102 0.000000
vn -0.127170 0.991881 0.000000
vn -0.127170 0.991881 0.000000
vn 0.817145 -0.576432 0.000000
vn 0.656574 -0.754261 0.000000
vn 0.656574 -0.754261 0.000000
vn 0.936346 -0.351079 0.000000
vn 0.982312 0.187252 0.000000
vn 0.862676 0.505757 0.000000
vn 0.509344 0.860563 0.000000
vn 0.320934 0.947102 0.000000
vn 0.127170 0.991881 0.000000
vn 0.127170 0.991881 0.000000
vn 0.114065 0.237319 -0.964712
vn 0.031890 0.297068 -0.954324
vn 0.198502 0.404404 -0.892779
vn 0.215922 0.572045 -0.791291
vn 0.148277 0.247383 -0.957505
vn 0.074415 0.059669 -0.995441
vn -0.007759 0.033735 -0.999401
vn -0.035320 0.031057 -0.998893
vn -0.031625 0.029939 -0.999051
vn -0.030089 0.063191 -0.997548
vn -0.036606 0.028772 -0.998915
vn -0.011445 0.035717 -0.999296
vn 0.000000 0.000000 -1.000000
vn 0.000000 0.000000 -1.000000
vn 0.000535 0.043958 -0.999033
vn -0.003231 0.070299 -0.997521
vn -0.024267 0.061288 -0.997825
vn 0.000000 0.000000 -1.000000
vn 0.000000 0.000000 -1.000000
vn 0.000000 0.000000 -1.000000
vn -0.021541 0.067417 -0.997492
vn -0.129011 -0.049908 -0.990386
vn -0.070570 -0.050682 -0.996218
vn -0.235652 -0.057684 -0.970124
vn -0.687677 0.082994 -0.721257
vn -0.303286 0.076575 -0.949818
vn -0.928070 0.333709 -0.165299
vn -0.021113 -0.040818 -0.998944
vn 0.003782 -0.054342 -0.998515
vn 0.000198 -0.024052 -0.999711
vn 0.013827 -0.068001 -0.997589
vn -0.041205 -0.166762 -0.985136
vn -0.000006 0.000018 -1.000000
vn 0.000000 -0.000011 -1.000000
vn 0.000001 -0.000023 -1.000000
vn -0.022480 -0.090351 -0.995656
vn -0.050054 -0.110358 -0.992631
vn 0.000000 0.000000 -1.000000
vn 0.000000 0.000000 -1.000000
vn 0.000000 0.000000 -1.000000
vn 0.000000 0.000000 -1.000000
vn 0.000000 0.000000 -1.000000
vn 0.000000 0.000000 -1.000000
vn 0.000000 0.000000 -1.000000
vn 0.000000 0.000000 -1.000000
vn -0.060167 -0.137380 -0.988689
vn -0.010753 -0.084129 -0.996397
vn 0.024410 -0.039289 -0.998930
vn 0.330098 -0.043573 -0.942940
vn 0.121781 0.013339 -0.992467
vn 0.438042 -0.020783 -0.898714
vn 0.703559 -0.054190 -0.708568
vn 0.177955 0.015974 -0.983909
vn 0.142188 -0.015495 -0.989718
vn 0.052481 -0.020227 -0.998417
vn 0.048418 0.023090 -0.998560
vn 0.000000 0.000000 -1.000000
vn 0.000000 0.000000 -1.000000
vn 0.000000 0.000000 -1.000000
vn 0.000000 0.000000 -1.000000
vn 0.000000 0.000000 -1.000000
vn 0.000000 0.000000 -1.000000
vn 0.000000 0.000000 -1.000000
vn 0.000000 0.000000 -1.000000
vn 0.000000 0.000000 -1.000000
vn 0.000000 0.000000 -1.000000
vn 0.000000 0.000000 -1.000000
vn 0.000000 0.000000 -1.000000
vn 0.000000 0.000000 -1.000000
vn 0.000000 0.000000 -1.000000
vn 0.000000 0.000000 -1.000000
vn 0.000000 0.000000 -1.000000
vn 0.000000 0.000000 -1.000000
vn 0.000000 0.000000 -1.000000
vn 0.000000 0.000000 -1.000000
vn 0.000000 0.000000 -1.000000
vn 0.000000 0.000000 -1.000000
vn 0.000000 0.000000 -1.000000
vn 0.000000 0.000000 -1.000000
vn 0.000000 0.000000 -1.000000
vn 0.000000 0.000000 -1.000000
vn 0.000000 0.000000 -1.000000
vn 0.000000 0.000000 -1.000000
vn 0.000000 0.000000 -1.000000
vn -0.000010 0.000027 -1.000000
vn -0.000007 0.000098 -1.000000
vn -0.000010 0.000053 -1.000000
vn -0.000008 -0.000005 -1.000000
vn -0.000003 -0.000009 -1.000000
vn 0.000000 0.000000 -1.000000
vn 0.000000 0.000000 -1.000000
vn 0.000000 0.000000 -1.000000
vn 0.000000 0.000000 -1.000000
vn 0.000000 0.000000 -1.000000
vn 0.000000 0.000000 -1.000000
vn -0.000002 -0.000003 -1.000000
vn 0.000000 0.000000 -1.000000
vn 0.000000 0.000000 -1.000000
vn 0.000000 0.000000 -1.000000
vn 0.000000 0.000000 -1.000000
vn -0.000002 -0.000008 -1.000000
vn -0.000001 -0.000011 -1.000000
vn 0.000000 0.000000 -1.000000
vn 0.000000 0.000000 -1.000000
vn 0.000000 0.000000 1.000000
vn 0.000000 0.000000 1.000000
vn 0.000000 0.000000 1.000000
vn 0.000000 0.000000 1.000000
vn 0.000000 0.000000 1.000000
vn -0.000001 0.000000 1.000000
vn 0.000000 0.000000 1.000000
vn -0.000002 0.000000 1.000000
vn 0.000000 0.000000 1.000000
vn 0.000000 0.000000 1.000000
vn 0.000000 0.000000 1.000000
vn 0.000000 0.000000 1.000000
vn 0.000002 0.000000 1.000000
vn 0.000001 0.000000 1.000000
vn 0.000000 0.000000 1.000000
vn -0.000001 -0.000004 1.000000
vn -0.000002 -0.000002 1.000000
vn -0.000019 -0.000023 1.000000
vn 0.000078 -0.000065 1.000000
vn 0.000500 0.000047 1.000000
vn 0.000519 0.000238 1.000000
vn -0.000000 0.000390 1.000000
vn -0.000519 0.000238 1.000000
vn -0.000500 0.000047 1.000000
vn -0.000078 -0.000065 1.000000
vn 0.000019 -0.000023 1.000000
vn 0.000000 0.000000 1.000000
vn 0.000000 0.000000 1.000000
vn 0.000000 0.000000 1.000000
vn 0.000000 0.000000 1.000000
vn 0.000000 0.000000 1.000000
vn 0.000000 0.000000 1.000000
vn 0.000000 0.000000 1.000000
vn 0.000001 -0.000004 1.000000
vn 0.000002 -0.000002 1.000000
vn 0.000000 0.000000 -1.000000
vn 0.000000 0.000000 -1.000000
vn -0.000000 -0.000001 -1.000000
vn 0.000004 0.000004 -1.000000
vn -0.000001 -0.000003 -1.000000
vn 0.000008 0.000008 -1.000000
vn -0.000001 -0.000003 -1.000000
vn 0.000008 0.000008 -1.000000
vn -0.000000 -0.000002 -1.000000
vn 0.000000 0.000000 -1.000000
vn 0.000001 0.000003 -1.000000
vn -0.000002 0.000000 -1.000000
vn -0.000002 0.000000 -1.000000
vn -0.000001 0.000000 -1.000000
vn 0.000000 0.000000 -1.000000
vn -0.000001 -0.000002 -1.000000
vn 0.000000 0.000000 -1.000000
vn 0.000017 -0.000021 -1.000000
vn -0.000080 -0.000065 -1.000000
vn -0.000500 0.000047 -1.000000
vn -0.000518 0.000238 -1.000000
vn -0.000000 0.000391 -1.000000
vn 0.000518 0.000238 -1.000000
vn 0.000496 0.000048 -1.000000
vn 0.000074 -0.000061 -1.000000
vn -0.000023 -0.000017 -1.000000
vn 0.000000 0.000000 -1.000000
vn 0.000000 0.000000 -1.000000
vn 0.000000 0.000000 -1.000000
vn 0.000000 0.000000 -1.000000
vn 0.000000 0.000000 -1.000000
vn 0.000000 0.000000 -1.000000
vn 0.000000 0.000000 -1.000000
vn 0.000000 0.000000 -1.000000
vn 0.000000 0.000000 -1.000000
vt 0.691817 0.310344
vt 0.647638 0.314493
vt 0.697841 0.318083
vt 0.698093 0.313626
vt 0.703846 0.314885
vt 0.720975 0.370067
vt 0.714205 0.314922
vt 0.724192 0.311901
vt 0.721366 0.368696
vt 0.697878 0.317141
vt 0.720611 0.304833
vt 0.713804 0.298931
vt 0.721674 0.295704
vt 0.716210 0.296945
vt 0.706475 0.299071
vt 0.698801 0.299108
vt 0.647591 0.314913
vt 0.701822 0.296889
vt 0.704554 0.297159
vt 0.702624 0.289448
vt 0.691379 0.298837
vt 0.690139 0.297252
vt 0.646743 0.313141
vt 0.688330 0.282977
vt 0.695911 0.282212
vt 0.672087 0.226340
vt 0.689449 0.269717
vt 0.691994 0.267405
vt 0.673112 0.225510
vt 0.698568 0.267470
vt 0.707249 0.267535
vt 0.723408 0.260076
vt 0.704778 0.268971
vt 0.701179 0.268822
vt 0.703547 0.275806
vt 0.715930 0.268151
vt 0.723483 0.265502
vt 0.720686 0.269587
vt 0.717105 0.269978
vt 0.720471 0.278137
vt 0.710578 0.283741
vt 0.721935 0.282025
vt 0.719632 0.286688
vt 0.711585 0.280226
vt 0.723604 0.294296
vt 0.723968 0.270314
vt 0.673467 0.223552
vt 0.694596 0.262752
vt 0.691976 0.267498
vt 0.671630 0.225034
vt 0.688181 0.281746
vt 0.691025 0.272971
vt 0.691743 0.278445
vt 0.692805 0.299378
vt 0.642248 0.313887
vt 0.645437 0.315528
vt 0.696228 0.296544
vt 0.702885 0.299248
vt 0.707305 0.294007
vt 0.706457 0.298949
vt 0.708107 0.297122
vt 0.659331 0.116246
vt 0.659331 0.116246
vt 0.659331 0.116246
vt 0.659321 0.116246
vt 0.659331 0.116246
vt 0.659321 0.116246
vt 0.659321 0.116246
vt 0.659321 0.116246
vt 0.659312 0.116246
vt 0.659312 0.116246
vt 0.659321 0.116246
vt 0.659312 0.116246
vt 0.659321 0.116246
vt 0.659312 0.116246
vt 0.659331 0.116246
vt 0.659312 0.116246
vt 0.659331 0.116255
vt 0.659321 0.116255
vt 0.659303 0.116255
vt 0.659312 0.116246
vt 0.659303 0.116255
vt 0.659321 0.116255
vt 0.659303 0.116255
vt 0.659312 0.116255
vt 0.659312 0.116255
vt 0.659303 0.116255
vt 0.659303 0.116255
vt 0.659321 0.116255
vt 0.659312 0.116246
vt 0.659321 0.116246
vt 0.659312 0.116246
vt 0.659303 0.116246
vt 0.659312 0.116246
vt 0.659303 0.116246
vt 0.659321 0.116246
vt 0.659331 0.116246
vt 0.659321 0.116246
vt 0.659331 0.116246
vt 0.659321 0.116246
vt 0.659331 0.116255
vt 0.659321 0.116255
vt 0.659321 0.116255
vt 0.659331 0.116255
vt 0.726905 0.544360
vt 0.723884 0.459890
vt 0.726513 0.460813
vt 0.726569 0.544248
vt 0.726569 0.544239
vt 0.726905 0.544360
vt 0.726905 0.544360
vt 0.726569 0.544248
vt 0.723884 0.459890
vt 0.726513 0.460813
vt 0.611645 0.307528
vt 0.651312 0.376846
vt 0.654044 0.376305
vt 0.608596 0.308134
vt 0.653950 0.376557
vt 0.651498 0.377042
vt 0.653941 0.376603
vt 0.651526 0.377079
vt 0.654034 0.376249
vt 0.651302 0.376790
vt 0.651526 0.377079
vt 0.653941 0.376603
vt 0.651498 0.377042
vt 0.653950 0.376557
vt 0.608596 0.308134
vt 0.611645 0.307528
vt 0.651312 0.376846
vt 0.654044 0.376305
vt 0.727194 0.459414
vt 0.724471 0.458761
vt 0.727101 0.459684
vt 0.724565 0.458491
vt 0.726989 0.544202
vt 0.726644 0.544099
vt 0.726980 0.544220
vt 0.726644 0.544099
vt 0.727325 0.543297
vt 0.726989 0.543176
vt 0.727194 0.459414
vt 0.727101 0.459684
vt 0.724471 0.458761
vt 0.724565 0.458491
vt 0.726989 0.544202
vt 0.726644 0.544099
vt 0.726980 0.544220
vt 0.726644 0.544099
vt 0.727325 0.543297
vt 0.726989 0.543176
vt 0.691817 0.310344
vt 0.647638 0.314493
vt 0.697841 0.318083
vt 0.698093 0.313626
vt 0.703846 0.314885
vt 0.720975 0.370067
vt 0.714205 0.314922
vt 0.724192 0.311901
vt 0.721366 0.368696
vt 0.697878 0.317141
vt 0.720611 0.304833
vt 0.713804 0.298931
vt 0.721674 0.295704
vt 0.716210 0.296945
vt 0.706475 0.299071
vt 0.698801 0.299108
vt 0.647591 0.314913
vt 0.701822 0.296889
vt 0.704554 0.297159
vt 0.702624 0.289448
vt 0.691379 0.298837
vt 0.690139 0.297252
vt 0.646743 0.313141
vt 0.688330 0.282977
vt 0.695911 0.282212
vt 0.672087 0.226340
vt 0.689449 0.269717
vt 0.691994 0.267405
vt 0.673112 0.225510
vt 0.698568 0.267470
vt 0.707249 0.267535
vt 0.723408 0.260076
vt 0.704778 0.268971
vt 0.701179 0.268822
vt 0.703547 0.275806
vt 0.715930 0.268151
vt 0.723483 0.265502
vt 0.720686 0.269587
vt 0.717105 0.269978
vt 0.720471 0.278137
vt 0.710578 0.283741
vt 0.721935 0.282025
vt 0.719632 0.286688
vt 0.711585 0.280226
vt 0.723604 0.294296
vt 0.723968 0.270314
vt 0.673467 0.223552
vt 0.694596 0.262752
vt 0.691976 0.267498
vt 0.671630 0.225034
vt 0.688181 0.281746
vt 0.691025 0.272971
vt 0.691743 0.278445
vt 0.692805 0.299378
vt 0.642248 0.313887
vt 0.645437 0.315528
vt 0.696228 0.296544
vt 0.702885 0.299248
vt 0.707305 0.294007
vt 0.706457 0.298949
vt 0.708107 0.297122
vt 0.659331 0.116246
vt 0.659331 0.116246
vt 0.659331 0.116246
vt 0.659321 0.116246
vt 0.659331 0.116246
vt 0.659321 0.116246
vt 0.659321 0.116246
vt 0.659321 0.116246
vt 0.659312 0.116246
vt 0.659312 0.116246
vt 0.659321 0.116246
vt 0.659312 0.116246
vt 0.659321 0.116246
vt 0.659312 0.116246
vt 0.659331 0.116246
vt 0.659312 0.116246
vt 0.659331 0.116255
vt 0.659321 0.116255
vt 0.659303 0.116255
vt 0.659312 0.116246
vt 0.659303 0.116255
vt 0.659321 0.116255
vt 0.659303 0.116255
vt 0.659312 0.116255
vt 0.659312 0.116255
vt 0.659303 0.116255
vt 0.659303 0.116255
vt 0.659321 0.116255
vt 0.659312 0.116246
vt 0.659321 0.116246
vt 0.659312 0.116246
vt 0.659303 0.116246
vt 0.659312 0.116246
vt 0.659303 0.116246
vt 0.659321 0.116246
vt 0.659331 0.116246
vt 0.659321 0.116246
vt 0.659331 0.116246
vt 0.659321 0.116246
vt 0.659331 0.116255
vt 0.659321 0.116255
vt 0.659321 0.116255
vt 0.659331 0.116255
vt 0.714177 0.510876
vt 0.722588 0.501449
vt 0.722523 0.529618
vt 0.722560 0.497588
vt 0.714392 0.481578
vt 0.714233 0.509459
vt 0.722672 0.593947
vt 0.722513 0.496563
vt 0.713897 0.546747
vt 0.722681 0.598563
vt 0.714914 0.521142
vt 0.722290 0.506027
vt 0.722056 0.496563
vt 0.715585 0.509459
vt 0.722010 0.497588
vt 0.714065 0.549022
vt 0.722532 0.601454
vt 0.723008 0.603664
vt 0.714420 0.551157
vt 0.722551 0.606834
vt 0.714867 0.605920
vt 0.722290 0.610471
vt 0.714960 0.605920
vt 0.722243 0.606834
vt 0.714214 0.551157
vt 0.722131 0.603664
vt 0.714858 0.510876
vt 0.721991 0.501449
vt 0.722056 0.529618
vt 0.713674 0.481578
vt 0.721898 0.593947
vt 0.714121 0.546747
vt 0.721898 0.598563
vt 0.715184 0.549022
vt 0.721935 0.601454
vt 0.714177 0.510876
vt 0.722588 0.501449
vt 0.722523 0.529618
vt 0.722560 0.497588
vt 0.714392 0.481578
vt 0.714233 0.509459
vt 0.722672 0.593947
vt 0.722513 0.496563
vt 0.713897 0.546747
vt 0.722681 0.598563
vt 0.714914 0.521142
vt 0.722290 0.506027
vt 0.722056 0.496563
vt 0.715585 0.509459
vt 0.722010 0.497588
vt 0.714065 0.549022
vt 0.722532 0.601454
vt 0.723008 0.603664
vt 0.714420 0.551157
vt 0.722551 0.606834
vt 0.714867 0.605920
vt 0.722290 0.610471
vt 0.714960 0.605920
vt 0.722243 0.606834
vt 0.714214 0.551157
vt 0.722131 0.603664
vt 0.714858 0.510876
vt 0.721991 0.501449
vt 0.722056 0.529618
vt 0.713674 0.481578
vt 0.721898 0.593947
vt 0.714121 0.546747
vt 0.721898 0.598563
vt 0.715184 0.549022
vt 0.721935 0.601454
f 3/3/3 2/2/2 1/1/1
f 4/4/4 3/3/3 1/1/1
f 5/5/5 3/3/3 4/4/4
f 6/6/6 3/3/3 5/5/5
f 7/7/7 6/6/6 5/5/5
f 6/6/6 7/7/7 8/8/8
f 9/9/9 6/6/6 8/8/8
f 10/10/10 9/9/9 8/8/8
f 11/11/11 10/10/10 8/8/8
f 11/11/11 12/12/12 10/10/10
f 12/12/12 11/11/11 13/13/13
f 14/14/14 12/12/12 13/13/13
f 12/12/12 15/15/15 10/10/10
f 15/15/15 16/16/16 10/10/10
f 17/17/17 10/10/10 16/16/16
f 18/18/18 16/16/16 15/15/15
f 19/19/19 18/18/18 15/15/15
f 19/19/19 20/20/20 18/18/18
f 21/21/21 17/17/17 16/16/16
f 21/21/21 22/22/22 17/17/17
f 22/22/22 23/23/23 17/17/17
f 24/24/24 23/23/23 22/22/22
f 25/25/25 24/24/24 22/22/22
f 26/26/26 24/24/24 25/25/25
f 27/27/27 26/26/26 25/25/25
f 26/26/26 27/27/27 28/28/28
f 29/29/29 26/26/26 28/28/28
f 30/30/30 29/29/29 28/28/28
f 30/30/30 31/31/31 29/29/29
f 32/32/32 29/29/29 31/31/31
f 33/33/33 31/31/31 30/30/30
f 34/34/34 33/33/33 30/30/30
f 33/33/33 34/34/34 35/35/35
f 36/36/36 32/32/32 31/31/31
f 36/36/36 37/37/37 32/32/32
f 38/38/38 37/37/37 36/36/36
f 39/39/39 38/38/38 36/36/36
f 40/40/40 38/38/38 39/39/39
f 41/41/41 40/40/40 39/39/39
f 41/41/41 42/42/42 40/40/40
f 43/43/43 42/42/42 41/41/41
f 44/44/44 42/42/42 43/43/43
f 43/43/43 41/41/41 45/45/45
f 41/41/41 14/14/14 45/45/45
f 47/47/47 32/32/32 46/46/46
f 48/48/48 47/47/47 46/46/46
f 47/47/47 48/48/48 49/49/49
f 50/50/50 47/47/47 49/49/49
f 51/51/51 50/50/50 49/49/49
f 52/52/52 51/51/51 49/49/49
f 53/53/53 51/51/51 52/52/52
f 51/51/51 53/53/53 54/54/54
f 55/55/55 51/51/51 54/54/54
f 1/1/1 55/55/55 54/54/54
f 1/1/1 56/56/56 55/55/55
f 53/53/53 57/57/57 54/54/54
f 57/57/57 53/53/53 58/58/58
f 53/53/53 59/59/59 58/58/58
f 60/60/60 58/58/58 59/59/59
f 61/61/61 60/60/60 59/59/59
f 64/64/64 63/63/63 62/62/62
f 63/63/63 65/65/65 62/62/62
f 63/63/63 66/66/66 65/65/65
f 67/67/67 62/62/62 65/65/65
f 67/67/67 65/65/65 68/68/68
f 69/69/69 67/67/67 68/68/68
f 68/68/68 70/70/70 69/69/69
f 68/68/68 71/71/71 70/70/70
f 68/68/68 72/72/72 71/71/71
f 72/72/72 73/73/73 71/71/71
f 72/72/72 74/74/74 73/73/73
f 74/74/74 75/75/75 73/73/73
f 74/74/74 76/76/76 75/75/75
f 76/76/76 77/77/77 75/75/75
f 76/76/76 78/78/78 77/77/77
f 78/78/78 79/79/79 77/77/77
f 80/80/80 77/77/77 79/79/79
f 80/80/80 81/81/81 77/77/77
f 80/80/80 79/79/79 82/82/82
f 79/79/79 83/83/83 82/82/82
f 83/83/83 84/84/84 82/82/82
f 87/87/87 86/86/86 85/85/85
f 88/88/88 87/87/87 85/85/85
f 88/88/88 85/85/85 89/89/89
f 90/90/90 88/88/88 89/89/89
f 91/91/91 90/90/90 89/89/89
f 91/91/91 92/92/92 90/90/90
f 92/92/92 93/93/93 90/90/90
f 92/92/92 94/94/94 93/93/93
f 94/94/94 95/95/95 93/93/93
f 96/96/96 91/91/91 89/89/89
f 96/96/96 97/97/97 91/91/91
f 97/97/97 98/98/98 91/91/91
f 97/97/97 99/99/99 98/98/98
f 99/99/99 100/100/100 98/98/98
f 96/96/96 89/89/89 101/101/101
f 89/89/89 102/102/102 101/101/101
f 102/102/102 103/103/103 101/101/101
f 103/103/103 104/104/104 101/101/101
f 107/107/107 106/106/106 105/105/105
f 106/106/106 108/108/108 105/105/105
f 105/105/105 108/108/108 109/109/109
f 110/110/110 105/105/105 109/109/109
f 111/111/111 110/110/110 109/109/109
f 112/112/112 111/111/111 109/109/109
f 112/112/112 113/113/113 111/111/111
f 113/113/113 114/114/114 111/111/111
f 117/117/117 116/116/116 115/115/115
f 116/116/116 118/118/118 115/115/115
f 119/119/119 115/115/115 118/118/118
f 120/120/120 119/119/119 118/118/118
f 121/121/121 119/119/119 120/120/120
f 122/122/122 121/121/121 120/120/120
f 121/121/121 122/122/122 123/123/123
f 122/122/122 124/124/124 123/123/123
f 124/124/124 125/125/125 123/123/123
f 125/125/125 126/126/126 123/123/123
f 126/126/126 125/125/125 127/127/127
f 128/128/128 126/126/126 127/127/127
f 128/128/128 127/127/127 129/129/129
f 130/130/130 128/128/128 129/129/129
f 129/129/129 131/131/131 130/130/130
f 131/131/131 132/132/132 130/130/130
f 135/135/135 134/134/134 133/133/133
f 134/134/134 136/136/136 133/133/133
f 137/137/137 133/133/133 136/136/136
f 138/138/138 137/137/137 136/136/136
f 139/139/139 137/137/137 138/138/138
f 140/140/140 139/139/139 138/138/138
f 139/139/139 140/140/140 141/141/141
f 140/140/140 142/142/142 141/141/141
f 145/145/145 144/144/144 143/143/143
f 146/146/146 145/145/145 143/143/143
f 143/143/143 147/147/147 146/146/146
f 147/147/147 148/148/148 146/146/146
f 147/147/147 149/149/149 148/148/148
f 149/149/149 150/150/150 148/148/148
f 150/150/150 149/149/149 151/151/151
f 152/152/152 150/150/150 151/151/151
f 155/155/155 154/154/154 153/153/153
f 156/156/156 155/155/155 153/153/153
f 157/157/157 155/155/155 156/156/156
f 158/158/158 155/155/155 157/157/157
f 159/159/159 158/158/158 157/157/157
f 158/158/158 159/159/159 160/160/160
f 161/161/161 158/158/158 160/160/160
f 162/162/162 161/161/161 160/160/160
f 163/163/163 162/162/162 160/160/160
f 163/163/163 164/164/164 162/162/162
f 164/164/164 163/163/163 165/165/165
f 166/166/166 164/164/164 165/165/165
f 164/164/164 167/167/167 162/162/162
f 167/167/167 168/168/168 162/162/162
f 169/169/169 162/162/162 168/168/168
f 170/170/170 168/168/168 167/167/167
f 171/171/171 170/170/170 167/167/167
f 171/171/171 172/172/172 170/170/170
f 173/173/173 169/169/169 168/168/168
f 173/173/173 174/174/174 169/169/169
f 174/174/174 175/175/175 169/169/169
f 176/176/176 175/175/175 174/174/174
f 177/177/177 176/176/176 174/174/174
f 178/178/178 176/176/176 177/177/177
f 179/179/179 178/178/178 177/177/177
f 178/178/178 179/179/179 180/180/180
f 181/181/181 178/178/178 180/180/180
f 182/182/182 181/181/181 180/180/180
f 182/182/182 183/183/183 181/181/181
f 184/184/184 181/181/181 183/183/183
f 185/185/185 183/183/183 182/182/182
f 186/186/186 185/185/185 182/182/182
f 185/185/185 186/186/186 187/187/187
f 188/188/188 184/184/184 183/183/183
f 188/188/188 189/189/189 184/184/184
f 190/190/190 189/189/189 188/188/188
f 191/191/191 190/190/190 188/188/188
f 192/192/192 190/190/190 191/191/191
f 193/193/193 192/192/192 191/191/191
f 193/193/193 194/194/194 192/192/192
f 195/195/195 194/194/194 193/193/193
f 196/196/196 194/194/194 195/195/195
f 195/195/195 193/193/193 197/197/197
f 193/193/193 166/166/166 197/197/197
f 199/199/199 184/184/184 198/198/198
f 200/200/200 199/199/199 198/198/198
f 199/199/199 200/200/200 201/201/201
f 202/202/202 199/199/199 201/201/201
f 203/203/203 202/202/202 201/201/201
f 204/204/204 203/203/203 201/201/201
f 205/205/205 203/203/203 204/204/204
f 203/203/203 205/205/205 206/206/206
f 207/207/207 203/203/203 206/206/206
f 153/153/153 207/207/207 206/206/206
f 153/153/153 208/208/208 207/207/207
f 205/205/205 209/209/209 206/206/206
f 209/209/209 205/205/205 210/210/210
f 205/205/205 211/211/211 210/210/210
f 212/212/212 210/210/210 211/211/211
f 213/213/213 212/212/212 211/211/211
f 216/216/216 215/215/215 214/214/214
f 215/215/215 217/217/217 214/214/214
f 215/215/215 218/218/218 217/217/217
f 219/219/219 214/214/214 217/217/217
f 219/219/219 217/217/217 220/220/220
f 221/221/221 219/219/219 220/220/220
f 220/220/220 222/222/222 221/221/221
f 220/220/220 223/223/223 222/222/222
f 220/220/220 224/224/224 223/223/223
f 224/224/224 225/225/225 223/223/223
f 224/224/224 226/226/226 225/225/225
f 226/226/226 227/227/227 225/225/225
f 226/226/226 228/228/228 227/227/227
f 228/228/228 229/229/229 227/227/227
f 228/228/228 230/230/230 229/229/229
f 230/230/230 231/231/231 229/229/229
f 232/232/232 229/229/229 231/231/231
f 232/232/232 233/233/233 229/229/229
f 232/232/232 231/231/231 234/234/234
f 231/231/231 235/235/235 234/234/234
f 235/235/235 236/236/236 234/234/234
f 239/239/239 238/238/238 237/237/237
f 240/240/240 239/239/239 237/237/237
f 240/240/240 237/237/237 241/241/241
f 242/242/242 240/240/240 241/241/241
f 243/243/243 242/242/242 241/241/241
f 243/243/243 244/244/244 242/242/242
f 244/244/244 245/245/245 242/242/242
f 244/244/244 246/246/246 245/245/245
f 246/246/246 247/247/247 245/245/245
f 248/248/248 243/243/243 241/241/241
f 248/248/248 249/249/249 243/243/243
f 249/249/249 250/250/250 243/243/243
f 249/249/249 251/251/251 250/250/250
f 251/251/251 252/252/252 250/250/250
f 248/248/248 241/241/241 253/253/253
f 241/241/241 254/254/254 253/253/253
f 254/254/254 255/255/255 253/253/253
f 255/255/255 256/256/256 253/253/253
f 259/259/259 258/258/258 257/257/257
f 257/257/257 258/258/258 260/260/260
f 261/261/261 259/259/259 257/257/257
f 257/257/257 260/260/260 262/262/262
f 263/263/263 259/259/259 261/261/261
f 260/260/260 264/264/264 262/262/262
f 265/265/265 263/263/263 261/261/261
f 266/266/266 263/263/263 265/265/265
f 262/262/262 264/264/264 267/267/267
f 264/264/264 268/268/268 267/267/267
f 268/268/268 269/269/269 267/267/267
f 269/269/269 270/270/270 267/267/267
f 269/269/269 271/271/271 270/270/270
f 266/266/266 265/265/265 272/272/272
f 272/272/272 273/273/273 266/266/266
f 274/274/274 273/273/273 272/272/272
f 275/275/275 274/274/274 272/272/272
f 276/276/276 274/274/274 275/275/275
f 277/277/277 276/276/276 275/275/275
f 277/277/277 278/278/278 276/276/276
f 279/279/279 278/278/278 277/277/277
f 280/280/280 278/278/278 279/279/279
f 280/280/280 279/279/279 281/281/281
f 282/282/282 280/280/280 281/281/281
f 271/271/271 283/283/283 270/270/270
f 284/284/284 283/283/283 271/271/271
f 284/284/284 285/285/285 283/283/283
f 285/285/285 286/286/286 283/283/283
f 285/285/285 287/287/287 286/286/286
f 287/287/287 288/288/288 286/286/286
f 287/287/287 289/289/289 288/288/288
f 282/282/282 281/281/281 290/290/290
f 288/288/288 289/289/289 290/290/290
f 291/291/291 282/282/282 290/290/290
f 291/291/291 290/290/290 289/289/289
f 294/294/294 293/293/293 292/292/292
f 292/292/292 293/293/293 295/295/295
f 296/296/296 294/294/294 292/292/292
f 292/292/292 295/295/295 297/297/297
f 298/298/298 294/294/294 296/296/296
f 295/295/295 299/299/299 297/297/297
f 300/300/300 298/298/298 296/296/296
f 301/301/301 298/298/298 300/300/300
f 297/297/297 299/299/299 302/302/302
f 299/299/299 303/303/303 302/302/302
f 303/303/303 304/304/304 302/302/302
f 304/304/304 305/305/305 302/302/302
f 304/304/304 306/306/306 305/305/305
f 301/301/301 300/300/300 307/307/307
f 307/307/307 308/308/308 301/301/301
f 309/309/309 308/308/308 307/307/307
f 310/310/310 309/309/309 307/307/307
f 311/311/311 309/309/309 310/310/310
f 312/312/312 311/311/311 310/310/310
f 312/312/312 313/313/313 311/311/311
f 314/314/314 313/313/313 312/312/312
f 315/315/315 313/313/313 314/314/314
f 315/315/315 314/314/314 316/316/316
f 317/317/317 315/315/315 316/316/316
f 306/306/306 318/318/318 305/305/305
f 319/319/319 318/318/318 306/306/306
f 319/319/319 320/320/320 318/318/318
f 320/320/320 321/321/321 318/318/318
f 320/320/320 322/322/322 321/321/321
f 322/322/322 323/323/323 321/321/321
f 322/322/322 324/324/324 323/323/323
f 317/317/317 316/316/316 325/325/325
f 323/323/323 324/324/324 325/325/325
f 326/326/326 317/317/317 325/325/325
f 326/326/326 325/325/325 324/324/324
