# Subway Surfers Super Sneaker
mtllib sneakers.mtl
v 0.733218 -0.110750 1.360951
v 0.559773 1.668441 -0.577690
v 0.808464 -0.110750 -0.031942
v 0.009899 0.976897 0.884672
v 0.009899 0.729551 1.353535
v 0.009899 -0.110750 -0.042362
v 0.808464 0.281480 0.581400
v 0.808464 0.582994 0.032230
v 0.009899 0.281480 1.764939
v 0.733218 0.281480 1.360951
v 0.663856 1.822770 0.465700
v 0.326728 0.713338 1.286888
v 0.380616 0.960577 0.811644
v 0.373170 1.732251 -0.819049
v 0.447734 0.591955 -1.067050
v 0.447734 -0.107852 -1.067050
v 0.420058 0.281480 1.695322
v 0.712056 0.529454 1.257310
v 0.404000 0.559770 1.573078
v 0.009899 0.572203 1.646904
v 0.750741 1.029395 0.102524
v 0.657806 1.086404 -0.655767
v 0.422830 1.079143 -1.015601
v -0.029609 1.102581 -1.065413
v 0.760455 0.512654 0.839882
v 0.780902 0.538562 0.629946
v 0.405215 1.476464 0.794338
v 0.612969 1.428467 0.446292
v 0.808464 0.283043 -0.010601
v -0.720011 1.594134 0.246213
v -0.788930 0.281480 0.581635
v -0.788930 0.589071 0.007326
v -0.692998 0.589071 -0.692720
v -0.713660 0.281480 1.360951
v -0.644276 1.822770 0.446892
v -0.307039 0.713338 1.286888
v -0.360945 0.960577 0.805638
v -0.485262 1.732224 -0.818793
v -0.400399 0.281480 1.695322
v -0.692492 0.529454 1.257310
v -0.384336 0.559770 1.573078
v -0.731188 1.035472 0.083882
v -0.696949 1.035472 -0.618272
v -0.460053 1.079143 -1.015601
v -0.740906 0.512654 0.832995
v -0.761359 0.538562 0.632342
v -0.481991 1.682533 -0.242527
v -0.385551 1.476464 0.772604
v -0.608060 1.437534 0.610390
v -0.593372 1.428467 0.418414
v -0.056924 1.751094 -0.864851
v -0.014832 -0.110750 -1.109272
v 0.420058 -0.110750 1.695322
v 0.009899 1.963357 0.292260
v 0.402675 1.879809 0.230056
v 0.623397 0.690194 1.125045
v 0.688885 1.594134 0.252095
v 0.701274 0.582994 -0.692720
v 0.701274 -0.110750 -0.719571
v -0.014832 0.589071 -1.109272
v 0.323251 1.636175 0.354721
v 0.009899 1.648408 0.397152
v 0.228842 1.654258 0.251681
v 0.009899 1.657717 0.275574
v 0.388538 1.681849 -0.288723
v 0.254206 1.737045 -0.615740
v -0.057798 1.751094 -0.692389
v -0.443058 -0.107852 -1.067050
v -0.400399 -0.110750 1.695322
v -0.383010 1.879809 0.229132
v -0.641234 1.668441 -0.577782
v -0.681706 -0.110750 -0.719571
v -0.788930 -0.110750 0.575321
v -0.713660 -0.110750 1.360951
v -0.443058 0.591955 -1.067050
v -0.303561 1.636175 0.353158
v -0.209135 1.654258 0.251192
v -0.788930 -0.110750 -0.031942
v -0.788930 0.283043 -0.010601
v 0.635041 1.738875 0.247493
v 0.443420 2.046211 0.483277
v 0.349340 0.883333 1.251645
v 0.624754 0.853498 0.713001
v 0.614232 0.835428 1.134508
v 0.390441 1.636202 0.074528
v 0.627651 1.437534 0.646696
v 0.808464 -0.110750 0.575321
v 0.009899 0.895953 1.331102
v 0.009899 -0.110750 0.575321
v 0.009899 -0.110750 1.764939
v 0.009899 2.129759 0.516786
v 0.009899 1.515474 0.830054
v -0.445143 1.636202 0.067879
v -0.423769 2.046211 0.475713
v -0.329658 0.883333 1.251645
v -0.594636 0.835428 1.134508
v -0.374953 1.737552 -0.579140
v 0.009899 1.154464 -0.228757
v -0.603804 0.690194 1.125045
v -0.605161 0.853498 0.703618
v -0.615451 1.738875 0.219968
vn -0.443000 0.896500 -0.009500
vn -0.003200 0.849800 -0.527200
vn 0.512900 0.747600 0.421900
vn 0.268600 0.768900 -0.580300
vn 0.925700 0.265200 0.269800
vn 0.781600 0.116400 -0.612800
vn 0.915800 0.137400 0.377400
vn 0.888500 0.292900 0.353100
vn 0.708500 0.486900 0.510800
vn 0.258400 0.658600 0.706700
vn 0.564100 0.762600 0.316600
vn 0.681900 0.529500 0.504600
vn 0.790800 0.604600 0.095100
vn 0.726700 0.669100 -0.155400
vn 0.076100 0.993300 0.087100
vn 0.582400 0.789100 0.195200
vn 0.253600 0.812000 -0.525700
vn 0.003300 0.984700 0.174000
vn 0.416000 0.848900 -0.326100
vn 0.061700 0.535500 -0.842300
vn 0.408700 0.911600 -0.043400
vn -0.317800 0.761400 -0.565100
vn -0.958500 -0.003200 -0.285200
vn -0.720800 0.692800 -0.021300
vn -0.887700 0.410700 -0.208100
vn -0.939000 0.330400 -0.096000
vn -0.687400 -0.236300 -0.686800
vn -0.829300 0.524700 0.192300
vn -0.503800 0.671400 0.543600
vn -0.358200 0.641400 0.678500
vn -0.733300 0.459800 0.500800
vn -0.752100 0.650200 0.107600
vn -0.930800 0.196700 0.308100
vn 0.042800 0.996200 0.076200
vn 0.098000 0.886000 -0.453100
vn -0.567900 0.818700 0.084800
vn 0.237200 0.749100 -0.618600
vn -0.365600 0.347300 0.863500
vn -0.022000 0.594700 -0.803700
vn -0.410200 0.910700 -0.048500
vn 0.003600 0.849800 -0.527200
vn 0.452000 0.750100 0.482800
vn 0.316600 0.743400 -0.589100
vn 0.927800 0.260900 0.266700
vn 0.770200 0.113600 -0.627600
vn 0.912300 0.135900 0.386400
vn 0.812800 0.360300 0.457700
vn 0.708400 0.487000 0.510900
vn 0.638200 0.486700 0.596500
vn 0.786500 0.612900 0.075100
vn -0.037700 0.897400 -0.439600
vn 0.740300 0.671000 0.042600
vn -0.129000 0.931100 0.341100
vn 0.587600 0.784400 0.198500
vn 0.314400 0.817900 -0.481900
vn 0.086800 0.980300 0.177600
vn 0.024100 0.540800 -0.840800
vn 0.440500 0.897800 -0.005000
vn -0.352900 0.825100 -0.441200
vn -0.939500 0.324800 -0.109200
vn -0.703800 -0.228300 -0.672700
vn -0.829100 0.525200 0.191700
vn -0.756700 0.644400 0.110100
vn -0.991900 0.121300 0.037800
vn -0.758300 0.427600 0.492100
vn 0.116900 0.907500 -0.403500
vn -0.723100 0.646100 -0.244400
vn 0.247200 0.760800 -0.600100
vn -0.059500 0.568900 -0.820300
vn -0.566800 0.818400 0.095100
vn 0.636900 0.378700 0.671500
vn 0.000000 0.485700 0.874100
vn 0.441500 0.557900 0.702700
vn -0.000000 -1.000000 -0.000000
vn 0.363000 -0.641800 0.675500
vn 0.000000 -0.773000 0.634400
vn 0.699300 -0.641200 0.315900
vn 0.714500 -0.697200 0.058400
vn 0.000300 -1.000000 -0.000900
vn 0.710300 -0.661500 -0.240500
vn 0.721200 -0.690300 -0.057600
vn 0.463300 -0.642100 -0.610800
vn 0.061400 -0.689400 -0.721800
vn 0.997500 0.006900 -0.070100
vn 0.999700 0.014200 0.017400
vn 0.948900 0.037000 -0.313300
vn 0.549600 0.058600 -0.833400
vn 0.104300 0.043100 -0.993600
vn 0.375500 0.658300 0.652500
vn 0.000000 0.470400 0.882500
vn 0.153800 0.310000 0.938200
vn 0.470900 0.130100 0.872500
vn 0.901600 0.156100 0.403400
vn 0.004000 0.531800 -0.846900
vn 0.187800 0.954300 0.232600
vn 0.073900 0.300500 -0.950900
vn 0.001800 0.620100 -0.784500
vn 0.949400 0.243300 0.198800
vn 0.838800 0.410900 0.357200
vn -0.251400 0.950900 0.180800
vn 0.992700 0.106800 0.056200
vn 0.991500 0.123100 -0.040900
vn 0.935200 0.162100 -0.314800
vn 0.517300 0.209000 -0.829900
vn 0.122000 0.193500 -0.973500
vn -0.004800 0.638200 0.769900
vn 0.329400 0.632700 0.700800
vn 0.277500 0.224000 0.934300
vn 0.154400 0.258200 0.953700
vn -0.291500 0.235600 0.927100
vn -0.953000 0.271300 0.135000
vn -0.928900 0.318900 0.188300
vn -0.993200 0.071300 0.091600
vn -0.699300 -0.641200 0.316000
vn -0.699100 -0.714200 0.034700
vn -0.363000 -0.641800 0.675500
vn -0.490000 -0.561800 -0.666500
vn -0.666900 -0.698900 -0.258400
vn -0.721200 -0.690400 -0.056400
vn -0.475200 0.035400 -0.879200
vn -0.917100 0.019900 -0.398100
vn -0.997200 0.004500 -0.075000
vn -0.353600 0.655300 0.667500
vn -0.470900 0.130100 0.872600
vn -0.901600 0.156600 0.403200
vn -0.048600 0.309100 -0.949800
vn -0.839200 0.410500 0.356600
vn -0.539900 0.165900 -0.825200
vn -0.331600 0.631900 0.700500
vn -0.994600 0.102900 0.016100
vn 0.706800 -0.668000 -0.232800
vn 0.720100 -0.691700 -0.054500
vn 0.476600 -0.641400 -0.601200
vn 0.067100 -0.689300 -0.721300
vn 0.995000 0.057100 0.082000
vn 0.993800 0.108900 -0.023000
vn 0.955600 0.052900 -0.289700
vn 0.998000 0.006100 -0.062800
vn 0.948200 0.002200 -0.317700
vn 0.535500 0.035100 -0.843800
vn 0.109800 0.043200 -0.993000
vn 0.044500 0.315500 -0.947900
vn 0.540400 0.165900 -0.824900
vn 0.007700 0.319100 -0.947700
vn -0.475000 -0.565700 -0.674100
vn -0.670000 -0.693300 -0.265600
vn -0.722400 -0.688900 -0.059600
vn -0.461700 0.059100 -0.885100
vn -0.908300 0.059700 -0.414100
vn -0.996500 0.005100 -0.083600
vn -0.077400 0.294700 -0.952500
vn 0.224400 0.949300 0.220400
vn -0.992800 0.107100 0.053400
vn -0.992100 0.125400 -0.009600
vn -0.934200 0.163800 -0.317000
vn -0.516500 0.209100 -0.830400
vn 0.948300 0.297900 0.109300
vn -0.995200 0.056200 0.079700
vt 0.801423 0.239079
vt 0.805173 0.243699
vt 0.802463 0.243686
vt 0.805563 0.241699
vt 0.899165 0.067482
vt 0.909908 0.093924
vt 0.899165 0.094221
vt 0.909677 0.088027
vt 0.751054 0.398000
vt 0.758236 0.398000
vt 0.747061 0.396010
vt 0.808767 0.224133
vt 0.814627 0.216796
vt 0.817238 0.217650
vt 0.806631 0.237183
vt 0.800296 0.226203
vt 0.867344 0.098094
vt 0.747061 0.407644
vt 0.822037 0.550658
vt 0.822037 0.550658
vt 0.822037 0.498255
vt 0.822037 0.550658
vt 0.822037 0.550658
vt 0.822037 0.550658
vt 0.899165 0.012823
vt 0.807727 0.221363
vt 0.801423 0.239079
vt 0.805563 0.241699
vt 0.863087 0.047251
vt 0.812997 0.098766
vt 0.863087 0.098766
vt 0.899165 0.094221
vt 0.909908 0.093924
vt 0.899165 0.067482
vt 0.747061 0.396010
vt 0.758236 0.398000
vt 0.751054 0.398000
vt 0.817238 0.217650
vt 0.814627 0.216796
vt 0.808767 0.224133
vt 0.802710 0.234946
vt 0.806631 0.237183
vt 0.800296 0.226203
vt 0.867344 0.098094
vt 0.747061 0.407644
vt 0.822037 0.550658
vt 0.822037 0.550658
vt 0.822037 0.550658
vt 0.822037 0.550658
vt 0.867344 0.049810
vt 0.899165 0.012823
vt 0.807727 0.221363
vt 0.801423 0.239079
vt 0.805173 0.243699
vt 0.802463 0.243686
vt 0.805563 0.241699
vt 0.899165 0.067482
vt 0.909908 0.093924
vt 0.899165 0.094221
vt 0.909677 0.088027
vt 0.751054 0.398000
vt 0.758236 0.398000
vt 0.747061 0.396010
vt 0.808767 0.224133
vt 0.814627 0.216796
vt 0.817238 0.217650
vt 0.800296 0.226203
vt 0.806631 0.237183
vt 0.802710 0.234946
vt 0.867344 0.098094
vt 0.747061 0.407644
vt 0.822037 0.550658
vt 0.822037 0.550658
vt 0.822037 0.498255
vt 0.822037 0.550658
vt 0.822037 0.550658
vt 0.822037 0.550658
vt 0.822037 0.550658
vt 0.899165 0.012823
vt 0.807727 0.221363
vt 0.801423 0.239079
vt 0.805563 0.241699
vt 0.899165 0.094221
vt 0.909908 0.093924
vt 0.899165 0.067482
vt 0.747061 0.396010
vt 0.758236 0.398000
vt 0.751054 0.398000
vt 0.817238 0.217650
vt 0.814627 0.216796
vt 0.808767 0.224133
vt 0.800296 0.226203
vt 0.806631 0.237183
vt 0.747061 0.407644
vt 0.822037 0.550658
vt 0.822037 0.550658
vt 0.822037 0.550658
vt 0.867344 0.049810
vt 0.899165 0.012823
vt 0.807727 0.221363
vt 0.867344 0.098094
vt 0.758236 0.396010
vt 0.769852 0.398000
vt 0.769852 0.396010
vt 0.795430 0.437451
vt 0.786175 0.409641
vt 0.795430 0.407893
vt 0.779060 0.417959
vt 0.777392 0.437394
vt 0.795430 0.452794
vt 0.779725 0.471116
vt 0.777348 0.452738
vt 0.785468 0.478809
vt 0.795430 0.479898
vt 0.772392 0.460885
vt 0.798353 0.460885
vt 0.798313 0.479737
vt 0.797817 0.441678
vt 0.772392 0.441678
vt 0.797817 0.432110
vt 0.772355 0.432110
vt 0.797817 0.422285
vt 0.772210 0.422285
vt 0.793719 0.449816
vt 0.793719 0.437681
vt 0.789009 0.437681
vt 0.789008 0.449816
vt 0.789009 0.462744
vt 0.772392 0.462744
vt 0.772392 0.479737
vt 0.838315 0.098637
vt 0.838315 0.098094
vt 0.867344 0.098637
vt 0.789317 0.374432
vt 0.806987 0.374432
vt 0.803821 0.386977
vt 0.802792 0.364553
vt 0.789781 0.364553
vt 0.797817 0.473080
vt 0.793719 0.462744
vt 0.797817 0.462745
vt 0.802710 0.234946
vt 0.797817 0.449816
vt 0.797817 0.437681
vt 0.812997 0.047251
vt 0.812997 0.098766
vt 0.775445 0.047913
vt 0.812997 0.018183
vt 0.863087 0.047251
vt 0.863087 0.016118
vt 0.883904 0.042103
vt 0.883904 0.012355
vt 0.909237 0.039718
vt 0.909237 0.008007
vt 0.769852 0.407746
vt 0.758236 0.407694
vt 0.800661 0.222708
vt 0.799543 0.220863
vt 0.804773 0.220024
vt 0.822037 0.550658
vt 0.867344 0.049810
vt 0.838315 0.049810
vt 0.867344 0.018511
vt 0.838315 0.018511
vt 0.789173 0.386977
vt 0.758236 0.396010
vt 0.771407 0.028565
vt 0.755540 0.043903
vt 0.775445 0.047913
vt 0.757018 0.029407
vt 0.769953 0.011844
vt 0.779060 0.417959
vt 0.777392 0.437394
vt 0.786175 0.409641
vt 0.785468 0.478809
vt 0.779725 0.471116
vt 0.777348 0.452738
vt 0.772355 0.432110
vt 0.797817 0.432110
vt 0.772392 0.441678
vt 0.797817 0.441678
vt 0.772392 0.460885
vt 0.798353 0.460885
vt 0.798313 0.479737
vt 0.793719 0.449816
vt 0.789008 0.449816
vt 0.789009 0.462744
vt 0.772392 0.462744
vt 0.772392 0.479737
vt 0.909677 0.088027
vt 0.867344 0.098637
vt 0.789317 0.374432
vt 0.806987 0.374432
vt 0.803821 0.386977
vt 0.793719 0.462744
vt 0.797817 0.473080
vt 0.797817 0.462745
vt 0.800661 0.222708
vt 0.883904 0.042103
vt 0.883904 0.012355
vt 0.863087 0.016118
vt 0.883904 0.098766
vt 0.797817 0.449816
vt 0.909237 0.098766
vt 0.758236 0.407694
vt 0.812997 0.018183
vt 0.808861 0.003646
vt 0.867344 0.018511
vt 0.789173 0.386977
vt 0.758236 0.396010
vt 0.769852 0.398000
vt 0.769852 0.396010
vt 0.795430 0.437451
vt 0.786175 0.409641
vt 0.795430 0.407893
vt 0.779060 0.417959
vt 0.777392 0.437394
vt 0.795430 0.452794
vt 0.779725 0.471116
vt 0.777348 0.452738
vt 0.785468 0.478809
vt 0.795430 0.479898
vt 0.812997 0.047251
vt 0.775445 0.047913
vt 0.812997 0.018183
vt 0.863087 0.047251
vt 0.812997 0.098766
vt 0.863087 0.098766
vt 0.772392 0.460885
vt 0.798353 0.460885
vt 0.798313 0.479737
vt 0.797817 0.441678
vt 0.772392 0.441678
vt 0.797817 0.432110
vt 0.772355 0.432110
vt 0.797817 0.422285
vt 0.772210 0.422285
vt 0.793719 0.449816
vt 0.793719 0.437681
vt 0.789009 0.437681
vt 0.789008 0.449816
vt 0.789009 0.462744
vt 0.772392 0.462744
vt 0.772392 0.479737
vt 0.838315 0.098637
vt 0.838315 0.098094
vt 0.867344 0.098637
vt 0.789317 0.374432
vt 0.806987 0.374432
vt 0.803821 0.386977
vt 0.802792 0.364553
vt 0.789781 0.364553
vt 0.797817 0.473080
vt 0.793719 0.462744
vt 0.797817 0.462745
vt 0.799543 0.220863
vt 0.804773 0.220024
vt 0.800661 0.222708
vt 0.883904 0.042103
vt 0.909237 0.039718
vt 0.909237 0.098766
vt 0.883904 0.098766
vt 0.797817 0.449816
vt 0.797817 0.437681
vt 0.863087 0.016118
vt 0.883904 0.012355
vt 0.909237 0.008007
vt 0.769852 0.407746
vt 0.758236 0.407694
vt 0.867344 0.049810
vt 0.838315 0.049810
vt 0.867344 0.018511
vt 0.838315 0.018511
vt 0.789173 0.386977
vt 0.758236 0.396010
vt 0.771407 0.028565
vt 0.755540 0.043903
vt 0.775445 0.047913
vt 0.757018 0.029407
vt 0.769953 0.011844
vt 0.779060 0.417959
vt 0.777392 0.437394
vt 0.786175 0.409641
vt 0.785468 0.478809
vt 0.779725 0.471116
vt 0.777348 0.452738
vt 0.772355 0.432110
vt 0.797817 0.432110
vt 0.772392 0.441678
vt 0.797817 0.441678
vt 0.772392 0.460885
vt 0.798353 0.460885
vt 0.798313 0.479737
vt 0.793719 0.449816
vt 0.789008 0.449816
vt 0.789009 0.462744
vt 0.772392 0.462744
vt 0.772392 0.479737
vt 0.909677 0.088027
vt 0.867344 0.098637
vt 0.789317 0.374432
vt 0.806987 0.374432
vt 0.803821 0.386977
vt 0.793719 0.462744
vt 0.797817 0.473080
vt 0.797817 0.462745
vt 0.802710 0.234946
vt 0.797817 0.449816
vt 0.812997 0.047251
vt 0.812997 0.098766
vt 0.812997 0.018183
vt 0.863087 0.047251
vt 0.863087 0.016118
vt 0.883904 0.042103
vt 0.883904 0.012355
vt 0.758236 0.407694
vt 0.808861 0.003646
vt 0.800661 0.222708
vt 0.822037 0.550658
vt 0.867344 0.018511
vt 0.789173 0.386977
vt 0.769953 0.011844
vt 0.808861 0.003646
vt 0.771407 0.028565
vt 0.755540 0.043903
vt 0.757018 0.029407
vt 0.863087 0.098766
vt 0.883904 0.098766
vt 0.772392 0.449816
vt 0.772392 0.437681
vt 0.812997 0.047251
vt 0.772392 0.449816
vt 0.769953 0.011844
vt 0.808861 0.003646
vt 0.771407 0.028565
vt 0.755540 0.043903
vt 0.757018 0.029407
vt 0.772392 0.449816
vt 0.772392 0.437681
vt 0.883904 0.098766
vt 0.863087 0.098766
vt 0.772392 0.449816

usemtl main
f 66/1/1 51/2/2 67/3/3
f 14/4/4 51/2/2 66/1/1
f 86/5/5 80/6/6 11/7/7
f 28/8/8 80/6/6 86/5/5
f 84/9/9 82/10/10 56/11/11
f 57/12/12 28/13/8 83/14/13
f 57/12/12 2/15/14 85/16/15
f 11/7/7 80/6/6 81/17/16
f 56/11/11 83/18/13 84/9/9
f 63/19/17 85/20/15 98/21/18
f 63/19/17 98/21/18 64/22/19
f 66/23/1 67/24/3 98/21/18
f 83/25/13 28/8/8 86/5/5
f 57/12/12 61/26/20 28/13/8
f 97/27/21 51/2/2 38/28/22
f 67/3/3 51/2/2 97/27/21
f 43/29/23 30/30/24 71/31/25
f 35/32/26 101/33/27 49/34/28
f 99/35/29 95/36/30 96/37/31
f 100/38/32 50/39/33 30/40/24
f 47/41/34 71/42/25 93/43/35
f 35/32/26 94/44/36 101/33/27
f 96/37/31 100/45/32 99/35/29
f 98/21/18 93/46/35 77/47/37
f 64/22/19 98/21/18 77/47/37
f 47/48/34 93/46/35 98/21/18
f 97/49/21 47/48/34 98/21/18
f 98/21/18 67/24/3 97/49/21
f 48/50/38 49/34/28 100/51/32
f 50/39/33 76/52/39 30/40/24
f 12/102/71 88/103/72 5/104/73
f 82/10/10 88/103/72 12/102/71
f 56/11/11 82/10/10 12/102/71
f 89/105/74 53/106/75 90/107/76
f 1/108/77 53/106/75 89/105/74
f 87/109/78 1/108/77 89/105/74
f 6/110/79 59/111/80 3/112/81
f 16/113/82 59/111/80 6/110/79
f 52/114/83 16/113/82 6/110/79
f 3/115/81 29/116/84 7/117/85
f 58/118/86 29/116/84 3/115/81
f 59/119/80 58/118/86 3/115/81
f 15/120/87 58/118/86 59/119/80
f 16/121/82 15/120/87 59/119/80
f 60/122/88 15/120/87 16/121/82
f 52/123/83 60/122/88 16/121/82
f 19/124/89 20/125/90 9/126/91
f 17/127/92 19/124/89 9/126/91
f 10/128/93 19/124/89 17/127/92
f 1/129/77 10/128/93 17/127/92
f 7/117/85 10/128/93 1/129/77
f 87/130/78 7/117/85 1/129/77
f 81/17/16 54/131/94 91/132/95
f 55/133/96 54/131/94 81/17/16
f 80/6/6 55/133/96 81/17/16
f 61/134/20 55/135/96 80/136/6
f 54/137/94 55/135/96 61/134/20
f 62/138/97 54/137/94 61/134/20
f 25/139/98 10/128/93 7/117/85
f 18/140/99 10/128/93 25/139/98
f 56/141/11 18/140/99 25/139/98
f 65/142/100 14/4/4 66/1/1
f 2/15/14 14/4/4 65/142/100
f 85/16/15 2/15/14 65/142/100
f 12/143/71 19/124/89 56/141/11
f 20/125/90 19/124/89 12/143/71
f 5/144/73 20/125/90 12/143/71
f 21/145/101 57/146/12 83/147/13
f 8/148/102 21/145/101 83/147/13
f 22/149/103 21/145/101 8/148/102
f 58/150/86 22/149/103 8/148/102
f 23/151/104 22/149/103 58/150/86
f 15/152/87 23/151/104 58/150/86
f 24/153/105 23/151/104 15/152/87
f 60/154/88 24/153/105 15/152/87
f 82/10/10 4/155/106 88/103/72
f 13/156/107 4/155/106 82/10/10
f 84/9/9 13/156/107 82/10/10
f 83/18/13 13/156/107 84/9/9
f 63/157/17 57/12/12 85/16/15
f 61/26/20 57/12/12 63/157/17
f 64/158/19 61/26/20 63/157/17
f 62/159/97 61/26/20 64/158/19
f 98/21/18 65/160/100 66/23/1
f 85/20/15 65/160/100 98/21/18
f 27/161/108 81/17/16 91/132/95
f 92/162/109 27/161/108 91/132/95
f 13/163/107 27/161/108 92/162/109
f 4/164/106 13/163/107 92/162/109
f 27/161/108 11/7/7 81/17/16
f 86/5/5 11/7/7 27/161/108
f 83/25/13 86/5/5 27/161/108
f 80/136/6 28/165/8 61/134/20
f 18/140/99 19/124/89 10/128/93
f 56/141/11 19/124/89 18/140/99
f 13/163/107 83/25/13 27/161/108
f 3/115/81 7/117/85 87/130/78
f 36/166/110 95/36/30 99/35/29
f 88/103/72 95/36/30 36/166/110
f 5/104/73 88/103/72 36/166/110
f 46/167/111 99/168/29 100/169/32
f 45/170/112 99/168/29 46/167/111
f 31/171/113 45/170/112 46/167/111
f 89/105/74 74/172/114 73/173/115
f 69/174/116 74/172/114 89/105/74
f 90/107/76 69/174/116 89/105/74
f 6/110/79 68/175/117 52/114/83
f 72/176/118 68/175/117 6/110/79
f 78/177/119 72/176/118 6/110/79
f 68/178/117 60/122/88 52/123/83
f 75/179/120 60/122/88 68/178/117
f 72/180/118 75/179/120 68/178/117
f 33/181/121 75/179/120 72/180/118
f 78/182/119 33/181/121 72/180/118
f 79/183/122 33/181/121 78/182/119
f 31/184/113 79/183/122 78/182/119
f 41/185/123 9/126/91 20/125/90
f 39/186/124 9/126/91 41/185/123
f 34/187/125 39/186/124 41/185/123
f 74/188/114 39/186/124 34/187/125
f 31/184/113 74/188/114 34/187/125
f 73/189/115 74/188/114 31/184/113
f 49/34/28 50/190/33 100/51/32
f 101/33/27 50/190/33 49/34/28
f 94/44/36 70/191/126 101/33/27
f 54/131/94 70/191/126 94/44/36
f 91/132/95 54/131/94 94/44/36
f 76/192/39 54/137/94 62/138/97
f 70/193/126 54/137/94 76/192/39
f 101/194/27 70/193/126 76/192/39
f 40/195/127 34/187/125 41/185/123
f 45/196/112 34/187/125 40/195/127
f 99/197/29 45/196/112 40/195/127
f 30/40/24 93/43/35 71/42/25
f 77/198/37 93/43/35 30/40/24
f 76/52/39 77/198/37 30/40/24
f 64/158/19 77/198/37 76/52/39
f 62/159/97 64/158/19 76/52/39
f 44/199/128 75/200/120 33/201/121
f 43/29/23 44/199/128 33/201/121
f 38/202/22 44/199/128 43/29/23
f 71/31/25 38/202/22 43/29/23
f 36/203/110 20/125/90 5/144/73
f 41/185/123 20/125/90 36/203/110
f 99/197/29 41/185/123 36/203/110
f 44/199/128 38/202/22 51/204/2
f 24/153/105 44/199/128 51/204/2
f 75/200/120 44/199/128 24/153/105
f 60/154/88 75/200/120 24/153/105
f 95/36/30 88/103/72 4/155/106
f 37/205/129 95/36/30 4/155/106
f 96/37/31 95/36/30 37/205/129
f 100/45/32 96/37/31 37/205/129
f 32/206/130 46/167/111 100/169/32
f 31/171/113 46/167/111 32/206/130
f 79/207/122 31/171/113 32/206/130
f 47/41/34 38/28/22 71/42/25
f 97/27/21 38/28/22 47/41/34
f 48/50/38 91/132/95 94/44/36
f 92/162/109 91/132/95 48/50/38
f 37/208/129 92/162/109 48/50/38
f 4/164/106 92/162/109 37/208/129
f 76/192/39 50/209/33 101/194/27
f 41/185/123 99/197/29 40/195/127
f 35/32/26 48/50/38 94/44/36
f 49/34/28 48/50/38 35/32/26
f 48/50/38 100/51/32 37/208/129
f 73/189/115 31/184/113 78/182/119
f 8/148/102 7/322/85 29/323/84
f 26/324/157 7/322/85 8/148/102
f 83/147/13 26/324/157 8/148/102
f 56/325/11 26/324/157 83/147/13
f 25/326/98 26/324/157 56/325/11
f 7/322/85 26/324/157 25/326/98
f 22/149/103 2/327/14 57/146/12
f 14/328/4 2/327/14 22/149/103
f 23/151/104 14/328/4 22/149/103
f 51/204/2 14/328/4 23/151/104
f 24/153/105 51/204/2 23/151/104
f 29/323/84 58/150/86 8/148/102
f 17/127/92 53/329/75 1/129/77
f 90/330/76 53/329/75 17/127/92
f 9/126/91 90/330/76 17/127/92
f 6/110/79 87/109/78 89/105/74
f 3/112/81 87/109/78 6/110/79
f 32/206/130 33/201/121 79/207/122
f 43/29/23 33/201/121 32/206/130
f 42/331/158 43/29/23 32/206/130
f 30/30/24 43/29/23 42/331/158
f 100/169/32 30/30/24 42/331/158
f 39/186/124 90/330/76 9/126/91
f 69/332/116 90/330/76 39/186/124
f 74/188/114 69/332/116 39/186/124
f 6/110/79 73/173/115 78/177/119
f 89/105/74 73/173/115 6/110/79
f 45/196/112 31/184/113 34/187/125
f 100/169/32 42/331/158 32/206/130
f 22/149/103 57/146/12 21/145/101
