# Subway Surfers Super Sneaker
mtllib sneakers.mtl
v 0.788867 -0.110750 0.575321
v 0.713622 -0.110750 1.360951
v 0.641089 1.668454 -0.577689
v 0.788867 -0.110750 -0.031942
v -0.009698 1.648408 0.397152
v -0.009698 0.976897 0.884672
v -0.009698 -0.110750 -0.042362
v 0.788867 0.582994 0.032230
v 0.692966 0.582994 -0.692720
v 0.713622 0.281480 1.360951
v 0.644260 1.822770 0.465700
v -0.009698 1.963357 0.292260
v 0.307132 0.713338 1.286888
v 0.443254 0.591955 -1.067050
v 0.443111 -0.107852 -1.067050
v 0.400461 0.281480 1.695322
v 0.692459 0.529454 1.257310
v 0.384403 0.559770 1.573078
v 0.731144 1.029395 0.102524
v 0.696812 1.029395 -0.618272
v 0.459939 1.079143 -1.015601
v 0.029810 1.102581 -1.065413
v 0.740858 0.512654 0.839882
v 0.761305 0.538562 0.629946
v 0.423823 2.046211 0.483277
v 0.594635 0.835428 1.134508
v 0.058045 1.751094 -0.692389
v 0.478847 1.681887 -0.233129
v -0.009698 1.515474 0.830054
v 0.385618 1.476464 0.794338
v 0.788867 0.283043 -0.010601
v -0.808527 0.281480 0.581635
v -0.808527 0.589071 0.007326
v -0.733257 0.281480 1.360951
v -0.326636 0.713338 1.286888
v -0.323158 1.636175 0.353158
v -0.447681 -0.107852 -1.067050
v -0.419995 0.281480 1.695322
v -0.712088 0.529454 1.257310
v -0.403932 0.559770 1.573078
v -0.750785 1.035472 0.083882
v -0.657821 1.092481 -0.655768
v -0.422768 1.079143 -1.015601
v -0.760503 0.512654 0.832995
v -0.780956 0.538562 0.632342
v -0.388477 1.682570 -0.298820
v -0.390411 1.636202 0.067323
v -0.228732 1.654258 0.251192
v -0.405148 1.476464 0.772604
v -0.612969 1.428467 0.418414
v -0.808527 0.283043 -0.010601
v 0.485285 1.732264 -0.819048
v 0.015032 -0.110750 -1.109272
v 0.400461 -0.110750 1.695322
v 0.788867 0.281480 0.581400
v 0.383078 1.879809 0.230056
v 0.719986 1.594134 0.251150
v 0.681677 -0.110750 -0.719571
v 0.015032 0.589071 -1.109272
v 0.303654 1.636175 0.354721
v 0.209245 1.654258 0.251681
v 0.361020 0.960577 0.811644
v -0.373092 1.732237 -0.818792
v -0.419995 -0.110750 1.695322
v -0.402607 1.879809 0.229132
v -0.623401 0.690194 1.125045
v -0.559756 1.668454 -0.577781
v -0.701303 0.589071 -0.692720
v -0.701303 -0.110750 -0.719571
v -0.733257 -0.110750 1.360951
v -0.447681 0.591955 -1.067050
v -0.380542 0.960577 0.805638
v -0.808527 -0.110750 -0.031942
v 0.615444 1.738875 0.227934
v 0.445173 1.636202 0.073972
v 0.329743 0.883333 1.251645
v -0.009698 0.895953 1.331102
v 0.373669 1.737058 -0.571092
v -0.009698 1.154464 -0.228757
v 0.608055 1.437534 0.646696
v 0.593372 1.428467 0.446292
v 0.603801 0.690194 1.125045
v 0.605158 0.853498 0.713001
v -0.009698 0.729551 1.353535
v -0.009698 -0.110750 0.575321
v -0.009698 -0.110750 1.764939
v -0.009698 0.281480 1.764939
v -0.009698 0.572203 1.646904
v 0.057114 1.751094 -0.864851
v -0.627656 1.437534 0.610390
v -0.009698 2.129759 0.516786
v -0.443366 2.046211 0.475713
v -0.688910 1.594134 0.245268
v -0.635048 1.738875 0.239528
v -0.349255 0.883333 1.251645
v -0.624758 0.853498 0.703618
v -0.614233 0.835428 1.134508
v -0.253913 1.737566 -0.623787
v -0.009698 1.657717 0.275574
v -0.663873 1.822770 0.446892
v -0.808527 -0.110750 0.575321
vn -0.443000 0.896500 -0.009500
vn -0.003200 0.849800 -0.527200
vn 0.512900 0.747600 0.421900
vn 0.268600 0.768900 -0.580300
vn 0.925700 0.265200 0.269800
vn 0.781600 0.116400 -0.612800
vn 0.915800 0.137400 0.377400
vn 0.888500 0.292900 0.353100
vn 0.708500 0.486900 0.510800
vn 0.258400 0.658600 0.706700
vn 0.564100 0.762600 0.316600
vn 0.681900 0.529500 0.504600
vn 0.790800 0.604600 0.095100
vn 0.726700 0.669100 -0.155400
vn 0.076100 0.993300 0.087100
vn 0.582400 0.789100 0.195200
vn 0.253600 0.812000 -0.525700
vn 0.003300 0.984700 0.174000
vn 0.416000 0.848900 -0.326100
vn 0.061700 0.535500 -0.842300
vn 0.408700 0.911600 -0.043400
vn -0.317800 0.761400 -0.565100
vn -0.958500 -0.003200 -0.285200
vn -0.720800 0.692800 -0.021300
vn -0.887700 0.410700 -0.208100
vn -0.939000 0.330400 -0.096000
vn -0.687400 -0.236300 -0.686800
vn -0.829300 0.524700 0.192300
vn -0.503800 0.671400 0.543600
vn -0.358200 0.641400 0.678500
vn -0.733300 0.459800 0.500800
vn -0.752100 0.650200 0.107600
vn -0.930800 0.196700 0.308100
vn 0.042800 0.996200 0.076200
vn 0.098000 0.886000 -0.453100
vn -0.567900 0.818700 0.084800
vn 0.237200 0.749100 -0.618600
vn -0.365600 0.347300 0.863500
vn -0.022000 0.594700 -0.803700
vn -0.410200 0.910700 -0.048500
vn 0.003600 0.849800 -0.527200
vn 0.452000 0.750100 0.482800
vn 0.316600 0.743400 -0.589100
vn 0.927800 0.260900 0.266700
vn 0.770200 0.113600 -0.627600
vn 0.912300 0.135900 0.386400
vn 0.812800 0.360300 0.457700
vn 0.708400 0.487000 0.510900
vn 0.638200 0.486700 0.596500
vn 0.786500 0.612900 0.075100
vn -0.037700 0.897400 -0.439600
vn 0.740300 0.671000 0.042600
vn -0.129000 0.931100 0.341100
vn 0.587600 0.784400 0.198500
vn 0.314400 0.817900 -0.481900
vn 0.086800 0.980300 0.177600
vn 0.024100 0.540800 -0.840800
vn 0.440500 0.897800 -0.005000
vn -0.352900 0.825100 -0.441200
vn -0.939500 0.324800 -0.109200
vn -0.703800 -0.228300 -0.672700
vn -0.829100 0.525200 0.191700
vn -0.756700 0.644400 0.110100
vn -0.991900 0.121300 0.037800
vn -0.758300 0.427600 0.492100
vn 0.116900 0.907500 -0.403500
vn -0.723100 0.646100 -0.244400
vn 0.247200 0.760800 -0.600100
vn -0.059500 0.568900 -0.820300
vn -0.566800 0.818400 0.095100
vn 0.636900 0.378700 0.671500
vn 0.000000 0.485700 0.874100
vn 0.441500 0.557900 0.702700
vn -0.000000 -1.000000 -0.000000
vn 0.363000 -0.641800 0.675500
vn 0.000000 -0.773000 0.634400
vn 0.699300 -0.641200 0.315900
vn 0.714500 -0.697200 0.058400
vn 0.000300 -1.000000 -0.000900
vn 0.710300 -0.661500 -0.240500
vn 0.721200 -0.690300 -0.057600
vn 0.463300 -0.642100 -0.610800
vn 0.061400 -0.689400 -0.721800
vn 0.997500 0.006900 -0.070100
vn 0.999700 0.014200 0.017400
vn 0.948900 0.037000 -0.313300
vn 0.549600 0.058600 -0.833400
vn 0.104300 0.043100 -0.993600
vn 0.375500 0.658300 0.652500
vn 0.000000 0.470400 0.882500
vn 0.153800 0.310000 0.938200
vn 0.470900 0.130100 0.872500
vn 0.901600 0.156100 0.403400
vn 0.004000 0.531800 -0.846900
vn 0.187800 0.954300 0.232600
vn 0.073900 0.300500 -0.950900
vn 0.001800 0.620100 -0.784500
vn 0.949400 0.243300 0.198800
vn 0.838800 0.410900 0.357200
vn -0.251400 0.950900 0.180800
vn 0.992700 0.106800 0.056200
vn 0.991500 0.123100 -0.040900
vn 0.935200 0.162100 -0.314800
vn 0.517300 0.209000 -0.829900
vn 0.122000 0.193500 -0.973500
vn -0.004800 0.638200 0.769900
vn 0.329400 0.632700 0.700800
vn 0.277500 0.224000 0.934300
vn 0.154400 0.258200 0.953700
vn -0.291500 0.235600 0.927100
vn -0.953000 0.271300 0.135000
vn -0.928900 0.318900 0.188300
vn -0.993200 0.071300 0.091600
vn -0.699300 -0.641200 0.316000
vn -0.699100 -0.714200 0.034700
vn -0.363000 -0.641800 0.675500
vn -0.490000 -0.561800 -0.666500
vn -0.666900 -0.698900 -0.258400
vn -0.721200 -0.690400 -0.056400
vn -0.475200 0.035400 -0.879200
vn -0.917100 0.019900 -0.398100
vn -0.997200 0.004500 -0.075000
vn -0.353600 0.655300 0.667500
vn -0.470900 0.130100 0.872600
vn -0.901600 0.156600 0.403200
vn -0.048600 0.309100 -0.949800
vn -0.839200 0.410500 0.356600
vn -0.539900 0.165900 -0.825200
vn -0.331600 0.631900 0.700500
vn -0.994600 0.102900 0.016100
vn 0.706800 -0.668000 -0.232800
vn 0.720100 -0.691700 -0.054500
vn 0.476600 -0.641400 -0.601200
vn 0.067100 -0.689300 -0.721300
vn 0.995000 0.057100 0.082000
vn 0.993800 0.108900 -0.023000
vn 0.955600 0.052900 -0.289700
vn 0.998000 0.006100 -0.062800
vn 0.948200 0.002200 -0.317700
vn 0.535500 0.035100 -0.843800
vn 0.109800 0.043200 -0.993000
vn 0.044500 0.315500 -0.947900
vn 0.540400 0.165900 -0.824900
vn 0.007700 0.319100 -0.947700
vn -0.475000 -0.565700 -0.674100
vn -0.670000 -0.693300 -0.265600
vn -0.722400 -0.688900 -0.059600
vn -0.461700 0.059100 -0.885100
vn -0.908300 0.059700 -0.414100
vn -0.996500 0.005100 -0.083600
vn -0.077400 0.294700 -0.952500
vn 0.224400 0.949300 0.220400
vn -0.992800 0.107100 0.053400
vn -0.992100 0.125400 -0.009600
vn -0.934200 0.163800 -0.317000
vn -0.516500 0.209100 -0.830400
vn 0.948300 0.297900 0.109300
vn -0.995200 0.056200 0.079700
vt 0.801423 0.239079
vt 0.805173 0.243699
vt 0.802463 0.243686
vt 0.805563 0.241699
vt 0.899165 0.067482
vt 0.909908 0.093924
vt 0.899165 0.094221
vt 0.909677 0.088027
vt 0.751054 0.398000
vt 0.758236 0.398000
vt 0.747061 0.396010
vt 0.808767 0.224133
vt 0.814627 0.216796
vt 0.817238 0.217650
vt 0.806631 0.237183
vt 0.800296 0.226203
vt 0.867344 0.098094
vt 0.747061 0.407644
vt 0.822037 0.550658
vt 0.822037 0.550658
vt 0.822037 0.498255
vt 0.822037 0.550658
vt 0.822037 0.550658
vt 0.822037 0.550658
vt 0.899165 0.012823
vt 0.807727 0.221363
vt 0.801423 0.239079
vt 0.805563 0.241699
vt 0.863087 0.047251
vt 0.812997 0.098766
vt 0.863087 0.098766
vt 0.899165 0.094221
vt 0.909908 0.093924
vt 0.899165 0.067482
vt 0.747061 0.396010
vt 0.758236 0.398000
vt 0.751054 0.398000
vt 0.817238 0.217650
vt 0.814627 0.216796
vt 0.808767 0.224133
vt 0.802710 0.234946
vt 0.806631 0.237183
vt 0.800296 0.226203
vt 0.867344 0.098094
vt 0.747061 0.407644
vt 0.822037 0.550658
vt 0.822037 0.550658
vt 0.822037 0.550658
vt 0.822037 0.550658
vt 0.867344 0.049810
vt 0.899165 0.012823
vt 0.807727 0.221363
vt 0.801423 0.239079
vt 0.805173 0.243699
vt 0.802463 0.243686
vt 0.805563 0.241699
vt 0.899165 0.067482
vt 0.909908 0.093924
vt 0.899165 0.094221
vt 0.909677 0.088027
vt 0.751054 0.398000
vt 0.758236 0.398000
vt 0.747061 0.396010
vt 0.808767 0.224133
vt 0.814627 0.216796
vt 0.817238 0.217650
vt 0.800296 0.226203
vt 0.806631 0.237183
vt 0.802710 0.234946
vt 0.867344 0.098094
vt 0.747061 0.407644
vt 0.822037 0.550658
vt 0.822037 0.550658
vt 0.822037 0.498255
vt 0.822037 0.550658
vt 0.822037 0.550658
vt 0.822037 0.550658
vt 0.822037 0.550658
vt 0.899165 0.012823
vt 0.807727 0.221363
vt 0.801423 0.239079
vt 0.805563 0.241699
vt 0.899165 0.094221
vt 0.909908 0.093924
vt 0.899165 0.067482
vt 0.747061 0.396010
vt 0.758236 0.398000
vt 0.751054 0.398000
vt 0.817238 0.217650
vt 0.814627 0.216796
vt 0.808767 0.224133
vt 0.800296 0.226203
vt 0.806631 0.237183
vt 0.747061 0.407644
vt 0.822037 0.550658
vt 0.822037 0.550658
vt 0.822037 0.550658
vt 0.867344 0.049810
vt 0.899165 0.012823
vt 0.807727 0.221363
vt 0.867344 0.098094
vt 0.758236 0.396010
vt 0.769852 0.398000
vt 0.769852 0.396010
vt 0.795430 0.437451
vt 0.786175 0.409641
vt 0.795430 0.407893
vt 0.779060 0.417959
vt 0.777392 0.437394
vt 0.795430 0.452794
vt 0.779725 0.471116
vt 0.777348 0.452738
vt 0.785468 0.478809
vt 0.795430 0.479898
vt 0.772392 0.460885
vt 0.798353 0.460885
vt 0.798313 0.479737
vt 0.797817 0.441678
vt 0.772392 0.441678
vt 0.797817 0.432110
vt 0.772355 0.432110
vt 0.797817 0.422285
vt 0.772210 0.422285
vt 0.793719 0.449816
vt 0.793719 0.437681
vt 0.789009 0.437681
vt 0.789008 0.449816
vt 0.789009 0.462744
vt 0.772392 0.462744
vt 0.772392 0.479737
vt 0.838315 0.098637
vt 0.838315 0.098094
vt 0.867344 0.098637
vt 0.789317 0.374432
vt 0.806987 0.374432
vt 0.803821 0.386977
vt 0.802792 0.364553
vt 0.789781 0.364553
vt 0.797817 0.473080
vt 0.793719 0.462744
vt 0.797817 0.462745
vt 0.802710 0.234946
vt 0.797817 0.449816
vt 0.797817 0.437681
vt 0.812997 0.047251
vt 0.812997 0.098766
vt 0.775445 0.047913
vt 0.812997 0.018183
vt 0.863087 0.047251
vt 0.863087 0.016118
vt 0.883904 0.042103
vt 0.883904 0.012355
vt 0.909237 0.039718
vt 0.909237 0.008007
vt 0.769852 0.407746
vt 0.758236 0.407694
vt 0.800661 0.222708
vt 0.799543 0.220863
vt 0.804773 0.220024
vt 0.822037 0.550658
vt 0.867344 0.049810
vt 0.838315 0.049810
vt 0.867344 0.018511
vt 0.838315 0.018511
vt 0.789173 0.386977
vt 0.758236 0.396010
vt 0.771407 0.028565
vt 0.755540 0.043903
vt 0.775445 0.047913
vt 0.757018 0.029407
vt 0.769953 0.011844
vt 0.779060 0.417959
vt 0.777392 0.437394
vt 0.786175 0.409641
vt 0.785468 0.478809
vt 0.779725 0.471116
vt 0.777348 0.452738
vt 0.772355 0.432110
vt 0.797817 0.432110
vt 0.772392 0.441678
vt 0.797817 0.441678
vt 0.772392 0.460885
vt 0.798353 0.460885
vt 0.798313 0.479737
vt 0.793719 0.449816
vt 0.789008 0.449816
vt 0.789009 0.462744
vt 0.772392 0.462744
vt 0.772392 0.479737
vt 0.909677 0.088027
vt 0.867344 0.098637
vt 0.789317 0.374432
vt 0.806987 0.374432
vt 0.803821 0.386977
vt 0.793719 0.462744
vt 0.797817 0.473080
vt 0.797817 0.462745
vt 0.800661 0.222708
vt 0.883904 0.042103
vt 0.883904 0.012355
vt 0.863087 0.016118
vt 0.883904 0.098766
vt 0.797817 0.449816
vt 0.909237 0.098766
vt 0.758236 0.407694
vt 0.812997 0.018183
vt 0.808861 0.003646
vt 0.867344 0.018511
vt 0.789173 0.386977
vt 0.758236 0.396010
vt 0.769852 0.398000
vt 0.769852 0.396010
vt 0.795430 0.437451
vt 0.786175 0.409641
vt 0.795430 0.407893
vt 0.779060 0.417959
vt 0.777392 0.437394
vt 0.795430 0.452794
vt 0.779725 0.471116
vt 0.777348 0.452738
vt 0.785468 0.478809
vt 0.795430 0.479898
vt 0.812997 0.047251
vt 0.775445 0.047913
vt 0.812997 0.018183
vt 0.863087 0.047251
vt 0.812997 0.098766
vt 0.863087 0.098766
vt 0.772392 0.460885
vt 0.798353 0.460885
vt 0.798313 0.479737
vt 0.797817 0.441678
vt 0.772392 0.441678
vt 0.797817 0.432110
vt 0.772355 0.432110
vt 0.797817 0.422285
vt 0.772210 0.422285
vt 0.793719 0.449816
vt 0.793719 0.437681
vt 0.789009 0.437681
vt 0.789008 0.449816
vt 0.789009 0.462744
vt 0.772392 0.462744
vt 0.772392 0.479737
vt 0.838315 0.098637
vt 0.838315 0.098094
vt 0.867344 0.098637
vt 0.789317 0.374432
vt 0.806987 0.374432
vt 0.803821 0.386977
vt 0.802792 0.364553
vt 0.789781 0.364553
vt 0.797817 0.473080
vt 0.793719 0.462744
vt 0.797817 0.462745
vt 0.799543 0.220863
vt 0.804773 0.220024
vt 0.800661 0.222708
vt 0.883904 0.042103
vt 0.909237 0.039718
vt 0.909237 0.098766
vt 0.883904 0.098766
vt 0.797817 0.449816
vt 0.797817 0.437681
vt 0.863087 0.016118
vt 0.883904 0.012355
vt 0.909237 0.008007
vt 0.769852 0.407746
vt 0.758236 0.407694
vt 0.867344 0.049810
vt 0.838315 0.049810
vt 0.867344 0.018511
vt 0.838315 0.018511
vt 0.789173 0.386977
vt 0.758236 0.396010
vt 0.771407 0.028565
vt 0.755540 0.043903
vt 0.775445 0.047913
vt 0.757018 0.029407
vt 0.769953 0.011844
vt 0.779060 0.417959
vt 0.777392 0.437394
vt 0.786175 0.409641
vt 0.785468 0.478809
vt 0.779725 0.471116
vt 0.777348 0.452738
vt 0.772355 0.432110
vt 0.797817 0.432110
vt 0.772392 0.441678
vt 0.797817 0.441678
vt 0.772392 0.460885
vt 0.798353 0.460885
vt 0.798313 0.479737
vt 0.793719 0.449816
vt 0.789008 0.449816
vt 0.789009 0.462744
vt 0.772392 0.462744
vt 0.772392 0.479737
vt 0.909677 0.088027
vt 0.867344 0.098637
vt 0.789317 0.374432
vt 0.806987 0.374432
vt 0.803821 0.386977
vt 0.793719 0.462744
vt 0.797817 0.473080
vt 0.797817 0.462745
vt 0.802710 0.234946
vt 0.797817 0.449816
vt 0.812997 0.047251
vt 0.812997 0.098766
vt 0.812997 0.018183
vt 0.863087 0.047251
vt 0.863087 0.016118
vt 0.883904 0.042103
vt 0.883904 0.012355
vt 0.758236 0.407694
vt 0.808861 0.003646
vt 0.800661 0.222708
vt 0.822037 0.550658
vt 0.867344 0.018511
vt 0.789173 0.386977
vt 0.769953 0.011844
vt 0.808861 0.003646
vt 0.771407 0.028565
vt 0.755540 0.043903
vt 0.757018 0.029407
vt 0.863087 0.098766
vt 0.883904 0.098766
vt 0.772392 0.449816
vt 0.772392 0.437681
vt 0.812997 0.047251
vt 0.772392 0.449816
vt 0.769953 0.011844
vt 0.808861 0.003646
vt 0.771407 0.028565
vt 0.755540 0.043903
vt 0.757018 0.029407
vt 0.772392 0.449816
vt 0.772392 0.437681
vt 0.883904 0.098766
vt 0.863087 0.098766
vt 0.772392 0.449816

usemtl main
f 78/53/40 89/54/41 27/55/42
f 52/56/43 89/54/41 78/53/40
f 80/57/44 74/58/45 11/59/46
f 81/60/47 74/58/45 80/57/44
f 26/61/48 76/62/10 82/63/11
f 57/64/49 81/65/47 83/66/50
f 75/67/51 3/68/52 28/69/53
f 11/59/46 74/58/45 25/70/54
f 82/63/11 83/71/50 26/61/48
f 61/72/55 75/73/51 79/74/56
f 61/72/55 79/74/56 99/75/19
f 79/74/56 75/73/51 28/76/53
f 79/74/56 28/76/53 78/77/40
f 78/77/40 27/78/42 79/74/56
f 83/79/50 81/60/47 80/57/44
f 57/64/49 60/80/57 81/65/47
f 98/81/58 89/54/41 63/82/59
f 27/55/42 89/54/41 98/81/58
f 100/83/60 94/84/61 90/85/62
f 66/86/29 95/87/30 97/88/31
f 96/89/63 50/90/64 93/91/65
f 47/92/66 67/93/67 93/91/65
f 97/88/31 96/94/63 66/86/29
f 79/74/56 47/95/66 48/96/68
f 99/75/19 79/74/56 48/96/68
f 79/74/56 27/78/42 98/97/58
f 49/98/38 90/85/62 96/99/63
f 50/90/64 36/100/69 93/91/65
f 100/83/60 92/101/70 94/84/61
f 13/210/71 77/211/72 84/212/73
f 76/62/10 77/211/72 13/210/71
f 82/63/11 76/62/10 13/210/71
f 85/213/74 54/214/75 86/215/76
f 2/216/77 54/214/75 85/213/74
f 1/217/78 2/216/77 85/213/74
f 7/218/79 58/219/131 4/220/132
f 15/221/133 58/219/131 7/218/79
f 53/222/134 15/221/133 7/218/79
f 19/223/135 83/224/50 8/225/136
f 20/226/137 19/223/135 8/225/136
f 57/227/49 19/223/135 20/226/137
f 3/228/52 57/227/49 20/226/137
f 4/229/132 31/230/138 55/231/85
f 9/232/139 31/230/138 4/229/132
f 58/233/131 9/232/139 4/229/132
f 14/234/140 9/232/139 58/233/131
f 15/235/133 14/234/140 58/233/131
f 59/236/141 14/234/140 15/235/133
f 53/237/134 59/236/141 15/235/133
f 18/238/89 88/239/90 87/240/91
f 16/241/92 18/238/89 87/240/91
f 10/242/93 18/238/89 16/241/92
f 2/243/77 10/242/93 16/241/92
f 55/231/85 10/242/93 2/243/77
f 1/244/78 55/231/85 2/243/77
f 25/70/54 12/245/94 91/246/95
f 56/247/142 12/245/94 25/70/54
f 74/58/45 56/247/142 25/70/54
f 60/248/57 56/249/142 74/250/45
f 12/251/94 56/249/142 60/248/57
f 5/252/97 12/251/94 60/248/57
f 23/253/98 10/242/93 55/231/85
f 17/254/99 10/242/93 23/253/98
f 82/255/11 17/254/99 23/253/98
f 60/80/57 99/256/19 5/257/97
f 61/258/55 99/256/19 60/80/57
f 57/64/49 61/258/55 60/80/57
f 75/67/51 61/258/55 57/64/49
f 3/68/52 75/67/51 57/64/49
f 21/259/143 22/260/144 89/261/41
f 52/262/43 21/259/143 89/261/41
f 20/226/137 21/259/143 52/262/43
f 3/228/52 20/226/137 52/262/43
f 13/263/71 18/238/89 82/255/11
f 88/239/90 18/238/89 13/263/71
f 84/264/73 88/239/90 13/263/71
f 9/265/139 20/226/137 8/225/136
f 21/259/143 20/226/137 9/265/139
f 14/266/140 21/259/143 9/265/139
f 22/260/144 21/259/143 14/266/140
f 59/267/141 22/260/144 14/266/140
f 76/62/10 6/268/106 77/211/72
f 62/269/107 6/268/106 76/62/10
f 26/61/48 62/269/107 76/62/10
f 83/71/50 62/269/107 26/61/48
f 28/69/53 52/56/43 78/53/40
f 3/68/52 52/56/43 28/69/53
f 30/270/108 25/70/54 91/246/95
f 29/271/109 30/270/108 91/246/95
f 62/272/107 30/270/108 29/271/109
f 6/273/106 62/272/107 29/271/109
f 30/270/108 11/59/46 25/70/54
f 80/57/44 11/59/46 30/270/108
f 83/79/50 80/57/44 30/270/108
f 74/250/45 81/274/47 60/248/57
f 17/254/99 18/238/89 10/242/93
f 82/255/11 18/238/89 17/254/99
f 62/272/107 83/79/50 30/270/108
f 4/229/132 55/231/85 1/244/78
f 35/275/110 95/87/30 66/86/29
f 77/211/72 95/87/30 35/275/110
f 84/212/73 77/211/72 35/275/110
f 45/276/111 66/277/29 96/278/63
f 44/279/112 66/277/29 45/276/111
f 32/280/113 44/279/112 45/276/111
f 85/213/74 70/281/114 101/282/115
f 64/283/116 70/281/114 85/213/74
f 86/215/76 64/283/116 85/213/74
f 7/218/79 37/284/145 53/222/134
f 69/285/146 37/284/145 7/218/79
f 73/286/147 69/285/146 7/218/79
f 37/287/145 59/236/141 53/237/134
f 71/288/148 59/236/141 37/287/145
f 69/289/146 71/288/148 37/287/145
f 68/290/149 71/288/148 69/289/146
f 73/291/147 68/290/149 69/289/146
f 51/292/150 68/290/149 73/291/147
f 32/293/113 51/292/150 73/291/147
f 40/294/123 87/240/91 88/239/90
f 38/295/124 87/240/91 40/294/123
f 34/296/125 38/295/124 40/294/123
f 70/297/114 38/295/124 34/296/125
f 32/293/113 70/297/114 34/296/125
f 101/298/115 70/297/114 32/293/113
f 90/85/62 50/299/64 96/99/63
f 94/84/61 50/299/64 90/85/62
f 92/101/70 65/300/151 94/84/61
f 12/245/94 65/300/151 92/101/70
f 91/246/95 12/245/94 92/101/70
f 36/301/69 12/251/94 5/252/97
f 65/302/151 12/251/94 36/301/69
f 94/303/61 65/302/151 36/301/69
f 39/304/127 34/296/125 40/294/123
f 44/305/112 34/296/125 39/304/127
f 66/306/29 44/305/112 39/304/127
f 46/307/152 67/93/67 47/92/66
f 63/82/59 67/93/67 46/307/152
f 98/81/58 63/82/59 46/307/152
f 35/308/110 88/239/90 84/264/73
f 40/294/123 88/239/90 35/308/110
f 66/306/29 40/294/123 35/308/110
f 41/309/153 96/278/63 93/310/65
f 33/311/154 96/278/63 41/309/153
f 42/312/155 33/311/154 41/309/153
f 68/313/149 33/311/154 42/312/155
f 43/314/156 68/313/149 42/312/155
f 71/315/148 68/313/149 43/314/156
f 22/260/144 71/315/148 43/314/156
f 59/267/141 71/315/148 22/260/144
f 95/87/30 77/211/72 6/268/106
f 72/316/129 95/87/30 6/268/106
f 97/88/31 95/87/30 72/316/129
f 96/94/63 97/88/31 72/316/129
f 33/311/154 45/276/111 96/278/63
f 32/280/113 45/276/111 33/311/154
f 51/317/150 32/280/113 33/311/154
f 48/318/68 47/92/66 93/91/65
f 36/100/69 48/318/68 93/91/65
f 99/256/19 48/318/68 36/100/69
f 5/257/97 99/256/19 36/100/69
f 46/319/152 79/74/56 98/97/58
f 47/95/66 79/74/56 46/319/152
f 49/98/38 91/246/95 92/101/70
f 29/271/109 91/246/95 49/98/38
f 72/320/129 29/271/109 49/98/38
f 6/273/106 29/271/109 72/320/129
f 36/301/69 50/321/64 94/303/61
f 40/294/123 66/306/29 39/304/127
f 49/98/38 96/99/63 72/320/129
f 101/298/115 32/293/113 73/291/147
f 100/83/60 49/98/38 92/101/70
f 90/85/62 49/98/38 100/83/60
f 8/225/136 55/333/85 31/334/138
f 24/335/157 55/333/85 8/225/136
f 83/224/50 24/335/157 8/225/136
f 82/336/11 24/335/157 83/224/50
f 23/337/98 24/335/157 82/336/11
f 55/333/85 24/335/157 23/337/98
f 57/227/49 83/224/50 19/223/135
f 31/334/138 9/265/139 8/225/136
f 16/241/92 54/338/75 2/243/77
f 86/339/76 54/338/75 16/241/92
f 87/240/91 86/339/76 16/241/92
f 7/218/79 1/217/78 85/213/74
f 4/220/132 1/217/78 7/218/79
f 43/314/156 89/261/41 22/260/144
f 63/340/59 89/261/41 43/314/156
f 42/312/155 63/340/59 43/314/156
f 67/341/67 63/340/59 42/312/155
f 93/310/65 67/341/67 42/312/155
f 33/311/154 68/313/149 51/317/150
f 38/295/124 86/339/76 87/240/91
f 64/342/116 86/339/76 38/295/124
f 70/297/114 64/342/116 38/295/124
f 7/218/79 101/282/115 73/286/147
f 85/213/74 101/282/115 7/218/79
f 44/305/112 32/293/113 34/296/125
f 41/309/153 93/310/65 42/312/155
