# Extracted game/assets/models/train_ramp.obj
v 0.68045 0.95625 2.07007
v 0.31214 0.90263 1.99251
v 0.31214 1.00987 1.99251
v 0.31214 0.90263 1.99251
v 0.37114 0.81310 1.71236
v 0.31214 1.00987 1.99251
v -0.41828 1.10035 1.13833
v -0.51978 1.00869 1.24853
v -0.53720 1.05402 1.25861
v -0.41351 1.36545 1.10110
v -0.58722 1.30216 1.13133
v -0.58517 1.23007 0.87630
v -0.41351 1.36545 1.10110
v -0.58517 1.23007 0.87630
v -0.33038 1.16645 1.15894
v -0.57993 1.03680 1.06634
v -0.58517 1.23007 0.87630
v -0.58722 1.30216 1.13133
v 0.56846 1.61128 -0.18046
v 0.55080 1.60768 -0.05699
v 0.62096 1.44577 -0.06389
v -0.85270 2.64083 -2.62626
v -0.80018 2.39244 -2.50970
v -0.71732 2.72754 -2.60522
v -0.53645 2.41765 -2.34950
v -0.73518 2.32982 -2.20081
v -0.72809 2.43329 -2.18160
v -0.65675 2.49494 -2.49003
v -0.74736 2.61456 -2.38325
v -0.86141 2.32071 -2.35739
v 0.65851 0.62751 -3.17185
v 0.72661 0.62751 -0.52917
v 0.94985 2.79924 -0.53495
v 0.94985 2.79924 -0.53495
v 0.72661 0.62751 -0.52917
v 0.79485 0.62751 2.11850
v 0.94985 2.79924 -0.53495
v 0.79485 0.62751 2.11850
v 1.01843 2.79924 2.11271
v -0.65775 0.62751 2.15613
v -0.72672 0.62751 -0.49151
v -0.94995 2.79924 -0.48573
v -0.94995 2.79924 -0.48573
v -0.72672 0.62751 -0.49151
v -0.79556 0.62751 -3.13417
v -0.94995 2.79924 -0.48573
v -0.79556 0.62751 -3.13417
v -1.01843 2.79924 -3.12840
v 0.94985 2.79924 -0.53495
v 1.01843 2.79924 2.11271
v 0.78001 2.79923 -0.53055
v 0.78001 2.79923 -0.53055
v 1.01843 2.79924 2.11271
v 0.84860 2.79924 2.11704
v -1.01843 2.79924 -3.12840
v -0.06854 2.79924 -3.15301
v -0.84377 2.78503 -2.94650
v -0.84377 2.78503 -2.94650
v -0.06854 2.79924 -3.15301
v -0.06370 2.78503 -2.96671
v -0.94995 2.79924 -0.48573
v -1.01843 2.79924 -3.12840
v -0.78011 2.79923 -0.49013
v -0.78011 2.79923 -0.49013
v -1.01843 2.79924 -3.12840
v -0.84377 2.78503 -2.94650
v 0.71635 2.78503 -2.98693
v 0.78001 2.79923 -0.53055
v 0.67411 1.51342 -0.52780
v 0.67411 1.51342 -0.52780
v 0.78001 2.79923 -0.53055
v 0.84860 2.79924 2.11704
v 0.67411 1.51342 -0.52780
v 0.84860 2.79924 2.11704
v 0.62923 0.62768 2.12272
v -0.65775 0.62751 2.15613
v -0.88134 2.79924 2.16193
v -0.49213 0.62768 2.15178
v -0.49213 0.62768 2.15178
v -0.88134 2.79924 2.16193
v -0.71150 2.79924 2.15747
v 0.62923 0.62768 2.12272
v 0.84860 2.79924 2.11704
v 0.79485 0.62751 2.11850
v 0.79485 0.62751 2.11850
v 0.84860 2.79924 2.11704
v 1.01843 2.79924 2.11271
v -0.71150 2.79924 2.15747
v -0.78011 2.79923 -0.49013
v -0.67422 1.51342 -0.49288
v -0.67422 1.51342 -0.49288
v -0.78011 2.79923 -0.49013
v -0.84377 2.78503 -2.94650
v -0.67422 1.51342 -0.49288
v -0.84377 2.78503 -2.94650
v -0.84377 2.43408 -2.94650
v 0.59912 0.94075 2.02080
v 0.83356 0.07581 3.22657
v 0.09727 0.07581 3.24565
v 0.59912 0.94075 2.02080
v 0.09727 0.07581 3.24565
v 0.06589 0.94075 2.03463
v 0.06589 0.94075 2.03463
v 0.09727 0.07581 3.24565
v -0.63903 0.07581 3.26473
v 0.06589 0.94075 2.03463
v -0.63903 0.07581 3.26473
v -0.46734 0.94075 2.04844
v 0.59912 0.94075 2.02080
v 0.06589 0.94075 2.03463
v 0.06420 0.86494 1.96937
v 0.06420 0.86494 1.96937
v 0.06589 0.94075 2.03463
v -0.46734 0.94075 2.04844
v 0.06420 0.86494 1.96937
v -0.46734 0.94075 2.04844
v -0.46915 0.86494 1.98318
v 0.83186 0.00000 3.16131
v 0.83356 0.07581 3.22657
v 0.59753 0.86494 1.95554
v 0.59753 0.86494 1.95554
v 0.83356 0.07581 3.22657
v 0.59912 0.94075 2.02080
v -0.64071 0.00000 3.19947
v -0.46915 0.86494 1.98318
v -0.63903 0.07581 3.26473
v -0.63903 0.07581 3.26473
v -0.46915 0.86494 1.98318
v -0.46734 0.94075 2.04844
v -0.75036 0.35104 2.17190
v -0.81913 0.35104 -0.48190
v -0.91353 0.64720 -0.47944
v -0.91353 0.64720 -0.47944
v -0.81913 0.35104 -0.48190
v -0.88826 0.35104 -3.15013
v -0.91353 0.64720 -0.47944
v -0.88826 0.35104 -3.15013
v -0.98447 0.64720 -3.21739
v 0.71635 2.78503 -2.98693
v 0.71635 2.43408 -2.98693
v -0.06370 2.43408 -2.96671
v 0.71635 2.78503 -2.98693
v -0.06370 2.43408 -2.96671
v -0.06370 2.78503 -2.96671
v -0.06370 2.78503 -2.96671
v -0.06370 2.43408 -2.96671
v -0.84377 2.43408 -2.94650
v -0.06370 2.78503 -2.96671
v -0.84377 2.43408 -2.94650
v -0.84377 2.78503 -2.94650
v 0.73946 0.95625 1.78992
v 0.68045 0.95625 2.07007
v 0.55064 1.09940 1.75017
v 0.55064 1.09940 1.75017
v 0.68045 0.95625 2.07007
v 0.31214 1.00987 1.99251
v 0.73946 0.95625 1.78992
v 0.55064 1.09940 1.75017
v 0.37114 0.81310 1.71236
v 0.37114 0.81310 1.71236
v 0.55064 1.09940 1.75017
v 0.31214 1.00987 1.99251
v -0.50893 1.08683 1.04345
v -0.41828 1.10035 1.13833
v -0.58870 1.11185 1.11599
v -0.58870 1.11185 1.11599
v -0.41828 1.10035 1.13833
v -0.53720 1.05402 1.25861
v -0.51978 1.00869 1.24853
v -0.59587 0.95710 1.14521
v -0.53720 1.05402 1.25861
v -0.53720 1.05402 1.25861
v -0.59587 0.95710 1.14521
v -0.58870 1.11185 1.11599
v -0.41351 1.36545 1.10110
v -0.33038 1.16645 1.15894
v -0.58722 1.30216 1.13133
v -0.58722 1.30216 1.13133
v -0.33038 1.16645 1.15894
v -0.57993 1.03680 1.06634
v 0.71584 1.57737 0.01505
v 0.70382 1.66906 -0.15942
v 0.73792 1.53714 -0.01650
v 0.73792 1.53714 -0.01650
v 0.70382 1.66906 -0.15942
v 0.62096 1.44577 -0.06389
v 0.56846 1.61128 -0.18046
v 0.70382 1.66906 -0.15942
v 0.55080 1.60768 -0.05699
v 0.55080 1.60768 -0.05699
v 0.70382 1.66906 -0.15942
v 0.71584 1.57737 0.01505
v 0.73792 1.53714 -0.01650
v 0.62096 1.44577 -0.06389
v 0.71584 1.57737 0.01505
v 0.71584 1.57737 0.01505
v 0.62096 1.44577 -0.06389
v 0.55080 1.60768 -0.05699
v -0.70533 2.58994 -2.43075
v -0.71732 2.72754 -2.60522
v -0.68325 2.52956 -2.46230
v -0.68325 2.52956 -2.46230
v -0.71732 2.72754 -2.60522
v -0.80018 2.39244 -2.50970
v -0.85270 2.64083 -2.62626
v -0.71732 2.72754 -2.60522
v -0.87037 2.63541 -2.50280
v -0.87037 2.63541 -2.50280
v -0.71732 2.72754 -2.60522
v -0.70533 2.58994 -2.43075
v -0.68325 2.52956 -2.46230
v -0.80018 2.39244 -2.50970
v -0.70533 2.58994 -2.43075
v -0.70533 2.58994 -2.43075
v -0.80018 2.39244 -2.50970
v -0.87037 2.63541 -2.50280
v -0.65675 2.49494 -2.49003
v -0.53645 2.41765 -2.34950
v -0.74736 2.61456 -2.38325
v -0.74736 2.61456 -2.38325
v -0.53645 2.41765 -2.34950
v -0.72809 2.43329 -2.18160
v -0.73518 2.32982 -2.20081
v -0.86141 2.32071 -2.35739
v -0.72809 2.43329 -2.18160
v -0.72809 2.43329 -2.18160
v -0.86141 2.32071 -2.35739
v -0.74736 2.61456 -2.38325
v 0.65851 0.62751 -3.17185
v 0.94985 2.79924 -0.53495
v 0.88135 2.79924 -3.17762
v -0.65775 0.62751 2.15613
v -0.94995 2.79924 -0.48573
v -0.88134 2.79924 2.16193
v 0.94985 2.79924 -0.53495
v 0.78001 2.79923 -0.53055
v 0.88135 2.79924 -3.17762
v 0.88135 2.79924 -3.17762
v 0.78001 2.79923 -0.53055
v 0.71635 2.78503 -2.98693
v -0.94995 2.79924 -0.48573
v -0.78011 2.79923 -0.49013
v -0.88134 2.79924 2.16193
v -0.88134 2.79924 2.16193
v -0.78011 2.79923 -0.49013
v -0.71150 2.79924 2.15747
v 0.71635 2.78503 -2.98693
v 0.67411 1.51342 -0.52780
v 0.71635 2.43408 -2.98693
v -0.71150 2.79924 2.15747
v -0.67422 1.51342 -0.49288
v -0.49213 0.62768 2.15178
v 0.91378 0.64720 -0.52679
v 0.98436 0.64720 2.19671
v 0.00013 0.64720 -0.50311
v 0.91378 0.64720 -0.52679
v 0.00013 0.64720 -0.50311
v -0.07082 0.64720 -3.24106
v -0.07082 0.64720 -3.24106
v 0.00013 0.64720 -0.50311
v -0.91353 0.64720 -0.47944
v -0.07082 0.64720 -3.24106
v -0.91353 0.64720 -0.47944
v -0.98447 0.64720 -3.21739
v 0.84285 0.64720 -3.26473
v 0.75026 0.35104 -3.19258
v 0.91378 0.64720 -0.52679
v 0.91378 0.64720 -0.52679
v 0.75026 0.35104 -3.19258
v 0.81938 0.35104 -0.52435
v 0.91378 0.64720 -0.52679
v 0.81938 0.35104 -0.52435
v 0.88815 0.35104 2.12945
v 0.59912 0.94075 2.02080
v 0.06420 0.86494 1.96937
v 0.59753 0.86494 1.95554
v 0.91378 0.64720 -0.52679
v -0.07082 0.64720 -3.24106
v 0.84285 0.64720 -3.26473
v -0.06854 2.79924 -3.15301
v 0.88135 2.79924 -3.17762
v -0.06370 2.78503 -2.96671
v -0.06370 2.78503 -2.96671
v 0.88135 2.79924 -3.17762
v 0.71635 2.78503 -2.98693
v 0.57163 0.35968 0.57860
v 0.57606 0.10195 0.74930
v 0.58655 0.35968 1.15403
v 0.58655 0.35968 1.15403
v 0.57606 0.10195 0.74930
v 0.58655 0.10195 1.15403
v 0.58655 0.35968 1.15403
v 0.58655 0.10195 1.15403
v 0.59703 0.10195 1.55875
v 0.60145 0.35968 1.72945
v 0.59703 0.10195 1.55875
v 0.51094 0.35250 1.78914
v 0.51094 0.35250 1.78914
v 0.59703 0.10195 1.55875
v 0.50609 0.10197 1.60145
v 0.60145 0.35968 1.72945
v 0.58655 0.35968 1.15403
v 0.59703 0.10195 1.55875
v 0.49872 0.02482 1.60575
v 0.38024 0.02482 1.60882
v 0.50141 0.12918 1.71007
v 0.50141 0.12918 1.71007
v 0.38024 0.02482 1.60882
v 0.38294 0.12918 1.71314
v 0.50141 0.41429 1.71007
v 0.50141 0.12918 1.71007
v 0.38294 0.41429 1.71314
v 0.38294 0.41429 1.71314
v 0.50141 0.12918 1.71007
v 0.38294 0.12918 1.71314
v 0.38024 0.02482 1.60882
v 0.37286 0.02482 1.32381
v 0.37655 0.27174 1.46631
v 0.37655 0.27174 1.46631
v 0.37286 0.02482 1.32381
v 0.37015 0.12918 1.21949
v 0.37655 0.27174 1.46631
v 0.37015 0.12918 1.21949
v 0.37015 0.41429 1.21949
v 0.38024 0.02482 1.60882
v 0.37655 0.27174 1.46631
v 0.38294 0.12918 1.71314
v 0.38294 0.12918 1.71314
v 0.37655 0.27174 1.46631
v 0.38294 0.41429 1.71314
v 0.48863 0.41429 1.21641
v 0.48863 0.12918 1.21641
v 0.49502 0.27174 1.46324
v 0.49502 0.27174 1.46324
v 0.48863 0.12918 1.21641
v 0.49134 0.02482 1.32074
v 0.49502 0.27174 1.46324
v 0.49134 0.02482 1.32074
v 0.49872 0.02482 1.60575
v 0.50141 0.41429 1.71007
v 0.49502 0.27174 1.46324
v 0.50141 0.12918 1.71007
v 0.50141 0.12918 1.71007
v 0.49502 0.27174 1.46324
v 0.49872 0.02482 1.60575
v -0.26740 0.12918 1.72999
v -0.27010 0.02482 1.62566
v -0.38586 0.12918 1.73306
v -0.38586 0.12918 1.73306
v -0.27010 0.02482 1.62566
v -0.38857 0.02482 1.62874
v -0.26740 0.12918 1.72999
v -0.38586 0.12918 1.73306
v -0.26740 0.41429 1.72999
v -0.26740 0.41429 1.72999
v -0.38586 0.12918 1.73306
v -0.38586 0.41429 1.73306
v -0.28018 0.41429 1.23633
v -0.28018 0.12918 1.23633
v -0.27377 0.27174 1.48316
v -0.27377 0.27174 1.48316
v -0.28018 0.12918 1.23633
v -0.27747 0.02482 1.34066
v -0.27377 0.27174 1.48316
v -0.27747 0.02482 1.34066
v -0.27010 0.02482 1.62566
v -0.27010 0.02482 1.62566
v -0.26740 0.12918 1.72999
v -0.27377 0.27174 1.48316
v -0.27377 0.27174 1.48316
v -0.26740 0.12918 1.72999
v -0.26740 0.41429 1.72999
v -0.38857 0.02482 1.62874
v -0.39595 0.02482 1.34373
v -0.39226 0.27174 1.48624
v -0.39226 0.27174 1.48624
v -0.39595 0.02482 1.34373
v -0.39866 0.12918 1.23940
v -0.39226 0.27174 1.48624
v -0.39866 0.12918 1.23940
v -0.39866 0.41429 1.23940
v -0.38586 0.41429 1.73306
v -0.38586 0.12918 1.73306
v -0.39226 0.27174 1.48624
v -0.39226 0.27174 1.48624
v -0.38586 0.12918 1.73306
v -0.38857 0.02482 1.62874
v -0.48919 0.10195 1.58690
v -0.49967 0.10195 1.18218
v -0.49967 0.35968 1.18218
v -0.49967 0.35968 1.18218
v -0.49967 0.10195 1.18218
v -0.51016 0.10195 0.77746
v -0.49967 0.35968 1.18218
v -0.51016 0.10195 0.77746
v -0.51457 0.35968 0.60676
v -0.39614 0.10197 1.62482
v -0.48919 0.10195 1.58690
v -0.39128 0.35250 1.81252
v -0.39128 0.35250 1.81252
v -0.48919 0.10195 1.58690
v -0.48477 0.35968 1.75760
v -0.48919 0.10195 1.58690
v -0.49967 0.35968 1.18218
v -0.48477 0.35968 1.75760
v -0.57616 0.10195 -1.76999
v -0.57174 0.35968 -1.59929
v -0.48313 0.10197 -1.73206
v -0.48313 0.10197 -1.73206
v -0.57174 0.35968 -1.59929
v -0.47826 0.35250 -1.54435
v -0.57174 0.35968 -1.59929
v -0.57616 0.10195 -1.76999
v -0.58666 0.35968 -2.17471
v -0.58666 0.35968 -2.17471
v -0.57616 0.10195 -1.76999
v -0.58666 0.10195 -2.17471
v -0.58666 0.35968 -2.17471
v -0.58666 0.10195 -2.17471
v -0.59715 0.10195 -2.57943
v -0.60157 0.35968 -2.75013
v -0.58666 0.35968 -2.17471
v -0.59715 0.10195 -2.57943
v -0.48874 0.12918 -2.23709
v -0.48874 0.41429 -2.23709
v -0.37026 0.12918 -2.24017
v -0.37026 0.12918 -2.24017
v -0.48874 0.41429 -2.23709
v -0.37026 0.41429 -2.24017
v -0.48874 0.12918 -2.23709
v -0.37026 0.12918 -2.24017
v -0.49145 0.02482 -2.34141
v -0.49145 0.02482 -2.34141
v -0.37026 0.12918 -2.24017
v -0.37296 0.02482 -2.34448
v -0.38034 0.02482 -2.62950
v -0.37296 0.02482 -2.34448
v -0.37666 0.27174 -2.48699
v -0.37666 0.27174 -2.48699
v -0.37296 0.02482 -2.34448
v -0.37026 0.12918 -2.24017
v -0.37666 0.27174 -2.48699
v -0.37026 0.12918 -2.24017
v -0.37026 0.41429 -2.24017
v -0.38034 0.02482 -2.62950
v -0.37666 0.27174 -2.48699
v -0.38305 0.12918 -2.73381
v -0.38305 0.12918 -2.73381
v -0.37666 0.27174 -2.48699
v -0.38305 0.41429 -2.73381
v -0.48874 0.41429 -2.23709
v -0.48874 0.12918 -2.23709
v -0.49513 0.27174 -2.48392
v -0.49513 0.27174 -2.48392
v -0.48874 0.12918 -2.23709
v -0.49145 0.02482 -2.34141
v -0.49513 0.27174 -2.48392
v -0.49145 0.02482 -2.34141
v -0.49883 0.02482 -2.62643
v -0.50153 0.41429 -2.73074
v -0.49513 0.27174 -2.48392
v -0.50153 0.12918 -2.73074
v -0.50153 0.12918 -2.73074
v -0.49513 0.27174 -2.48392
v -0.49883 0.02482 -2.62643
v 0.28007 0.41429 -2.25701
v 0.39856 0.41429 -2.26008
v 0.28007 0.12918 -2.25701
v 0.28007 0.12918 -2.25701
v 0.39856 0.41429 -2.26008
v 0.39856 0.12918 -2.26008
v 0.27737 0.02482 -2.36134
v 0.28007 0.12918 -2.25701
v 0.39585 0.02482 -2.36440
v 0.39585 0.02482 -2.36440
v 0.28007 0.12918 -2.25701
v 0.39856 0.12918 -2.26008
v 0.28007 0.41429 -2.25701
v 0.28007 0.12918 -2.25701
v 0.27367 0.27174 -2.50384
v 0.27367 0.27174 -2.50384
v 0.28007 0.12918 -2.25701
v 0.27737 0.02482 -2.36134
v 0.27367 0.27174 -2.50384
v 0.27737 0.02482 -2.36134
v 0.26999 0.02482 -2.64635
v 0.26999 0.02482 -2.64635
v 0.26728 0.12918 -2.75067
v 0.27367 0.27174 -2.50384
v 0.27367 0.27174 -2.50384
v 0.26728 0.12918 -2.75067
v 0.26728 0.41429 -2.75067
v 0.38846 0.02482 -2.64942
v 0.39585 0.02482 -2.36440
v 0.39215 0.27174 -2.50691
v 0.39215 0.27174 -2.50691
v 0.39585 0.02482 -2.36440
v 0.39856 0.12918 -2.26008
v 0.39215 0.27174 -2.50691
v 0.39856 0.12918 -2.26008
v 0.39856 0.41429 -2.26008
v 0.38575 0.41429 -2.75373
v 0.38575 0.12918 -2.75373
v 0.39215 0.27174 -2.50691
v 0.39215 0.27174 -2.50691
v 0.38575 0.12918 -2.75373
v 0.38846 0.02482 -2.64942
v 0.42397 0.35250 -1.56774
v 0.51447 0.35968 -1.62744
v 0.41910 0.10197 -1.75544
v 0.41910 0.10197 -1.75544
v 0.51447 0.35968 -1.62744
v 0.51005 0.10195 -1.79814
v 0.48908 0.10195 -2.60758
v 0.49956 0.10195 -2.20286
v 0.49956 0.35968 -2.20286
v 0.49956 0.35968 -2.20286
v 0.49956 0.10195 -2.20286
v 0.51005 0.10195 -1.79814
v 0.49956 0.35968 -2.20286
v 0.51005 0.10195 -1.79814
v 0.51447 0.35968 -1.62744
v 0.48908 0.10195 -2.60758
v 0.49956 0.35968 -2.20286
v 0.48466 0.35968 -2.77828
v 0.83186 0.00000 3.16131
v 0.09558 0.00000 3.18040
v 0.09727 0.07581 3.24565
v 0.09727 0.07581 3.24565
v 0.09558 0.00000 3.18040
v -0.64071 0.00000 3.19947
v 0.09727 0.07581 3.24565
v -0.64071 0.00000 3.19947
v -0.63903 0.07581 3.26473
v -0.63114 1.29403 0.56415
v -0.70479 1.77005 -0.02962
v -0.39240 1.86743 0.03268
v -0.39240 1.86743 0.03268
v -0.70479 1.77005 -0.02962
v -0.71990 1.71710 -0.65321
v -0.39240 1.86743 0.03268
v -0.71990 1.71710 -0.65321
v -0.46888 1.82006 -0.55373
v -0.46888 1.82006 -0.55373
v -0.71990 1.71710 -0.65321
v -0.86376 2.61732 -2.94598
v -0.46888 1.82006 -0.55373
v -0.86376 2.61732 -2.94598
v 0.03583 1.68855 -0.05917
v 0.03583 1.68855 -0.05917
v -0.86376 2.61732 -2.94598
v -0.05970 2.28701 -1.78082
v 0.03583 1.68855 -0.05917
v -0.05970 2.28701 -1.78082
v 0.46139 1.89811 -1.09143
v 0.46139 1.89811 -1.09143
v -0.05970 2.28701 -1.78082
v 0.73831 2.61732 -2.98750
v 0.46139 1.89811 -1.09143
v 0.73831 2.61732 -2.98750
v 0.70931 1.53569 -0.12942
v 0.72961 1.49328 0.88357
v 0.62939 0.63107 2.12272
v 0.45952 1.41362 0.82471
v 0.45952 1.41362 0.82471
v 0.62939 0.63107 2.12272
v 0.41552 0.89796 2.00858
v 0.45952 1.41362 0.82471
v 0.41552 0.89796 2.00858
v 0.03583 1.68855 -0.05917
v 0.03583 1.68855 -0.05917
v 0.41552 0.89796 2.00858
v -0.28462 0.89643 2.02672
v 0.03583 1.68855 -0.05917
v -0.28462 0.89643 2.02672
v -0.35404 1.27563 0.70402
v -0.35404 1.27563 0.70402
v -0.28462 0.89643 2.02672
v -0.49230 0.63003 2.15179
v -0.35404 1.27563 0.70402
v -0.49230 0.63003 2.15179
v -0.63114 1.29403 0.56415
v 0.88815 0.35104 2.12945
v 0.06888 0.35104 2.15067
v 0.07069 0.64720 2.22039
v 0.07069 0.64720 2.22039
v 0.06888 0.35104 2.15067
v -0.75036 0.35104 2.17190
v 0.07069 0.64720 2.22039
v -0.75036 0.35104 2.17190
v -0.84295 0.64720 2.24406
v -0.84295 0.64720 2.24406
v -0.75036 0.35104 2.17190
v -0.91353 0.64720 -0.47944
v 0.98436 0.64720 2.19671
v 0.07069 0.64720 2.22039
v 0.00013 0.64720 -0.50311
v 0.00013 0.64720 -0.50311
v 0.07069 0.64720 2.22039
v -0.84295 0.64720 2.24406
v 0.00013 0.64720 -0.50311
v -0.84295 0.64720 2.24406
v -0.91353 0.64720 -0.47944
v 0.91378 0.64720 -0.52679
v 0.88815 0.35104 2.12945
v 0.98436 0.64720 2.19671
v 0.98436 0.64720 2.19671
v 0.88815 0.35104 2.12945
v 0.07069 0.64720 2.22039
v -0.86376 2.61732 -2.94598
v -0.22108 2.56457 -2.96264
v -0.05970 2.28701 -1.78082
v -0.05970 2.28701 -1.78082
v -0.22108 2.56457 -2.96264
v 0.09470 2.73810 -2.97082
v -0.05970 2.28701 -1.78082
v 0.09470 2.73810 -2.97082
v 0.73831 2.61732 -2.98750
v 0.03583 1.68855 -0.05917
v 0.46139 1.89811 -1.09143
v 0.45952 1.41362 0.82471
v 0.45952 1.41362 0.82471
v 0.46139 1.89811 -1.09143
v 0.70931 1.53569 -0.12942
v 0.45952 1.41362 0.82471
v 0.70931 1.53569 -0.12942
v 0.72961 1.49328 0.88357
v 0.83186 0.00000 3.16131
v 0.09727 0.07581 3.24565
v 0.83356 0.07581 3.22657
v -0.46888 1.82006 -0.55373
v 0.03583 1.68855 -0.05917
v -0.39240 1.86743 0.03268
v -0.39240 1.86743 0.03268
v 0.03583 1.68855 -0.05917
v -0.35404 1.27563 0.70402
v -0.39240 1.86743 0.03268
v -0.35404 1.27563 0.70402
v -0.63114 1.29403 0.56415
vt 0.26706 0.19458
vt 0.26338 0.19414
vt 0.26335 0.19488
vt 0.26615 0.19763
vt 0.26442 0.19713
vt 0.26612 0.19836
vt 0.02109 0.13533
vt 0.01645 0.13331
vt 0.01641 0.13466
vt 0.01979 0.10497
vt 0.01951 0.09981
vt 0.01008 0.10146
vt 0.26508 0.20320
vt 0.26391 0.20204
vt 0.26329 0.20373
vt 0.26523 0.19837
vt 0.26356 0.19702
vt 0.26285 0.19876
vt 0.02607 0.18574
vt 0.02631 0.19243
vt 0.03774 0.19209
vt 0.01897 0.11613
vt 0.01317 0.11846
vt 0.02208 0.11969
vt 0.01468 0.11651
vt 0.01857 0.11166
vt 0.01685 0.11099
vt 0.02946 0.18615
vt 0.02971 0.19284
vt 0.04114 0.19249
vt 0.40360 0.39824
vt 0.04403 0.39824
vt 0.04403 0.58660
vt 0.04403 0.58660
vt 0.04403 0.39824
vt 0.40360 0.39824
vt 0.04403 0.58660
vt 0.40360 0.39824
vt 0.40697 0.58660
vt 0.40360 0.39824
vt 0.04403 0.39824
vt 0.04403 0.58660
vt 0.04403 0.58660
vt 0.04403 0.39824
vt 0.40360 0.39824
vt 0.04403 0.58660
vt 0.40360 0.39824
vt 0.40697 0.58660
vt 0.05204 0.63642
vt 0.05204 0.66214
vt 0.02479 0.63642
vt 0.02479 0.63642
vt 0.05204 0.66214
vt 0.02479 0.66214
vt 0.05204 0.63642
vt 0.05204 0.63899
vt 0.02479 0.63642
vt 0.02479 0.63642
vt 0.05204 0.63899
vt 0.02479 0.63899
vt 0.05204 0.63642
vt 0.05204 0.63899
vt 0.02479 0.63642
vt 0.02479 0.63642
vt 0.05204 0.63899
vt 0.02479 0.63899
vt 0.37197 0.58660
vt 0.04403 0.58660
vt 0.04403 0.47342
vt 0.04403 0.47342
vt 0.04403 0.58660
vt 0.40697 0.58660
vt 0.04403 0.47342
vt 0.40697 0.58660
vt 0.40381 0.39931
vt 0.02516 0.59253
vt 0.02516 0.66145
vt 0.00058 0.59253
vt 0.00058 0.59253
vt 0.02516 0.66145
vt 0.00058 0.66145
vt 0.00058 0.59253
vt 0.00058 0.66145
vt 0.02516 0.59253
vt 0.02516 0.59253
vt 0.00058 0.66145
vt 0.02516 0.66145
vt 0.40697 0.58660
vt 0.04403 0.58660
vt 0.04403 0.47342
vt 0.04403 0.47342
vt 0.04403 0.58660
vt 0.37197 0.58660
vt 0.04403 0.47342
vt 0.37197 0.58660
vt 0.37197 0.55663
vt 0.40916 0.58762
vt 0.09269 0.58660
vt 0.09269 0.46840
vt 0.40916 0.58762
vt 0.09269 0.46840
vt 0.40826 0.49537
vt 0.40826 0.49537
vt 0.09269 0.46840
vt 0.09269 0.58660
vt 0.40826 0.49537
vt 0.09269 0.58660
vt 0.40916 0.58762
vt 0.02516 0.66261
vt 0.02516 0.60112
vt 0.00058 0.60112
vt 0.00058 0.60112
vt 0.02516 0.60112
vt 0.02516 0.66261
vt 0.00058 0.60112
vt 0.02516 0.66261
vt 0.00058 0.66261
vt 0.02516 0.65969
vt 0.00058 0.65969
vt 0.02516 0.59429
vt 0.02516 0.59429
vt 0.00058 0.65969
vt 0.00058 0.59429
vt 0.02516 0.65969
vt 0.02516 0.59429
vt 0.00058 0.65969
vt 0.00058 0.65969
vt 0.02516 0.59429
vt 0.00058 0.59429
vt 0.41498 0.54151
vt 0.55992 0.54151
vt 0.55992 0.56285
vt 0.55992 0.56285
vt 0.55992 0.54151
vt 0.41498 0.54151
vt 0.55992 0.56285
vt 0.41498 0.54151
vt 0.41498 0.56285
vt 0.35679 0.58678
vt 0.35679 0.55684
vt 0.24378 0.55684
vt 0.35679 0.58678
vt 0.24378 0.55684
vt 0.24377 0.58678
vt 0.24377 0.58678
vt 0.24378 0.55684
vt 0.35624 0.55684
vt 0.24377 0.58678
vt 0.35624 0.55684
vt 0.35624 0.58678
vt 0.26729 0.19024
vt 0.26670 0.18831
vt 0.26538 0.19051
vt 0.26538 0.19051
vt 0.26670 0.18831
vt 0.26297 0.18884
vt 0.26723 0.19158
vt 0.26538 0.19051
vt 0.26349 0.19249
vt 0.26349 0.19249
vt 0.26538 0.19051
vt 0.26288 0.19113
vt 0.01724 0.13855
vt 0.02149 0.14055
vt 0.01929 0.13582
vt 0.01929 0.13582
vt 0.02149 0.14055
vt 0.02498 0.13640
vt 0.03952 0.21820
vt 0.03209 0.21544
vt 0.04020 0.22065
vt 0.04020 0.22065
vt 0.03209 0.21544
vt 0.03003 0.22383
vt 0.26221 0.20139
vt 0.26396 0.20199
vt 0.26282 0.20021
vt 0.26282 0.20021
vt 0.26396 0.20199
vt 0.26519 0.20032
vt 0.01341 0.11099
vt 0.01124 0.11651
vt 0.01513 0.11166
vt 0.01513 0.11166
vt 0.01124 0.11651
vt 0.01889 0.11261
vt 0.02407 0.20316
vt 0.02579 0.21049
vt 0.03275 0.20197
vt 0.03275 0.20197
vt 0.02579 0.21049
vt 0.03812 0.21082
vt 0.03774 0.19772
vt 0.02958 0.19280
vt 0.03612 0.19992
vt 0.03612 0.19992
vt 0.02958 0.19280
vt 0.02460 0.20164
vt 0.01685 0.11099
vt 0.01468 0.11651
vt 0.01857 0.11166
vt 0.01857 0.11166
vt 0.01468 0.11651
vt 0.02232 0.11261
vt 0.02746 0.20357
vt 0.02918 0.21090
vt 0.03614 0.20238
vt 0.03614 0.20238
vt 0.02918 0.21090
vt 0.04152 0.21123
vt 0.04113 0.19813
vt 0.03297 0.19321
vt 0.03951 0.20033
vt 0.03951 0.20033
vt 0.03297 0.19321
vt 0.02799 0.20205
vt 0.02746 0.20357
vt 0.02918 0.21090
vt 0.03614 0.20238
vt 0.03614 0.20238
vt 0.02918 0.21090
vt 0.04152 0.21123
vt 0.04113 0.19813
vt 0.03297 0.19321
vt 0.03951 0.20033
vt 0.03951 0.20033
vt 0.03297 0.19321
vt 0.02799 0.20205
vt 0.40360 0.39824
vt 0.04403 0.58660
vt 0.40697 0.58660
vt 0.40360 0.39824
vt 0.04403 0.58660
vt 0.40697 0.58660
vt 0.05204 0.63899
vt 0.02479 0.63899
vt 0.05204 0.63642
vt 0.05204 0.63642
vt 0.02479 0.63899
vt 0.02479 0.63642
vt 0.05204 0.63899
vt 0.02479 0.63899
vt 0.05204 0.66214
vt 0.05204 0.66214
vt 0.02479 0.63899
vt 0.02479 0.66214
vt 0.37197 0.58660
vt 0.04403 0.47342
vt 0.37197 0.55663
vt 0.40697 0.58660
vt 0.04403 0.47342
vt 0.40381 0.39931
vt 0.36706 0.90703
vt 0.36706 0.81569
vt 0.39132 0.90703
vt 0.36706 0.90703
vt 0.39132 0.90703
vt 0.39132 0.81569
vt 0.39132 0.81569
vt 0.39132 0.90703
vt 0.36706 0.90703
vt 0.39132 0.81569
vt 0.36706 0.90703
vt 0.36706 0.81569
vt 0.41498 0.56285
vt 0.41498 0.54151
vt 0.55992 0.56285
vt 0.55992 0.56285
vt 0.41498 0.54151
vt 0.55992 0.54151
vt 0.55992 0.56285
vt 0.55992 0.54151
vt 0.41498 0.54151
vt 0.02516 0.66261
vt 0.00058 0.60112
vt 0.00058 0.66261
vt 0.36706 0.90703
vt 0.39132 0.81569
vt 0.36706 0.81569
vt 0.05204 0.63642
vt 0.05204 0.63899
vt 0.02479 0.63642
vt 0.02479 0.63642
vt 0.05204 0.63899
vt 0.02479 0.63899
vt 0.61362 0.46378
vt 0.55414 0.53977
vt 0.41513 0.46378
vt 0.41513 0.46378
vt 0.55414 0.53977
vt 0.41513 0.53977
vt 0.41513 0.46378
vt 0.41513 0.53977
vt 0.55397 0.53977
vt 0.51882 0.58573
vt 0.41397 0.58573
vt 0.51882 0.57253
vt 0.51882 0.57253
vt 0.41397 0.58573
vt 0.41397 0.57253
vt 0.61344 0.46378
vt 0.41513 0.46378
vt 0.55397 0.53977
vt 0.46572 0.58443
vt 0.46572 0.56625
vt 0.44505 0.58443
vt 0.44505 0.58443
vt 0.46572 0.56625
vt 0.44505 0.56625
vt 0.44505 0.58443
vt 0.46572 0.58443
vt 0.44505 0.56625
vt 0.44505 0.56625
vt 0.46572 0.58443
vt 0.46572 0.56625
vt 0.45578 0.56747
vt 0.45578 0.56747
vt 0.45458 0.57652
vt 0.45458 0.57652
vt 0.45578 0.56747
vt 0.45385 0.56747
vt 0.45458 0.57652
vt 0.45385 0.56747
vt 0.45385 0.56747
vt 0.45578 0.56747
vt 0.45458 0.57652
vt 0.45385 0.56747
vt 0.45385 0.56747
vt 0.45458 0.57652
vt 0.45384 0.56747
vt 0.45384 0.58514
vt 0.45384 0.58514
vt 0.45458 0.53852
vt 0.45458 0.53852
vt 0.45384 0.58514
vt 0.45577 0.58514
vt 0.45458 0.53852
vt 0.45577 0.58514
vt 0.45579 0.58514
vt 0.45386 0.58514
vt 0.45458 0.53852
vt 0.45386 0.58514
vt 0.45386 0.58514
vt 0.45458 0.53852
vt 0.45579 0.58514
vt 0.44505 0.56625
vt 0.46572 0.56625
vt 0.44505 0.58443
vt 0.44505 0.58443
vt 0.46572 0.56625
vt 0.46572 0.58443
vt 0.46572 0.56625
vt 0.46572 0.58443
vt 0.44505 0.56625
vt 0.44505 0.56625
vt 0.46572 0.58443
vt 0.44505 0.58443
vt 0.45385 0.56747
vt 0.45385 0.56747
vt 0.45458 0.57652
vt 0.45458 0.57652
vt 0.45385 0.56747
vt 0.45578 0.56747
vt 0.45458 0.57652
vt 0.45578 0.56747
vt 0.45578 0.56747
vt 0.45578 0.56747
vt 0.45385 0.56747
vt 0.45458 0.57652
vt 0.45458 0.57652
vt 0.45385 0.56747
vt 0.45384 0.56747
vt 0.45579 0.58514
vt 0.45577 0.58514
vt 0.45458 0.53852
vt 0.45458 0.53852
vt 0.45577 0.58514
vt 0.45384 0.58514
vt 0.45458 0.53852
vt 0.45384 0.58514
vt 0.45384 0.58514
vt 0.45386 0.58514
vt 0.45386 0.58514
vt 0.45458 0.53852
vt 0.45458 0.53852
vt 0.45386 0.58514
vt 0.45579 0.58514
vt 0.55397 0.53977
vt 0.41513 0.53977
vt 0.41513 0.46378
vt 0.41513 0.46378
vt 0.41513 0.53977
vt 0.55414 0.53977
vt 0.41513 0.46378
vt 0.55414 0.53977
vt 0.61362 0.46378
vt 0.41397 0.57253
vt 0.41397 0.58573
vt 0.51882 0.57253
vt 0.51882 0.57253
vt 0.41397 0.58573
vt 0.51882 0.58573
vt 0.55397 0.53977
vt 0.41513 0.46378
vt 0.61344 0.46378
vt 0.41397 0.58573
vt 0.51882 0.58573
vt 0.41397 0.57253
vt 0.41397 0.57253
vt 0.51882 0.58573
vt 0.51882 0.57253
vt 0.61362 0.46378
vt 0.55414 0.53977
vt 0.41513 0.46378
vt 0.41513 0.46378
vt 0.55414 0.53977
vt 0.41513 0.53977
vt 0.41513 0.46378
vt 0.41513 0.53977
vt 0.55397 0.53977
vt 0.61344 0.46378
vt 0.41513 0.46378
vt 0.55397 0.53977
vt 0.44505 0.58443
vt 0.46572 0.58443
vt 0.44505 0.56625
vt 0.44505 0.56625
vt 0.46572 0.58443
vt 0.46572 0.56625
vt 0.46572 0.58443
vt 0.46572 0.56625
vt 0.44505 0.58443
vt 0.44505 0.58443
vt 0.46572 0.56625
vt 0.44505 0.56625
vt 0.45578 0.56747
vt 0.45578 0.56747
vt 0.45458 0.57652
vt 0.45458 0.57652
vt 0.45578 0.56747
vt 0.45385 0.56747
vt 0.45458 0.57652
vt 0.45385 0.56747
vt 0.45385 0.56747
vt 0.45578 0.56747
vt 0.45458 0.57652
vt 0.45385 0.56747
vt 0.45385 0.56747
vt 0.45458 0.57652
vt 0.45384 0.56747
vt 0.45384 0.58514
vt 0.45384 0.58514
vt 0.45458 0.53852
vt 0.45458 0.53852
vt 0.45384 0.58514
vt 0.45577 0.58514
vt 0.45458 0.53852
vt 0.45577 0.58514
vt 0.45579 0.58514
vt 0.45386 0.58514
vt 0.45458 0.53852
vt 0.45386 0.58514
vt 0.45386 0.58514
vt 0.45458 0.53852
vt 0.45579 0.58514
vt 0.46572 0.56625
vt 0.46572 0.58443
vt 0.44505 0.56625
vt 0.44505 0.56625
vt 0.46572 0.58443
vt 0.44505 0.58443
vt 0.44505 0.56625
vt 0.46572 0.56625
vt 0.44505 0.58443
vt 0.44505 0.58443
vt 0.46572 0.56625
vt 0.46572 0.58443
vt 0.45385 0.56747
vt 0.45385 0.56747
vt 0.45458 0.57652
vt 0.45458 0.57652
vt 0.45385 0.56747
vt 0.45578 0.56747
vt 0.45458 0.57652
vt 0.45578 0.56747
vt 0.45578 0.56747
vt 0.45578 0.56747
vt 0.45385 0.56747
vt 0.45458 0.57652
vt 0.45458 0.57652
vt 0.45385 0.56747
vt 0.45384 0.56747
vt 0.45579 0.58514
vt 0.45577 0.58514
vt 0.45458 0.53852
vt 0.45458 0.53852
vt 0.45577 0.58514
vt 0.45384 0.58514
vt 0.45458 0.53852
vt 0.45384 0.58514
vt 0.45384 0.58514
vt 0.45386 0.58514
vt 0.45386 0.58514
vt 0.45458 0.53852
vt 0.45458 0.53852
vt 0.45386 0.58514
vt 0.45579 0.58514
vt 0.51882 0.57253
vt 0.51882 0.58573
vt 0.41397 0.57253
vt 0.41397 0.57253
vt 0.51882 0.58573
vt 0.41397 0.58573
vt 0.55397 0.53977
vt 0.41513 0.53977
vt 0.41513 0.46378
vt 0.41513 0.46378
vt 0.41513 0.53977
vt 0.55414 0.53977
vt 0.41513 0.46378
vt 0.55414 0.53977
vt 0.61362 0.46378
vt 0.55397 0.53977
vt 0.41513 0.46378
vt 0.61344 0.46378
vt 0.08622 0.58638
vt 0.08622 0.46840
vt 0.09269 0.46840
vt 0.09269 0.46840
vt 0.08622 0.46840
vt 0.08622 0.58615
vt 0.09269 0.46840
vt 0.08622 0.58615
vt 0.09269 0.58660
vt 0.23869 0.26768
vt 0.24888 0.21624
vt 0.18711 0.20981
vt 0.18711 0.20981
vt 0.24888 0.21624
vt 0.25449 0.18951
vt 0.18711 0.20981
vt 0.25449 0.18951
vt 0.20268 0.18469
vt 0.20268 0.18469
vt 0.25449 0.18951
vt 0.28215 0.00916
vt 0.20268 0.18469
vt 0.28215 0.00916
vt 0.11768 0.21759
vt 0.11768 0.21759
vt 0.28215 0.00916
vt 0.13890 0.11190
vt 0.11768 0.21759
vt 0.13890 0.11190
vt 0.04760 0.15579
vt 0.04760 0.15579
vt 0.13890 0.11190
vt 0.00327 0.00916
vt 0.04760 0.15579
vt 0.00327 0.00916
vt 0.02433 0.22171
vt 0.03654 0.28580
vt 0.05144 0.39320
vt 0.06543 0.27800
vt 0.06543 0.27800
vt 0.05144 0.39320
vt 0.08323 0.38094
vt 0.06543 0.27800
vt 0.08323 0.38094
vt 0.11768 0.21759
vt 0.11768 0.21759
vt 0.08323 0.38094
vt 0.18883 0.38094
vt 0.11768 0.21759
vt 0.18883 0.38094
vt 0.18775 0.26192
vt 0.18775 0.26192
vt 0.18883 0.38094
vt 0.22062 0.39320
vt 0.18775 0.26192
vt 0.22062 0.39320
vt 0.23869 0.26768
vt 0.41498 0.54151
vt 0.44638 0.54151
vt 0.44638 0.56285
vt 0.44638 0.56285
vt 0.44638 0.54151
vt 0.41498 0.54151
vt 0.44638 0.56285
vt 0.41498 0.54151
vt 0.41498 0.56285
vt 0.41498 0.56285
vt 0.41498 0.54151
vt 0.55992 0.56285
vt 0.36706 0.81569
vt 0.39132 0.81569
vt 0.39132 0.90703
vt 0.39132 0.90703
vt 0.39132 0.81569
vt 0.36706 0.81569
vt 0.39132 0.90703
vt 0.36706 0.81569
vt 0.36706 0.90703
vt 0.55992 0.56285
vt 0.41498 0.54151
vt 0.41498 0.56285
vt 0.41498 0.56285
vt 0.41498 0.54151
vt 0.44638 0.56285
vt 0.28215 0.00916
vt 0.16639 0.00916
vt 0.13890 0.11190
vt 0.13890 0.11190
vt 0.16639 0.00916
vt 0.11192 0.00916
vt 0.13890 0.11190
vt 0.11192 0.00916
vt 0.00327 0.00916
vt 0.11768 0.21759
vt 0.04760 0.15579
vt 0.06543 0.27800
vt 0.06543 0.27800
vt 0.04760 0.15579
vt 0.02433 0.22171
vt 0.06543 0.27800
vt 0.02433 0.22171
vt 0.03654 0.28580
vt 0.08622 0.58638
vt 0.09269 0.46840
vt 0.09269 0.58660
vt 0.20268 0.18469
vt 0.11768 0.21759
vt 0.18711 0.20981
vt 0.18711 0.20981
vt 0.11768 0.21759
vt 0.18775 0.26192
vt 0.18711 0.20981
vt 0.18775 0.26192
vt 0.23869 0.26768
vn 0.978537 0 0.2060724
vn 0.978537 0 0.2060724
vn 0.978537 0 0.2060724
vn -0.206075 0 0.9785365
vn -0.3747536 0.2673846 0.8877305
vn -0.3747536 0.2673846 0.8877305
vn 0.7192754 0.1040787 -0.6868851
vn 0.7192754 0.1040787 -0.6868851
vn 0.7192754 0.1040787 -0.6868851
vn -0.2554981 0.893268 0.3698555
vn -0.2554981 0.893268 0.3698555
vn -0.2554981 0.893268 0.3698555
vn -0.6486194 0.1250306 -0.7507734
vn -0.6486194 0.1250306 -0.7507734
vn -0.6486194 0.1250306 -0.7507734
vn -0.0003189836 -0.02735285 0.9996259
vn -0.0003189836 -0.02735285 0.9996259
vn -0.0003189836 -0.02735285 0.9996259
vn -0.141553 -0.3885803 0.910477
vn -0.141553 -0.3885803 0.910477
vn -0.141553 -0.3885803 0.910477
vn -0.8740098 -0.3359478 -0.3510646
vn -0.7764933 -0.3507809 -0.5234607
vn -0.7764933 -0.3507809 -0.5234607
vn 0.746916 -0.1823909 -0.639414
vn 0.746916 -0.1823909 -0.639414
vn 0.746916 -0.1823909 -0.639414
vn -0.7469094 0.1824072 0.6394171
vn -0.7469094 0.1824072 0.6394171
vn -0.7469094 0.1824072 0.6394171
vn -0.02569845 -0.1022009 -0.994432
vn -0.02562964 -0.102284 -0.9944252
vn -0.02569841 -0.1022839 -0.9944234
vn -0.02569841 -0.1022839 -0.9944234
vn -0.02562964 -0.102284 -0.9944252
vn -0.0256983 -0.1023668 -0.9944148
vn -0.02569841 -0.1022839 -0.9944234
vn -0.0256983 -0.1023668 -0.9944148
vn -0.02576659 -0.1024495 -0.9944046
vn 0.02583552 -0.1023668 0.9944112
vn 0.02590467 -0.102284 0.994418
vn 0.02583593 -0.1022839 0.9944198
vn 0.02583593 -0.1022839 0.9944198
vn 0.02590467 -0.102284 0.994418
vn 0.02583628 -0.1022009 0.9944283
vn 0.02583593 -0.1022839 0.9944198
vn 0.02583628 -0.1022009 0.9944283
vn 0.02576756 -0.1021178 0.9944387
vn 4.617609E-07 1 1.779459E-05
vn -1.053585E-06 1 8.930227E-06
vn -3.104501E-07 1 1.187885E-05
vn -3.104501E-07 1 1.187885E-05
vn -1.053585E-06 1 8.930227E-06
vn -1.854872E-06 1 4.735909E-08
vn 0.0226706 0.9992772 -0.03051419
vn 0.07597785 0.9971076 -0.001968718
vn 0.04803904 0.9983591 -0.03116702
vn 0.04803904 0.9983591 -0.03116702
vn 0.07597785 0.9971076 -0.001968718
vn 0.07597785 0.9971076 -0.001968718
vn -4.604159E-07 1 -1.779462E-05
vn 0.0226706 0.9992772 -0.03051419
vn -0.002694178 0.999551 -0.02984218
vn -0.002694178 0.999551 -0.02984218
vn 0.0226706 0.9992772 -0.03051419
vn 0.04803904 0.9983591 -0.03116702
vn 0.004087124 0.04109675 0.9991471
vn 0.02557832 0.0821055 0.9962956
vn 0.01269496 0.06624968 0.9977224
vn 0.01269496 0.06624968 0.9977224
vn 0.02557832 0.0821055 0.9962956
vn 0.02128496 0.09133011 0.9955933
vn 0.01269496 0.06624968 0.9977224
vn 0.02128496 0.09133011 0.9955933
vn 0.01675222 0.100545 0.9947917
vn 0.9996545 4.006068E-05 -0.02629183
vn 0.9996547 3.92004E-05 -0.02628706
vn 0.9996547 3.92004E-05 -0.02628706
vn 0.9996547 3.92004E-05 -0.02628706
vn 0.9996547 3.92004E-05 -0.02628706
vn 0.9996548 3.834012E-05 -0.02628223
vn 0.9996746 3.930999E-05 -0.02551418
vn 0.9996746 3.930999E-05 -0.02551418
vn 0.9996744 3.919117E-05 -0.02551895
vn 0.9996744 3.919117E-05 -0.02551895
vn 0.9996743 3.907235E-05 -0.02552373
vn 0.9996743 3.907235E-05 -0.02552373
vn -0.03030404 0.09133012 -0.9953596
vn -0.0260528 0.0821055 -0.9962833
vn -0.03899278 0.06624968 -0.997041
vn -0.03899278 0.06624968 -0.997041
vn -0.0260528 0.0821055 -0.9962833
vn -0.04766266 0.04109675 -0.998018
vn -0.03899278 0.06624968 -0.997041
vn -0.04766266 0.04109675 -0.998018
vn -0.06893349 0 -0.9976215
vn 0.5808716 0.8138562 -0.01505142
vn 0.5808715 0.8138562 -0.01505142
vn 0.5808716 0.8138561 -0.01505142
vn 0.5808716 0.8138562 -0.01505142
vn 0.5808716 0.8138561 -0.01505142
vn 0.5808716 0.8138561 -0.01505142
vn 0.5808716 0.8138561 -0.01505142
vn 0.5808716 0.8138561 -0.01505142
vn 0.5808716 0.8138562 -0.01505142
vn 0.5808716 0.8138561 -0.01505142
vn 0.5808716 0.8138562 -0.01505142
vn 0.5808715 0.8138562 -0.01505142
vn -0.7575121 0.6525262 0.01962847
vn -0.7575121 0.6525262 0.01962847
vn -0.7575121 0.6525262 0.01962847
vn -0.7575121 0.6525262 0.01962847
vn -0.7575121 0.6525262 0.01962847
vn -0.7575121 0.6525262 0.01962847
vn -0.7575121 0.6525262 0.01962847
vn -0.7575121 0.6525262 0.01962847
vn -0.7575121 0.6525262 0.01962847
vn -0.1284432 0.08853793 -0.987757
vn -0.1281392 0.08902622 -0.9877524
vn -0.1281392 0.08902622 -0.9877524
vn -0.1281392 0.08902622 -0.9877524
vn -0.1281392 0.08902622 -0.9877524
vn -0.1278353 0.08951451 -0.9877478
vn -0.07711633 0.08853799 0.9930833
vn -0.076813 0.08902628 0.993063
vn -0.076813 0.08902628 0.993063
vn -0.076813 0.08902628 0.993063
vn -0.076813 0.08902628 0.993063
vn -0.07650965 0.08951455 0.9930427
vn 0.02467893 -0.303773 0.9524249
vn 0.02467895 -0.3037729 0.9524249
vn 0.02467893 -0.3037729 0.9524249
vn 0.02467893 -0.3037729 0.9524249
vn 0.02467895 -0.3037729 0.9524249
vn 0.02467893 -0.3037728 0.9524249
vn 0.02467893 -0.3037729 0.9524249
vn 0.02467893 -0.3037728 0.9524249
vn 0.02467892 -0.3037727 0.9524249
vn 0.9996647 0 -0.02590306
vn 0.9996647 0 -0.02590306
vn 0.9996647 0 -0.02590306
vn 0.9996647 0 -0.02590306
vn 0.9996647 0 -0.02590306
vn 0.9996647 0 -0.02590306
vn 0.9996647 0 -0.02590306
vn 0.9996647 0 -0.02590306
vn 0.9996647 0 -0.02590306
vn 0.9996647 0 -0.02590306
vn 0.9996647 0 -0.02590306
vn 0.9996647 0 -0.02590306
vn 0.1227818 0.8031277 -0.5830186
vn 0.2692351 0.9036804 -0.3329778
vn 0.2692351 0.9036804 -0.3329778
vn 0.2692351 0.9036804 -0.3329778
vn 0.2692351 0.9036804 -0.3329778
vn 0.3903589 0.9192151 -0.05161048
vn -0.9785359 -1.271601E-06 -0.2060777
vn -0.9785359 -1.271601E-06 -0.2060777
vn -0.9785359 -1.271601E-06 -0.2060777
vn -0.3747536 0.2673846 0.8877305
vn -0.5028868 0.5058402 0.7008786
vn -0.3747536 0.2673846 0.8877305
vn -0.2291972 0.9686899 -0.09543863
vn 0.07461687 0.9955581 -0.05741355
vn 0.07461687 0.9955581 -0.05741355
vn 0.07461687 0.9955581 -0.05741355
vn 0.07461687 0.9955581 -0.05741355
vn 0.3713818 0.9283752 -0.01396457
vn 0.6644372 -0.3924355 0.6360171
vn 0.5507835 -0.1471537 0.8215739
vn 0.5507835 -0.1471537 0.8215739
vn 0.5507835 -0.1471537 0.8215739
vn 0.5507835 -0.1471537 0.8215739
vn 0.3779142 0.1139487 0.9188018
vn 0.9521619 0.3003579 -0.05633023
vn 0.9954319 0.03297254 0.08960207
vn 0.9954319 0.03297254 0.08960207
vn 0.9954319 0.03297254 0.08960207
vn 0.9954319 0.03297254 0.08960207
vn 0.9444709 -0.2375342 0.2270522
vn 0.1415512 0.3885783 -0.9104782
vn 0.1415512 0.3885783 -0.9104782
vn 0.1415512 0.3885783 -0.9104782
vn -0.6032796 -0.491231 -0.6282881
vn -0.6032796 -0.491231 -0.6282881
vn -0.6032796 -0.491231 -0.6282881
vn -0.0286849 0.9209583 0.388604
vn 0.229999 0.9466386 0.2257782
vn 0.229999 0.9466386 0.2257782
vn 0.229999 0.9466386 0.2257782
vn 0.229999 0.9466386 0.2257782
vn 0.4670425 0.8832507 0.04170918
vn 0.8117899 -0.5719292 -0.1178745
vn 0.8933417 -0.4192374 0.1618046
vn 0.8933417 -0.4192374 0.1618046
vn 0.8933417 -0.4192374 0.1618046
vn 0.8933417 -0.4192374 0.1618046
vn 0.8782467 -0.22119 0.4239788
vn 0.1479073 0.2705361 -0.9512801
vn 0.1479073 0.2705361 -0.9512801
vn 0.1479073 0.2705361 -0.9512801
vn -0.6483442 -0.3517758 -0.6752064
vn -0.7764933 -0.3507809 -0.5234607
vn -0.7764933 -0.3507809 -0.5234607
vn -0.03941333 0.844203 0.5345727
vn -0.03941333 0.844203 0.5345727
vn -0.03941333 0.844203 0.5345727
vn 0.6206693 0.782111 0.05542803
vn 0.6206693 0.782111 0.05542803
vn 0.6206693 0.782111 0.05542803
vn 0.8974839 -0.4213496 -0.1303355
vn 0.9407277 -0.3003232 0.1575997
vn 0.9407277 -0.3003232 0.1575997
vn 0.9407277 -0.3003232 0.1575997
vn 0.9407277 -0.3003232 0.1575997
vn 0.8904404 -0.1494374 0.4298657
vn -0.2020325 0.6995658 -0.6854129
vn -0.2020325 0.6995658 -0.6854129
vn -0.2020325 0.6995658 -0.6854129
vn 0.5399734 0.6566066 -0.5265898
vn 0.5399734 0.6566066 -0.5265898
vn 0.5399734 0.6566066 -0.5265898
vn 0.6285689 -0.06363712 0.7751462
vn 0.5327728 0.1535209 0.8322167
vn 0.5327728 0.1535209 0.8322167
vn 0.5327728 0.1535209 0.8322167
vn 0.5327728 0.1535209 0.8322167
vn 0.4052279 0.3615304 0.8396941
vn -0.02569845 -0.1022009 -0.994432
vn -0.02569841 -0.1022839 -0.9944234
vn -0.0257677 -0.1021178 -0.9944387
vn 0.02583552 -0.1023668 0.9944112
vn 0.02583593 -0.1022839 0.9944198
vn 0.02576674 -0.1024495 0.9944046
vn 4.617609E-07 1 1.779459E-05
vn -3.104501E-07 1 1.187885E-05
vn 0.03718801 0.9990774 0.02148027
vn 0.03718801 0.9990774 0.02148027
vn -0.003433077 0.9959621 0.08970888
vn -0.003433077 0.9959621 0.08970888
vn -4.604159E-07 1 -1.779462E-05
vn -0.002694178 0.999551 -0.02984218
vn -1.514656E-06 1 -8.863678E-06
vn -1.514656E-06 1 -8.863678E-06
vn -1.854836E-06 1 4.876598E-08
vn -1.854836E-06 1 4.876598E-08
vn 0.004087124 0.04109675 0.9991471
vn 0.01269496 0.06624968 0.9977224
vn -0.0171756 0 0.9998527
vn -0.03030404 0.09133012 -0.9953596
vn -0.03899278 0.06624968 -0.997041
vn -0.03478911 0.100545 -0.9943243
vn 0 1 0
vn 0 1 0
vn 0 1 0
vn 0 1 0
vn 0 1 0
vn 0 1 0
vn 0 1 0
vn 0 1 0
vn 0 1 0
vn 0 1 0
vn 0 1 0
vn 0 1 0
vn -0.02467892 -0.3037732 -0.9524248
vn -0.02467893 -0.303773 -0.9524249
vn -0.02467893 -0.3037729 -0.9524249
vn -0.02467893 -0.3037729 -0.9524249
vn -0.02467893 -0.303773 -0.9524249
vn -0.02467895 -0.3037729 -0.9524249
vn -0.02467893 -0.3037729 -0.9524249
vn -0.02467895 -0.3037729 -0.9524249
vn -0.02467893 -0.3037728 -0.9524249
vn -0.7575121 0.6525262 0.01962847
vn -0.7575121 0.6525262 0.01962847
vn -0.7575121 0.6525262 0.01962847
vn 0 1 0
vn 0 1 0
vn 0 1 0
vn 0.07597785 0.9971076 -0.001968718
vn 0.03718801 0.9990774 0.02148027
vn 0.07597785 0.9971076 -0.001968718
vn 0.07597785 0.9971076 -0.001968718
vn 0.03718801 0.9990774 0.02148027
vn 0.07597785 0.9971076 -0.001968718
vn -0.02590298 5.439011E-08 -0.9996647
vn -0.02590296 2.719506E-08 -0.9996647
vn -0.02590296 -7.549517E-14 -0.9996647
vn -0.02590296 -7.549517E-14 -0.9996647
vn -0.02590296 2.719506E-08 -0.9996647
vn -0.02590295 0 -0.9996647
vn -0.02590296 -7.549517E-14 -0.9996647
vn -0.02590295 0 -0.9996647
vn -0.02590296 -2.719521E-08 -0.9996647
vn 0.7136358 -0.4814131 -0.5088868
vn 0.733043 -0.5258936 -0.4313746
vn 0.733043 -0.5258936 -0.4313746
vn 0.733043 -0.5258936 -0.4313746
vn 0.733043 -0.5258936 -0.4313746
vn 0.7463197 -0.5659758 -0.3502548
vn -0.02590298 -5.439042E-08 -0.9996647
vn -0.02590296 -7.549517E-14 -0.9996647
vn -0.02590296 -2.719521E-08 -0.9996647
vn 0.7068701 -0.7071064 -0.01831626
vn 0.7068701 -0.7071064 -0.01831626
vn 0.7068701 -0.7071064 -0.01831626
vn 0.7068701 -0.7071064 -0.01831626
vn 0.7068701 -0.7071064 -0.01831626
vn 0.7068701 -0.7071064 -0.01831626
vn 0.9996647 0 -0.02590306
vn 0.9996647 0 -0.02590306
vn 0.9996647 0 -0.02590306
vn 0.9996647 0 -0.02590306
vn 0.9996647 0 -0.02590306
vn 0.9996647 0 -0.02590306
vn 0.02590299 5.425242E-08 0.9996647
vn 0.02590295 6.535441E-08 0.9996647
vn 0.02590297 3.827422E-08 0.9996647
vn 0.02590297 3.827422E-08 0.9996647
vn 0.02590295 6.535441E-08 0.9996647
vn 0.02590295 4.143313E-08 0.9996647
vn 0.02590297 3.827422E-08 0.9996647
vn 0.02590295 4.143313E-08 0.9996647
vn 0.02590297 -2.734873E-15 0.9996647
vn 0.02590299 5.425242E-08 0.9996647
vn 0.02590297 3.827422E-08 0.9996647
vn 0.02590299 3.033113E-08 0.9996647
vn 0.02590299 3.033113E-08 0.9996647
vn 0.02590297 3.827422E-08 0.9996647
vn 0.02590297 2.734873E-15 0.9996647
vn -0.02590287 5.469746E-15 -0.9996647
vn -0.02590291 6.066227E-08 -0.9996647
vn -0.02590297 4.340193E-08 -0.9996647
vn -0.02590297 4.340193E-08 -0.9996647
vn -0.02590291 6.066227E-08 -0.9996647
vn -0.02590292 1.085048E-07 -0.9996647
vn -0.02590297 4.340193E-08 -0.9996647
vn -0.02590292 1.085048E-07 -0.9996647
vn -0.02590298 4.784257E-08 -0.9996647
vn -0.02590306 0 -0.9996647
vn -0.02590297 4.340193E-08 -0.9996647
vn -0.02590306 0 -0.9996647
vn -0.02590306 0 -0.9996647
vn -0.02590297 4.340193E-08 -0.9996647
vn -0.02590298 4.784257E-08 -0.9996647
vn 0.7068701 -0.7071064 -0.01831626
vn 0.7068701 -0.7071064 -0.01831626
vn 0.7068701 -0.7071064 -0.01831626
vn 0.7068701 -0.7071064 -0.01831626
vn 0.7068701 -0.7071064 -0.01831626
vn 0.7068701 -0.7071064 -0.01831626
vn 0.9996647 0 -0.02590306
vn 0.9996647 0 -0.02590306
vn 0.9996647 0 -0.02590306
vn 0.9996647 0 -0.02590306
vn 0.9996647 0 -0.02590306
vn 0.9996647 0 -0.02590306
vn -0.02590297 2.734873E-15 -0.9996647
vn -0.02590295 -4.143313E-08 -0.9996647
vn -0.02590297 -3.827422E-08 -0.9996647
vn -0.02590297 -3.827422E-08 -0.9996647
vn -0.02590295 -4.143313E-08 -0.9996647
vn -0.02590295 -6.535441E-08 -0.9996647
vn -0.02590297 -3.827422E-08 -0.9996647
vn -0.02590295 -6.535441E-08 -0.9996647
vn -0.02590299 -5.425242E-08 -0.9996647
vn -0.02590299 -5.425242E-08 -0.9996647
vn -0.02590301 -6.066227E-08 -0.9996647
vn -0.02590297 -3.827422E-08 -0.9996647
vn -0.02590297 -3.827422E-08 -0.9996647
vn -0.02590297 -2.734873E-15 -0.9996647
vn -0.02590297 -2.734873E-15 -0.9996647
vn 0.02590298 -4.784257E-08 0.9996647
vn 0.02590292 -1.085048E-07 0.9996647
vn 0.02590297 -4.340193E-08 0.9996647
vn 0.02590297 -4.340193E-08 0.9996647
vn 0.02590292 -1.085048E-07 0.9996647
vn 0.02590291 -6.066227E-08 0.9996647
vn 0.02590297 -4.340193E-08 0.9996647
vn 0.02590291 -6.066227E-08 0.9996647
vn 0.02590287 -5.469746E-15 0.9996647
vn 0.02590306 0 0.9996647
vn 0.02590306 0 0.9996647
vn 0.02590297 -4.340193E-08 0.9996647
vn 0.02590297 -4.340193E-08 0.9996647
vn 0.02590306 0 0.9996647
vn 0.02590298 -4.784257E-08 0.9996647
vn 0.02590296 2.719521E-08 0.9996647
vn 0.02590295 0 0.9996647
vn 0.02590296 7.993606E-14 0.9996647
vn 0.02590296 7.993606E-14 0.9996647
vn 0.02590295 0 0.9996647
vn 0.02590296 -2.719505E-08 0.9996647
vn 0.02590296 7.993606E-14 0.9996647
vn 0.02590296 -2.719505E-08 0.9996647
vn 0.02590298 -5.43901E-08 0.9996647
vn 0.7634574 -0.5659758 0.3111337
vn 0.7543998 -0.5258936 0.3928323
vn 0.7543998 -0.5258936 0.3928323
vn 0.7543998 -0.5258936 0.3928323
vn 0.7543998 -0.5258936 0.3928323
vn 0.7390326 -0.4814131 0.4712454
vn 0.02590296 2.719521E-08 0.9996647
vn 0.02590296 7.993606E-14 0.9996647
vn 0.02590298 5.439042E-08 0.9996647
vn 0.7916623 -0.51882 0.3226405
vn 0.7555379 -0.5243173 0.3927519
vn 0.7555379 -0.5243173 0.3927519
vn 0.7555379 -0.5243173 0.3927519
vn 0.7555379 -0.5243173 0.3927519
vn 0.7146907 -0.5265372 0.4604085
vn 0.02590298 5.439011E-08 0.9996647
vn 0.02590296 2.719506E-08 0.9996647
vn 0.02590296 -7.549517E-14 0.9996647
vn 0.02590296 -7.549517E-14 0.9996647
vn 0.02590296 2.719506E-08 0.9996647
vn 0.02590295 0 0.9996647
vn 0.02590296 -7.549517E-14 0.9996647
vn 0.02590295 0 0.9996647
vn 0.02590296 -2.719521E-08 0.9996647
vn 0.02590298 -5.439042E-08 0.9996647
vn 0.02590296 -7.549517E-14 0.9996647
vn 0.02590296 -2.719521E-08 0.9996647
vn 0.9996647 0 -0.02590306
vn 0.9996647 0 -0.02590306
vn 0.9996647 0 -0.02590306
vn 0.9996647 0 -0.02590306
vn 0.9996647 0 -0.02590306
vn 0.9996647 0 -0.02590306
vn 0.7068701 -0.7071064 -0.01831626
vn 0.7068701 -0.7071064 -0.01831626
vn 0.7068701 -0.7071064 -0.01831626
vn 0.7068701 -0.7071064 -0.01831626
vn 0.7068701 -0.7071064 -0.01831626
vn 0.7068701 -0.7071064 -0.01831626
vn -0.02590299 5.425242E-08 -0.9996647
vn -0.02590295 6.535441E-08 -0.9996647
vn -0.02590297 3.827422E-08 -0.9996647
vn -0.02590297 3.827422E-08 -0.9996647
vn -0.02590295 6.535441E-08 -0.9996647
vn -0.02590292 8.286625E-08 -0.9996647
vn -0.02590297 3.827422E-08 -0.9996647
vn -0.02590297 -2.734873E-15 -0.9996647
vn -0.02590297 -2.734873E-15 -0.9996647
vn -0.02590299 5.425242E-08 -0.9996647
vn -0.02590297 3.827422E-08 -0.9996647
vn -0.02590299 3.033113E-08 -0.9996647
vn -0.02590299 3.033113E-08 -0.9996647
vn -0.02590297 3.827422E-08 -0.9996647
vn -0.02590297 2.734873E-15 -0.9996647
vn 0.02590287 5.469746E-15 0.9996647
vn 0.02590287 5.469746E-15 0.9996647
vn 0.02590297 4.340193E-08 0.9996647
vn 0.02590297 4.340193E-08 0.9996647
vn 0.02590294 1.213245E-07 0.9996647
vn 0.02590292 1.085048E-07 0.9996647
vn 0.02590297 4.340193E-08 0.9996647
vn 0.02590292 1.085048E-07 0.9996647
vn 0.02590298 4.784257E-08 0.9996647
vn 0.02590306 0 0.9996647
vn 0.02590297 4.340193E-08 0.9996647
vn 0.02590306 0 0.9996647
vn 0.02590306 0 0.9996647
vn 0.02590297 4.340193E-08 0.9996647
vn 0.02590298 4.784257E-08 0.9996647
vn 0.9996647 0 -0.02590306
vn 0.9996647 0 -0.02590306
vn 0.9996647 0 -0.02590306
vn 0.9996647 0 -0.02590306
vn 0.9996647 0 -0.02590306
vn 0.9996647 0 -0.02590306
vn 0.7068701 -0.7071064 -0.01831626
vn 0.7068701 -0.7071064 -0.01831626
vn 0.7068701 -0.7071064 -0.01831626
vn 0.7068701 -0.7071064 -0.01831626
vn 0.7068701 -0.7071064 -0.01831626
vn 0.7068701 -0.7071064 -0.01831626
vn 0.02590297 2.734873E-15 0.9996647
vn 0.02590297 2.734873E-15 0.9996647
vn 0.02590297 -3.827422E-08 0.9996647
vn 0.02590297 -3.827422E-08 0.9996647
vn 0.02590292 -8.286625E-08 0.9996647
vn 0.02590295 -6.535441E-08 0.9996647
vn 0.02590297 -3.827422E-08 0.9996647
vn 0.02590295 -6.535441E-08 0.9996647
vn 0.02590299 -5.425242E-08 0.9996647
vn 0.02590299 -5.425242E-08 0.9996647
vn 0.02590299 -3.033113E-08 0.9996647
vn 0.02590297 -3.827422E-08 0.9996647
vn 0.02590297 -3.827422E-08 0.9996647
vn 0.02590299 -3.033113E-08 0.9996647
vn 0.02590297 -2.734873E-15 0.9996647
vn -0.02590298 -4.784257E-08 -0.9996647
vn -0.02590292 -1.085048E-07 -0.9996647
vn -0.02590297 -4.340193E-08 -0.9996647
vn -0.02590297 -4.340193E-08 -0.9996647
vn -0.02590292 -1.085048E-07 -0.9996647
vn -0.02590294 -1.213245E-07 -0.9996647
vn -0.02590297 -4.340193E-08 -0.9996647
vn -0.02590287 -5.469746E-15 -0.9996647
vn -0.02590287 -5.469746E-15 -0.9996647
vn -0.02590306 0 -0.9996647
vn -0.02590306 0 -0.9996647
vn -0.02590297 -4.340193E-08 -0.9996647
vn -0.02590297 -4.340193E-08 -0.9996647
vn -0.02590306 0 -0.9996647
vn -0.02590298 -4.784257E-08 -0.9996647
vn 0.6898882 -0.5265375 -0.4968024
vn 0.7341843 -0.5243177 -0.431352
vn 0.7341843 -0.5243177 -0.431352
vn 0.7341843 -0.5243177 -0.431352
vn 0.7341843 -0.5243177 -0.431352
vn 0.7738913 -0.5188203 -0.3632053
vn -0.02590296 2.719521E-08 -0.9996647
vn -0.02590295 0 -0.9996647
vn -0.02590296 7.993606E-14 -0.9996647
vn -0.02590296 7.993606E-14 -0.9996647
vn -0.02590295 0 -0.9996647
vn -0.02590296 -2.719505E-08 -0.9996647
vn -0.02590296 7.993606E-14 -0.9996647
vn -0.02590296 -2.719505E-08 -0.9996647
vn -0.02590298 -5.43901E-08 -0.9996647
vn -0.02590296 2.719521E-08 -0.9996647
vn -0.02590296 7.993606E-14 -0.9996647
vn -0.02590298 5.439042E-08 -0.9996647
vn 0.7575066 -0.6525326 -0.01962833
vn 0.7575066 -0.6525326 -0.01962833
vn 0.7575066 -0.6525326 -0.01962833
vn 0.7575066 -0.6525326 -0.01962833
vn 0.7575066 -0.6525326 -0.01962833
vn 0.7575066 -0.6525326 -0.01962833
vn 0.7575066 -0.6525326 -0.01962833
vn 0.7575066 -0.6525326 -0.01962833
vn 0.7575066 -0.6525326 -0.01962833
vn 0.5578457 0.7892007 0.2568473
vn 0.6129265 0.7113488 0.3439537
vn 0.6129265 0.7113488 0.3439537
vn -0.05058166 0.9436073 0.3271799
vn -0.074323 0.9561694 0.2832248
vn 0.08423109 0.9197006 0.3834788
vn -0.05058166 0.9436073 0.3271799
vn 0.08423109 0.9197006 0.3834788
vn 0.2227655 0.9226547 0.3147761
vn 0.2227655 0.9226547 0.3147761
vn 0.08423109 0.9197006 0.3834788
vn 0.3132532 0.938996 0.1419825
vn 0.2227655 0.9226547 0.3147761
vn 0.3132532 0.938996 0.1419825
vn 0.3143476 0.9481469 -0.04693489
vn 0.3143476 0.9481469 -0.04693489
vn 0.3132532 0.938996 0.1419825
vn 0.3194718 0.9470893 -0.030979
vn 0.3143476 0.9481469 -0.04693489
vn 0.3194718 0.9470893 -0.030979
vn 0.3025128 0.9313841 -0.2025084
vn 0.3025128 0.9313841 -0.2025084
vn 0.3194718 0.9470893 -0.030979
vn 0.3665076 0.9225373 -0.120819
vn 0.3025128 0.9313841 -0.2025084
vn 0.3665076 0.9225373 -0.120819
vn 0.2958987 0.9311686 -0.2130003
vn 0.2910463 0.8985661 0.3284374
vn 0.517417 0.7836077 0.3438587
vn 0.517417 0.7836077 0.3438587
vn 0.3175567 0.6719767 -0.669033
vn 0.3175567 0.6719767 -0.669033
vn 0.3175567 0.6719767 -0.669033
vn 0.2354297 0.9718605 -0.007745927
vn 0.3719526 0.9222555 0.1053378
vn 0.3143476 0.9481469 -0.04693489
vn 0.3143476 0.9481469 -0.04693489
vn 0.3719526 0.9222555 0.1053378
vn 0.3012099 0.8710576 0.3879835
vn 0.3143476 0.9481469 -0.04693489
vn 0.3012099 0.8710576 0.3879835
vn 0.4008923 0.8251912 0.3979258
vn 0.4008923 0.8251912 0.3979258
vn 0.3012099 0.8710576 0.3879835
vn 0.3275768 0.8309204 0.4497385
vn 0.4008923 0.8251912 0.3979258
vn 0.3275768 0.8309204 0.4497385
vn 0.5578457 0.7892007 0.2568473
vn 0.9730551 -0.2291905 -0.02521361
vn 0.9730551 -0.2291905 -0.02521361
vn 0.9730551 -0.2291905 -0.02521361
vn 0.9730551 -0.2291905 -0.02521361
vn 0.9730551 -0.2291905 -0.02521361
vn 0.9730551 -0.2291905 -0.02521361
vn 0.9730551 -0.2291905 -0.02521361
vn 0.9730551 -0.2291905 -0.02521361
vn 0.9730551 -0.2291905 -0.02521361
vn 0.02467892 -0.3037732 0.9524248
vn 0.02467893 -0.303773 0.9524249
vn 0.02467893 -0.3037729 0.9524249
vn 0 1 0
vn 0 1 0
vn 0 1 0
vn 0 1 0
vn 0 1 0
vn 0 1 0
vn 0 1 0
vn 0 1 0
vn 0 1 0
vn -0.02467893 -0.3037729 -0.9524249
vn -0.02467893 -0.3037728 -0.9524249
vn -0.02467891 -0.3037727 -0.9524249
vn 0.9730551 -0.2291905 -0.02521361
vn 0.9730551 -0.2291905 -0.02521361
vn 0.9730551 -0.2291905 -0.02521361
vn 0.3132532 0.938996 0.1419825
vn 0.2493815 0.9485973 0.1948641
vn 0.3194718 0.9470893 -0.030979
vn 0.3194718 0.9470893 -0.030979
vn 0.2493815 0.9485973 0.1948641
vn 0.3337719 0.9310409 0.1475104
vn 0.3194718 0.9470893 -0.030979
vn 0.3337719 0.9310409 0.1475104
vn 0.3665076 0.9225373 -0.120819
vn 0.3143476 0.9481469 -0.04693489
vn 0.3025128 0.9313841 -0.2025084
vn 0.2354297 0.9718605 -0.007745927
vn 0.2354297 0.9718605 -0.007745927
vn 0.3025128 0.9313841 -0.2025084
vn 0.2958987 0.9311686 -0.2130003
vn 0.2354297 0.9718605 -0.007745927
vn 0.04584583 0.95539 0.2917673
vn 0.2910463 0.8985661 0.3284374
vn 0.7575066 -0.6525326 -0.01962833
vn 0.7575066 -0.6525326 -0.01962833
vn 0.7575066 -0.6525326 -0.01962833
vn -0.1216903 0.9248908 -0.3602342
vn 0.3143476 0.9481469 -0.04693489
vn -0.1216903 0.9248908 -0.3602342
vn 0.5878575 0.6938584 -0.4159136
vn 0.3143476 0.9481469 -0.04693489
vn 0.5878575 0.6938584 -0.4159136
vn 0.6441077 0.7127067 0.2778033
vn 0.4008923 0.8251912 0.3979258
vn 0.5578457 0.7892007 0.2568473
s 1
f 3/3/3 2/2/2 1/1/1
f 6/6/6 5/5/5 4/4/4
f 9/9/9 8/8/8 7/7/7
f 12/12/12 11/11/11 10/10/10
f 15/15/15 14/14/14 13/13/13
f 18/18/18 17/17/17 16/16/16
f 21/21/21 20/20/20 19/19/19
f 24/24/24 23/23/23 22/22/22
f 27/27/27 26/26/26 25/25/25
f 30/30/30 29/29/29 28/28/28
f 33/33/33 32/32/32 31/31/31
f 36/36/36 35/35/35 34/34/34
f 39/39/39 38/38/38 37/37/37
f 42/42/42 41/41/41 40/40/40
f 45/45/45 44/44/44 43/43/43
f 48/48/48 47/47/47 46/46/46
f 51/51/51 50/50/50 49/49/49
f 54/54/54 53/53/53 52/52/52
f 57/57/57 56/56/56 55/55/55
f 60/60/60 59/59/59 58/58/58
f 63/63/63 62/62/62 61/61/61
f 66/66/66 65/65/65 64/64/64
f 69/69/69 68/68/68 67/67/67
f 72/72/72 71/71/71 70/70/70
f 75/75/75 74/74/74 73/73/73
f 78/78/78 77/77/77 76/76/76
f 81/81/81 80/80/80 79/79/79
f 84/84/84 83/83/83 82/82/82
f 87/87/87 86/86/86 85/85/85
f 90/90/90 89/89/89 88/88/88
f 93/93/93 92/92/92 91/91/91
f 96/96/96 95/95/95 94/94/94
f 99/99/99 98/98/98 97/97/97
f 102/102/102 101/101/101 100/100/100
f 105/105/105 104/104/104 103/103/103
f 108/108/108 107/107/107 106/106/106
f 111/111/111 110/110/110 109/109/109
f 114/114/114 113/113/113 112/112/112
f 117/117/117 116/116/116 115/115/115
f 120/120/120 119/119/119 118/118/118
f 123/123/123 122/122/122 121/121/121
f 126/126/126 125/125/125 124/124/124
f 129/129/129 128/128/128 127/127/127
f 132/132/132 131/131/131 130/130/130
f 135/135/135 134/134/134 133/133/133
f 138/138/138 137/137/137 136/136/136
f 141/141/141 140/140/140 139/139/139
f 144/144/144 143/143/143 142/142/142
f 147/147/147 146/146/146 145/145/145
f 150/150/150 149/149/149 148/148/148
f 153/153/153 152/152/152 151/151/151
f 156/156/156 155/155/155 154/154/154
f 159/159/159 158/158/158 157/157/157
f 162/162/162 161/161/161 160/160/160
f 165/165/165 164/164/164 163/163/163
f 168/168/168 167/167/167 166/166/166
f 171/171/171 170/170/170 169/169/169
f 174/174/174 173/173/173 172/172/172
f 177/177/177 176/176/176 175/175/175
f 180/180/180 179/179/179 178/178/178
f 183/183/183 182/182/182 181/181/181
f 186/186/186 185/185/185 184/184/184
f 189/189/189 188/188/188 187/187/187
f 192/192/192 191/191/191 190/190/190
f 195/195/195 194/194/194 193/193/193
f 198/198/198 197/197/197 196/196/196
f 201/201/201 200/200/200 199/199/199
f 204/204/204 203/203/203 202/202/202
f 207/207/207 206/206/206 205/205/205
f 210/210/210 209/209/209 208/208/208
f 213/213/213 212/212/212 211/211/211
f 216/216/216 215/215/215 214/214/214
f 219/219/219 218/218/218 217/217/217
f 222/222/222 221/221/221 220/220/220
f 225/225/225 224/224/224 223/223/223
f 228/228/228 227/227/227 226/226/226
f 231/231/231 230/230/230 229/229/229
f 234/234/234 233/233/233 232/232/232
f 237/237/237 236/236/236 235/235/235
f 240/240/240 239/239/239 238/238/238
f 243/243/243 242/242/242 241/241/241
f 246/246/246 245/245/245 244/244/244
f 249/249/249 248/248/248 247/247/247
f 252/252/252 251/251/251 250/250/250
f 255/255/255 254/254/254 253/253/253
f 258/258/258 257/257/257 256/256/256
f 261/261/261 260/260/260 259/259/259
f 264/264/264 263/263/263 262/262/262
f 267/267/267 266/266/266 265/265/265
f 270/270/270 269/269/269 268/268/268
f 273/273/273 272/272/272 271/271/271
f 276/276/276 275/275/275 274/274/274
f 279/279/279 278/278/278 277/277/277
f 282/282/282 281/281/281 280/280/280
f 285/285/285 284/284/284 283/283/283
f 288/288/288 287/287/287 286/286/286
f 291/291/291 290/290/290 289/289/289
f 294/294/294 293/293/293 292/292/292
f 297/297/297 296/296/296 295/295/295
f 300/300/300 299/299/299 298/298/298
f 303/303/303 302/302/302 301/301/301
f 306/306/306 305/305/305 304/304/304
f 309/309/309 308/308/308 307/307/307
f 312/312/312 311/311/311 310/310/310
f 315/315/315 314/314/314 313/313/313
f 318/318/318 317/317/317 316/316/316
f 321/321/321 320/320/320 319/319/319
f 324/324/324 323/323/323 322/322/322
f 327/327/327 326/326/326 325/325/325
f 330/330/330 329/329/329 328/328/328
f 333/333/333 332/332/332 331/331/331
f 336/336/336 335/335/335 334/334/334
f 339/339/339 338/338/338 337/337/337
f 342/342/342 341/341/341 340/340/340
f 345/345/345 344/344/344 343/343/343
f 348/348/348 347/347/347 346/346/346
f 351/351/351 350/350/350 349/349/349
f 354/354/354 353/353/353 352/352/352
f 357/357/357 356/356/356 355/355/355
f 360/360/360 359/359/359 358/358/358
f 363/363/363 362/362/362 361/361/361
f 366/366/366 365/365/365 364/364/364
f 369/369/369 368/368/368 367/367/367
f 372/372/372 371/371/371 370/370/370
f 375/375/375 374/374/374 373/373/373
f 378/378/378 377/377/377 376/376/376
f 381/381/381 380/380/380 379/379/379
f 384/384/384 383/383/383 382/382/382
f 387/387/387 386/386/386 385/385/385
f 390/390/390 389/389/389 388/388/388
f 393/393/393 392/392/392 391/391/391
f 396/396/396 395/395/395 394/394/394
f 399/399/399 398/398/398 397/397/397
f 402/402/402 401/401/401 400/400/400
f 405/405/405 404/404/404 403/403/403
f 408/408/408 407/407/407 406/406/406
f 411/411/411 410/410/410 409/409/409
f 414/414/414 413/413/413 412/412/412
f 417/417/417 416/416/416 415/415/415
f 420/420/420 419/419/419 418/418/418
f 423/423/423 422/422/422 421/421/421
f 426/426/426 425/425/425 424/424/424
f 429/429/429 428/428/428 427/427/427
f 432/432/432 431/431/431 430/430/430
f 435/435/435 434/434/434 433/433/433
f 438/438/438 437/437/437 436/436/436
f 441/441/441 440/440/440 439/439/439
f 444/444/444 443/443/443 442/442/442
f 447/447/447 446/446/446 445/445/445
f 450/450/450 449/449/449 448/448/448
f 453/453/453 452/452/452 451/451/451
f 456/456/456 455/455/455 454/454/454
f 459/459/459 458/458/458 457/457/457
f 462/462/462 461/461/461 460/460/460
f 465/465/465 464/464/464 463/463/463
f 468/468/468 467/467/467 466/466/466
f 471/471/471 470/470/470 469/469/469
f 474/474/474 473/473/473 472/472/472
f 477/477/477 476/476/476 475/475/475
f 480/480/480 479/479/479 478/478/478
f 483/483/483 482/482/482 481/481/481
f 486/486/486 485/485/485 484/484/484
f 489/489/489 488/488/488 487/487/487
f 492/492/492 491/491/491 490/490/490
f 495/495/495 494/494/494 493/493/493
f 498/498/498 497/497/497 496/496/496
f 501/501/501 500/500/500 499/499/499
f 504/504/504 503/503/503 502/502/502
f 507/507/507 506/506/506 505/505/505
f 510/510/510 509/509/509 508/508/508
f 513/513/513 512/512/512 511/511/511
f 516/516/516 515/515/515 514/514/514
f 519/519/519 518/518/518 517/517/517
f 522/522/522 521/521/521 520/520/520
f 525/525/525 524/524/524 523/523/523
f 528/528/528 527/527/527 526/526/526
f 531/531/531 530/530/530 529/529/529
f 534/534/534 533/533/533 532/532/532
f 537/537/537 536/536/536 535/535/535
f 540/540/540 539/539/539 538/538/538
f 543/543/543 542/542/542 541/541/541
f 546/546/546 545/545/545 544/544/544
f 549/549/549 548/548/548 547/547/547
f 552/552/552 551/551/551 550/550/550
f 555/555/555 554/554/554 553/553/553
f 558/558/558 557/557/557 556/556/556
f 561/561/561 560/560/560 559/559/559
f 564/564/564 563/563/563 562/562/562
f 567/567/567 566/566/566 565/565/565
f 570/570/570 569/569/569 568/568/568
f 573/573/573 572/572/572 571/571/571
f 576/576/576 575/575/575 574/574/574
f 579/579/579 578/578/578 577/577/577
f 582/582/582 581/581/581 580/580/580
f 585/585/585 584/584/584 583/583/583
f 588/588/588 587/587/587 586/586/586
f 591/591/591 590/590/590 589/589/589
f 594/594/594 593/593/593 592/592/592
f 597/597/597 596/596/596 595/595/595
f 600/600/600 599/599/599 598/598/598
f 603/603/603 602/602/602 601/601/601
f 606/606/606 605/605/605 604/604/604
f 609/609/609 608/608/608 607/607/607
f 612/612/612 611/611/611 610/610/610
f 615/615/615 614/614/614 613/613/613
f 618/618/618 617/617/617 616/616/616
f 621/621/621 620/620/620 619/619/619
f 624/624/624 623/623/623 622/622/622
f 627/627/627 626/626/626 625/625/625
f 630/630/630 629/629/629 628/628/628
f 633/633/633 632/632/632 631/631/631
f 636/636/636 635/635/635 634/634/634
f 639/639/639 638/638/638 637/637/637
